<svg width="387" height="408" viewBox="0 0 387 408" fill="none" xmlns="http://www.w3.org/2000/svg">
<g opacity="0.3" clip-path="url(#clip0_35_6393)">
<mask id="mask0_35_6393" style="mask-type:alpha" maskUnits="userSpaceOnUse" x="69" y="178" width="762" height="544">
<path fill-rule="evenodd" clip-rule="evenodd" d="M341.717 614.595V722C191.496 722 69.7175 600.221 69.7175 450C69.7175 299.779 191.496 178 341.717 178C430.078 178 508.598 220.133 558.283 285.405V178C708.504 178 830.283 299.779 830.283 450C830.283 600.221 708.504 722 558.283 722C469.922 722 391.402 679.867 341.717 614.595ZM180.587 450C180.587 361.01 252.728 288.87 341.717 288.87C430.707 288.87 502.848 361.01 502.848 450H613.717C613.717 389.702 594.097 333.987 560.892 288.89C648.678 290.284 719.413 361.881 719.413 450C719.413 538.99 647.273 611.13 558.283 611.13C469.293 611.13 397.152 538.99 397.152 450H286.283C286.283 510.298 305.903 566.013 339.108 611.11C251.322 609.716 180.587 538.118 180.587 450Z" fill="url(#paint0_linear_35_6393)"/>
</mask>
<g mask="url(#mask0_35_6393)">
<g filter="url(#filter0_ii_35_6393)">
<path fill-rule="evenodd" clip-rule="evenodd" d="M180.587 450C180.587 361.01 252.728 288.87 341.717 288.87C430.707 288.87 502.848 361.01 502.848 450H613.717C613.717 389.702 594.097 333.987 560.892 288.89C648.678 290.284 719.413 361.881 719.413 450C719.413 538.99 647.273 611.13 558.283 611.13C469.293 611.13 397.152 538.99 397.152 450H286.283C286.283 510.298 305.903 566.013 339.108 611.11C251.322 609.716 180.587 538.118 180.587 450ZM341.717 614.595V722C191.496 722 69.7175 600.221 69.7175 450C69.7175 299.779 191.496 178 341.717 178C430.078 178 508.598 220.133 558.283 285.405V178C708.504 178 830.283 299.779 830.283 450C830.283 600.221 708.504 722 558.283 722C469.922 722 391.402 679.867 341.717 614.595Z" fill="url(#paint1_radial_35_6393)"/>
<path fill-rule="evenodd" clip-rule="evenodd" d="M180.587 450C180.587 361.01 252.728 288.87 341.717 288.87C430.707 288.87 502.848 361.01 502.848 450H613.717C613.717 389.702 594.097 333.987 560.892 288.89C648.678 290.284 719.413 361.881 719.413 450C719.413 538.99 647.273 611.13 558.283 611.13C469.293 611.13 397.152 538.99 397.152 450H286.283C286.283 510.298 305.903 566.013 339.108 611.11C251.322 609.716 180.587 538.118 180.587 450ZM341.717 614.595V722C191.496 722 69.7175 600.221 69.7175 450C69.7175 299.779 191.496 178 341.717 178C430.078 178 508.598 220.133 558.283 285.405V178C708.504 178 830.283 299.779 830.283 450C830.283 600.221 708.504 722 558.283 722C469.922 722 391.402 679.867 341.717 614.595Z" fill="#1F2E7E" fill-opacity="0.2"/>
</g>
</g>
</g>
<defs>
<filter id="filter0_ii_35_6393" x="52.0605" y="178" width="803.574" height="574.9" filterUnits="userSpaceOnUse" color-interpolation-filters="sRGB">
<feFlood flood-opacity="0" result="BackgroundImageFix"/>
<feBlend mode="normal" in="SourceGraphic" in2="BackgroundImageFix" result="shape"/>
<feColorMatrix in="SourceAlpha" type="matrix" values="0 0 0 0 0 0 0 0 0 0 0 0 0 0 0 0 0 0 127 0" result="hardAlpha"/>
<feOffset dx="-17.657" dy="30.8998"/>
<feGaussianBlur stdDeviation="37.5212"/>
<feComposite in2="hardAlpha" operator="arithmetic" k2="-1" k3="1"/>
<feColorMatrix type="matrix" values="0 0 0 0 1 0 0 0 0 1 0 0 0 0 1 0 0 0 0.87 0"/>
<feBlend mode="lighten" in2="shape" result="effect1_innerShadow_35_6393"/>
<feColorMatrix in="SourceAlpha" type="matrix" values="0 0 0 0 0 0 0 0 0 0 0 0 0 0 0 0 0 0 127 0" result="hardAlpha"/>
<feOffset dx="25.3522" dy="14.7888"/>
<feGaussianBlur stdDeviation="14.7888"/>
<feComposite in2="hardAlpha" operator="arithmetic" k2="-1" k3="1"/>
<feColorMatrix type="matrix" values="0 0 0 0 0.168627 0 0 0 0 0.180392 0 0 0 0 0.239216 0 0 0 0.9 0"/>
<feBlend mode="multiply" in2="effect1_innerShadow_35_6393" result="effect2_innerShadow_35_6393"/>
</filter>
<linearGradient id="paint0_linear_35_6393" x1="154" y1="622" x2="751.27" y2="309.611" gradientUnits="userSpaceOnUse">
<stop offset="0.132716" stop-opacity="0"/>
<stop offset="1"/>
</linearGradient>
<radialGradient id="paint1_radial_35_6393" cx="0" cy="0" r="1" gradientUnits="userSpaceOnUse" gradientTransform="translate(254.067 133.601) rotate(87.2124) scale(193.986 504.314)">
<stop stop-color="#949494"/>
<stop offset="0.635171" stop-color="#181818"/>
<stop offset="1" stop-color="#1D1D1D"/>
</radialGradient>
<clipPath id="clip0_35_6393">
<rect width="529" height="408" fill="white"/>
</clipPath>
</defs>
</svg>
