<svg width="716" height="236" viewBox="0 0 716 236" fill="none" xmlns="http://www.w3.org/2000/svg">
<path d="M30.5 213C43.3333 183.667 91.8 123.6 183 118C297 111 658.5 142.5 713.5 1" stroke="url(#paint0_linear_160_17483)" stroke-opacity="0.5" stroke-width="4" stroke-dasharray="11 11"/>
<path fill-rule="evenodd" clip-rule="evenodd" d="M27.8231 220.739C27.7097 217.924 27.6065 214.39 27.5831 213.99C26.9488 203.131 24.664 192.953 20.8127 182.756C20.5012 181.928 19.5733 181.51 18.7453 181.821C17.9173 182.133 17.4993 183.061 17.8108 183.889C21.5487 193.775 23.7672 203.646 24.3811 214.179C24.4173 214.793 24.6444 222.737 24.811 224.34C24.8763 224.998 25.1176 225.35 25.1824 225.428C25.511 225.853 25.8999 225.992 26.2184 226.04C26.5785 226.092 27.1936 226.032 27.8191 225.536C28.4716 225.014 29.5534 223.606 29.8552 223.272C34.4225 218.254 39.0828 212.255 44.513 207.592C49.6913 203.145 55.577 199.908 62.8397 200.174C63.7239 200.207 64.4678 199.512 64.5009 198.628C64.534 197.744 63.8396 197 62.9555 196.967C54.8355 196.672 48.2115 200.188 42.4245 205.157C37.0269 209.794 32.3647 215.708 27.8231 220.739Z" fill="#96FB4A"/>
<defs>
<linearGradient id="paint0_linear_160_17483" x1="30.7367" y1="1" x2="713.5" y2="1" gradientUnits="userSpaceOnUse">
<stop stop-color="#96FB4A"/>
<stop offset="0.5" stop-color="#96FB4A"/>
<stop offset="1" stop-color="#96FB4A" stop-opacity="0"/>
</linearGradient>
</defs>
</svg>
