<svg width="50" height="51" viewBox="0 0 50 51" fill="none" xmlns="http://www.w3.org/2000/svg">
<circle cx="25" cy="25.7285" r="25" fill="#96FB4A"/>
<path fill-rule="evenodd" clip-rule="evenodd" d="M14.5 20.8535C14.5 19.8175 15.34 18.9785 16.375 18.9785H22.375C23.411 18.9785 24.25 19.8185 24.25 20.8535V24.6035C24.25 25.6395 23.41 26.4785 22.375 26.4785H16.375C15.8777 26.4785 15.4008 26.281 15.0492 25.9293C14.6975 25.5777 14.5 25.1008 14.5 24.6035V20.8535ZM26.5 22.3535C26.5 21.3175 27.34 20.4785 28.375 20.4785H33.625C34.66 20.4785 35.5 21.3185 35.5 22.3535V30.6035C35.5 31.6385 34.66 32.4785 33.625 32.4785H28.375C27.8777 32.4785 27.4008 32.281 27.0492 31.9293C26.6975 31.5777 26.5 31.1008 26.5 30.6035V22.3535ZM16 29.8535C16 28.8175 16.84 27.9785 17.875 27.9785H23.125C24.161 27.9785 25 28.8185 25 29.8535V32.1035C25 33.1385 24.16 33.9785 23.125 33.9785H17.875C17.3777 33.9785 16.9008 33.781 16.5492 33.4293C16.1975 33.0777 16 32.6008 16 32.1035V29.8535Z" fill="#021303"/>
</svg>
