<svg width="50" height="50" viewBox="0 0 50 50" fill="none" xmlns="http://www.w3.org/2000/svg">
<circle cx="25" cy="25" r="25" fill="#96FB4A"/>
<path fill-rule="evenodd" clip-rule="evenodd" d="M20.5 18.25C20.5 17.4544 20.8161 16.6913 21.3787 16.1287C21.9413 15.5661 22.7044 15.25 23.5 15.25H26.5C27.2956 15.25 28.0587 15.5661 28.6213 16.1287C29.1839 16.6913 29.5 17.4544 29.5 18.25V18.455C30.433 18.54 31.357 18.652 32.274 18.789C33.728 19.007 34.75 20.272 34.75 21.706V24.739C34.75 25.95 34.016 27.091 32.814 27.491C30.2938 28.3275 27.6554 28.7526 25 28.75C22.27 28.75 19.643 28.308 17.186 27.491C15.984 27.091 15.25 25.95 15.25 24.739V21.706C15.25 20.272 16.272 19.006 17.726 18.789C18.6473 18.6512 19.5723 18.5398 20.5 18.455V18.25ZM28 18.25V18.34C26.0018 18.2186 23.9982 18.2186 22 18.34V18.25C22 17.8522 22.158 17.4706 22.4393 17.1893C22.7206 16.908 23.1022 16.75 23.5 16.75H26.5C26.8978 16.75 27.2794 16.908 27.5607 17.1893C27.842 17.4706 28 17.8522 28 18.25ZM25 26.5C25.1989 26.5 25.3897 26.421 25.5303 26.2803C25.671 26.1397 25.75 25.9489 25.75 25.75C25.75 25.5511 25.671 25.3603 25.5303 25.2197C25.3897 25.079 25.1989 25 25 25C24.8011 25 24.6103 25.079 24.4697 25.2197C24.329 25.3603 24.25 25.5511 24.25 25.75C24.25 25.9489 24.329 26.1397 24.4697 26.2803C24.6103 26.421 24.8011 26.5 25 26.5Z" fill="#021303"/>
<path d="M16 31.4V28.604C16.2278 28.7287 16.4665 28.8324 16.713 28.914C19.3857 29.8014 22.1839 30.2525 25 30.25C27.892 30.25 30.68 29.782 33.287 28.915C33.539 28.831 33.777 28.726 34 28.604V31.4C34 32.852 32.953 34.128 31.477 34.323C29.357 34.605 27.195 34.75 25 34.75C22.834 34.7504 20.6702 34.6078 18.523 34.323C17.047 34.128 16 32.852 16 31.4Z" fill="#021303"/>
</svg>
