<svg width="50" height="50" viewBox="0 0 50 50" fill="none" xmlns="http://www.w3.org/2000/svg">
<circle cx="25" cy="25" r="25" fill="#96FB4A"/>
<path fill-rule="evenodd" clip-rule="evenodd" d="M21.9999 17.5C22.1629 17.5 22.3214 17.5531 22.4515 17.6513C22.5816 17.7495 22.6762 17.8873 22.7209 18.044L23.5339 20.89C23.709 21.5029 24.0374 22.0611 24.4881 22.5118C24.9388 22.9626 25.497 23.2909 26.1099 23.466L28.9559 24.279C29.1125 24.3239 29.2503 24.4185 29.3483 24.5486C29.4464 24.6786 29.4994 24.8371 29.4994 25C29.4994 25.1629 29.4464 25.3214 29.3483 25.4514C29.2503 25.5815 29.1125 25.6761 28.9559 25.721L26.1099 26.534C25.497 26.7091 24.9388 27.0374 24.4881 27.4882C24.0374 27.9389 23.709 28.4971 23.5339 29.11L22.7209 31.956C22.6761 32.1126 22.5815 32.2503 22.4514 32.3484C22.3213 32.4464 22.1628 32.4995 21.9999 32.4995C21.8371 32.4995 21.6786 32.4464 21.5485 32.3484C21.4184 32.2503 21.3238 32.1126 21.2789 31.956L20.4659 29.11C20.2909 28.4971 19.9625 27.9389 19.5118 27.4882C19.061 27.0374 18.5029 26.7091 17.8899 26.534L15.0439 25.721C14.8874 25.6761 14.7496 25.5815 14.6516 25.4514C14.5535 25.3214 14.5005 25.1629 14.5005 25C14.5005 24.8371 14.5535 24.6786 14.6516 24.5486C14.7496 24.4185 14.8874 24.3239 15.0439 24.279L17.8899 23.466C18.5029 23.2909 19.061 22.9626 19.5118 22.5118C19.9625 22.0611 20.2909 21.5029 20.4659 20.89L21.2789 18.044C21.3237 17.8873 21.4183 17.7495 21.5484 17.6513C21.6785 17.5531 21.837 17.5 21.9999 17.5ZM30.9999 14.5C31.1673 14.4999 31.3298 14.5558 31.4617 14.6587C31.5936 14.7616 31.6873 14.9057 31.7279 15.068L31.9859 16.104C32.2219 17.044 32.9559 17.778 33.8959 18.014L34.9319 18.272C35.0946 18.3123 35.239 18.4059 35.3423 18.5378C35.4455 18.6697 35.5016 18.8325 35.5016 19C35.5016 19.1675 35.4455 19.3303 35.3423 19.4622C35.239 19.5941 35.0946 19.6877 34.9319 19.728L33.8959 19.986C32.9559 20.222 32.2219 20.956 31.9859 21.896L31.7279 22.932C31.6877 23.0946 31.5941 23.2391 31.4621 23.3423C31.3302 23.4456 31.1675 23.5017 30.9999 23.5017C30.8324 23.5017 30.6697 23.4456 30.5377 23.3423C30.4058 23.2391 30.3122 23.0946 30.2719 22.932L30.0139 21.896C29.8986 21.4344 29.6599 21.0129 29.3235 20.6765C28.987 20.3401 28.5655 20.1014 28.1039 19.986L27.0679 19.728C26.9053 19.6877 26.7609 19.5941 26.6576 19.4622C26.5544 19.3303 26.4983 19.1675 26.4983 19C26.4983 18.8325 26.5544 18.6697 26.6576 18.5378C26.7609 18.4059 26.9053 18.3123 27.0679 18.272L28.1039 18.014C28.5655 17.8986 28.987 17.6599 29.3235 17.3235C29.6599 16.9871 29.8986 16.5656 30.0139 16.104L30.2719 15.068C30.3125 14.9057 30.4063 14.7616 30.5382 14.6587C30.6701 14.5558 30.8326 14.4999 30.9999 14.5ZM29.4999 28C29.6575 27.9999 29.811 28.0494 29.9388 28.1415C30.0666 28.2336 30.1622 28.3636 30.2119 28.513L30.6059 29.696C30.7559 30.143 31.1059 30.495 31.5539 30.644L32.7369 31.039C32.8859 31.089 33.0154 31.1845 33.1071 31.3121C33.1989 31.4397 33.2482 31.5929 33.2482 31.75C33.2482 31.9071 33.1989 32.0603 33.1071 32.1879C33.0154 32.3155 32.8859 32.411 32.7369 32.461L31.5539 32.856C31.1069 33.006 30.7549 33.356 30.6059 33.804L30.2109 34.987C30.1609 35.136 30.0654 35.2655 29.9378 35.3572C29.8103 35.4489 29.6571 35.4983 29.4999 35.4983C29.3428 35.4983 29.1896 35.4489 29.0621 35.3572C28.9345 35.2655 28.839 35.136 28.7889 34.987L28.3939 33.804C28.3203 33.5833 28.1963 33.3827 28.0318 33.2182C27.8672 33.0537 27.6667 32.9297 27.4459 32.856L26.2629 32.461C26.114 32.411 25.9845 32.3155 25.8927 32.1879C25.801 32.0603 25.7516 31.9071 25.7516 31.75C25.7516 31.5929 25.801 31.4397 25.8927 31.3121C25.9845 31.1845 26.114 31.089 26.2629 31.039L27.4459 30.644C27.8929 30.494 28.2449 30.144 28.3939 29.696L28.7889 28.513C28.8387 28.3637 28.9341 28.2339 29.0617 28.1418C29.1893 28.0497 29.3426 28.0001 29.4999 28Z" fill="#021303"/>
</svg>
