<svg width="50" height="50" viewBox="0 0 50 50" fill="none" xmlns="http://www.w3.org/2000/svg">
<circle cx="25" cy="25" r="25" fill="#96FB4A"/>
<path fill-rule="evenodd" clip-rule="evenodd" d="M18.625 14.5H22C22.9946 14.5 23.9484 14.8951 24.6517 15.5983C25.3549 16.3016 25.75 17.2554 25.75 18.25V20.125C25.75 21.161 26.59 22 27.625 22H29.5C30.4946 22 31.4484 22.3951 32.1517 23.0983C32.8549 23.8016 33.25 24.7554 33.25 25.75V33.625C33.25 34.66 32.41 35.5 31.375 35.5H18.625C18.1277 35.5 17.6508 35.3025 17.2992 34.9508C16.9475 34.5992 16.75 34.1223 16.75 33.625V16.375C16.75 15.339 17.59 14.5 18.625 14.5ZM22.75 30.25C22.75 30.0511 22.671 29.8603 22.5303 29.7197C22.3897 29.579 22.1989 29.5 22 29.5C21.8011 29.5 21.6103 29.579 21.4697 29.7197C21.329 29.8603 21.25 30.0511 21.25 30.25V31C21.25 31.1989 21.329 31.3897 21.4697 31.5303C21.6103 31.671 21.8011 31.75 22 31.75C22.1989 31.75 22.3897 31.671 22.5303 31.5303C22.671 31.3897 22.75 31.1989 22.75 31V30.25ZM25 27.25C25.1989 27.25 25.3897 27.329 25.5303 27.4697C25.671 27.6103 25.75 27.8011 25.75 28V31C25.75 31.1989 25.671 31.3897 25.5303 31.5303C25.3897 31.671 25.1989 31.75 25 31.75C24.8011 31.75 24.6103 31.671 24.4697 31.5303C24.329 31.3897 24.25 31.1989 24.25 31V28C24.25 27.8011 24.329 27.6103 24.4697 27.4697C24.6103 27.329 24.8011 27.25 25 27.25ZM28.75 25.75C28.75 25.5511 28.671 25.3603 28.5303 25.2197C28.3897 25.079 28.1989 25 28 25C27.8011 25 27.6103 25.079 27.4697 25.2197C27.329 25.3603 27.25 25.5511 27.25 25.75V31C27.25 31.1989 27.329 31.3897 27.4697 31.5303C27.6103 31.671 27.8011 31.75 28 31.75C28.1989 31.75 28.3897 31.671 28.5303 31.5303C28.671 31.3897 28.75 31.1989 28.75 31V25.75Z" fill="#021303"/>
<path d="M27.2502 18.2499C27.2519 16.9885 26.7977 15.7689 25.9712 14.8159C27.6445 15.2559 29.1709 16.1324 30.3943 17.3558C31.6177 18.5792 32.4942 20.1056 32.9342 21.7789C31.9812 20.9524 30.7616 20.4982 29.5002 20.4999H27.6252C27.5257 20.4999 27.4304 20.4604 27.36 20.3901C27.2897 20.3198 27.2502 20.2244 27.2502 20.1249V18.2499Z" fill="#021303"/>
</svg>
