<svg width="50" height="50" viewBox="0 0 50 50" fill="none" xmlns="http://www.w3.org/2000/svg">
<circle cx="25" cy="25" r="25" fill="#96FB4A"/>
<path fill-rule="evenodd" clip-rule="evenodd" d="M15.25 15.25C15.0511 15.25 14.8603 15.329 14.7197 15.4697C14.579 15.6103 14.5 15.8011 14.5 16C14.5 16.1989 14.579 16.3897 14.7197 16.5303C14.8603 16.671 15.0511 16.75 15.25 16.75H16V27.25C16 28.0456 16.3161 28.8087 16.8787 29.3713C17.4413 29.9339 18.2044 30.25 19 30.25H20.21L19.038 33.763C18.9751 33.9518 18.9899 34.1579 19.079 34.3359C19.168 34.5138 19.3242 34.6491 19.513 34.712C19.7018 34.7749 19.9079 34.7601 20.0859 34.671C20.2638 34.582 20.3991 34.4258 20.462 34.237L20.791 33.25H29.209L29.539 34.237C29.6073 34.4186 29.7433 34.5666 29.9184 34.6501C30.0935 34.7335 30.2941 34.7459 30.4782 34.6845C30.6622 34.6232 30.8153 34.4929 30.9053 34.3211C30.9954 34.1493 31.0153 33.9492 30.961 33.763L29.791 30.25H31C31.7956 30.25 32.5587 29.9339 33.1213 29.3713C33.6839 28.8087 34 28.0456 34 27.25V16.75H34.75C34.9489 16.75 35.1397 16.671 35.2803 16.5303C35.421 16.3897 35.5 16.1989 35.5 16C35.5 15.8011 35.421 15.6103 35.2803 15.4697C35.1397 15.329 34.9489 15.25 34.75 15.25H15.25ZM21.79 30.25H28.21L28.71 31.75H21.29L21.79 30.25ZM29.875 21.255C29.961 21.2061 30.0364 21.1407 30.097 21.0625C30.1577 20.9844 30.2022 20.895 30.2281 20.7995C30.254 20.7041 30.2608 20.6044 30.2481 20.5063C30.2353 20.4083 30.2033 20.3137 30.1538 20.228C30.1044 20.1423 30.0385 20.0673 29.9599 20.0072C29.8813 19.9472 29.7916 19.9032 29.696 19.8779C29.6004 19.8526 29.5007 19.8465 29.4027 19.8599C29.3047 19.8733 29.2103 19.906 29.125 19.956C27.7615 20.7452 26.5554 21.7792 25.567 23.006L24.03 21.47C23.8894 21.3295 23.6988 21.2507 23.5 21.2507C23.3012 21.2507 23.1106 21.3295 22.97 21.47L19.97 24.47C19.8963 24.5387 19.8372 24.6215 19.7962 24.7135C19.7552 24.8055 19.7332 24.9048 19.7314 25.0055C19.7296 25.1062 19.7482 25.2062 19.7859 25.2996C19.8236 25.393 19.8797 25.4778 19.951 25.549C20.0222 25.6203 20.107 25.6764 20.2004 25.7141C20.2938 25.7518 20.3938 25.7704 20.4945 25.7686C20.5952 25.7668 20.6945 25.7448 20.7865 25.7038C20.8785 25.6628 20.9613 25.6037 21.03 25.53L23.5 23.06L25.117 24.678C25.1946 24.7556 25.2882 24.8152 25.3913 24.8526C25.4945 24.8901 25.6046 24.9045 25.7138 24.8947C25.8231 24.885 25.9289 24.8514 26.0238 24.7963C26.1187 24.7413 26.2003 24.6661 26.263 24.576C27.2095 23.2181 28.4425 22.0844 29.875 21.255Z" fill="#021303"/>
</svg>
