<svg width="716" height="236" viewBox="0 0 716 236" fill="none" xmlns="http://www.w3.org/2000/svg">
<path d="M685.27 213C672.436 183.667 623.97 123.6 532.77 118C418.77 111 57.2695 142.5 2.26953 1" stroke="url(#paint0_linear_160_17484)" stroke-opacity="0.5" stroke-width="4" stroke-dasharray="11 11"/>
<path fill-rule="evenodd" clip-rule="evenodd" d="M687.946 220.739C688.06 217.924 688.163 214.39 688.186 213.99C688.821 203.131 691.106 192.953 694.957 182.756C695.268 181.928 696.196 181.51 697.024 181.821C697.852 182.133 698.27 183.061 697.959 183.889C694.221 193.775 692.002 203.646 691.388 214.179C691.352 214.793 691.125 222.737 690.958 224.34C690.893 224.998 690.652 225.35 690.587 225.428C690.259 225.853 689.87 225.992 689.551 226.04C689.191 226.092 688.576 226.032 687.95 225.536C687.298 225.014 686.216 223.606 685.914 223.272C681.347 218.254 676.687 212.255 671.256 207.592C666.078 203.145 660.193 199.908 652.93 200.174C652.046 200.207 651.302 199.512 651.269 198.628C651.235 197.744 651.93 197 652.814 196.967C660.934 196.672 667.558 200.188 673.345 205.157C678.743 209.794 683.405 215.708 687.946 220.739Z" fill="#96FB4A"/>
<defs>
<linearGradient id="paint0_linear_160_17484" x1="685.033" y1="1" x2="2.26956" y2="1" gradientUnits="userSpaceOnUse">
<stop stop-color="#96FB4A"/>
<stop offset="0.5" stop-color="#96FB4A"/>
<stop offset="1" stop-color="#96FB4A" stop-opacity="0"/>
</linearGradient>
</defs>
</svg>
