<svg width="50" height="51" viewBox="0 0 50 51" fill="none" xmlns="http://www.w3.org/2000/svg">
<circle cx="25" cy="25.7285" r="25" fill="#96FB4A"/>
<path fill-rule="evenodd" clip-rule="evenodd" d="M20.5001 19.7285C20.5001 18.535 20.9742 17.3904 21.8181 16.5465C22.662 15.7026 23.8066 15.2285 25.0001 15.2285C26.1936 15.2285 27.3382 15.7026 28.1821 16.5465C29.026 17.3904 29.5001 18.535 29.5001 19.7285C29.5001 20.922 29.026 22.0666 28.1821 22.9105C27.3382 23.7544 26.1936 24.2285 25.0001 24.2285C23.8066 24.2285 22.662 23.7544 21.8181 22.9105C20.9742 22.0666 20.5001 20.922 20.5001 19.7285ZM16.7511 33.8335C16.7848 31.668 17.6687 29.6026 19.2121 28.0831C20.7554 26.5636 22.8343 25.712 25.0001 25.712C27.1659 25.712 29.2448 26.5636 30.7881 28.0831C32.3315 29.6026 33.2154 31.668 33.2491 33.8335C33.2517 33.9793 33.2117 34.1227 33.1341 34.2461C33.0565 34.3696 32.9446 34.4677 32.8121 34.5285C30.3613 35.6522 27.6963 36.2322 25.0001 36.2285C22.2141 36.2285 19.5671 35.6205 17.1881 34.5285C17.0556 34.4677 16.9437 34.3696 16.8661 34.2461C16.7884 34.1227 16.7485 33.9793 16.7511 33.8335Z" fill="#021303"/>
</svg>
