<svg width="30" height="30" viewBox="0 0 30 30" fill="none" xmlns="http://www.w3.org/2000/svg">
<path fill-rule="evenodd" clip-rule="evenodd" d="M15 30C23.2843 30 30 23.2843 30 15C30 6.71573 23.2843 0 15 0C6.71573 0 0 6.71573 0 15C0 23.2843 6.71573 30 15 30ZM24.9496 11.3132C25.9259 10.3369 25.9259 8.754 24.9496 7.77769C23.9733 6.80138 22.3904 6.80138 21.4141 7.77769L11.9318 17.2599L8.58595 13.9141C7.60964 12.9377 6.02673 12.9377 5.05042 13.9141C4.0741 14.8904 4.0741 16.4733 5.05042 17.4496L10.1641 22.5632C11.1404 23.5395 12.7233 23.5395 13.6996 22.5632L24.9496 11.3132Z" fill="#3EC775"/>
</svg>
