<svg width="24" height="24" viewBox="0 0 24 24" fill="none" xmlns="http://www.w3.org/2000/svg">
<path d="M6.23177 6.976C5.86311 6.90925 5.53276 6.70694 5.30575 6.40889C5.07873 6.11084 4.97147 5.73862 5.00507 5.36546C5.03868 4.99231 5.21071 4.64524 5.48733 4.39254C5.76394 4.13984 6.12511 3.99981 6.49977 4H6.99977C6.99977 3.46957 7.21049 2.96086 7.58556 2.58579C7.96063 2.21071 8.46934 2 8.99977 2H14.9998C15.5302 2 16.0389 2.21071 16.414 2.58579C16.7891 2.96086 16.9998 3.46957 16.9998 4H17.4998C17.8744 3.99981 18.2356 4.13984 18.5122 4.39254C18.7888 4.64524 18.9609 4.99231 18.9945 5.36546C19.0281 5.73862 18.9208 6.11084 18.6938 6.40889C18.4668 6.70694 18.1364 6.90925 17.7678 6.976L17.3198 10.781C17.6416 11.198 17.7851 11.7255 17.7188 12.248L17.2188 16.248C17.1569 16.7463 16.9094 17.203 16.5258 17.527L16.1038 21.117C16.0751 21.3603 15.9582 21.5845 15.7751 21.7473C15.5921 21.91 15.3557 22 15.1108 22H8.88877C8.64384 22 8.40744 21.91 8.2244 21.7473C8.04137 21.5845 7.92443 21.3603 7.89577 21.117L7.47377 17.527C7.09011 17.203 6.84266 16.7463 6.78077 16.248L6.28077 12.248C6.21511 11.7254 6.35891 11.198 6.68077 10.781L6.23177 6.976ZM8.24977 7L8.60277 10H15.3988L15.7518 7H8.24878H8.24977ZM8.76677 16H15.2348L15.7348 12H8.26577L8.76577 16H8.76677ZM9.54378 18L9.77877 20H14.2228L14.4578 18H9.54278H9.54378Z" fill="#96FB4A"/>
</svg>
