<svg width="100" height="100" viewBox="0 0 100 100" fill="none" xmlns="http://www.w3.org/2000/svg">
<rect x="1.1" y="1.1" width="97.8" height="97.8" rx="48.9" fill="#96FB4A" stroke="#021303" stroke-width="2.2"/>
<path d="M31.25 62.5V58.3333C31.25 57.2282 31.689 56.1684 32.4704 55.387C33.2518 54.6056 34.3116 54.1666 35.4167 54.1666C36.5217 54.1666 37.5815 54.6056 38.3629 55.387C39.1443 56.1684 39.5833 57.2282 39.5833 58.3333V62.5H31.25Z" fill="#96FB4A"/>
<path d="M70.8332 34.3749V68.7499H35.4165V27.0833H64.5832L70.8332 34.3749Z" fill="#96FB4A"/>
<path d="M39.5835 63.5417C39.3072 63.5417 39.0423 63.4319 38.8469 63.2366C38.6516 63.0412 38.5418 62.7763 38.5418 62.5V58.3333C38.5418 57.5045 38.2126 56.7097 37.6265 56.1236C37.0405 55.5376 36.2456 55.2083 35.4168 55.2083C34.588 55.2083 33.7932 55.5376 33.2071 56.1236C32.6211 56.7097 32.2918 57.5045 32.2918 58.3333V62.5C32.2918 62.7763 32.1821 63.0412 31.9867 63.2366C31.7914 63.4319 31.5264 63.5417 31.2502 63.5417C30.9739 63.5417 30.7089 63.4319 30.5136 63.2366C30.3182 63.0412 30.2085 62.7763 30.2085 62.5V58.3333C30.2085 56.952 30.7572 55.6272 31.734 54.6505C32.7107 53.6737 34.0355 53.125 35.4168 53.125C36.7982 53.125 38.1229 53.6737 39.0997 54.6505C40.0764 55.6272 40.6252 56.952 40.6252 58.3333V62.5C40.6252 62.7763 40.5154 63.0412 40.3201 63.2366C40.1247 63.4319 39.8598 63.5417 39.5835 63.5417Z" fill="#021303"/>
<path d="M64.5835 27.0833V32.2916C64.5835 32.8441 64.803 33.374 65.1937 33.7647C65.5844 34.1554 66.1143 34.3749 66.6668 34.3749H70.8335L64.5835 27.0833Z" fill="#96FB4A"/>
<path d="M65.6252 58.3333H46.8752C46.2999 58.3333 45.8335 58.7996 45.8335 59.3749V63.5416C45.8335 64.1169 46.2999 64.5833 46.8752 64.5833H65.6252C66.2005 64.5833 66.6668 64.1169 66.6668 63.5416V59.3749C66.6668 58.7996 66.2005 58.3333 65.6252 58.3333Z" fill="#021303"/>
<path d="M40.625 61.4583H30.2083C29.0577 61.4583 28.125 62.391 28.125 63.5416V71.8749C28.125 73.0255 29.0577 73.9583 30.2083 73.9583H40.625C41.7756 73.9583 42.7083 73.0255 42.7083 71.8749V63.5416C42.7083 62.391 41.7756 61.4583 40.625 61.4583Z" fill="#021303"/>
<path d="M35.4166 64.5833C34.9619 64.5879 34.5212 64.7411 34.1618 65.0196C33.8024 65.2981 33.544 65.6865 33.4259 66.1256C33.3079 66.5647 33.3367 67.0304 33.5081 67.4516C33.6794 67.8727 33.9838 68.2263 34.3749 68.4583V69.7916C34.3749 70.0679 34.4846 70.3328 34.68 70.5282C34.8753 70.7235 35.1403 70.8333 35.4166 70.8333C35.6928 70.8333 35.9578 70.7235 36.1531 70.5282C36.3485 70.3328 36.4582 70.0679 36.4582 69.7916V68.4583C36.8493 68.2263 37.1537 67.8727 37.325 67.4516C37.4964 67.0304 37.5252 66.5647 37.4072 66.1256C37.2892 65.6865 37.0307 65.2981 36.6713 65.0196C36.3119 64.7411 35.8712 64.5879 35.4166 64.5833Z" fill="#96FB4A"/>
<path d="M71.625 33.6979C65.4687 26.5208 65.5625 26.625 65.375 26.4062C64.8958 25.8958 65.625 26.0416 35.4167 26.0416C35.1404 26.0416 34.8754 26.1514 34.6801 26.3467C34.4847 26.5421 34.375 26.807 34.375 27.0833V50C34.375 50.2762 34.4847 50.5412 34.6801 50.7365C34.8754 50.9319 35.1404 51.0416 35.4167 51.0416C35.6929 51.0416 35.9579 50.9319 36.1532 50.7365C36.3486 50.5412 36.4583 50.2762 36.4583 50V28.125H63.5417V32.2916C63.5417 33.1204 63.8709 33.9153 64.457 34.5013C65.043 35.0874 65.8379 35.4166 66.6667 35.4166H69.7917V67.7083H45.8333C45.5571 67.7083 45.2921 67.818 45.0968 68.0134C44.9014 68.2087 44.7917 68.4737 44.7917 68.75C44.7917 69.0262 44.9014 69.2912 45.0968 69.4865C45.2921 69.6819 45.5571 69.7916 45.8333 69.7916H70.8333C71.1096 69.7916 71.3745 69.6819 71.5699 69.4865C71.7653 69.2912 71.875 69.0262 71.875 68.75C71.875 32.3541 72.0104 34.1458 71.625 33.6979ZM65.625 32.2916V29.8958L68.5729 33.3333H66.6667C66.3904 33.3333 66.1254 33.2235 65.9301 33.0282C65.7347 32.8328 65.625 32.5679 65.625 32.2916Z" fill="#021303"/>
<path d="M53.1252 33.3333H40.6252C40.3489 33.3333 40.0839 33.2236 39.8886 33.0282C39.6932 32.8329 39.5835 32.5679 39.5835 32.2917C39.5835 32.0154 39.6932 31.7504 39.8886 31.5551C40.0839 31.3597 40.3489 31.25 40.6252 31.25H53.1252C53.4014 31.25 53.6664 31.3597 53.8617 31.5551C54.0571 31.7504 54.1668 32.0154 54.1668 32.2917C54.1668 32.5679 54.0571 32.8329 53.8617 33.0282C53.6664 33.2236 53.4014 33.3333 53.1252 33.3333Z" fill="#021303"/>
<path d="M61.4585 38.5416H40.6252C40.3489 38.5416 40.0839 38.4318 39.8886 38.2365C39.6932 38.0411 39.5835 37.7762 39.5835 37.4999C39.5835 37.2237 39.6932 36.9587 39.8886 36.7633C40.0839 36.568 40.3489 36.4583 40.6252 36.4583H61.4585C61.7348 36.4583 61.9997 36.568 62.1951 36.7633C62.3904 36.9587 62.5002 37.2237 62.5002 37.4999C62.5002 37.7762 62.3904 38.0411 62.1951 38.2365C61.9997 38.4318 61.7348 38.5416 61.4585 38.5416Z" fill="#021303"/>
<path d="M42.7085 42.7083H40.6252C40.3489 42.7083 40.0839 42.5986 39.8886 42.4032C39.6932 42.2079 39.5835 41.9429 39.5835 41.6667C39.5835 41.3904 39.6932 41.1254 39.8886 40.9301C40.0839 40.7347 40.3489 40.625 40.6252 40.625H42.7085C42.9848 40.625 43.2497 40.7347 43.4451 40.9301C43.6404 41.1254 43.7502 41.3904 43.7502 41.6667C43.7502 41.9429 43.6404 42.2079 43.4451 42.4032C43.2497 42.5986 42.9848 42.7083 42.7085 42.7083Z" fill="#021303"/>
<path d="M65.6252 51.0416H59.3752C59.0989 51.0416 58.8339 50.9318 58.6386 50.7365C58.4432 50.5411 58.3335 50.2762 58.3335 49.9999C58.3335 49.7237 58.4432 49.4587 58.6386 49.2633C58.8339 49.068 59.0989 48.9583 59.3752 48.9583H65.6252C65.9014 48.9583 66.1664 49.068 66.3617 49.2633C66.5571 49.4587 66.6668 49.7237 66.6668 49.9999C66.6668 50.2762 66.5571 50.5411 66.3617 50.7365C66.1664 50.9318 65.9014 51.0416 65.6252 51.0416Z" fill="#021303"/>
<path d="M65.6252 46.875H40.6252C40.3489 46.875 40.0839 46.7652 39.8886 46.5699C39.6932 46.3745 39.5835 46.1096 39.5835 45.8333C39.5835 45.557 39.6932 45.2921 39.8886 45.0967C40.0839 44.9014 40.3489 44.7916 40.6252 44.7916H65.6252C65.9014 44.7916 66.1664 44.9014 66.3617 45.0967C66.5571 45.2921 66.6668 45.557 66.6668 45.8333C66.6668 46.1096 66.5571 46.3745 66.3617 46.5699C66.1664 46.7652 65.9014 46.875 65.6252 46.875Z" fill="#021303"/>
<path d="M55.2085 51.0416H40.6252C40.3489 51.0416 40.0839 50.9318 39.8886 50.7365C39.6932 50.5411 39.5835 50.2762 39.5835 49.9999C39.5835 49.7237 39.6932 49.4587 39.8886 49.2633C40.0839 49.068 40.3489 48.9583 40.6252 48.9583H55.2085C55.4848 48.9583 55.7497 49.068 55.9451 49.2633C56.1404 49.4587 56.2502 49.7237 56.2502 49.9999C56.2502 50.2762 56.1404 50.5411 55.9451 50.7365C55.7497 50.9318 55.4848 51.0416 55.2085 51.0416Z" fill="#021303"/>
<path d="M65.6252 55.2083H46.8752C46.5989 55.2083 46.3339 55.0986 46.1386 54.9032C45.9432 54.7079 45.8335 54.4429 45.8335 54.1667C45.8335 53.8904 45.9432 53.6254 46.1386 53.4301C46.3339 53.2347 46.5989 53.125 46.8752 53.125H65.6252C65.9014 53.125 66.1664 53.2347 66.3617 53.4301C66.5571 53.6254 66.6668 53.8904 66.6668 54.1667C66.6668 54.4429 66.5571 54.7079 66.3617 54.9032C66.1664 55.0986 65.9014 55.2083 65.6252 55.2083Z" fill="#021303"/>
<path d="M65.6252 42.7083H46.8752C46.5989 42.7083 46.3339 42.5986 46.1386 42.4032C45.9432 42.2079 45.8335 41.9429 45.8335 41.6667C45.8335 41.3904 45.9432 41.1254 46.1386 40.9301C46.3339 40.7347 46.5989 40.625 46.8752 40.625H65.6252C65.9014 40.625 66.1664 40.7347 66.3617 40.9301C66.5571 41.1254 66.6668 41.3904 66.6668 41.6667C66.6668 41.9429 66.5571 42.2079 66.3617 42.4032C66.1664 42.5986 65.9014 42.7083 65.6252 42.7083Z" fill="#021303"/>
</svg>
