<svg width="100" height="100" viewBox="0 0 100 100" fill="none" xmlns="http://www.w3.org/2000/svg">
<rect x="0.5" y="0.5" width="99" height="99" rx="49.5" fill="#021303" stroke="#96FB4A"/>
<path d="M67.5518 43.448C66.8145 41.4894 65.7586 39.6663 64.4268 38.0521L65.9372 32.7605L56.9163 27.5521L53.1247 31.5313C51.0587 31.151 48.9407 31.151 46.8747 31.5313L43.0518 27.5521L34.0309 32.7605L35.5413 38.0521C34.2095 39.6663 33.1536 41.4894 32.4163 43.448L27.083 44.7917V55.2084L32.4476 56.5521C33.1848 58.5106 34.2407 60.3338 35.5726 61.948L34.0309 67.2396L43.0518 72.448L46.8747 68.4688C48.9407 68.8491 51.0587 68.8491 53.1247 68.4688L56.9684 72.448L65.9893 67.2396L64.4788 61.948C65.8107 60.3338 66.8666 58.5106 67.6038 56.5521L72.9163 55.2084V44.7917L67.5518 43.448ZM49.9997 67.7084C46.4973 67.7084 43.0736 66.6698 40.1615 64.724C37.2493 62.7782 34.9796 60.0125 33.6393 56.7767C32.299 53.541 31.9483 49.9804 32.6316 46.5453C33.3149 43.1102 35.0014 39.9549 37.478 37.4784C39.9545 35.0018 43.1099 33.3152 46.545 32.632C49.98 31.9487 53.5406 32.2994 56.7764 33.6397C60.0121 34.98 62.7778 37.2497 64.7236 40.1618C66.6694 43.0739 67.708 46.4977 67.708 50C67.708 54.6966 65.8423 59.2008 62.5214 62.5217C59.2004 65.8427 54.6962 67.7084 49.9997 67.7084Z" fill="#021303"/>
<path d="M57.2913 43.75V49.7083C57.2933 51.8936 56.5823 54.0198 55.2664 55.7643C53.9505 57.5089 52.1014 58.7766 49.9997 59.375C47.8989 58.775 46.0507 57.507 44.7351 55.7627C43.4194 54.0185 42.7078 51.8931 42.708 49.7083V43.75C43.3767 43.7514 44.0307 43.5541 44.5871 43.1832C45.1434 42.8123 45.5771 42.2844 45.833 41.6667L49.9997 40.625L54.1663 41.6667L54.2809 41.8854C54.5588 42.4461 54.988 42.9178 55.52 43.2473C56.052 43.5769 56.6656 43.751 57.2913 43.75Z" fill="#96FB4A"/>
<path d="M43.0519 73.4896C42.656 73.4896 43.3435 73.8229 33.5102 68.1458C33.3095 68.0295 33.1534 67.8495 33.0666 67.6344C32.9798 67.4193 32.9673 67.1813 33.031 66.9583L34.3748 62.1771C33.2509 60.7286 32.3357 59.1297 31.656 57.4271L26.8331 56.25C26.602 56.1929 26.3974 56.0585 26.2533 55.8689C26.1093 55.6794 26.0345 55.4463 26.0415 55.2083V44.7916C26.0345 44.5537 26.1093 44.3205 26.2533 44.131C26.3974 43.9415 26.602 43.807 26.8331 43.75L31.6769 42.5417C32.3527 40.8511 33.2607 39.2629 34.3748 37.8229L33.031 33.0417C32.9673 32.8186 32.9798 32.5807 33.0666 32.3656C33.1534 32.1505 33.3095 31.9705 33.5102 31.8542L42.531 26.6458C42.7322 26.5293 42.9667 26.4834 43.197 26.5155C43.4273 26.5476 43.6402 26.6558 43.8019 26.8229L47.2706 30.4167C49.0792 30.1354 50.9204 30.1354 52.729 30.4167L56.2498 26.8229C56.4115 26.6558 56.6244 26.5476 56.8547 26.5155C57.085 26.4834 57.3194 26.5293 57.5206 26.6458L66.5415 31.8542C66.7421 31.9705 66.8983 32.1505 66.9851 32.3656C67.0719 32.5807 67.0844 32.8186 67.0206 33.0417L65.6248 37.8229C66.7487 39.2713 67.6638 40.8702 68.3435 42.5729L73.1665 43.75C73.3976 43.807 73.6022 43.9415 73.7462 44.131C73.8903 44.3205 73.9651 44.5537 73.9581 44.7916V55.2083C73.9651 55.4463 73.8903 55.6794 73.7462 55.8689C73.6022 56.0585 73.3976 56.1929 73.1665 56.25L68.3227 57.4583C67.6469 59.1489 66.7388 60.7371 65.6248 62.1771L66.9894 66.9583C67.0531 67.1813 67.0406 67.4193 66.9538 67.6344C66.867 67.8495 66.7109 68.0295 66.5102 68.1458L57.4894 73.3541C57.2915 73.463 57.0636 73.5046 56.84 73.4727C56.6164 73.4407 56.4093 73.337 56.2498 73.1771L52.729 69.5833C50.9204 69.8646 49.0792 69.8646 47.2706 69.5833L43.8019 73.1771C43.7042 73.2767 43.5874 73.3558 43.4586 73.4095C43.3298 73.4631 43.1914 73.4904 43.0519 73.4896ZM35.2602 66.75L42.8644 71.1458L46.1456 67.7083C46.979 66.8437 48.0831 68.2083 52.9269 67.4062C53.0943 67.3771 53.2663 67.3894 53.4279 67.4421C53.5895 67.4948 53.7358 67.5862 53.854 67.7083L57.1352 71.1041L64.7394 66.7083L63.4477 62.1875C63.4015 62.0253 63.3953 61.8542 63.4298 61.6891C63.4643 61.524 63.5383 61.3697 63.6456 61.2396C64.8996 59.7175 65.889 57.9956 66.5727 56.1458C66.6324 55.9869 66.7301 55.845 66.8572 55.7324C66.9842 55.6199 67.1369 55.5401 67.3019 55.5L71.8748 54.3958V45.6041L67.3019 44.4583C67.1369 44.4182 66.9842 44.3384 66.8572 44.2259C66.7301 44.1133 66.6324 43.9714 66.5727 43.8125C65.889 41.9627 64.8996 40.2408 63.6456 38.7187C63.5383 38.5886 63.4643 38.4343 63.4298 38.2692C63.3953 38.1041 63.4015 37.933 63.4477 37.7708L64.7394 33.25L57.1352 28.8542L53.854 32.2917C53.0102 33.1562 51.9269 31.7812 47.0727 32.5937C46.9053 32.6228 46.7332 32.6105 46.5716 32.5579C46.41 32.5052 46.2638 32.4138 46.1456 32.2917L42.8644 28.8542L35.2602 33.25L36.5519 37.7708C36.5981 37.933 36.6042 38.1041 36.5698 38.2692C36.5353 38.4343 36.4612 38.5886 36.354 38.7187C35.1015 40.2418 34.1122 41.9634 33.4269 43.8125C33.3672 43.9714 33.2695 44.1133 33.1424 44.2259C33.0153 44.3384 32.8627 44.4182 32.6977 44.4583L28.1248 45.6041V54.3958L32.6977 55.5416C32.8627 55.5817 33.0153 55.6615 33.1424 55.7741C33.2695 55.8866 33.3672 56.0286 33.4269 56.1875C34.1122 58.0365 35.1015 59.7581 36.354 61.2812C36.4612 61.4114 36.5353 61.5657 36.5698 61.7308C36.6042 61.8959 36.5981 62.0669 36.5519 62.2291L35.2602 66.75Z" fill="#96FB4A"/>
<path d="M49.9994 64.5833C47.115 64.5833 44.2955 63.728 41.8973 62.1256C39.4991 60.5231 37.6299 58.2455 36.5261 55.5808C35.4223 52.916 35.1335 49.9838 35.6962 47.1549C36.2589 44.326 37.6479 41.7275 39.6874 39.688C41.7269 37.6485 44.3254 36.2595 47.1543 35.6968C49.9832 35.1341 52.9154 35.4229 55.5802 36.5267C58.2449 37.6305 60.5225 39.4997 62.125 41.8979C63.7274 44.2961 64.5827 47.1157 64.5827 50C64.5827 53.8677 63.0462 57.577 60.3113 60.3119C57.5764 63.0468 53.8671 64.5833 49.9994 64.5833ZM49.9994 37.5C47.5271 37.5 45.1103 38.2331 43.0547 39.6066C40.9991 40.9801 39.397 42.9323 38.4509 45.2164C37.5048 47.5005 37.2572 50.0138 37.7395 52.4386C38.2219 54.8634 39.4124 57.0906 41.1605 58.8388C42.9087 60.587 45.136 61.7775 47.5607 62.2598C49.9855 62.7421 52.4988 62.4946 54.7829 61.5485C57.067 60.6024 59.0192 59.0002 60.3927 56.9446C61.7662 54.889 62.4994 52.4722 62.4994 50C62.4994 46.6848 61.1824 43.5053 58.8382 41.1611C56.494 38.8169 53.3146 37.5 49.9994 37.5Z" fill="#96FB4A"/>
</svg>
