<svg width="100" height="100" viewBox="0 0 100 100" fill="none" xmlns="http://www.w3.org/2000/svg">
<rect x="0.5" y="0.5" width="99" height="99" rx="49.5" fill="#021303" stroke="#96FB4A"/>
<path d="M47.3123 69.1458C44.4223 68.5214 41.7445 67.156 39.5419 65.1835C37.3394 63.2111 35.6879 60.6996 34.7498 57.8958C33.9268 55.4583 34.6456 53.6353 35.1456 51.8958C36.0935 48.5833 36.0209 45.0621 34.9373 41.7916C34.4081 39.988 34.2174 38.1021 34.3748 36.2291C35.9183 35.8779 37.3477 35.1415 38.5299 34.0887C39.712 33.0359 40.6083 31.701 41.1352 30.2083H58.8435C59.3723 31.7035 60.2717 33.0402 61.4577 34.0931C62.6437 35.1461 64.0774 35.881 65.6248 36.2291C65.7796 38.0945 65.5925 39.9725 65.0727 41.7708C63.9826 45.0428 63.9028 48.5673 64.8435 51.8853C65.4268 53.9062 66.0518 55.5312 65.2602 57.8853C64.3208 60.6914 62.6678 63.2049 60.4636 65.179C58.2593 67.1532 55.5795 68.5202 52.6873 69.1458L49.9998 69.7187L47.3123 69.1458Z" fill="#021303"/>
<path d="M54.167 48.9583C53.8907 48.9583 53.6258 48.8485 53.4304 48.6532C53.2351 48.4578 53.1253 48.1929 53.1253 47.9166V43.75C53.1253 42.9212 52.7961 42.1263 52.21 41.5403C51.624 40.9542 50.8291 40.625 50.0003 40.625C49.1715 40.625 48.3767 40.9542 47.7906 41.5403C47.2046 42.1263 46.8753 42.9212 46.8753 43.75V47.9166C46.8753 48.1929 46.7656 48.4578 46.5702 48.6532C46.3749 48.8485 46.1099 48.9583 45.8337 48.9583C45.5574 48.9583 45.2924 48.8485 45.0971 48.6532C44.9017 48.4578 44.792 48.1929 44.792 47.9166V43.75C44.792 42.3686 45.3407 41.0439 46.3175 40.0671C47.2942 39.0904 48.619 38.5416 50.0003 38.5416C51.3817 38.5416 52.7064 39.0904 53.6832 40.0671C54.6599 41.0439 55.2087 42.3686 55.2087 43.75V47.9166C55.2087 48.1929 55.0989 48.4578 54.9036 48.6532C54.7082 48.8485 54.4433 48.9583 54.167 48.9583Z" fill="#96FB4A"/>
<path d="M55.208 46.875H44.7913C43.6407 46.875 42.708 47.8077 42.708 48.9583V57.2917C42.708 58.4423 43.6407 59.375 44.7913 59.375H55.208C56.3586 59.375 57.2913 58.4423 57.2913 57.2917V48.9583C57.2913 47.8077 56.3586 46.875 55.208 46.875Z" fill="#96FB4A"/>
<path d="M49.9996 50C49.5449 50.0046 49.1043 50.1579 48.7448 50.4364C48.3854 50.7149 48.127 51.1033 48.0089 51.5424C47.8909 51.9815 47.9197 52.4471 48.0911 52.8683C48.2624 53.2895 48.5669 53.643 48.9579 53.875V55.2083C48.9579 55.4846 49.0677 55.7496 49.263 55.9449C49.4584 56.1403 49.7233 56.25 49.9996 56.25C50.2758 56.25 50.5408 56.1403 50.7361 55.9449C50.9315 55.7496 51.0412 55.4846 51.0412 55.2083V53.875C51.4323 53.643 51.7367 53.2895 51.9081 52.8683C52.0794 52.4471 52.1083 51.9815 51.9902 51.5424C51.8722 51.1033 51.6137 50.7149 51.2543 50.4364C50.8949 50.1579 50.4542 50.0046 49.9996 50Z" fill="#021303"/>
<path d="M50.0001 73.9583C49.8438 73.9583 50.0001 73.9583 46.4376 73.2187C36.5417 71.0937 30.2084 62.1041 30.2084 55.6145C30.2591 53.95 30.5756 52.3042 31.1459 50.7395C31.8621 48.2324 31.804 45.5673 30.9792 43.0937C29.9688 40.0937 30.2084 37.927 30.2084 33.3333C30.2084 33.057 30.3181 32.7921 30.5135 32.5967C30.7088 32.4014 30.9738 32.2916 31.2501 32.2916H32.2917C32.9757 32.2916 33.653 32.1569 34.2849 31.8952C34.9168 31.6334 35.4909 31.2498 35.9746 30.7661C36.4582 30.2825 36.8418 29.7083 37.1036 29.0764C37.3653 28.4445 37.5001 27.7673 37.5001 27.0833C37.5001 26.807 37.6098 26.5421 37.8051 26.3467C38.0005 26.1514 38.2655 26.0416 38.5417 26.0416H61.4584C61.7347 26.0416 61.9996 26.1514 62.195 26.3467C62.3903 26.5421 62.5 26.807 62.5 27.0833C62.5 28.4646 63.0488 29.7894 64.0255 30.7661C65.0023 31.7429 66.327 32.2916 67.7084 32.2916H68.75C69.0263 32.2916 69.2913 32.4014 69.4866 32.5967C69.682 32.7921 69.7917 33.057 69.7917 33.3333C69.7917 37.9479 70.0105 40.1666 69.0209 43.1041C66.6667 50.2291 71.4063 52.6875 69.2084 59.2187C68.0379 62.7048 65.9828 65.8274 63.244 68.2814C60.5053 70.7353 57.1766 72.4366 53.5834 73.2187C50.0001 73.9583 50.1563 73.9583 50.0001 73.9583ZM32.2917 34.375C32.2917 38.2291 32.1251 39.9791 32.9584 42.4375C33.9149 45.3091 33.9802 48.403 33.1459 51.3125C32.5001 53.5625 31.7709 55.5937 32.7709 58.6041C33.8337 61.7407 35.6919 64.5479 38.164 66.7516C40.636 68.9553 43.6375 70.4801 46.8751 71.177L50.0001 71.875L53.1251 71.1979C56.3709 70.4944 59.3779 68.9586 61.8507 66.7415C64.3235 64.5244 66.177 61.7022 67.2292 58.552C68.2709 55.5625 67.448 53.3958 66.8542 51.3229C66.0192 48.4135 66.0846 45.3194 67.0417 42.4479C67.4776 41.1268 67.7026 39.7453 67.7084 38.3541V34.375C65.9547 34.3754 64.2595 33.7438 62.9337 32.5959C61.6079 31.448 60.7402 29.8607 60.4896 28.125H39.5105C39.2599 29.8607 38.3922 31.448 37.0664 32.5959C35.7406 33.7438 34.0454 34.3754 32.2917 34.375Z" fill="#96FB4A"/>
</svg>
