<svg width="70" height="70" viewBox="0 0 70 70" fill="none" xmlns="http://www.w3.org/2000/svg">
<rect opacity="0.1" width="70" height="70" rx="35" fill="#96FB4A"/>
<rect x="5" y="5" width="60" height="60" rx="30" fill="#96FB4A"/>
<path fill-rule="evenodd" clip-rule="evenodd" d="M35.645 22.7125C35.4708 22.5474 35.24 22.4553 35 22.4553C34.76 22.4553 34.5292 22.5474 34.355 22.7125C31.7016 25.2323 28.1677 26.6141 24.5088 26.5625C24.3094 26.5599 24.1145 26.6209 23.9522 26.7367C23.7899 26.8524 23.6687 27.0169 23.6063 27.2062C23.0787 28.8139 22.8108 30.4954 22.8125 32.1875C22.8125 39.615 27.8925 45.8537 34.7663 47.6225C34.9196 47.662 35.0804 47.662 35.2338 47.6225C42.1075 45.8537 47.1875 39.615 47.1875 32.1875C47.1875 30.45 46.9088 28.775 46.3938 27.2062C46.3315 27.0167 46.2105 26.8519 46.0481 26.7359C45.8858 26.6199 45.6907 26.5587 45.4913 26.5612L45.3125 26.5625C41.5675 26.5625 38.1663 25.1 35.645 22.7125ZM39.5125 32.7325C39.5875 32.6325 39.6418 32.5186 39.6721 32.3974C39.7025 32.2762 39.7083 32.1501 39.6892 32.0267C39.6701 31.9032 39.6266 31.7847 39.5611 31.6783C39.4956 31.5719 39.4095 31.4797 39.3078 31.407C39.2062 31.3344 39.091 31.2828 38.9691 31.2553C38.8473 31.2277 38.7211 31.2249 38.5981 31.2468C38.4751 31.2687 38.3577 31.315 38.2529 31.383C38.148 31.4509 38.0578 31.5392 37.9875 31.6425L33.9425 37.305L31.9125 35.275C31.7348 35.1094 31.4997 35.0192 31.2569 35.0235C31.014 35.0278 30.7822 35.1262 30.6105 35.2979C30.4387 35.4697 30.3403 35.7014 30.336 35.9443C30.3318 36.1872 30.4219 36.4222 30.5875 36.6L33.4 39.4125C33.4962 39.5086 33.6123 39.5827 33.74 39.6295C33.8677 39.6764 34.0041 39.6948 34.1397 39.6836C34.2753 39.6725 34.4068 39.6319 34.5252 39.5648C34.6435 39.4977 34.7458 39.4056 34.825 39.295L39.5125 32.7325Z" fill="#021303"/>
</svg>
