<svg width="53" height="53" viewBox="0 0 53 53" fill="none" xmlns="http://www.w3.org/2000/svg">
<circle cx="26.5" cy="26.5" r="26" fill="#021303" stroke="url(#paint0_linear_8_1710)"/>
<path d="M29.7813 25.1875V21.25C29.7813 20.3798 29.4356 19.5452 28.8203 18.9298C28.2049 18.3145 27.3703 17.9688 26.5001 17.9688C25.6298 17.9688 24.7952 18.3145 24.1799 18.9298C23.5645 19.5452 23.2188 20.3798 23.2188 21.25V25.1875M33.1553 23.4436L34.2605 33.9436C34.3217 34.5255 33.8667 35.0312 33.2813 35.0312H19.7188C19.5808 35.0314 19.4442 35.0025 19.318 34.9464C19.1919 34.8904 19.0789 34.8084 18.9865 34.7058C18.8941 34.6032 18.8242 34.4824 18.7816 34.3511C18.7389 34.2197 18.7243 34.0809 18.7388 33.9436L19.8448 23.4436C19.8703 23.2017 19.9845 22.9779 20.1653 22.8152C20.3461 22.6525 20.5807 22.5625 20.824 22.5625H32.1762C32.6802 22.5625 33.1028 22.9431 33.1553 23.4436ZM23.547 25.1875C23.547 25.2745 23.5124 25.358 23.4508 25.4195C23.3893 25.4811 23.3059 25.5156 23.2188 25.5156C23.1318 25.5156 23.0483 25.4811 22.9868 25.4195C22.9253 25.358 22.8907 25.2745 22.8907 25.1875C22.8907 25.1005 22.9253 25.017 22.9868 24.9555C23.0483 24.8939 23.1318 24.8594 23.2188 24.8594C23.3059 24.8594 23.3893 24.8939 23.4508 24.9555C23.5124 25.017 23.547 25.1005 23.547 25.1875ZM30.1095 25.1875C30.1095 25.2745 30.0749 25.358 30.0133 25.4195C29.9518 25.4811 29.8684 25.5156 29.7813 25.5156C29.6943 25.5156 29.6108 25.4811 29.5493 25.4195C29.4878 25.358 29.4532 25.2745 29.4532 25.1875C29.4532 25.1005 29.4878 25.017 29.5493 24.9555C29.6108 24.8939 29.6943 24.8594 29.7813 24.8594C29.8684 24.8594 29.9518 24.8939 30.0133 24.9555C30.0749 25.017 30.1095 25.1005 30.1095 25.1875Z" stroke="#96FB4A" stroke-width="1.5" stroke-linecap="round" stroke-linejoin="round"/>
<defs>
<linearGradient id="paint0_linear_8_1710" x1="26.5" y1="0" x2="26.5" y2="53" gradientUnits="userSpaceOnUse">
<stop stop-color="#021303"/>
<stop offset="1" stop-color="#96FB4A"/>
</linearGradient>
</defs>
</svg>
