<svg width="53" height="53" viewBox="0 0 53 53" fill="none" xmlns="http://www.w3.org/2000/svg">
<circle cx="26.5" cy="26.5" r="26" fill="#021303" stroke="url(#paint0_linear_8_1711)"/>
<path d="M17.9688 23.2188H35.0312M17.9688 23.875H35.0312M20.5938 28.4688H25.8438M20.5938 30.4375H23.2188M19.9375 33.0625H33.0625C33.5846 33.0625 34.0854 32.8551 34.4546 32.4859C34.8238 32.1167 35.0312 31.6159 35.0312 31.0938V21.9062C35.0312 21.3841 34.8238 20.8833 34.4546 20.5141C34.0854 20.1449 33.5846 19.9375 33.0625 19.9375H19.9375C19.4154 19.9375 18.9146 20.1449 18.5454 20.5141C18.1762 20.8833 17.9688 21.3841 17.9688 21.9062V31.0938C17.9688 31.6159 18.1762 32.1167 18.5454 32.4859C18.9146 32.8551 19.4154 33.0625 19.9375 33.0625Z" stroke="#96FB4A" stroke-width="1.5" stroke-linecap="round" stroke-linejoin="round"/>
<defs>
<linearGradient id="paint0_linear_8_1711" x1="26.5" y1="0" x2="26.5" y2="53" gradientUnits="userSpaceOnUse">
<stop stop-color="#021303"/>
<stop offset="1" stop-color="#96FB4A"/>
</linearGradient>
</defs>
</svg>
