<svg width="674" height="696" viewBox="0 0 674 696" fill="none" xmlns="http://www.w3.org/2000/svg">
<circle cx="337" cy="337" r="336" stroke="url(#paint0_linear_8_1732)" stroke-width="2" stroke-linejoin="round" stroke-dasharray="17 17"/>
<circle cx="82.5" cy="556.5" r="26" fill="#021303" stroke="url(#paint1_linear_8_1732)"/>
<path d="M85.7813 555.188V551.25C85.7813 550.38 85.4356 549.545 84.8203 548.93C84.2049 548.314 83.3703 547.969 82.5001 547.969C81.6298 547.969 80.7952 548.314 80.1799 548.93C79.5645 549.545 79.2188 550.38 79.2188 551.25V555.188M89.1553 553.444L90.2605 563.944C90.3217 564.525 89.8667 565.031 89.2813 565.031H75.7188C75.5808 565.031 75.4442 565.002 75.318 564.946C75.1919 564.89 75.0789 564.808 74.9865 564.706C74.8941 564.603 74.8242 564.482 74.7816 564.351C74.7389 564.22 74.7243 564.081 74.7388 563.944L75.8448 553.444C75.8703 553.202 75.9845 552.978 76.1653 552.815C76.3461 552.652 76.5807 552.562 76.824 552.562H88.1762C88.6802 552.562 89.1028 552.943 89.1553 553.444ZM79.547 555.188C79.547 555.275 79.5124 555.358 79.4508 555.42C79.3893 555.481 79.3059 555.516 79.2188 555.516C79.1318 555.516 79.0483 555.481 78.9868 555.42C78.9253 555.358 78.8907 555.275 78.8907 555.188C78.8907 555.1 78.9253 555.017 78.9868 554.955C79.0483 554.894 79.1318 554.859 79.2188 554.859C79.3059 554.859 79.3893 554.894 79.4508 554.955C79.5124 555.017 79.547 555.1 79.547 555.188ZM86.1095 555.188C86.1095 555.275 86.0749 555.358 86.0133 555.42C85.9518 555.481 85.8684 555.516 85.7813 555.516C85.6943 555.516 85.6108 555.481 85.5493 555.42C85.4878 555.358 85.4532 555.275 85.4532 555.188C85.4532 555.1 85.4878 555.017 85.5493 554.955C85.6108 554.894 85.6943 554.859 85.7813 554.859C85.8684 554.859 85.9518 554.894 86.0133 554.955C86.0749 555.017 86.1095 555.1 86.1095 555.188Z" stroke="#96FB4A" stroke-width="1.5" stroke-linecap="round" stroke-linejoin="round"/>
<circle cx="588.5" cy="556.5" r="26" fill="#021303" stroke="url(#paint2_linear_8_1732)"/>
<path d="M589.688 552.438C589.004 552.26 588.055 552 587.294 552C583.542 552 580.5 554.334 580.5 557.214C580.5 558.868 581.504 560.343 583.071 561.298L582.647 562.698C582.544 563.035 582.797 563.375 583.149 563.375H584.693C584.806 563.375 584.917 563.338 585.008 563.27L586.228 562.354H588.36L589.58 563.27C589.671 563.338 589.782 563.375 589.896 563.375H591.439C591.792 563.375 592.044 563.035 591.942 562.698L591.517 561.298C592.45 560.729 593.184 559.975 593.625 559.109" stroke="#96FB4A" stroke-width="1.5" stroke-linecap="round" stroke-linejoin="round"/>
<path d="M589.688 552.438L593.625 551.125L593.552 554.3L595.375 555.062V558.125L593.69 559" stroke="#96FB4A" stroke-width="1.5" stroke-linecap="round" stroke-linejoin="round"/>
<path d="M590.562 556.375C590.321 556.375 590.125 556.179 590.125 555.938C590.125 555.696 590.321 555.5 590.562 555.5C590.804 555.5 591 555.696 591 555.938C591 556.179 590.804 556.375 590.562 556.375Z" fill="#96FB4A" stroke="#96FB4A" stroke-width="1.5" stroke-linecap="round" stroke-linejoin="round"/>
<path d="M578.75 553.75C578.75 553.75 578.75 555.85 580.5 556.375" stroke="#96FB4A" stroke-width="1.5" stroke-linecap="round" stroke-linejoin="round"/>
<path d="M588.201 551.784C588.314 551.459 588.375 551.109 588.375 550.744C588.375 549.021 587.004 547.625 585.312 547.625C583.621 547.625 582.25 549.021 582.25 550.744C582.25 551.568 582.564 552.317 583.076 552.875" stroke="#96FB4A" stroke-width="1.5" stroke-linejoin="round"/>
<circle cx="336.5" cy="669.5" r="26" fill="#021303" stroke="url(#paint3_linear_8_1732)"/>
<path d="M327.969 666.219H345.031M327.969 666.875H345.031M330.594 671.469H335.844M330.594 673.438H333.219M329.938 676.062H343.062C343.585 676.062 344.085 675.855 344.455 675.486C344.824 675.117 345.031 674.616 345.031 674.094V664.906C345.031 664.384 344.824 663.883 344.455 663.514C344.085 663.145 343.585 662.938 343.062 662.938H329.938C329.415 662.938 328.915 663.145 328.545 663.514C328.176 663.883 327.969 664.384 327.969 664.906V674.094C327.969 674.616 328.176 675.117 328.545 675.486C328.915 675.855 329.415 676.062 329.938 676.062Z" stroke="#96FB4A" stroke-width="1.5" stroke-linecap="round" stroke-linejoin="round"/>
<defs>
<linearGradient id="paint0_linear_8_1732" x1="337" y1="0" x2="337" y2="674" gradientUnits="userSpaceOnUse">
<stop offset="0.435" stop-color="#030303"/>
<stop offset="1" stop-color="#96FB4A"/>
</linearGradient>
<linearGradient id="paint1_linear_8_1732" x1="82.5" y1="530" x2="82.5" y2="583" gradientUnits="userSpaceOnUse">
<stop stop-color="#021303"/>
<stop offset="1" stop-color="#96FB4A"/>
</linearGradient>
<linearGradient id="paint2_linear_8_1732" x1="588.5" y1="530" x2="588.5" y2="583" gradientUnits="userSpaceOnUse">
<stop stop-color="#021303"/>
<stop offset="1" stop-color="#96FB4A"/>
</linearGradient>
<linearGradient id="paint3_linear_8_1732" x1="336.5" y1="643" x2="336.5" y2="696" gradientUnits="userSpaceOnUse">
<stop stop-color="#021303"/>
<stop offset="1" stop-color="#96FB4A"/>
</linearGradient>
</defs>
</svg>
