<svg width="50" height="50" viewBox="0 0 50 50" fill="none" xmlns="http://www.w3.org/2000/svg">
<rect width="50" height="50" rx="25" fill="#96FB4A"/>
<path d="M24.994 12.7029C29 12.7029 29.4702 12.7208 31.0536 12.7922C32.5179 12.8577 33.3095 13.1018 33.8393 13.3102C34.5417 13.584 35.0417 13.9055 35.5655 14.4295C36.0893 14.9534 36.4167 15.4535 36.6845 16.156C36.8869 16.6859 37.1369 17.4777 37.2024 18.9423C37.2738 20.5259 37.2917 20.9962 37.2917 25.003C37.2917 29.0097 37.2738 29.4801 37.2024 31.0637C37.1369 32.5283 36.8929 33.3201 36.6845 33.85C36.4107 34.5525 36.0893 35.0526 35.5655 35.5765C35.0417 36.1004 34.5417 36.4279 33.8393 36.6958C33.3095 36.8982 32.5179 37.1482 31.0536 37.2137C29.4702 37.2852 29 37.303 24.994 37.303C20.9881 37.303 20.5179 37.2852 18.9345 37.2137C17.4702 37.1482 16.6786 36.9041 16.1488 36.6958C15.4464 36.4219 14.9464 36.1004 14.4226 35.5765C13.8988 35.0526 13.5714 34.5525 13.3036 33.85C13.1012 33.3201 12.8512 32.5283 12.7857 31.0637C12.7143 29.4801 12.6964 29.0097 12.6964 25.003C12.6964 20.9962 12.7143 20.5259 12.7857 18.9423C12.8512 17.4777 13.0952 16.6859 13.3036 16.156C13.5774 15.4535 13.8988 14.9534 14.4226 14.4295C14.9464 13.9055 15.4464 13.5781 16.1488 13.3102C16.6786 13.1078 17.4702 12.8577 18.9345 12.7922C20.5179 12.7148 20.994 12.7029 24.994 12.7029ZM24.994 10C20.9226 10 20.4107 10.0179 18.8095 10.0893C17.2143 10.1607 16.125 10.4167 15.1726 10.7859C14.1845 11.1669 13.3512 11.6849 12.5179 12.5184C11.6845 13.3519 11.1726 14.1913 10.7857 15.1736C10.4167 16.1262 10.1607 17.2157 10.0893 18.8172C10.0179 20.4128 10 20.9248 10 24.997C10 29.0693 10.0179 29.5813 10.0893 31.1828C10.1607 32.7783 10.4167 33.8678 10.7857 34.8264C11.1667 35.8146 11.6845 36.6481 12.5179 37.4816C13.3512 38.3151 14.1905 38.8271 15.1726 39.2141C16.125 39.5833 17.2143 39.8393 18.8155 39.9107C20.4167 39.9821 20.9226 40 25 40C29.0774 40 29.5833 39.9821 31.1845 39.9107C32.7798 39.8393 33.869 39.5833 34.8274 39.2141C35.8155 38.8331 36.6488 38.3151 37.4821 37.4816C38.3155 36.6481 38.8274 35.8087 39.2143 34.8264C39.5833 33.8738 39.8393 32.7843 39.9107 31.1828C39.9821 29.5813 40 29.0752 40 24.997C40 20.9188 39.9821 20.4128 39.9107 18.8113C39.8393 17.2157 39.5833 16.1262 39.2143 15.1677C38.8333 14.1794 38.3155 13.3459 37.4821 12.5124C36.6488 11.6789 35.8095 11.1669 34.8274 10.7799C33.875 10.4108 32.7857 10.1548 31.1845 10.0833C29.5774 10.0179 29.0655 10 24.994 10Z" fill="#021303"/>
<path d="M24.9939 17.2993C20.7439 17.2993 17.2915 20.7464 17.2915 25.0032C17.2915 29.26 20.7379 32.7071 24.9939 32.7071C29.2498 32.7071 32.6963 29.26 32.6963 25.0032C32.6963 20.7464 29.2498 17.2993 24.9939 17.2993ZM24.9939 29.9983C22.232 29.9983 19.9939 27.7597 19.9939 24.9973C19.9939 22.2348 22.232 19.9963 24.9939 19.9963C27.7558 19.9963 29.9939 22.2348 29.9939 24.9973C29.9939 27.7597 27.7558 29.9983 24.9939 29.9983Z" fill="#021303"/>
<path d="M33.0003 18.7878C33.9931 18.7878 34.7979 17.9829 34.7979 16.9899C34.7979 15.9969 33.9931 15.1919 33.0003 15.1919C32.0075 15.1919 31.2026 15.9969 31.2026 16.9899C31.2026 17.9829 32.0075 18.7878 33.0003 18.7878Z" fill="#021303"/>
</svg>
