<svg width="1728" height="601" viewBox="0 0 1728 601" fill="none" xmlns="http://www.w3.org/2000/svg">
<path d="M1548.56 205.145L1544.56 206.853C1545.01 206.709 1545.46 206.574 1545.91 206.431C1547.4 205.843 1548.89 205.253 1550.39 204.653C1549.78 204.82 1549.17 204.979 1548.56 205.145ZM1523.12 214.549C1522.09 215.009 1521.05 215.478 1520.02 215.934L1520.44 215.789L1524.35 214.183L1523.12 214.549ZM1537.51 208.126C1535.24 209.148 1532.99 210.135 1530.73 211.154C1531.91 210.791 1533.11 210.408 1534.3 210.042C1536.53 209.107 1538.78 208.136 1541.01 207.18C1539.85 207.493 1538.68 207.816 1537.51 208.126ZM1497.26 224.589C1496.39 224.982 1495.55 225.35 1494.69 225.742L1494.71 225.734C1495.7 225.311 1496.71 224.872 1497.7 224.445L1497.26 224.589ZM1511.47 218.01C1509.44 218.952 1507.4 219.906 1505.38 220.839C1506.31 220.532 1507.24 220.234 1508.17 219.925C1510.48 218.924 1512.75 217.966 1515.06 216.95C1513.86 217.3 1512.66 217.664 1511.47 218.01ZM1526.57 210.961C1523.72 212.311 1520.9 213.616 1518.06 214.945C1519.55 214.505 1521.04 214.062 1522.52 213.617C1525.37 212.357 1528.22 211.076 1531.07 209.804C1529.57 210.193 1528.07 210.576 1526.57 210.961ZM340.694 226.098L341.745 226.289C342.529 226.252 343.311 226.219 344.094 226.184L343.123 226.048C342.314 226.063 341.504 226.082 340.694 226.098ZM1470.24 235.467L1469.34 235.882C1469.75 235.704 1470.15 235.535 1470.56 235.357L1470.24 235.467ZM1485.32 228.394C1483.44 229.294 1481.58 230.169 1479.71 231.049C1480.45 230.791 1481.18 230.542 1481.93 230.282C1483.91 229.393 1485.92 228.484 1487.9 227.594C1487.04 227.866 1486.18 228.124 1485.32 228.394ZM1500.27 221.199C1497.55 222.509 1494.82 223.828 1492.1 225.128C1493.62 224.644 1495.15 224.143 1496.66 223.655C1499.34 222.432 1502.04 221.179 1504.75 219.924C1503.25 220.35 1501.76 220.777 1500.27 221.199ZM1515.59 213.738C1512.34 215.345 1509.1 216.931 1505.88 218.496C1507.55 218.018 1509.21 217.558 1510.88 217.074C1514.22 215.518 1517.54 213.987 1520.88 212.428C1519.12 212.874 1517.36 213.299 1515.59 213.738ZM331.725 226.286C332.338 226.424 332.947 226.569 333.56 226.708L337.013 226.529C336.42 226.423 335.83 226.312 335.236 226.208C334.066 226.234 332.896 226.258 331.725 226.286ZM326.321 225.094L327.523 225.356L329.879 225.292L328.833 225.113C327.994 225.107 327.159 225.097 326.321 225.094ZM321.319 224.013L321.487 224.048L322.23 224.048L321.319 224.013ZM1458.29 239.481C1456.53 240.324 1454.76 241.182 1452.99 242.033L1455.64 241.062C1457.36 240.273 1459.11 239.445 1460.84 238.637C1459.99 238.921 1459.14 239.198 1458.29 239.481ZM1473.51 232.045C1470.94 233.324 1468.37 234.611 1465.84 235.847C1467.09 235.423 1468.37 234.968 1469.63 234.538C1472.37 233.254 1475.1 231.989 1477.85 230.703C1476.41 231.147 1474.95 231.605 1473.51 232.045ZM1489.1 224.305L1479.49 229.079C1481.23 228.538 1482.97 228.008 1484.72 227.461C1487.82 225.986 1490.96 224.461 1494.1 222.948C1492.43 223.411 1490.77 223.848 1489.1 224.305ZM1504.72 216.41C1501.13 218.253 1497.53 220.102 1493.99 221.878C1495.88 221.355 1497.78 220.8 1499.67 220.267C1503.34 218.487 1506.98 216.749 1510.67 214.947C1508.69 215.433 1506.7 215.934 1504.72 216.41ZM323.01 226.528C323.781 226.738 324.555 226.944 325.325 227.157C326.728 227.077 328.133 226.993 329.534 226.916C328.766 226.744 327.992 226.581 327.222 226.41C325.818 226.45 324.415 226.485 323.01 226.528ZM317.74 225.099C318.344 225.259 318.944 225.424 319.548 225.586C320.692 225.55 321.833 225.515 322.976 225.482L321.163 225.097C320.021 225.098 318.882 225.096 317.74 225.099ZM312.554 223.754L313.749 224.064C314.542 224.059 315.336 224.053 316.127 224.051C315.766 223.977 315.408 223.901 315.047 223.827C314.215 223.805 313.386 223.777 312.554 223.754ZM307.687 222.523L307.95 222.589L308.892 222.608L308.824 222.595L307.687 222.523ZM1430.85 251.103C1429.28 251.883 1427.69 252.678 1426.13 253.444C1426.65 253.248 1427.17 253.043 1427.68 252.844C1429.51 251.989 1431.32 251.154 1433.15 250.295L1430.85 251.103ZM1446.27 243.463C1443.77 244.707 1441.29 245.927 1438.79 247.167C1440.04 246.725 1441.26 246.306 1442.51 245.861C1445.04 244.655 1447.6 243.41 1450.15 242.181C1448.86 242.602 1447.55 243.046 1446.27 243.463ZM1462.01 235.487C1458.96 237.048 1455.91 238.621 1452.9 240.135C1454.5 239.612 1456.09 239.08 1457.69 238.548C1460.86 237.014 1463.99 235.521 1467.17 233.961C1465.45 234.478 1463.73 234.977 1462.01 235.487ZM1478 227.323C1474.38 229.183 1470.79 231.002 1467.18 232.846C1469.09 232.274 1471 231.696 1472.91 231.113C1476.46 229.364 1480.04 227.578 1483.62 225.798C1481.74 226.301 1479.87 226.828 1478 227.323ZM1494.1 218.899C1490.21 220.954 1486.3 223.027 1482.47 225.01C1484.48 224.469 1486.49 223.92 1488.5 223.37C1492.39 221.424 1496.28 219.463 1500.21 217.473C1498.17 217.955 1496.14 218.427 1494.1 218.899ZM314.47 226.812C315.314 227.088 316.155 227.369 316.997 227.648C318.615 227.548 320.23 227.455 321.846 227.361C320.968 227.121 320.09 226.881 319.21 226.645C317.631 226.698 316.05 226.756 314.47 226.812ZM309.283 225.152C310.037 225.391 310.79 225.629 311.542 225.869C312.938 225.818 314.33 225.771 315.725 225.722C314.948 225.518 314.17 225.318 313.392 225.116C312.023 225.125 310.653 225.14 309.283 225.152ZM304.201 223.566C304.821 223.756 305.446 223.94 306.066 224.133C307.2 224.119 308.333 224.114 309.465 224.103C308.837 223.944 308.203 223.792 307.573 223.635L304.201 223.566ZM299.274 222.072C299.677 222.192 300.077 222.317 300.478 222.437C301.293 222.45 302.104 222.471 302.917 222.486L301.754 222.203C300.928 222.159 300.103 222.113 299.274 222.072ZM294.533 220.692L294.909 220.801C295.258 220.817 295.607 220.83 295.955 220.846L295.761 220.801C295.35 220.766 294.943 220.726 294.533 220.692ZM1403.27 263.136C1401.7 263.922 1400.19 264.645 1398.64 265.42C1398.97 265.289 1399.29 265.169 1399.63 265.038C1401.29 264.244 1402.98 263.425 1404.65 262.625C1404.19 262.793 1403.72 262.97 1403.27 263.136ZM1418.57 255.355C1416.27 256.528 1413.95 257.714 1411.66 258.87C1412.83 258.438 1413.99 258.014 1415.15 257.577C1417.57 256.406 1419.96 255.263 1422.39 254.069C1421.11 254.51 1419.85 254.918 1418.57 255.355ZM1434.77 247.106C1431.62 248.729 1428.54 250.274 1425.42 251.875C1427.02 251.319 1428.64 250.734 1430.25 250.172C1433.29 248.677 1436.34 247.154 1439.39 245.643C1437.85 246.136 1436.31 246.622 1434.77 247.106ZM1450.52 238.86C1447.08 240.669 1443.63 242.486 1440.22 244.253C1442.05 243.669 1443.85 243.115 1445.68 242.522C1449.18 240.769 1452.71 238.991 1456.25 237.189C1454.34 237.745 1452.43 238.314 1450.52 238.86ZM1467.14 230.14C1463.17 232.244 1459.26 234.277 1455.32 236.348C1457.35 235.758 1459.39 235.15 1461.42 234.548C1465.28 232.581 1469.16 230.599 1473.05 228.612C1471.07 229.127 1469.11 229.634 1467.14 230.14ZM1483.55 221.314C1479.37 223.569 1475.19 225.835 1471.06 228.032C1473.18 227.48 1475.29 226.948 1477.41 226.386C1481.5 224.273 1485.66 222.09 1489.81 219.905C1487.72 220.383 1485.64 220.845 1483.55 221.314ZM305.966 227.135C306.881 227.486 307.801 227.831 308.713 228.187C310.47 228.07 312.225 227.95 313.982 227.838C313.042 227.532 312.102 227.23 311.161 226.928C309.43 226.992 307.697 227.063 305.966 227.135ZM301.002 225.251C301.839 225.562 302.672 225.88 303.506 226.195C305.074 226.128 306.642 226.055 308.209 225.992C307.36 225.725 306.516 225.449 305.666 225.185C304.113 225.201 302.557 225.226 301.002 225.251ZM296.059 223.436C296.799 223.704 297.535 223.978 298.273 224.248C299.632 224.225 300.994 224.199 302.353 224.179C301.587 223.947 300.823 223.711 300.057 223.481C298.727 223.46 297.391 223.453 296.059 223.436ZM291.166 221.698C291.783 221.914 292.4 222.129 293.015 222.349L296.358 222.386C295.731 222.203 295.101 222.022 294.474 221.841C293.373 221.791 292.269 221.744 291.166 221.698ZM286.42 220.053C286.854 220.201 287.294 220.343 287.728 220.492C288.532 220.523 289.333 220.561 290.137 220.596C289.709 220.476 289.279 220.361 288.853 220.244C288.042 220.18 287.232 220.114 286.42 220.053ZM281.927 218.546L282.374 218.695C282.748 218.721 283.124 218.744 283.497 218.771L283.185 218.686L281.927 218.546ZM1374.65 275.849C1373.41 276.47 1372.17 277.101 1370.93 277.726C1371.41 277.534 1371.88 277.348 1372.35 277.154C1373.61 276.544 1374.88 275.913 1376.15 275.288C1375.65 275.481 1375.15 275.658 1374.65 275.849ZM1390.79 267.615C1388.57 268.771 1386.36 269.912 1384.17 271.035C1385.11 270.672 1386.05 270.302 1386.99 269.938C1389.33 268.785 1391.69 267.619 1394.02 266.469C1392.94 266.856 1391.87 267.231 1390.79 267.615ZM1406.58 259.393C1403.62 260.933 1400.66 262.484 1397.71 264.011C1399.35 263.419 1401 262.815 1402.64 262.213C1405.51 260.775 1408.44 259.274 1411.36 257.783C1409.77 258.318 1408.17 258.866 1406.58 259.393ZM1422.95 250.796C1419.53 252.617 1416.13 254.4 1412.74 256.182C1414.48 255.596 1416.21 255.022 1417.96 254.427L1428.34 249.145C1426.54 249.705 1424.75 250.245 1422.95 250.796ZM1439.38 241.996C1435.53 244.067 1431.67 246.137 1427.85 248.175C1429.94 247.523 1432.06 246.835 1434.17 246.172C1437.85 244.274 1441.61 242.286 1445.35 240.318C1443.36 240.881 1441.37 241.444 1439.38 241.996ZM1456.2 232.919C1452.02 235.197 1447.88 237.432 1443.75 239.661C1445.81 239.079 1447.86 238.516 1449.93 237.921C1454.12 235.728 1458.29 233.558 1462.49 231.344C1460.39 231.878 1458.3 232.396 1456.2 232.919ZM1473.08 223.643C1468.63 226.095 1464.19 228.541 1459.79 230.946C1462.03 230.38 1464.29 229.78 1466.54 229.201C1470.82 226.933 1475.2 224.556 1479.55 222.203C1477.39 222.683 1475.23 223.176 1473.08 223.643ZM307.056 231.885C353.15 253.649 395.368 281.588 438.383 310.067C596.197 414.553 764.894 526.153 1176.65 364.483M297.542 227.497C298.47 227.912 299.392 228.339 300.315 228.76C302.205 228.626 304.094 228.494 305.983 228.367C305.018 227.996 304.052 227.626 303.085 227.259C301.239 227.336 299.393 227.411 297.542 227.497ZM292.751 225.392C293.637 225.778 294.521 226.166 295.403 226.556C297.138 226.472 298.869 226.394 300.6 226.32C299.683 225.977 298.759 225.643 297.837 225.305C296.143 225.332 294.449 225.355 292.751 225.392ZM288.003 223.356C288.829 223.705 289.659 224.047 290.482 224.401C292.026 224.366 293.571 224.332 295.112 224.304C294.264 223.997 293.412 223.698 292.563 223.396C291.044 223.38 289.525 223.366 288.003 223.356ZM283.309 221.394C284.039 221.694 284.767 221.996 285.494 222.299C286.818 222.303 288.146 222.298 289.468 222.308C288.727 222.049 287.992 221.784 287.249 221.53C285.939 221.479 284.622 221.439 283.309 221.394ZM278.642 219.509C279.249 219.751 279.852 219.999 280.458 220.243L283.739 220.352C283.119 220.145 282.501 219.933 281.879 219.728L278.642 219.509ZM274.05 217.718L275.361 218.224C276.162 218.273 276.958 218.332 277.757 218.385L276.463 217.971C275.657 217.888 274.855 217.798 274.05 217.718ZM269.81 216.1L270.32 216.288L271.423 216.391L270.983 216.258C270.593 216.203 270.2 216.154 269.81 216.1ZM1346.3 288.715C1345.24 289.26 1344.18 289.818 1343.13 290.356L1343.4 290.241C1344.71 289.596 1346.01 288.967 1347.32 288.321L1346.3 288.715ZM1362.31 280.434C1360.04 281.61 1357.76 282.784 1355.48 283.969C1356.56 283.538 1357.67 283.077 1358.76 282.643C1360.95 281.548 1363.18 280.411 1365.38 279.293C1364.36 279.674 1363.33 280.057 1362.31 280.434ZM1378.18 272.091C1375.49 273.526 1372.79 274.976 1370.14 276.367C1371.44 275.88 1372.72 275.419 1374.02 274.927C1377.02 273.4 1380 271.915 1383.02 270.374C1381.41 270.937 1379.78 271.534 1378.18 272.091ZM1394.81 263.242L1384.66 268.644C1386.49 267.997 1388.33 267.341 1390.17 266.686C1393.41 265.019 1396.69 263.295 1399.97 261.585C1398.24 262.15 1396.53 262.685 1394.81 263.242ZM1411.38 254.296C1407.62 256.348 1403.87 258.398 1400.17 260.39C1402.09 259.763 1404.02 259.11 1405.94 258.471C1409.82 256.446 1413.64 254.485 1417.54 252.433C1415.48 253.055 1413.42 253.685 1411.38 254.296ZM1428.3 245.047C1424.17 247.305 1420.07 249.551 1415.96 251.791C1418.09 251.148 1420.21 250.515 1422.34 249.86C1426.33 247.748 1430.38 245.567 1434.41 243.396C1432.37 243.96 1430.34 244.495 1428.3 245.047ZM1445.39 235.58C1440.98 238.042 1436.59 240.49 1432.25 242.887C1434.42 242.293 1436.6 241.668 1438.77 241.063C1443.19 238.69 1447.56 236.359 1452.01 233.949C1449.8 234.493 1447.59 235.049 1445.39 235.58ZM1462.8 225.816C1458.14 228.441 1453.49 231.045 1448.85 233.638C1451.1 233.09 1453.35 232.539 1455.6 231.977C1460.12 229.518 1464.71 226.977 1469.3 224.446C1467.13 224.912 1464.97 225.362 1462.8 225.816ZM289.128 227.922C290.062 228.407 290.998 228.888 291.928 229.378C293.916 229.227 295.903 229.083 297.889 228.94C296.908 228.499 295.925 228.06 294.941 227.626C293.004 227.723 291.066 227.821 289.128 227.922ZM284.599 225.602C285.498 226.056 286.399 226.509 287.295 226.969C289.133 226.871 290.969 226.779 292.806 226.688C291.872 226.279 290.942 225.864 290.005 225.462C288.203 225.508 286.402 225.552 284.599 225.602ZM280.074 223.339C280.923 223.756 281.765 224.183 282.609 224.605C284.296 224.556 285.978 224.516 287.663 224.475C286.774 224.1 285.887 223.721 284.996 223.351C283.356 223.345 281.718 223.336 280.074 223.339ZM275.525 221.148C276.318 221.525 277.107 221.908 277.897 222.291C279.413 222.284 280.925 222.288 282.437 222.292C281.607 221.952 280.772 221.618 279.939 221.282C278.468 221.234 276.998 221.187 275.525 221.148ZM271.016 219.039C271.738 219.372 272.462 219.7 273.182 220.037C274.484 220.069 275.79 220.094 277.09 220.131C276.336 219.834 275.575 219.547 274.819 219.253C273.554 219.175 272.283 219.112 271.016 219.039ZM266.57 217.012C267.178 217.284 267.786 217.554 268.391 217.828C269.46 217.886 270.526 217.949 271.595 218.009C270.981 217.776 270.371 217.54 269.757 217.309C268.694 217.21 267.635 217.108 266.57 217.012ZM262.226 215.096C262.658 215.284 263.086 215.476 263.517 215.665C264.295 215.732 265.071 215.801 265.848 215.872C265.415 215.713 264.988 215.553 264.556 215.397C263.779 215.295 263.004 215.195 262.226 215.096ZM258.11 213.348L258.653 213.577L259.792 213.713L259.311 213.547L258.11 213.348ZM1317.96 301.842L1317.75 301.953L1318.01 301.824L1317.96 301.842ZM1333.27 293.763C1331.3 294.805 1329.31 295.862 1327.34 296.893C1328.18 296.553 1328.99 296.234 1329.83 295.892C1332.13 294.729 1334.37 293.624 1336.68 292.442C1335.55 292.875 1334.4 293.333 1333.27 293.763ZM1349.94 284.967C1347.14 286.459 1344.4 287.883 1341.6 289.368C1342.96 288.841 1344.32 288.318 1345.69 287.785C1348.37 286.408 1351.07 284.999 1353.76 283.609C1352.48 284.077 1351.22 284.505 1349.94 284.967ZM1366.27 276.132C1362.99 277.917 1359.7 279.714 1356.46 281.456C1358.19 280.823 1359.94 280.157 1361.67 279.517C1364.99 277.783 1368.3 276.076 1371.65 274.308C1369.85 274.924 1368.06 275.525 1366.27 276.132ZM1383.08 267.014C1379.33 269.055 1375.62 271.054 1371.88 273.091C1373.78 272.439 1375.65 271.826 1377.56 271.162C1381.3 269.186 1385.07 267.172 1388.83 265.164C1386.92 265.776 1384.98 266.413 1383.08 267.014ZM1400.02 257.622C1396.02 259.858 1392 262.112 1388.07 264.282C1390.1 263.632 1392.14 262.974 1394.19 262.314C1398.2 260.164 1402.2 258.025 1406.25 255.833C1404.16 256.445 1402.1 257.02 1400.02 257.622ZM1417.32 247.986C1412.92 250.444 1408.55 252.869 1404.16 255.319C1406.36 254.674 1408.56 254.018 1410.77 253.36C1415.06 251.026 1419.4 248.647 1423.74 246.268C1421.6 246.838 1419.46 247.426 1417.32 247.986ZM1434.79 238.08C1430.22 240.696 1425.63 243.33 1421.14 245.863C1423.32 245.282 1425.5 244.7 1427.69 244.108C1432.24 241.604 1436.8 239.094 1441.4 236.537C1439.19 237.064 1436.99 237.566 1434.79 238.08ZM1452.58 227.924C1447.7 230.717 1442.87 233.466 1438 236.244C1440.26 235.711 1442.52 235.185 1444.78 234.64C1449.54 231.99 1454.34 229.293 1459.14 226.588C1456.95 227.042 1454.76 227.482 1452.58 227.924ZM280.732 228.385C281.653 228.935 282.567 229.493 283.483 230.05C285.546 229.883 287.611 229.709 289.673 229.547C288.709 229.043 287.746 228.539 286.78 228.042C284.766 228.15 282.749 228.268 280.732 228.385ZM276.454 225.854C277.348 226.374 278.234 226.907 279.123 227.433C281.057 227.32 282.991 227.199 284.92 227.091C283.977 226.611 283.027 226.14 282.079 225.666C280.207 225.722 278.329 225.789 276.454 225.854ZM272.135 223.384C273.004 223.875 273.872 224.367 274.737 224.865C276.53 224.801 278.322 224.738 280.112 224.681C279.198 224.23 278.278 223.79 277.361 223.345C275.621 223.354 273.878 223.368 272.135 223.384ZM267.806 220.97C268.64 221.428 269.48 221.881 270.312 222.345C271.946 222.329 273.577 222.32 275.208 222.309C274.347 221.899 273.488 221.486 272.623 221.081C271.019 221.042 269.415 221 267.806 220.97ZM263.511 218.636C264.28 219.045 265.044 219.462 265.809 219.877C267.281 219.902 268.749 219.935 270.217 219.969C269.414 219.599 268.615 219.223 267.808 218.856C266.377 218.779 264.944 218.706 263.511 218.636ZM259.224 216.387C259.918 216.745 260.605 217.113 261.297 217.474C262.561 217.533 263.831 217.584 265.095 217.647C264.372 217.325 263.647 217.006 262.923 216.688C261.692 216.584 260.456 216.486 259.224 216.387ZM254.93 214.214C255.53 214.513 256.13 214.811 256.727 215.114C257.786 215.197 258.841 215.287 259.898 215.372C259.28 215.108 258.657 214.851 258.037 214.59C257.001 214.465 255.97 214.334 254.93 214.214ZM250.819 212.186C251.262 212.401 251.713 212.609 252.155 212.825C252.91 212.908 253.667 212.982 254.42 213.069C253.97 212.883 253.512 212.707 253.061 212.524C252.317 212.406 251.566 212.301 250.819 212.186ZM246.902 210.315L247.455 210.579C247.85 210.636 248.242 210.698 248.637 210.757C248.473 210.693 248.314 210.627 248.15 210.562L246.902 210.315ZM1288.19 315.809L1285.38 317.277L1285.6 317.183C1286.61 316.672 1287.65 316.129 1288.67 315.61L1288.19 315.809ZM1304.46 307.233C1302.73 308.164 1300.99 309.11 1299.29 310.012L1300.91 309.336C1302.84 308.346 1304.78 307.348 1306.7 306.368C1305.95 306.665 1305.21 306.938 1304.46 307.233ZM1320.85 298.42C1318.18 299.854 1315.49 301.303 1312.83 302.733C1314.32 302.14 1315.83 301.522 1317.33 300.923C1319.84 299.614 1322.41 298.246 1324.96 296.894C1323.58 297.411 1322.22 297.908 1320.85 298.42ZM1337.65 289.338C1334.34 291.149 1331.09 292.899 1327.81 294.678C1329.41 294.072 1331.02 293.459 1332.63 292.845C1335.96 291.088 1339.3 289.323 1342.63 287.566C1340.97 288.157 1339.3 288.755 1337.65 289.338ZM1354.21 280.188C1350.63 282.172 1347.04 284.164 1343.48 286.115C1345.42 285.423 1347.35 284.75 1349.3 284.046C1352.85 282.151 1356.44 280.2 1360.04 278.245C1358.1 278.894 1356.15 279.549 1354.21 280.188ZM1371.66 270.53C1367.54 272.834 1363.5 275.045 1359.4 277.322C1361.47 276.63 1363.56 275.908 1365.64 275.204C1369.63 273.046 1373.62 270.881 1377.61 268.709C1375.62 269.328 1373.65 269.924 1371.66 270.53ZM1388.69 260.882C1384.44 263.302 1380.17 265.729 1375.97 268.089C1378.13 267.421 1380.27 266.772 1382.44 266.089C1386.68 263.764 1390.97 261.381 1395.27 258.988C1393.08 259.614 1390.87 260.269 1388.69 260.882ZM1406.59 250.742C1401.92 253.408 1397.34 255.976 1392.68 258.619C1394.92 257.983 1397.17 257.333 1399.41 256.684C1403.93 254.171 1408.46 251.652 1413.01 249.111C1410.86 249.667 1408.73 250.197 1406.59 250.742ZM1424.22 240.52C1419.46 243.295 1414.68 246.085 1409.98 248.781C1412.23 248.206 1414.46 247.639 1416.71 247.048C1421.42 244.399 1426.19 241.693 1430.97 238.972C1428.72 239.492 1426.47 240.013 1424.22 240.52ZM1442.43 229.951C1437.35 232.91 1432.34 235.8 1427.27 238.751C1429.57 238.226 1431.88 237.673 1434.18 237.137C1439.14 234.312 1444.11 231.481 1449.1 228.618C1446.88 229.063 1444.65 229.518 1442.43 229.951ZM272.311 228.887C273.209 229.507 274.104 230.13 274.996 230.756C277.142 230.571 279.287 230.392 281.432 230.217C280.481 229.644 279.523 229.08 278.568 228.512C276.483 228.634 274.398 228.756 272.311 228.887ZM268.272 226.152C269.158 226.746 270.047 227.334 270.928 227.934C272.94 227.804 274.95 227.681 276.959 227.561C276.031 227.016 275.102 226.47 274.169 225.933C272.206 226.002 270.24 226.073 268.272 226.152ZM264.221 223.476C265.084 224.038 265.946 224.599 266.804 225.168C268.682 225.09 270.559 225.013 272.435 224.944C271.531 224.429 270.632 223.908 269.723 223.4C267.893 223.419 266.058 223.448 264.221 223.476ZM260.161 220.859C260.99 221.383 261.811 221.921 262.636 222.451C264.372 222.422 266.111 222.387 267.845 222.365C266.971 221.881 266.094 221.401 265.215 220.923C263.532 220.898 261.847 220.878 260.161 220.859ZM256.029 218.296C256.83 218.787 257.627 219.285 258.424 219.782C260.028 219.797 261.627 219.822 263.227 219.843C262.383 219.392 261.53 218.953 260.68 218.508C259.13 218.434 257.584 218.358 256.029 218.296ZM251.939 215.835C252.689 216.28 253.442 216.72 254.188 217.171C255.618 217.225 257.045 217.284 258.468 217.347C257.677 216.939 256.882 216.535 256.087 216.132C254.708 216.027 253.321 215.933 251.939 215.835ZM247.858 213.447C248.54 213.839 249.225 214.229 249.904 214.626C251.134 214.71 252.365 214.793 253.592 214.881C252.897 214.534 252.208 214.181 251.51 213.839C250.293 213.708 249.078 213.573 247.858 213.447ZM243.826 211.156C244.393 211.472 244.952 211.799 245.516 212.116C246.543 212.219 247.564 212.331 248.586 212.441C247.986 212.154 247.386 211.863 246.783 211.579C245.8 211.435 244.813 211.295 243.826 211.156ZM239.85 208.996L241.14 209.695C241.882 209.795 242.626 209.895 243.367 209.997L242.047 209.397L239.85 208.996ZM236.059 206.99L236.68 207.31L237.801 207.505L237.213 207.252L236.059 206.99ZM1275.41 320.985C1273.67 321.929 1271.93 322.866 1270.2 323.789L1272.01 323.015C1273.8 322.085 1275.63 321.121 1277.44 320.177C1276.76 320.451 1276.09 320.712 1275.41 320.985ZM1291.78 312.119C1289.09 313.575 1286.38 315.047 1283.69 316.503C1284.95 315.988 1286.25 315.431 1287.51 314.911C1290.31 313.44 1293.07 312.018 1295.87 310.541C1294.51 311.069 1293.14 311.597 1291.78 312.119ZM1308.31 303.071C1305.28 304.752 1302.24 306.434 1299.25 308.071C1300.79 307.473 1302.3 306.904 1303.85 306.298C1306.96 304.642 1310.12 302.927 1313.27 301.229C1311.63 301.835 1309.95 302.475 1308.31 303.071ZM1325.47 293.572C1321.86 295.574 1318.26 297.564 1314.66 299.557C1316.51 298.875 1318.37 298.185 1320.22 297.492C1323.83 295.548 1327.39 293.648 1331 291.697C1329.14 292.343 1327.32 292.937 1325.47 293.572ZM1342.61 283.939C1338.64 286.187 1334.67 288.451 1330.76 290.637C1332.83 289.918 1334.94 289.148 1337.02 288.415C1340.85 286.318 1344.76 284.143 1348.66 281.984C1346.64 282.642 1344.62 283.292 1342.61 283.939ZM1360.11 274.05C1355.8 276.501 1351.57 278.87 1347.3 281.29C1349.4 280.606 1351.49 279.949 1353.6 279.252C1357.93 276.857 1362.22 274.498 1366.56 272.094C1364.41 272.743 1362.25 273.413 1360.11 274.05ZM1377.76 263.878C1373.22 266.501 1368.68 269.129 1364.2 271.692C1366.47 271.009 1368.76 270.295 1371.04 269.598C1375.4 267.159 1379.85 264.618 1384.28 262.098C1382.1 262.702 1379.93 263.285 1377.76 263.878ZM1395.7 253.485C1390.91 256.282 1386.16 259.024 1381.41 261.771C1383.64 261.158 1385.84 260.571 1388.08 259.944C1392.88 257.221 1397.65 254.529 1402.47 251.789C1400.22 252.354 1397.95 252.934 1395.7 253.485ZM1413.9 242.799C1408.89 245.751 1403.89 248.692 1398.94 251.589C1401.28 251.006 1403.63 250.396 1405.98 249.799C1410.8 247.037 1415.71 244.168 1420.61 241.316C1418.37 241.815 1416.14 242.313 1413.9 242.799ZM1432.35 231.867C1427.15 234.962 1421.98 238.039 1416.85 241.066C1419.11 240.569 1421.36 240.079 1423.62 239.57C1428.78 236.572 1433.91 233.612 1439.09 230.595C1436.83 231.03 1434.59 231.445 1432.35 231.867ZM263.888 229.455C264.756 230.14 265.625 230.822 266.487 231.515C268.681 231.313 270.873 231.121 273.065 230.928C272.151 230.291 271.241 229.651 270.321 229.023C268.178 229.163 266.035 229.307 263.888 229.455ZM260.11 226.505C260.966 227.162 261.816 227.827 262.664 228.491C264.747 228.344 266.825 228.208 268.904 228.07C267.999 227.459 267.091 226.849 266.18 226.243C264.159 226.327 262.136 226.411 260.11 226.505ZM256.311 223.618C257.148 224.243 257.974 224.881 258.806 225.515C260.774 225.42 262.737 225.34 264.701 225.259C263.806 224.67 262.901 224.094 262 223.512C260.106 223.544 258.21 223.576 256.311 223.618ZM252.466 220.802C253.29 221.399 254.114 221.998 254.932 222.604C256.761 222.56 258.589 222.522 260.414 222.488C259.537 221.929 258.654 221.379 257.773 220.828C256.007 220.812 254.236 220.809 252.466 220.802ZM248.593 218.04C249.402 218.608 250.215 219.169 251.02 219.744C252.695 219.749 254.373 219.747 256.044 219.757C255.206 219.24 254.37 218.719 253.527 218.209C251.883 218.149 250.24 218.092 248.593 218.04ZM244.717 215.352C245.484 215.873 246.245 216.4 247.006 216.926C248.554 216.973 250.094 217.03 251.637 217.085C250.83 216.604 250.029 216.12 249.218 215.646C247.72 215.544 246.221 215.443 244.717 215.352ZM240.854 212.757C241.569 213.227 242.272 213.71 242.982 214.187C244.361 214.267 245.742 214.345 247.117 214.434C246.356 213.996 245.592 213.563 244.826 213.131C243.505 213.001 242.178 212.881 240.854 212.757ZM236.917 210.219C237.581 210.641 238.244 211.065 238.904 211.493C240.116 211.603 241.323 211.721 242.531 211.834C241.833 211.449 241.125 211.075 240.423 210.694C239.256 210.534 238.091 210.37 236.917 210.219ZM233.093 207.826C233.662 208.176 234.236 208.516 234.802 208.87C235.774 208.99 236.751 209.104 237.72 209.23C237.132 208.917 236.541 208.61 235.95 208.3C235.001 208.137 234.044 207.985 233.093 207.826ZM229.327 205.535C229.751 205.786 230.17 206.045 230.594 206.299C231.318 206.416 232.037 206.541 232.761 206.659C232.332 206.442 231.911 206.216 231.48 206C230.761 205.847 230.048 205.684 229.327 205.535ZM225.749 203.456L226.352 203.808L227.441 204.023L226.854 203.735C226.487 203.642 226.117 203.55 225.749 203.456ZM1245.9 335.152C1244.2 336.079 1242.48 337.025 1240.8 337.93C1241.51 337.621 1242.24 337.293 1242.95 336.983C1244.68 336.078 1246.45 335.132 1248.2 334.206L1245.9 335.152ZM1262.27 326.226L1254.76 330.32C1255.93 329.835 1257.06 329.381 1258.23 328.892C1260.92 327.467 1263.59 326.056 1266.29 324.625C1264.95 325.152 1263.6 325.704 1262.27 326.226ZM1279 316.987C1276.05 318.632 1273.09 320.293 1270.18 321.898C1271.76 321.268 1273.33 320.643 1274.92 320.006C1277.86 318.427 1280.84 316.801 1283.81 315.189C1282.2 315.799 1280.61 316.387 1279 316.987ZM1296.34 307.34C1292.7 309.376 1289.12 311.355 1285.5 313.375C1287.41 312.648 1289.35 311.885 1291.27 311.149C1294.81 309.221 1298.31 307.333 1301.88 305.374C1300.02 306.042 1298.19 306.682 1296.34 307.34ZM1313.4 297.667C1309.52 299.873 1305.64 302.088 1301.81 304.25C1303.8 303.532 1305.78 302.839 1307.78 302.11C1311.7 299.951 1315.65 297.757 1319.6 295.564C1317.53 296.264 1315.46 296.98 1313.4 297.667ZM1331.03 287.618C1326.79 290.055 1322.6 292.434 1318.39 294.832C1320.56 294.098 1322.73 293.368 1324.92 292.619C1329.04 290.317 1333.2 287.986 1337.37 285.632C1335.25 286.304 1333.14 286.959 1331.03 287.618ZM1348.8 277.339C1344.25 279.974 1339.72 282.6 1335.22 285.193C1337.48 284.48 1339.78 283.714 1342.05 282.985C1346.52 280.466 1350.99 277.941 1355.47 275.397C1353.24 276.053 1351.02 276.697 1348.8 277.339ZM1366.76 266.851C1362.04 269.626 1357.34 272.379 1352.67 275.095C1354.96 274.425 1357.24 273.784 1359.54 273.099C1364.15 270.465 1368.85 267.739 1373.54 265.03C1371.28 265.64 1369.01 266.255 1366.76 266.851ZM1385.13 256.029C1380.12 258.991 1375.14 261.915 1370.17 264.843C1372.5 264.22 1374.85 263.562 1377.19 262.924C1382.12 260.076 1387.02 257.271 1391.99 254.379C1389.7 254.937 1387.41 255.485 1385.13 256.029ZM1403.59 245.003C1398.46 248.086 1393.32 251.179 1388.26 254.183C1390.55 253.63 1392.84 253.095 1395.14 252.529C1400.17 249.591 1405.27 246.585 1410.38 243.578C1408.11 244.066 1405.85 244.527 1403.59 245.003ZM1422.41 233.704C1417.02 236.961 1411.7 240.13 1406.35 243.35C1408.67 242.857 1411 242.352 1413.33 241.846C1418.58 238.743 1423.86 235.625 1429.17 232.465C1426.91 232.884 1424.66 233.297 1422.41 233.704ZM255.452 230.071C256.277 230.817 257.092 231.572 257.909 232.328C260.158 232.111 262.408 231.888 264.653 231.677C263.772 230.974 262.885 230.279 261.997 229.583C259.818 229.738 257.635 229.906 255.452 230.071ZM251.929 226.921C252.747 227.644 253.559 228.373 254.371 229.104C256.507 228.942 258.644 228.773 260.776 228.62C259.9 227.938 259.017 227.269 258.136 226.597C256.069 226.698 253.999 226.812 251.929 226.921ZM248.356 223.827C249.173 224.526 249.992 225.224 250.804 225.931C252.819 225.822 254.832 225.719 256.846 225.616C255.984 224.965 255.12 224.315 254.252 223.672C252.289 223.72 250.324 223.768 248.356 223.827ZM244.765 220.799C245.568 221.466 246.374 222.132 247.169 222.808C249.072 222.748 250.968 222.704 252.864 222.658C252.016 222.036 251.173 221.41 250.319 220.797C248.471 220.793 246.621 220.791 244.765 220.799ZM241.163 217.843C241.948 218.474 242.724 219.116 243.502 219.755C245.277 219.746 247.051 219.738 248.822 219.74C247.981 219.143 247.136 218.55 246.289 217.962C244.585 217.913 242.872 217.881 241.163 217.843ZM237.5 214.943C238.268 215.54 239.027 216.149 239.788 216.754C241.433 216.788 243.078 216.823 244.719 216.866C243.905 216.306 243.078 215.764 242.258 215.212C240.673 215.12 239.091 215.023 237.5 214.943ZM233.827 212.137C234.561 212.691 235.297 213.243 236.026 213.802C237.531 213.877 239.028 213.963 240.525 214.048C239.741 213.528 238.95 213.016 238.161 212.504C236.72 212.374 235.273 212.257 233.827 212.137ZM230.128 209.396C230.832 209.907 231.537 210.413 232.236 210.932C233.561 211.037 234.889 211.14 236.211 211.253C235.49 210.792 234.774 210.326 234.048 209.872C232.742 209.713 231.439 209.548 230.128 209.396ZM226.476 206.767C227.097 207.204 227.711 207.653 228.328 208.095C229.497 208.226 230.659 208.368 231.821 208.509C231.152 208.099 230.486 207.687 229.813 207.282C228.704 207.104 227.588 206.937 226.476 206.767ZM222.792 204.231C223.339 204.601 223.879 204.98 224.423 205.353C225.376 205.495 226.331 205.636 227.281 205.781C226.709 205.445 226.133 205.112 225.558 204.779C224.636 204.597 223.717 204.41 222.792 204.231ZM219.2 201.846C219.614 202.116 220.029 202.385 220.441 202.658C221.142 202.789 221.843 202.918 222.541 203.051C222.096 202.802 221.644 202.559 221.196 202.311C220.535 202.15 219.864 202.003 219.2 201.846ZM215.809 199.652C216.023 199.788 216.241 199.916 216.455 200.053C216.818 200.135 217.178 200.222 217.541 200.305C217.328 200.192 217.112 200.085 216.899 199.971C216.535 199.866 216.173 199.757 215.809 199.652ZM1215.96 349.712C1214.36 350.587 1212.74 351.479 1211.15 352.343C1211.76 352.076 1212.34 351.83 1212.95 351.563C1214.67 350.652 1216.43 349.701 1218.18 348.773C1217.44 349.083 1216.69 349.405 1215.96 349.712ZM1232.58 340.614C1230.22 341.91 1227.92 343.159 1225.58 344.447C1226.73 343.957 1227.87 343.48 1229.02 342.987C1231.46 341.683 1233.86 340.41 1236.31 339.099C1235.07 339.6 1233.81 340.116 1232.58 340.614ZM1249.56 331.152C1246.58 332.817 1243.59 334.494 1240.64 336.134C1242.24 335.482 1243.86 334.807 1245.47 334.146C1248.37 332.577 1251.3 330.966 1254.22 329.374C1252.66 329.98 1251.12 330.553 1249.56 331.152ZM1266.81 321.475C1263.23 323.504 1259.69 325.48 1256.13 327.478C1258 326.75 1259.9 325.989 1261.78 325.25C1265.3 323.319 1268.81 321.398 1272.37 319.43C1270.51 320.117 1268.66 320.801 1266.81 321.475ZM1283.89 311.748C1280.11 313.903 1276.33 316.062 1272.57 318.196C1274.56 317.46 1276.52 316.754 1278.52 316.006C1282.38 313.862 1286.26 311.697 1290.14 309.535C1288.06 310.262 1285.96 311.033 1283.89 311.748ZM1301.69 301.517C1297.52 303.935 1293.36 306.338 1289.24 308.703C1291.42 307.937 1293.62 307.151 1295.82 306.37C1299.83 304.119 1303.89 301.807 1307.95 299.497C1305.85 300.192 1303.78 300.837 1301.69 301.517ZM1319.58 291.135C1315.07 293.763 1310.58 296.359 1306.09 298.962C1308.34 298.223 1310.6 297.465 1312.86 296.709C1317.35 294.157 1321.79 291.651 1326.31 289.068C1324.07 289.762 1321.82 290.456 1319.58 291.135ZM1337.58 280.545C1332.93 283.297 1328.27 286.063 1323.69 288.747C1325.95 288.051 1328.21 287.367 1330.49 286.656C1335.08 284.021 1339.72 281.322 1344.36 278.629C1342.09 279.275 1339.83 279.913 1337.58 280.545ZM1356.04 269.622C1351.03 272.608 1346.09 275.513 1341.12 278.455C1343.47 277.788 1345.87 277.07 1348.23 276.386C1353.1 273.559 1357.96 270.734 1362.87 267.856C1360.59 268.452 1358.31 269.04 1356.04 269.622ZM1374.55 258.507C1369.43 261.59 1364.32 264.663 1359.26 267.684C1361.58 267.087 1363.88 266.504 1366.21 265.891C1371.26 262.924 1376.33 259.934 1381.43 256.918C1379.13 257.459 1376.84 257.98 1374.55 258.507ZM1393.36 247.136C1388.03 250.377 1382.73 253.579 1377.46 256.759C1379.82 256.21 1382.19 255.635 1384.56 255.071C1389.76 251.99 1395.01 248.849 1400.27 245.694C1397.97 246.173 1395.65 246.671 1393.36 247.136ZM1412.48 235.468C1406.97 238.845 1401.5 242.173 1396.04 245.499C1398.36 245.022 1400.7 244.531 1403.03 244.041C1408.47 240.776 1413.88 237.554 1419.36 234.246C1417.07 234.657 1414.77 235.069 1412.48 235.468ZM246.968 230.73C247.748 231.543 248.524 232.359 249.297 233.18C251.594 232.946 253.888 232.72 256.18 232.496C255.342 231.73 254.504 230.964 253.66 230.206C251.432 230.375 249.201 230.548 246.968 230.73ZM243.7 227.386C244.481 228.177 245.27 228.96 246.044 229.76C248.225 229.581 250.403 229.408 252.579 229.241C251.749 228.498 250.921 227.751 250.082 227.018C247.958 227.135 245.829 227.258 243.7 227.386ZM240.403 224.098C241.179 224.86 241.955 225.625 242.724 226.397C244.795 226.271 246.866 226.146 248.933 226.03C248.102 225.31 247.273 224.59 246.436 223.881C244.429 223.945 242.414 224.025 240.403 224.098ZM237.07 220.862C237.84 221.595 238.6 222.343 239.363 223.086C241.326 223.01 243.289 222.938 245.248 222.871C244.424 222.179 243.592 221.498 242.762 220.816C240.867 220.826 238.972 220.839 237.07 220.862ZM233.689 217.704C234.447 218.404 235.201 219.11 235.954 219.819C237.808 219.793 239.654 219.784 241.5 219.772C240.682 219.107 239.856 218.451 239.032 217.795C237.254 217.758 235.473 217.73 233.689 217.704ZM230.273 214.613C231.027 215.286 231.783 215.953 232.531 216.635C234.242 216.655 235.953 216.674 237.658 216.706C236.861 216.078 236.066 215.452 235.263 214.834C233.603 214.755 231.939 214.682 230.273 214.613ZM226.828 211.591C227.56 212.223 228.294 212.854 229.02 213.494C230.608 213.558 232.191 213.631 233.774 213.704C233.002 213.116 232.234 212.525 231.456 211.945C229.916 211.822 228.374 211.701 226.828 211.591ZM223.387 208.658C224.085 209.239 224.772 209.835 225.464 210.424C226.912 210.525 228.36 210.625 229.803 210.735C229.052 210.186 228.299 209.641 227.541 209.099C226.16 208.946 224.774 208.803 223.387 208.658ZM219.872 205.795C220.536 206.328 221.193 206.868 221.851 207.408C223.159 207.539 224.46 207.684 225.764 207.823C225.052 207.321 224.327 206.833 223.61 206.339C222.366 206.153 221.122 205.97 219.872 205.795ZM216.376 203.047C216.99 203.523 217.607 203.992 218.217 204.473C219.33 204.623 220.45 204.766 221.558 204.924C220.914 204.49 220.265 204.061 219.617 203.632C218.539 203.433 217.459 203.24 216.376 203.047ZM212.905 200.403C213.432 200.797 213.962 201.187 214.486 201.583C215.411 201.742 216.327 201.916 217.246 202.082C216.696 201.724 216.153 201.359 215.6 201.007C214.703 200.803 213.806 200.601 212.905 200.403ZM209.528 197.923C209.925 198.207 210.314 198.502 210.709 198.789C211.375 198.932 212.043 199.071 212.707 199.216C212.292 198.96 211.88 198.699 211.465 198.446C210.818 198.27 210.175 198.095 209.528 197.923ZM206.224 195.608L206.835 196.034C207.167 196.119 207.503 196.198 207.834 196.285L207.191 195.909C206.872 195.805 206.546 195.711 206.224 195.608ZM1185.69 364.615C1184.37 365.334 1183.05 366.069 1181.73 366.789C1182.29 366.538 1182.84 366.295 1183.41 366.041C1184.81 365.292 1186.25 364.515 1187.67 363.757C1187.02 364.037 1186.34 364.337 1185.69 364.615ZM1202.94 355.106C1200.66 356.379 1198.4 357.625 1196.14 358.875C1197.25 358.394 1198.37 357.906 1199.48 357.422C1201.83 356.158 1204.12 354.951 1206.48 353.67C1205.29 354.162 1204.12 354.62 1202.94 355.106ZM1219.88 345.615C1216.84 347.315 1213.79 349.03 1210.76 350.727C1212.35 350.065 1213.99 349.349 1215.59 348.678C1218.56 347.061 1221.54 345.416 1224.52 343.79C1222.97 344.404 1221.42 345.008 1219.88 345.615ZM1236.94 335.967C1233.59 337.878 1230.24 339.793 1226.95 341.657C1228.69 340.961 1230.4 340.31 1232.15 339.604C1235.58 337.71 1239.05 335.776 1242.52 333.835C1240.67 334.54 1238.78 335.272 1236.94 335.967ZM1254.46 325.964C1250.65 328.147 1246.88 330.291 1243.08 332.458C1245.08 331.698 1247.08 330.939 1249.08 330.167C1252.87 328.053 1256.63 325.962 1260.42 323.828C1258.43 324.55 1256.44 325.254 1254.46 325.964ZM1272.13 315.721C1267.98 318.136 1263.83 320.56 1259.74 322.922C1261.92 322.135 1264.14 321.297 1266.32 320.497C1270.33 318.233 1274.38 315.909 1278.43 313.595C1276.32 314.318 1274.23 315.013 1272.13 315.721ZM1290.05 305.271C1285.61 307.879 1281.22 310.427 1276.82 312.995C1279.01 312.245 1281.17 311.541 1283.38 310.778C1287.83 308.232 1292.27 305.697 1296.76 303.107C1294.53 303.825 1292.28 304.567 1290.05 305.271ZM1308.2 294.537C1303.54 297.301 1298.89 300.058 1294.27 302.776C1296.56 302.044 1298.86 301.302 1301.16 300.553C1305.72 297.914 1310.31 295.247 1314.92 292.568C1312.67 293.243 1310.44 293.877 1308.2 294.537ZM1326.61 283.564C1321.69 286.514 1316.8 289.442 1311.94 292.33C1314.29 291.628 1316.67 290.893 1319.04 290.174C1323.82 287.378 1328.66 284.527 1333.51 281.665C1331.2 282.304 1328.9 282.941 1326.61 283.564ZM1345.3 272.328C1340.18 275.417 1335.1 278.463 1330.02 281.515C1332.35 280.873 1334.68 280.243 1337.03 279.585C1342.09 276.593 1347.13 273.639 1352.23 270.607C1349.91 271.193 1347.61 271.757 1345.3 272.328ZM1364.11 260.875C1358.85 264.098 1353.56 267.338 1348.38 270.48C1350.74 269.89 1353.12 269.268 1355.48 268.661C1360.64 265.59 1365.86 262.439 1371.08 259.293C1368.76 259.822 1366.43 260.361 1364.11 260.875ZM1383.34 249.106C1377.84 252.492 1372.41 255.803 1366.95 259.142C1369.3 258.615 1371.64 258.085 1373.99 257.544C1379.38 254.299 1384.76 251.062 1390.19 247.762C1387.91 248.22 1385.63 248.661 1383.34 249.106ZM1402.66 237.133C1397.04 240.63 1391.43 244.111 1385.88 247.535C1388.18 247.079 1390.48 246.643 1392.79 246.176C1398.32 242.815 1403.88 239.422 1409.47 235.998C1407.2 236.389 1404.93 236.754 1402.66 237.133ZM238.451 231.447C239.185 232.326 239.918 233.202 240.646 234.088C242.977 233.837 245.305 233.594 247.633 233.354C246.848 232.523 246.065 231.691 245.272 230.872C243.001 231.06 240.728 231.248 238.451 231.447ZM235.447 227.898C236.18 228.75 236.908 229.609 237.633 230.469C239.867 230.273 242.096 230.088 244.325 229.905C243.536 229.096 242.742 228.295 241.946 227.494C239.782 227.624 237.617 227.753 235.447 227.898ZM232.422 224.419C233.151 225.24 233.866 226.079 234.588 226.91C236.719 226.766 238.844 226.634 240.97 226.504C240.179 225.715 239.376 224.942 238.576 224.164C236.528 224.242 234.475 224.329 232.422 224.419ZM229.323 220.997C230.056 221.798 230.786 222.602 231.511 223.411C233.521 223.32 235.532 223.229 237.537 223.151C236.751 222.391 235.96 221.637 235.165 220.886C233.221 220.917 231.272 220.957 229.323 220.997ZM226.179 217.626C226.915 218.404 227.656 219.175 228.385 219.963C230.28 219.922 232.171 219.888 234.06 219.854C233.285 219.13 232.514 218.398 231.73 217.683C229.882 217.659 228.035 217.634 226.179 217.626ZM223.031 214.347C223.751 215.083 224.467 215.824 225.18 216.57C226.97 216.576 228.754 216.593 230.535 216.612C229.76 215.91 228.981 215.214 228.198 214.522C226.481 214.456 224.755 214.403 223.031 214.347ZM219.837 211.122C220.548 211.822 221.243 212.542 221.947 213.251C223.61 213.303 225.277 213.35 226.937 213.41C226.176 212.746 225.406 212.097 224.639 211.444C223.04 211.333 221.443 211.219 219.837 211.122ZM216.587 207.99C217.278 208.647 217.965 209.31 218.65 209.978C220.197 210.069 221.737 210.175 223.276 210.278C222.525 209.649 221.765 209.027 221.007 208.405C219.539 208.257 218.061 208.125 216.587 207.99ZM213.292 204.916C213.973 205.541 214.661 206.158 215.336 206.792C216.722 206.916 218.111 207.038 219.491 207.17C218.784 206.599 218.078 206.024 217.364 205.46C216.008 205.276 214.655 205.088 213.292 204.916ZM210.021 201.965C210.654 202.524 211.283 203.084 211.91 203.65C213.161 203.803 214.405 203.965 215.649 204.13C214.969 203.602 214.293 203.068 213.607 202.547C212.418 202.345 211.217 202.161 210.021 201.965ZM206.714 199.084C207.296 199.581 207.868 200.092 208.447 200.594C209.53 200.765 210.609 200.943 211.689 201.12C211.069 200.66 210.447 200.202 209.822 199.747C208.786 199.526 207.756 199.296 206.714 199.084ZM203.417 196.357C203.922 196.77 204.425 197.185 204.926 197.602C205.81 197.777 206.698 197.943 207.577 198.124C207.035 197.738 206.483 197.363 205.937 196.982C205.1 196.769 204.258 196.564 203.417 196.357ZM200.15 193.739C200.548 194.052 200.951 194.358 201.347 194.673C202.011 194.832 202.665 195.001 203.325 195.164C202.895 194.873 202.456 194.595 202.024 194.309C201.399 194.119 200.778 193.925 200.15 193.739ZM197.157 191.408C197.349 191.553 197.534 191.704 197.726 191.851L198.708 192.13C198.513 192.005 198.321 191.874 198.126 191.749L197.157 191.408ZM1155.98 379.36L1151.99 381.555L1153.44 380.897C1154.78 380.176 1156.14 379.439 1157.49 378.717C1156.98 378.937 1156.49 379.141 1155.98 379.36ZM1172.89 369.949C1170.64 371.217 1168.36 372.501 1166.13 373.745C1167.28 373.238 1168.46 372.7 1169.62 372.19C1171.85 370.976 1174.11 369.74 1176.37 368.499C1175.21 368.989 1174.05 369.464 1172.89 369.949ZM1189.98 360.364C1187.01 362.041 1184.1 363.658 1181.15 365.319C1182.56 364.721 1183.93 364.169 1185.36 363.564C1188.42 361.876 1191.48 360.203 1194.56 358.505C1193.04 359.122 1191.5 359.754 1189.98 360.364ZM1206.86 350.728C1203.63 352.575 1200.39 354.435 1197.19 356.256C1198.98 355.53 1200.75 354.82 1202.54 354.083C1205.79 352.275 1209.1 350.414 1212.38 348.57C1210.55 349.281 1208.69 350.027 1206.86 350.728ZM1224.68 340.496C1220.89 342.693 1217.13 344.847 1213.38 347.005C1215.38 346.226 1217.41 345.413 1219.43 344.619C1223.12 342.541 1226.79 340.487 1230.52 338.375C1228.56 339.101 1226.64 339.779 1224.68 340.496ZM1242.38 330.198C1238.24 332.611 1234.11 335.022 1229.99 337.408C1232.13 336.614 1234.29 335.799 1236.44 334.991C1240.52 332.671 1244.63 330.32 1248.73 327.97C1246.61 328.719 1244.49 329.463 1242.38 330.198ZM1260.17 319.745C1255.88 322.283 1251.6 324.819 1247.37 327.297C1249.57 326.522 1251.75 325.774 1253.96 324.983C1258.25 322.519 1262.59 319.999 1266.93 317.474C1264.68 318.221 1262.41 319.012 1260.17 319.745ZM1278.66 308.804C1273.96 311.604 1269.31 314.336 1264.64 317.1C1266.95 316.334 1269.29 315.533 1271.61 314.75C1276.2 312.084 1280.74 309.456 1285.36 306.756C1283.11 307.459 1280.9 308.116 1278.66 308.804ZM1296.97 297.807C1292.13 300.723 1287.29 303.647 1282.52 306.497C1284.85 305.774 1287.17 305.053 1289.51 304.313C1294.27 301.514 1299.11 298.644 1303.93 295.78C1301.61 296.457 1299.28 297.147 1296.97 297.807ZM1315.75 286.468C1310.66 289.559 1305.62 292.597 1300.58 295.636C1302.94 294.954 1305.29 294.272 1307.66 293.574C1312.64 290.623 1317.62 287.664 1322.64 284.657C1320.33 285.277 1318.05 285.862 1315.75 286.468ZM1334.65 274.928C1329.38 278.159 1324.12 281.368 1318.9 284.545C1321.27 283.913 1323.66 283.256 1326.05 282.608C1331.23 279.501 1336.44 276.371 1341.67 273.214C1339.33 273.787 1336.98 274.37 1334.65 274.928ZM1353.85 263.099C1348.42 266.459 1343 269.81 1337.64 273.098C1340.01 272.528 1342.37 271.953 1344.75 271.366C1350.03 268.169 1355.38 264.9 1360.74 261.628C1358.44 262.134 1356.15 262.606 1353.85 263.099ZM1373.31 251.039C1367.68 254.547 1362.11 257.984 1356.52 261.445C1358.86 260.938 1361.2 260.436 1363.55 259.913C1369.11 256.517 1374.63 253.163 1380.24 249.714C1377.93 250.161 1375.62 250.605 1373.31 251.039ZM1392.89 238.747C1387.15 242.364 1381.4 245.993 1375.75 249.519C1378.08 249.075 1380.43 248.599 1382.78 248.142C1388.38 244.69 1394.07 241.155 1399.76 237.618C1397.47 237.997 1395.17 238.379 1392.89 238.747ZM229.915 232.228C230.592 233.164 231.262 234.11 231.932 235.056C234.3 234.788 236.67 234.516 239.035 234.257C238.297 233.359 237.549 232.475 236.804 231.587C234.511 231.793 232.212 232.014 229.915 232.228ZM227.171 228.484C227.851 229.397 228.522 230.323 229.195 231.246C231.46 231.034 233.727 230.818 235.991 230.614C235.252 229.742 234.505 228.879 233.759 228.018C231.565 228.169 229.369 228.323 227.171 228.484ZM224.364 224.797C225.054 225.69 225.74 226.585 226.42 227.489C228.584 227.328 230.742 227.178 232.901 227.03C232.162 226.183 231.422 225.337 230.676 224.501C228.574 224.594 226.473 224.689 224.364 224.797ZM221.538 221.189C222.226 222.054 222.916 222.915 223.596 223.79C225.657 223.682 227.711 223.586 229.764 223.492C229.022 222.669 228.284 221.843 227.535 221.031C225.54 221.075 223.539 221.132 221.538 221.189ZM218.664 217.63C219.354 218.468 220.037 219.313 220.718 220.162C222.669 220.105 224.623 220.043 226.569 219.997C225.826 219.202 225.078 218.412 224.328 217.626C222.443 217.623 220.556 217.622 218.664 217.63ZM215.759 214.148C216.441 214.949 217.11 215.764 217.785 216.576C219.638 216.566 221.484 216.569 223.331 216.572C222.588 215.801 221.832 215.047 221.081 214.287C219.312 214.234 217.537 214.187 215.759 214.148ZM212.783 210.737C213.466 211.51 214.149 212.287 214.824 213.07C216.551 213.106 218.277 213.142 219.998 213.19C219.263 212.457 218.526 211.727 217.783 211.002C216.12 210.908 214.453 210.822 212.783 210.737ZM209.769 207.396C210.448 208.135 211.13 208.866 211.801 209.615C213.407 209.692 215.008 209.782 216.608 209.87C215.89 209.177 215.177 208.477 214.452 207.794C212.895 207.655 211.334 207.522 209.769 207.396ZM206.736 204.141C207.396 204.833 208.05 205.533 208.703 206.233C210.184 206.349 211.666 206.464 213.141 206.592C212.435 205.938 211.731 205.286 211.019 204.643C209.593 204.472 208.168 204.303 206.736 204.141ZM203.672 200.974C204.301 201.609 204.918 202.261 205.542 202.905C206.906 203.056 208.262 203.22 209.619 203.383C208.93 202.769 208.229 202.168 207.532 201.561C206.25 201.359 204.961 201.165 203.672 200.974ZM200.538 197.891C201.147 198.482 201.754 199.075 202.356 199.674C203.558 199.847 204.767 200.011 205.962 200.194C205.316 199.641 204.656 199.104 204.003 198.561C202.848 198.336 201.698 198.108 200.538 197.891ZM197.416 194.928C197.975 195.448 198.543 195.959 199.098 196.487C200.14 196.675 201.173 196.877 202.209 197.078C201.605 196.586 201.002 196.092 200.392 195.606C199.406 195.371 198.407 195.155 197.416 194.928ZM194.299 192.07C194.789 192.508 195.276 192.952 195.762 193.396C196.608 193.584 197.45 193.775 198.293 193.966C197.783 193.57 197.279 193.165 196.765 192.773C195.942 192.54 195.126 192.297 194.299 192.07ZM191.258 189.411C191.624 189.726 191.985 190.047 192.35 190.365C192.952 190.525 193.562 190.674 194.162 190.839C193.77 190.55 193.38 190.26 192.988 189.975C192.414 189.782 191.834 189.6 191.258 189.411ZM188.252 186.895L188.86 187.396C189.173 187.493 189.479 187.6 189.792 187.7L189.144 187.251C188.845 187.135 188.551 187.011 188.252 186.895ZM1126.12 394.337C1124.65 395.157 1123.22 395.933 1121.76 396.744L1122.71 396.307L1127.38 393.786L1126.12 394.337ZM1142.64 385.066C1140.38 386.331 1138.1 387.615 1135.85 388.879C1136.89 388.411 1137.93 387.962 1138.98 387.49C1141.29 386.227 1143.65 384.92 1145.98 383.637C1144.87 384.112 1143.75 384.596 1142.64 385.066ZM1159.52 375.526C1156.86 377.048 1154.2 378.563 1151.57 380.051C1152.96 379.455 1154.32 378.882 1155.71 378.279C1158.59 376.69 1161.42 375.139 1164.32 373.525C1162.73 374.179 1161.1 374.88 1159.52 375.526ZM1177.03 365.51C1173.75 367.394 1170.46 369.27 1167.18 371.145C1168.96 370.408 1170.75 369.656 1172.54 368.908C1175.71 367.137 1178.9 365.338 1182.07 363.559C1180.37 364.231 1178.73 364.845 1177.03 365.51ZM1194.62 355.33C1190.87 357.514 1187.11 359.714 1183.42 361.845C1185.45 361.04 1187.54 360.167 1189.57 359.349C1193.17 357.312 1196.82 355.219 1200.47 353.129C1198.51 353.874 1196.57 354.597 1194.62 355.33ZM1212.45 344.945C1208.35 347.344 1204.34 349.67 1200.27 352.039C1202.33 351.255 1204.35 350.523 1206.43 349.726C1210.58 347.351 1214.69 345.016 1218.87 342.611C1216.73 343.385 1214.57 344.185 1212.45 344.945ZM1230.36 334.347C1226.06 336.895 1221.76 339.444 1217.51 341.946C1219.74 341.141 1221.97 340.333 1224.21 339.513C1228.41 337.082 1232.66 334.597 1236.91 332.117C1234.72 332.872 1232.54 333.608 1230.36 334.347ZM1248.74 323.401C1244.08 326.194 1239.45 328.954 1234.84 331.692C1237.17 330.895 1239.55 330.034 1241.89 329.22C1246.4 326.582 1250.93 323.931 1255.49 321.242C1253.23 321.977 1250.99 322.682 1248.74 323.401ZM1267.17 312.32C1262.35 315.222 1257.56 318.103 1252.78 320.971C1255.08 320.227 1257.35 319.526 1259.67 318.767C1264.49 315.92 1269.33 313.056 1274.19 310.172C1271.85 310.883 1269.49 311.626 1267.17 312.32ZM1285.96 300.895C1280.95 303.959 1275.92 307.036 1270.98 310.026C1273.35 309.31 1275.74 308.574 1278.13 307.84C1282.98 304.947 1287.91 301.97 1292.84 299.004C1290.53 299.656 1288.26 300.258 1285.96 300.895ZM1304.99 289.263C1299.71 292.507 1294.51 295.671 1289.28 298.866C1291.66 298.2 1294.04 297.527 1296.43 296.843C1301.63 293.713 1306.8 290.61 1312.05 287.428C1309.7 288.041 1307.34 288.667 1304.99 289.263ZM1324.18 277.377C1318.78 280.729 1313.39 284.08 1308.06 287.36C1310.44 286.748 1312.82 286.133 1315.2 285.505C1320.46 282.31 1325.78 279.05 1331.11 275.787C1328.79 276.337 1326.49 276.843 1324.18 277.377ZM1343.6 265.281C1338.03 268.767 1332.49 272.221 1326.98 275.641C1329.35 275.089 1331.72 274.533 1334.09 273.965C1339.57 270.608 1345.08 267.212 1350.63 263.787C1348.29 264.282 1345.93 264.799 1343.6 265.281ZM1363.35 252.872C1357.61 256.494 1351.89 260.083 1346.2 263.646C1348.56 263.154 1350.93 262.639 1353.29 262.132C1358.94 258.641 1364.6 255.139 1370.29 251.594C1367.98 252.023 1365.66 252.454 1363.35 252.872ZM1383.25 240.253C1377.4 243.98 1371.53 247.718 1365.77 251.357C1368.09 250.932 1370.42 250.509 1372.75 250.071C1378.47 246.508 1384.28 242.84 1390.09 239.185C1387.81 239.545 1385.52 239.903 1383.25 240.253ZM1362.81 251.901C1368.65 248.218 1374.57 244.449 1380.49 240.684C1169.29 272.788 972.223 257.545 775.385 242.321C655.854 233.077 536.408 223.843 413.938 225.229C519.53 227.645 622.252 238.75 725.571 249.922C927.118 271.715 1130.95 293.74 1362.81 251.901ZM1343.06 264.308C1348.8 260.717 1354.59 257.075 1360.39 253.417C1129.42 294.657 926.221 272.679 725.284 250.953C616.342 239.173 508.065 227.475 396.396 225.964C493.704 230.829 587.827 244.208 682.848 257.724C885.578 286.562 1092.41 315.99 1343.06 264.308ZM1176.65 364.483C1180.59 362.216 1184.56 359.929 1188.55 357.612C798.815 502.252 623.208 401.053 458.316 305.951C410.772 278.53 364.113 251.629 313.449 231.301M221.327 233.058C221.948 234.054 222.562 235.059 223.174 236.066C225.577 235.781 227.977 235.506 230.376 235.232C229.695 234.275 229.011 233.322 228.322 232.377C225.993 232.597 223.661 232.824 221.327 233.058ZM218.83 229.128C219.46 230.107 220.091 231.081 220.712 232.071C223.011 231.839 225.308 231.614 227.603 231.395C226.918 230.461 226.237 229.523 225.544 228.6C223.309 228.768 221.069 228.949 218.83 229.128ZM216.293 225.252C216.928 226.208 217.564 227.163 218.192 228.131C220.39 227.953 222.59 227.771 224.784 227.604C224.095 226.696 223.408 225.788 222.712 224.891C220.575 225.006 218.436 225.125 216.293 225.252ZM213.721 221.441C214.358 222.366 214.987 223.302 215.617 224.24C217.725 224.114 219.831 223.999 221.934 223.884C221.238 222.995 220.532 222.119 219.827 221.24C217.795 221.301 215.761 221.365 213.721 221.441ZM211.104 217.701C211.744 218.598 212.373 219.509 213.004 220.418C215.01 220.342 217.011 220.275 219.01 220.213C218.306 219.346 217.596 218.489 216.885 217.631C214.963 217.646 213.032 217.676 211.104 217.701ZM208.411 214.012C209.061 214.89 209.71 215.767 210.352 216.657C212.241 216.63 214.13 216.6 216.013 216.584C215.32 215.757 214.626 214.929 213.924 214.114C212.09 214.074 210.255 214.035 208.411 214.012ZM205.704 210.424C206.348 211.264 206.995 212.098 207.631 212.948C209.418 212.968 211.199 213.002 212.98 213.036C212.283 212.234 211.59 211.428 210.884 210.636C209.163 210.557 207.433 210.491 205.704 210.424ZM202.934 206.876C203.579 207.684 204.216 208.503 204.854 209.322C206.528 209.386 208.203 209.444 209.87 209.519C209.179 208.754 208.482 207.998 207.783 207.244C206.169 207.117 204.557 206.986 202.934 206.876ZM200.146 203.444C200.775 204.201 201.392 204.976 202.013 205.742C203.587 205.846 205.153 205.963 206.717 206.083C206.021 205.343 205.309 204.622 204.604 203.893C203.126 203.733 201.633 203.593 200.146 203.444ZM197.264 200.061C197.892 200.789 198.52 201.516 199.141 202.252C200.576 202.391 202.008 202.534 203.437 202.682C202.766 201.999 202.092 201.321 201.414 200.647C200.034 200.448 198.654 200.248 197.264 200.061ZM194.377 196.797C194.986 197.472 195.6 198.139 196.201 198.823C197.501 198.992 198.798 199.166 200.089 199.347C199.442 198.715 198.803 198.074 198.149 197.45C196.897 197.226 195.637 197.012 194.377 196.797ZM191.459 193.615C192.032 194.224 192.598 194.842 193.164 195.459C194.332 195.652 195.492 195.86 196.654 196.063C196.035 195.485 195.416 194.905 194.792 194.334C193.685 194.088 192.573 193.85 191.459 193.615ZM188.515 190.549C189.044 191.087 189.564 191.641 190.087 192.186C191.085 192.391 192.09 192.585 193.084 192.798C192.516 192.291 191.941 191.794 191.368 191.294C190.417 191.045 189.47 190.791 188.515 190.549ZM185.556 187.616C186.014 188.063 186.474 188.51 186.929 188.963C187.767 189.169 188.598 189.386 189.43 189.603C188.909 189.161 188.375 188.737 187.851 188.301C187.092 188.064 186.318 187.847 185.556 187.616ZM182.632 184.821C183.006 185.17 183.39 185.508 183.76 185.859C184.352 186.033 184.939 186.213 185.528 186.387C185.142 186.077 184.751 185.769 184.362 185.459C183.783 185.25 183.213 185.028 182.632 184.821ZM179.915 182.318C180.094 182.478 180.266 182.645 180.443 182.805C180.73 182.904 181.021 182.998 181.309 183.098C181.12 182.955 180.936 182.806 180.747 182.664L179.915 182.318ZM1410.21 226.507C1407.96 226.801 1405.7 227.102 1403.44 227.387C1397.39 231.267 1391.44 235.035 1385.46 238.843C1387.75 238.487 1390.04 238.137 1392.34 237.768C1398.29 234.025 1404.2 230.316 1410.21 226.507ZM1419.57 225.27C1417.33 225.574 1415.08 225.871 1412.84 226.166C1406.9 229.932 1401.04 233.612 1395.16 237.319C1397.47 236.944 1399.79 236.546 1402.11 236.16C1407.91 232.55 1413.71 228.94 1419.57 225.27ZM1429.01 223.959C1426.76 224.278 1424.52 224.585 1422.28 224.892C1416.49 228.518 1410.74 232.111 1405.02 235.674C1407.32 235.286 1409.62 234.899 1411.93 234.498C1417.58 231.029 1423.29 227.493 1429.01 223.959ZM1438.53 222.573C1436.27 222.908 1434.01 223.252 1431.75 223.577C1426.14 227.049 1420.5 230.554 1414.95 233.962C1417.25 233.558 1419.55 233.152 1421.86 232.735C1427.36 229.408 1432.97 225.969 1438.53 222.573ZM1448.11 221.135C1445.86 221.482 1443.61 221.818 1441.37 222.154C1435.86 225.518 1430.33 228.902 1424.88 232.197C1427.18 231.778 1429.48 231.332 1431.78 230.901C1437.2 227.678 1442.63 224.429 1448.11 221.135ZM1457.68 219.633C1455.48 219.986 1453.27 220.327 1451.07 220.671C1445.66 223.929 1440.31 227.111 1434.96 230.302C1437.26 229.867 1439.55 229.44 1441.85 228.994C1447.06 225.94 1452.4 222.756 1457.68 219.633ZM1467.42 218.034C1465.17 218.409 1462.93 218.792 1460.69 219.156C1455.56 222.193 1450.33 225.338 1445.25 228.314C1447.5 227.871 1449.75 227.422 1451.99 226.968C1457.09 224.036 1462.26 221.032 1467.42 218.034ZM1477.19 216.38C1474.97 216.765 1472.75 217.141 1470.53 217.516C1465.51 220.438 1460.43 223.416 1455.47 226.273C1457.72 225.814 1459.97 225.333 1462.22 224.861C1467.19 222.062 1472.17 219.243 1477.19 216.38ZM1487.05 214.643C1484.85 215.04 1482.64 215.423 1480.43 215.81C1475.57 218.588 1470.69 221.372 1465.88 224.09C1468.08 223.623 1470.28 223.171 1472.49 222.693C1477.33 220.019 1482.15 217.377 1487.05 214.643ZM1497.02 212.806C1494.81 213.218 1492.61 213.635 1490.4 214.037C1485.7 216.667 1481.03 219.257 1476.38 221.828C1478.58 221.346 1480.77 220.855 1482.98 220.362C1487.66 217.837 1492.29 215.386 1497.02 212.806ZM1506.9 210.932C1504.76 211.345 1502.63 211.757 1500.5 212.16C1495.95 214.642 1491.47 217.044 1486.98 219.473C1489.16 218.976 1491.35 218.455 1493.54 217.949C1497.99 215.611 1502.41 213.317 1506.9 210.932ZM1516.8 208.993C1514.76 209.401 1512.73 209.789 1510.7 210.188C1506.36 212.494 1502.12 214.685 1497.83 216.944C1499.93 216.449 1502.03 215.97 1504.14 215.465C1508.34 213.322 1512.55 211.178 1516.8 208.993ZM1526.83 206.932C1524.84 207.346 1522.84 207.76 1520.85 208.164C1516.81 210.253 1512.83 212.259 1508.82 214.314C1510.88 213.811 1512.95 213.303 1515.02 212.789C1518.94 210.865 1522.89 208.896 1526.83 206.932ZM1536.86 204.813C1534.94 205.227 1533.01 205.649 1531.08 206.055C1527.36 207.918 1523.66 209.739 1519.96 211.573C1521.97 211.066 1523.99 210.53 1526.01 210.014C1529.6 208.317 1533.24 206.547 1536.86 204.813ZM1546.84 202.648C1545.06 203.043 1543.28 203.421 1541.5 203.81C1538.16 205.418 1534.82 207.018 1531.5 208.6C1533.31 208.128 1535.13 207.661 1536.94 207.181C1540.22 205.697 1543.54 204.16 1546.84 202.648ZM1556.92 200.358C1555.28 200.735 1553.64 201.104 1552 201.475C1549.13 202.798 1546.25 204.14 1543.39 205.443C1544.94 205.026 1546.48 204.615 1548.02 204.194C1550.98 202.92 1553.94 201.654 1556.92 200.358ZM1566.66 198.083C1565.3 198.405 1563.94 198.734 1562.58 199.052C1560.32 200.044 1558.03 201.072 1555.78 202.05C1556.94 201.728 1558.1 201.396 1559.26 201.069C1561.73 200.072 1564.18 199.096 1566.66 198.083ZM1575.54 195.967C1574.82 196.144 1574.1 196.311 1573.38 196.485C1571.91 197.089 1570.44 197.716 1568.98 198.314C1569.52 198.157 1570.07 197.991 1570.61 197.833L1575.54 195.967ZM233.763 240.083C231.234 240.415 228.707 240.751 226.176 241.095C245.442 273.967 260.837 311.973 276.516 350.712C307.024 426.088 338.646 504.215 402.166 552.307C495.288 622.81 657.217 628.805 985.086 467.311C670.009 615.737 512.734 603.628 418.93 532.045C358.525 485.949 324.506 415.225 291.609 346.83C273.414 309.001 255.555 271.893 233.763 240.083ZM242.788 238.905C240.29 239.224 237.789 239.557 235.289 239.885C256.99 271.679 274.809 308.699 292.959 346.437C325.808 414.731 359.778 485.352 419.99 531.302C516.51 604.956 680.712 615.232 1016.3 451.142C692.513 602.397 532.69 585.397 435.081 510.277C378.501 466.733 342.887 403.685 308.359 342.56C287.56 305.738 267.152 269.618 242.788 238.905ZM251.768 237.799C249.301 238.098 246.835 238.4 244.366 238.71C268.61 269.396 288.954 305.41 309.688 342.115C344.17 403.16 379.736 466.123 436.148 509.537C536.592 586.842 703.37 602.218 1048.37 434.682C713.846 589.713 551.133 566.746 449.066 487.47C396.944 446.986 360.686 391.849 325.435 338.239C301.907 302.459 278.821 267.373 251.768 237.799ZM260.714 236.73C258.273 237.016 255.833 237.304 253.39 237.6C280.293 267.139 303.293 302.101 326.732 337.745C361.943 391.292 398.157 446.364 450.132 486.734C554.623 567.892 723.011 589.763 1075.76 420.622L1077.33 419.774C732.116 577.751 567.078 547.101 460.096 463.176C413.305 426.47 377.65 379.591 342.871 333.862C316.479 299.16 290.586 265.13 260.714 236.73ZM269.601 235.704C267.199 235.975 264.794 236.258 262.39 236.537C292.076 264.894 317.857 298.773 344.129 333.316C378.869 378.994 414.483 425.82 461.168 462.444C569.378 547.332 737.329 577.429 1092.51 411.583C1094.06 410.74 1095.57 409.939 1097.13 409.088C744.392 566.358 578.869 525.43 466.819 436.573C426.616 404.693 393.317 366.663 360.709 329.421C331.299 295.829 302.447 262.885 269.601 235.704ZM278.453 234.743C276.092 234.996 273.733 235.247 271.37 235.509C303.979 262.642 332.677 295.416 361.931 328.826C394.508 366.034 427.776 404.028 467.898 435.846C580.827 525.399 748.31 566.088 1108.52 402.822C1110.81 401.565 1113.11 400.289 1115.4 399.032C654.109 598.582 511.411 456.668 379.014 324.914C346.415 292.473 314.431 260.662 278.453 234.743ZM287.274 233.814C284.953 234.052 282.632 234.295 280.309 234.542C316.001 260.407 347.789 292.027 380.185 324.267C513.274 456.71 656.829 599.409 1125.93 393.22C1128.42 391.838 1130.95 390.402 1133.47 388.986C690.298 574.406 538.822 442.781 397.842 320.322C361.866 289.072 326.573 258.422 287.274 233.814ZM296.025 232.932C293.764 233.156 291.501 233.386 289.238 233.616C328.186 258.166 363.237 288.6 398.957 319.628C540.56 442.628 692.866 574.799 1142.36 383.989C1145.64 382.145 1148.87 380.347 1152.17 378.483C726.655 550.269 566.595 428.923 417.267 315.641C377.691 285.617 338.862 256.176 296.025 232.932ZM304.767 232.1C302.562 232.304 300.359 232.507 298.152 232.721C340.56 255.906 379.076 285.12 418.327 314.898C568.176 428.573 728.812 550.431 1159.17 374.486C1162.85 372.39 1166.58 370.249 1170.3 368.12C762.773 526.167 594.679 414.997 437.389 310.858C393.974 282.113 351.374 253.919 304.767 232.1ZM322.104 230.549C320.064 230.725 318.027 230.901 315.987 231.08C366.023 251.357 412.197 277.987 459.238 305.117C624.641 400.514 800.871 502.027 1194.19 354.325C1198.4 351.879 1202.61 349.427 1206.84 346.958C834.796 478.482 652.252 387.082 480.182 300.905C428.186 274.865 377.144 249.31 322.104 230.549ZM330.725 229.839C328.776 229.993 326.828 230.145 324.878 230.309C379.178 249.033 429.642 274.294 481.034 300.034C653.626 386.472 836.788 478.155 1211.98 343.96C1216.42 341.349 1220.95 338.656 1225.46 335.976C870.887 454.797 681.942 373.087 503.161 295.697C446.33 271.096 390.52 246.946 330.725 229.839ZM339.289 229.157C337.491 229.295 335.692 229.444 333.893 229.586C392.786 246.674 447.867 270.516 503.943 294.789C683.22 372.394 872.707 454.383 1229.88 333.358C1234.65 330.533 1239.4 327.723 1244.21 324.849C906.982 431.339 712.408 359.05 527.471 290.296C465.344 267.2 404.303 244.51 339.289 229.157ZM347.849 228.53C346.195 228.652 344.543 228.769 342.889 228.892C406.816 244.253 466.974 266.606 528.178 289.36C713.621 358.301 908.774 430.794 1248.24 322.422C1253.12 319.499 1258.05 316.533 1262.98 313.558C943.12 408.039 743.791 344.944 553.389 284.666C485.434 263.153 418.613 242.009 347.849 228.53ZM356.364 227.931C354.914 228.028 353.465 228.123 352.014 228.224C421.469 241.749 487.196 262.552 554.02 283.708C744.943 344.15 944.846 407.44 1266.65 311.352C1271.76 308.26 1276.93 305.112 1282.12 301.95C979.536 384.89 776.37 330.772 581.276 278.765C506.83 258.92 433.552 239.394 356.364 227.931ZM364.834 227.363C363.674 227.438 362.511 227.52 361.35 227.596C436.915 239.16 508.811 258.318 581.831 277.783C777.455 329.933 981.202 384.207 1285.44 299.922C1290.73 296.693 1296.01 293.478 1301.35 290.203C1016.15 362.012 810.407 316.499 611.61 272.535C529.857 254.455 449.28 236.639 364.834 227.363ZM373.347 226.839L370.943 226.985C453.346 236.437 532.16 253.859 612.096 271.536C811.447 315.623 1017.81 361.242 1304.45 288.299C1309.86 284.974 1315.36 281.549 1320.84 278.143C1053.23 339.268 846.31 302.09 645.045 265.895C554.996 249.701 466.074 233.711 373.347 226.839ZM381.737 226.343L381.082 226.378C471.176 233.547 557.787 249.115 645.463 264.881C847.295 301.177 1054.82 338.462 1323.64 276.405C1329.25 272.926 1334.87 269.435 1340.54 265.893C1090.9 316.82 884.657 287.503 682.498 258.746C582.825 244.57 484.142 230.533 381.737 226.343ZM835.944 232.574C702.788 225.931 568.659 219.242 431.837 224.054C548.146 223.695 661.843 232.484 775.614 241.285C973.073 256.555 1170.77 271.831 1382.71 239.274C1388.75 235.432 1394.76 231.624 1400.88 227.703C1211.24 251.295 1024.57 241.986 835.944 232.574ZM356.54 226.873L358.802 226.722L357.977 226.633C357.165 226.665 356.354 226.693 355.541 226.726L356.54 226.873ZM348.058 227.468C349.202 227.386 350.35 227.297 351.495 227.217C350.938 227.136 350.383 227.05 349.826 226.972L346.288 227.131L348.058 227.468ZM339.555 228.092C341 227.982 342.442 227.88 343.885 227.774C343.097 227.626 342.305 227.487 341.515 227.344C340.104 227.411 338.689 227.49 337.276 227.561C338.036 227.738 338.797 227.912 339.555 228.092ZM331.029 228.769L335.926 228.376L333.282 227.768C331.654 227.852 330.028 227.932 328.398 228.022C329.275 228.271 330.153 228.518 331.029 228.769ZM322.447 229.473C324.248 229.32 326.049 229.17 327.849 229.023C326.902 228.756 325.959 228.484 325.01 228.223C323.235 228.327 321.458 228.428 319.682 228.536C320.605 228.845 321.526 229.16 322.447 229.473ZM313.836 230.22C315.777 230.048 317.716 229.883 319.655 229.715C318.65 229.377 317.641 229.048 316.634 228.715C314.749 228.833 312.86 228.961 310.974 229.084C311.928 229.463 312.884 229.839 313.836 230.22ZM305.205 231.011C307.232 230.822 309.261 230.624 311.287 230.44C310.296 230.048 309.307 229.647 308.312 229.259C306.308 229.39 304.303 229.521 302.294 229.663C303.267 230.108 304.236 230.559 305.205 231.011ZM296.505 231.833C298.641 231.625 300.773 231.426 302.907 231.227C301.897 230.759 300.882 230.303 299.868 229.841C297.798 229.991 295.729 230.142 293.658 230.299C294.609 230.808 295.558 231.32 296.505 231.833ZM287.812 232.711C290.004 232.488 292.196 232.266 294.387 232.048C293.402 231.517 292.421 230.985 291.431 230.462C289.287 230.628 287.139 230.804 284.993 230.976C285.934 231.551 286.877 232.127 287.812 232.711ZM279.041 233.63C281.303 233.387 283.565 233.146 285.825 232.911C284.867 232.316 283.903 231.73 282.94 231.143C280.738 231.32 278.537 231.497 276.333 231.687C277.239 232.328 278.139 232.981 279.041 233.63ZM270.245 234.583C272.561 234.324 274.872 234.078 277.186 233.831C276.261 233.17 275.332 232.511 274.401 231.858C272.149 232.056 269.898 232.254 267.645 232.46C268.512 233.166 269.381 233.871 270.245 234.583ZM261.413 235.6C263.767 235.326 266.122 235.051 268.475 234.784C267.593 234.061 266.714 233.338 265.828 232.621C263.533 232.834 261.232 233.057 258.935 233.278C259.764 234.048 260.591 234.82 261.413 235.6ZM252.523 236.654C254.928 236.362 257.332 236.075 259.735 235.795C258.897 235.003 258.052 234.225 257.205 233.446C254.874 233.671 252.542 233.897 250.206 234.135C250.983 234.968 251.751 235.814 252.523 236.654ZM243.601 237.754C246.036 237.447 248.469 237.15 250.902 236.854C250.117 236.002 249.332 235.151 248.54 234.309C246.17 234.553 243.801 234.801 241.426 235.056C242.155 235.952 242.88 236.849 243.601 237.754ZM234.633 238.917C237.094 238.594 239.558 238.265 242.017 237.949C241.288 237.037 240.558 236.128 239.824 235.224C237.423 235.485 235.021 235.759 232.619 236.031C233.294 236.988 233.966 237.948 234.633 238.917ZM225.602 240.121C228.105 239.78 230.608 239.446 233.108 239.117C232.432 238.137 231.747 237.173 231.062 236.206C228.634 236.481 226.206 236.758 223.775 237.046C224.389 238.065 224.995 239.092 225.602 240.121ZM-40.8696 298.75C49.1066 270.793 137.292 252.244 224.105 240.329C223.492 239.292 222.873 238.259 222.251 237.232C136.936 247.429 49.5185 264.946 -40.9618 293.061L-41.4576 292.104C48.9939 263.998 136.376 246.469 221.652 236.253C221.032 235.236 220.416 234.219 219.788 233.215C136.034 241.677 49.4284 258.142 -41.5497 286.411L-42.0459 285.453C48.8904 257.196 135.451 240.719 219.158 232.229C218.528 231.232 217.895 230.241 217.257 229.256C135.1 235.953 49.337 251.338 -42.1381 279.764L-42.6339 278.806C48.7946 250.397 134.511 234.988 216.62 228.257C215.98 227.277 215.327 226.312 214.678 225.342C134.152 230.237 49.251 244.535 -42.7257 273.117L-43.222 272.159C48.6914 243.599 133.536 229.272 214.002 224.33C213.362 223.383 212.717 222.445 212.068 221.509C133.202 224.562 49.1847 237.726 -43.3142 266.468L-43.81 265.512C48.6049 236.795 132.554 223.599 211.354 220.485C210.707 219.561 210.064 218.635 209.408 217.723C132.237 218.9 49.1237 230.912 -43.9021 259.818L-44.3983 258.861C48.518 229.989 131.55 217.932 208.642 216.678C207.991 215.782 207.34 214.886 206.681 214.002C131.243 213.267 49.0658 224.1 -44.4898 253.171L-44.9864 252.214C48.44 223.183 130.529 212.295 205.886 212.938C205.228 212.067 204.562 211.212 203.894 210.352C130.23 207.665 49.0143 217.287 -45.0785 246.525L-45.5743 245.568C48.3565 216.38 129.472 206.684 203.047 209.252C202.389 208.413 201.72 207.588 201.053 206.761C129.198 202.082 48.9705 210.467 -45.6668 239.874L-46.1626 238.917C48.272 209.573 128.38 201.1 200.134 205.629C199.482 204.83 198.828 204.032 198.166 203.245C128.157 196.532 48.9418 203.646 -46.2545 233.227L-46.7507 232.27C48.1815 202.772 127.256 195.531 197.147 202.052C196.506 201.302 195.871 200.544 195.222 199.804C127.099 191.011 48.9239 196.822 -46.8425 226.58L-47.3387 225.623C48.1045 195.965 126.112 190.008 194.108 198.559C193.466 197.839 192.818 197.124 192.167 196.414C125.984 185.513 48.8881 190.002 -47.4307 219.931L-47.9267 218.976C48.0084 189.165 124.92 184.492 190.971 195.099C190.349 194.433 189.712 193.786 189.082 193.129C124.871 180.06 48.8837 183.171 -48.0192 213.283L-48.515 212.326C47.8895 182.37 123.654 179.015 187.714 191.702C187.12 191.094 186.519 190.494 185.917 189.896C123.726 174.624 48.8764 176.344 -48.6072 206.636L-49.1031 205.678C47.7473 175.584 122.321 173.567 184.344 188.349C183.803 187.824 183.27 187.288 182.723 186.768C122.589 169.23 48.9022 169.507 -49.1949 199.988L-49.6911 199.031C47.5435 168.817 120.883 168.123 180.811 185.004C180.344 184.572 179.88 184.136 179.408 183.71C121.385 163.872 48.9122 162.67 -49.7832 193.338L-50.2794 192.381C47.2749 162.068 119.317 162.709 177.102 181.672C176.727 181.345 176.348 181.019 175.97 180.694C120.116 158.534 48.8922 155.846 -50.3712 186.691L-50.8674 185.734C46.8918 155.358 117.557 157.317 173.145 178.314C172.944 178.15 172.739 177.988 172.538 177.826C118.885 153.249 48.9411 149.001 -50.9593 180.044L-51.4555 179.086C45.5632 148.941 114.458 151.863 167.622 174.308C116.377 147.899 48.0822 142.438 -51.5474 173.395L-52.0435 172.439C42.9301 142.928 109.576 146.272 160.125 169.254C111.511 142.292 45.4542 136.422 -52.1356 166.746L-52.6317 165.79C40.2256 136.937 104.672 140.624 152.736 163.984C106.619 136.633 42.7515 130.431 -52.7236 160.099L-53.2198 159.142C52.115 126.41 119.212 136.973 166.422 171.385C169.097 172.998 171.704 174.693 174.275 176.433C177.045 177.984 179.779 179.581 182.45 181.254C185.287 182.724 188.07 184.265 190.817 185.849C193.823 187.281 196.793 188.763 199.711 190.308C202.763 191.643 205.773 193.032 208.747 194.469C212.003 195.763 215.217 197.114 218.396 198.514C221.693 199.703 224.961 200.932 228.191 202.215C231.698 203.348 235.163 204.543 238.605 205.771C242.262 206.826 245.894 207.921 249.491 209.065C253.169 210.001 256.823 210.975 260.449 211.991C264.361 212.855 268.241 213.772 272.102 214.715C276.22 215.494 280.311 216.312 284.381 217.168C288.622 217.841 292.847 218.543 297.047 219.286C301.382 219.848 305.702 220.434 310.002 221.058C314.518 221.513 319.018 221.993 323.503 222.509C328.188 222.851 332.861 223.22 337.518 223.617C342.389 223.844 347.249 224.093 352.098 224.373C356.987 224.476 361.865 224.608 366.734 224.757C371.987 224.739 377.229 224.749 382.465 224.778C387.797 224.636 393.123 224.517 398.444 224.418C546.938 217.11 692.099 224.347 836.123 231.532C1025.37 240.976 1212.65 250.32 1402.9 226.401C1504.07 161.543 1614.99 86.7505 1736.74 0.888858L1737.7 1.61558C1616.61 87.0096 1506.24 161.441 1405.49 226.064C1407.76 225.777 1410.02 225.48 1412.29 225.181C1510.9 162.641 1618.88 90.485 1737.33 7.53422L1738.29 8.26533C1620.52 90.7413 1513.09 162.537 1414.92 224.841C1417.18 224.538 1419.45 224.224 1421.73 223.913C1517.77 163.704 1622.79 94.1981 1737.92 14.1816L1738.87 14.9167C1624.46 94.4381 1520.02 163.576 1424.43 223.538C1426.69 223.224 1428.94 222.922 1431.2 222.598C1524.67 164.736 1626.73 97.8873 1738.51 20.828L1739.46 21.564C1628.42 98.1061 1526.97 164.579 1433.99 222.187C1436.27 221.857 1438.54 221.517 1440.82 221.177C1531.66 165.691 1630.73 101.519 1739.1 27.474L1740.05 28.2149C1632.45 101.733 1534 165.53 1443.66 220.758C1445.94 220.411 1448.23 220.053 1450.52 219.698C1538.71 166.61 1634.79 105.108 1739.69 34.1182L1740.63 34.8637C1636.55 105.296 1541.13 166.419 1453.47 219.233C1455.69 218.885 1457.9 218.546 1460.11 218.188C1545.73 167.477 1638.76 108.746 1740.28 40.7651L1741.22 41.5163C1640.54 108.927 1548.22 167.243 1463.17 217.678C1465.43 217.307 1467.69 216.93 1469.95 216.549C1552.9 168.27 1642.87 112.278 1740.87 47.4094L1741.8 48.165C1644.67 112.46 1555.43 168.029 1473.07 216.032C1475.33 215.645 1477.6 215.242 1479.86 214.845C1560.13 169.013 1647.02 115.78 1741.47 54.0543L1742.39 54.8148C1648.86 115.941 1562.74 168.729 1483.1 214.275C1485.34 213.876 1487.59 213.483 1489.83 213.076C1567.4 169.709 1651.2 119.251 1742.06 60.7015L1742.97 61.4666C1653.08 119.39 1570.12 169.376 1493.23 212.445C1495.46 212.033 1497.7 211.62 1499.93 211.198C1574.78 170.321 1655.44 122.673 1742.65 67.3461L1743.55 68.117C1657.34 122.806 1577.55 169.97 1503.42 210.543C1505.66 210.115 1507.9 209.665 1510.14 209.227C1582.23 170.863 1659.72 126.053 1743.25 73.9926L1744.14 74.7676C1661.69 126.16 1585.13 170.46 1513.81 208.507C1515.97 208.079 1518.13 207.646 1520.28 207.208C1589.66 171.352 1663.97 129.442 1743.84 80.6342L1744.72 81.4187C1666.09 129.47 1592.82 170.873 1524.34 206.372C1526.4 205.947 1528.47 205.531 1530.53 205.097C1597.18 171.775 1668.27 132.784 1744.44 87.2796L1745.3 88.0732C1670.49 132.773 1600.54 171.219 1534.9 204.162C1536.91 203.731 1538.93 203.292 1540.95 202.852C1604.82 172.095 1672.65 136.064 1745.03 93.9236L1745.88 94.7226C1674.94 136.026 1608.35 171.483 1545.58 201.85C1547.54 201.417 1549.49 200.964 1551.44 200.523C1612.52 172.352 1677.08 139.299 1745.63 100.565L1746.46 101.377C1679.53 139.194 1616.41 171.609 1556.6 199.351C1558.41 198.936 1560.23 198.521 1562.04 198.097C1620.31 172.539 1681.55 142.487 1746.23 107.209L1747.04 108.032C1684.24 142.289 1624.67 171.618 1567.91 196.703C1569.55 196.311 1571.19 195.927 1572.84 195.53C1628.24 172.618 1686.12 145.603 1746.83 113.849L1747.61 114.687C1689.11 145.29 1633.24 171.473 1579.66 193.854C1581.06 193.508 1582.46 193.159 1583.87 192.808C1636.35 172.575 1690.78 148.649 1747.43 120.49L1748.19 121.342C1694.26 148.151 1642.35 171.091 1592.2 190.701C1593.02 190.491 1593.84 190.274 1594.66 190.061C1644.32 172.503 1695.37 151.709 1748.04 127.129L1748.75 127.997C1700.43 150.55 1653.47 169.912 1607.69 186.527C1653.83 171.815 1700.76 154.388 1748.65 133.766L1749.32 134.66C1708.27 152.338 1667.91 167.669 1628.16 180.967C1668.3 169.538 1708.66 156.122 1749.27 140.404L1749.88 141.317C1701.6 160.005 1653.68 175.456 1606.06 188.166C1598.32 190.624 1590.59 193.017 1582.89 195.325C1574.71 198.142 1566.58 200.84 1558.46 203.49C1550.09 206.559 1541.75 209.551 1533.47 212.434C1524.71 215.825 1516 219.134 1507.37 222.309C1498.54 225.868 1489.8 229.287 1481.1 232.636C1472.28 236.313 1463.53 239.893 1454.85 243.367C1445.58 247.359 1436.39 251.25 1427.3 255.008C1417.69 259.258 1408.2 263.347 1398.79 267.341C1389.66 271.457 1380.63 275.463 1371.7 279.352C1362.6 283.545 1353.58 287.639 1344.67 291.607C1333.85 296.702 1323.21 301.579 1312.69 306.339C1303.28 310.817 1293.98 315.178 1284.79 319.408C1275.49 323.898 1266.31 328.269 1257.22 332.525C1246.44 337.808 1235.79 342.952 1225.3 347.924C1215.27 352.893 1205.37 357.726 1195.6 362.409C1185.48 367.481 1175.47 372.423 1165.61 377.201C1155.28 382.424 1145.07 387.521 1135.03 392.439C1124.98 397.561 1115.03 402.568 1105.25 407.409C1095.37 412.483 1085.61 417.436 1076 422.239C1066.09 427.372 1056.33 432.352 1046.7 437.211C676.73 630.557 500.235 628.098 401.111 553.049C337.365 504.785 305.696 426.545 275.145 351.059C259.436 312.248 244.015 274.177 224.68 241.303C137.833 253.203 49.6196 271.744 -40.3737 299.708L-40.8696 298.75Z" fill="url(#paint0_linear_73_476)" fill-opacity="0.3"/>
<defs>
<linearGradient id="paint0_linear_73_476" x1="-52.5308" y1="166.93" x2="1240.3" y2="1166.47" gradientUnits="userSpaceOnUse">
<stop stop-color="#4AFB62"/>
<stop offset="0.333333" stop-color="#96FB4A" stop-opacity="0.25"/>
<stop offset="0.666667" stop-color="#96FB4A" stop-opacity="0.9"/>
<stop offset="1" stop-color="#96FB4A" stop-opacity="0.21"/>
</linearGradient>
</defs>
</svg>
