<svg width="87" height="20" viewBox="0 0 87 20" fill="none" xmlns="http://www.w3.org/2000/svg">
<g clip-path="url(#clip0_119_1562)">
<path d="M31.31 0.28002V0.50002C30.22 0.50002 28.55 1.35002 26.56 6.15002L21.79 19.49H20.81C18.27 13.57 16.64 9.75002 15.55 7.27002L11.19 19.49H10.21C3.31995 3.42002 2.96995 2.71002 2.96995 2.71002C2.03995 0.53002 1.65995 0.55002 0.949951 0.50002V0.28002H9.45995V0.50002C7.70995 0.50002 9.10995 3.66002 9.10995 3.66002L13.23 13.02L15.41 6.94002C13.75 3.07002 13.58 2.71002 13.58 2.71002C12.65 0.53002 12.27 0.55002 11.56 0.50002V0.28002H20.07V0.50002C18.32 0.50002 19.72 3.66002 19.72 3.66002L23.81 13.04L26.27 6.14002C26.95 4.20002 26.35 0.49002 23.57 0.49002V0.27002H31.32L31.31 0.28002Z" fill="#C4C0C0"/>
<path d="M39.6197 0.280029H39.7597C46.6597 16.1 47.1197 17 47.1197 17C48.0997 19.18 49.0297 19.21 49.5697 19.26V19.48H40.0197V19.26C42.1997 19.26 40.5697 16.07 40.5697 16.07L39.6997 14.19H34.3497C33.7997 15.44 34.2997 19.26 37.5697 19.26V19.48H29.7097V19.26C30.5297 19.2 31.9997 18.99 34.0997 14.19L39.6197 0.280029ZM36.8597 7.81003L34.4297 13.95H39.5897L36.8597 7.81003Z" fill="#C4C0C0"/>
<path d="M68.81 0.28002V0.50002C67.64 0.50002 65.89 1.35002 63.76 6.15002L58.39 19.49H57.6C50.29 3.42002 49.91 2.71002 49.91 2.71002C48.93 0.53002 48.52 0.56002 47.76 0.50002V0.28002H56.84V0.50002C54.96 0.50002 56.46 3.66002 56.46 3.66002L60.69 13.07L63.5 6.14002C64.32 4.12002 63.83 0.49002 60.55 0.49002V0.27002H68.81V0.28002Z" fill="#C4C0C0"/>
<path d="M86.13 14.14V19.49H70.2V19.24C71.35 19.24 71.78 17.6 71.78 15.75V4.04002C71.78 2.35002 71.4 0.49002 70.2 0.49002V0.27002H85.78V5.87002H85.53C85.53 0.55002 78.0799 0.52002 78.0799 0.52002H77.1V9.66002H79.31C79.31 9.66002 82.23 9.74002 82.53 6.44002H82.78V13.12H82.53C82.23 9.85002 79.34 9.90002 79.31 9.90002H77.1V19.23H78.0799C78.0799 19.23 85.88 19.53 85.88 14.13H86.13V14.14Z" fill="#C4C0C0"/>
</g>
<defs>
<clipPath id="clip0_119_1562">
<rect width="85.18" height="19.22" fill="white" transform="translate(0.949951 0.27002)"/>
</clipPath>
</defs>
</svg>
