<svg width="96" height="26" viewBox="0 0 96 26" fill="none" xmlns="http://www.w3.org/2000/svg">
<g clip-path="url(#clip0_119_1581)">
<path d="M1.33122 17.6248V4.93483C1.33122 2.90483 1.46122 2.00483 0.0012207 2.00483V1.70483H9.53122V2.00483C8.10122 2.00483 8.16122 2.53483 8.16122 4.93483V17.8548C8.16122 21.7848 10.2312 23.4548 13.3912 23.4548C16.9512 23.4548 18.7512 20.9848 18.7512 17.8548V9.19483C18.7512 6.46483 17.8812 2.00483 14.7212 2.00483V1.70483H23.4512L23.4812 2.00483C19.7512 2.00483 19.0512 6.46483 19.0512 9.19483V17.8548C19.0512 22.2548 16.1212 25.4448 10.2612 25.4448C5.73122 25.4448 1.33122 23.0448 1.33122 17.6148V17.6248Z" fill="#C4C0C0"/>
<path d="M38.4313 14.6248C37.3013 15.9248 35.3713 16.0548 34.0313 14.9548C33.4013 14.3548 32.9613 13.6548 32.9613 12.8848C32.9613 12.4548 31.8913 12.6848 30.5313 14.7548V21.3848C30.5313 23.2148 30.7013 24.5448 31.9013 24.8848V25.1548H23.5713V24.8848C24.8413 24.5148 24.8713 23.0848 24.8713 21.3848V13.2648C24.8713 12.0948 24.4713 11.6348 23.1013 11.1348V10.8648L30.5313 9.46484V14.1248C32.8913 10.5648 33.8913 10.1648 34.8913 9.69484C35.8213 9.26484 37.2213 9.46484 38.0913 10.2248C39.3913 11.3548 39.5613 13.3548 38.4213 14.6248H38.4313Z" fill="#C4C0C0"/>
<path d="M58.8813 17.1949C58.8813 23.7849 54.4813 25.4549 50.2213 25.4549C47.5913 25.4549 46.0213 24.8249 45.1213 23.9849C44.0513 24.6849 40.4913 25.5149 40.4913 24.9849V4.10493C40.4913 2.97493 40.1613 2.47493 38.7913 1.97493V1.70493L46.1213 0.304932V11.9949C47.0913 10.3249 48.7513 9.46493 51.8513 9.46493C56.4513 9.46493 58.8813 13.0649 58.8813 17.1949ZM52.1913 17.6649C52.1913 13.7649 51.2613 10.4749 48.8613 10.4749C46.6313 10.4749 46.1313 13.2049 46.1313 15.7749V19.3049C46.1313 23.1049 46.9013 25.1649 48.8913 25.1649C50.7613 25.1649 52.1913 23.0049 52.1913 17.6749V17.6649Z" fill="#C4C0C0"/>
<path d="M77.3313 23.0249C76.8613 24.4949 75.1313 25.4549 73.0313 25.4549C73.0313 25.4549 69.3313 25.4549 69.0313 22.4549C68.6013 24.1849 66.9013 25.4549 64.5313 25.4549C63.2613 25.4549 60.3713 24.8849 60.3713 22.0549C60.3713 18.7249 63.0713 18.0949 69.0013 16.6949V14.5649C69.0013 11.1049 67.0413 9.23495 64.7413 10.4349C64.7413 10.4349 64.0113 10.8649 65.1413 11.2649C65.7113 11.4649 66.0713 11.9349 66.3413 12.5349C66.8413 13.7649 66.2713 15.0949 65.0413 15.6349C63.8413 16.1049 62.4813 15.5349 61.9813 14.3349C61.6513 13.4649 61.8113 12.4649 62.3813 11.8749C62.7813 11.4449 63.3813 10.8449 64.6113 10.1749C66.1113 9.37495 67.7413 9.47495 67.7413 9.47495C72.1013 9.47495 74.5313 12.2049 74.5313 16.1349V21.0949C74.5313 21.0949 74.5313 23.4949 76.1313 23.4249C76.1313 23.4249 76.9613 23.4249 77.1313 22.8549L77.3313 23.0249ZM69.0013 17.0249C66.2713 17.6249 66.3013 19.6549 66.3013 21.2249C66.3013 21.2249 66.2713 23.4249 67.6013 23.4249C68.1713 23.4249 68.6313 22.9549 69.0013 22.1549V17.0249Z" fill="#C4C0C0"/>
<path d="M95.4212 24.8848V25.1548H87.0912V24.8848C88.3612 24.5148 88.4212 23.0548 88.4212 21.3548V14.6648C88.4212 12.7648 87.7212 11.8648 86.1212 11.8648C85.3912 11.8648 84.6212 12.4648 84.1612 13.1648V21.3948C84.1612 23.2248 84.3312 24.5548 85.5312 24.8948V25.1648H77.2012V24.8948C78.4712 24.5248 78.5012 23.1248 78.5012 21.3948V13.2648C78.5012 12.0948 78.1312 11.6348 76.7712 11.1348V10.8648L84.1612 9.46484V12.6948C85.0312 10.9348 86.7912 9.46484 88.5912 9.46484C91.2512 9.46484 94.0512 10.5348 94.0512 14.5248V21.3548C94.0512 23.1848 94.2512 24.5848 95.4212 24.8848Z" fill="#C4C0C0"/>
</g>
<defs>
<clipPath id="clip0_119_1581">
<rect width="95.42" height="25.15" fill="white" transform="translate(0.0012207 0.304932)"/>
</clipPath>
</defs>
</svg>
