<svg width="71" height="25" viewBox="0 0 71 25" fill="none" xmlns="http://www.w3.org/2000/svg">
<g clip-path="url(#clip0_119_1573)">
<path d="M11.9303 2.24463H12.0841C20.1086 20.624 20.6473 21.6683 20.6473 21.6683C21.7905 24.2076 22.8677 24.2405 23.4943 24.2955V24.5483H12.4029V24.2955C14.9422 24.2955 13.0405 20.591 13.0405 20.591L12.0292 18.4035H5.80745C5.16989 19.8655 5.74149 24.2955 9.54489 24.2955V24.5483H0.421143V24.2955C1.37749 24.2296 3.08132 23.9767 5.52164 18.4035L11.9303 2.24463ZM8.73144 10.9946L5.90638 18.1287H11.8973L8.73144 10.9946Z" fill="#C4C0C0"/>
<path d="M31.5735 24.3066V24.5595H23.648V24.3066C24.8571 23.9549 24.8791 22.6248 24.8791 20.9759V4.53119C24.8791 3.42095 24.4944 2.98126 23.1973 2.49759V2.24476L30.2654 0.914673V20.9759C30.2654 22.7237 30.4193 23.9879 31.5625 24.3066H31.5735Z" fill="#C4C0C0"/>
<path d="M40.3572 24.3066V24.5594H32.4316V24.3066C33.6408 23.9548 33.6628 22.5917 33.6628 20.9758V13.2372C33.6628 12.1269 33.311 11.6872 32.0139 11.2036V10.9507L39.0491 9.62064V20.9649C39.0491 22.7127 39.203 23.9768 40.3462 24.2956L40.3572 24.3066ZM33.0032 5.79526C33.0032 4.11341 34.3333 2.78333 36.0152 2.78333C37.697 2.78333 39.0601 4.11341 39.0601 5.79526C39.0601 7.47711 37.697 8.80719 36.0152 8.80719C34.3333 8.80719 33.0032 7.47711 33.0032 5.79526Z" fill="#C4C0C0"/>
<path d="M51.9865 23.1305C51.9865 23.1305 50.7774 24.8453 47.1059 24.8453C43.4344 24.8453 41.4667 23.768 41.4667 23.768V19.6129H41.7526C42.3901 22.5588 45.0173 24.5595 47.1059 24.5595C49.3593 24.5595 49.865 21.9323 47.4576 20.3494L44.2588 18.4147C41.2799 16.447 40.4884 13.3142 42.4231 11.1597C42.4231 11.1597 43.5993 9.6427 47.2048 9.6427C50.8103 9.6427 52.3713 10.5331 52.3713 10.5331V13.7649H52.0855C51.5139 10.9178 49.0406 9.9285 47.2048 9.9285C45.1492 9.9285 44.1599 11.9841 46.919 13.7319L50.1178 15.7325C52.9978 17.4803 53.7343 21.0529 51.9865 23.1524V23.1305Z" fill="#C4C0C0"/>
<path d="M70.4101 22.5259C69.9704 23.922 68.3216 24.8344 66.3209 24.8344C66.3209 24.8344 62.8033 24.8344 62.5175 21.9873C62.0998 23.6362 60.4839 24.8344 58.2415 24.8344C57.0323 24.8344 54.2842 24.2957 54.2842 21.6026C54.2842 18.4367 56.8564 17.8322 62.4956 16.5021V14.4685C62.4956 11.1707 60.6268 9.40094 58.4393 10.5332C58.4393 10.5332 57.7468 10.9399 58.8241 11.3246C59.3627 11.5115 59.7145 11.9622 59.9673 12.5338C60.44 13.71 59.9013 14.9741 58.7361 15.4798C57.5929 15.9195 56.2958 15.3808 55.8231 14.2486C55.5043 13.4242 55.6692 12.4788 56.2079 11.9072C56.5926 11.4895 57.1532 10.9289 58.3294 10.2913C59.7584 9.53285 61.3084 9.62079 61.3084 9.62079C65.4635 9.62079 67.7719 12.215 67.7719 15.9634V20.6902C67.7719 20.6902 67.7719 22.9766 69.2889 22.9107C69.2889 22.9107 70.0803 22.9107 70.2342 22.372L70.4211 22.5259H70.4101ZM62.4846 16.8209C59.8903 17.3925 59.9123 19.3271 59.9123 20.8111C59.9123 20.8111 59.8793 22.8997 61.1435 22.8997C61.6821 22.8997 62.1218 22.46 62.4736 21.6905V16.8099L62.4846 16.8209Z" fill="#C4C0C0"/>
</g>
<defs>
<clipPath id="clip0_119_1573">
<rect width="69.9998" height="23.9306" fill="white" transform="translate(0.421143 0.914673)"/>
</clipPath>
</defs>
</svg>
