<svg width="96" height="26" viewBox="0 0 96 26" fill="none" xmlns="http://www.w3.org/2000/svg">
<g clip-path="url(#clip0_119_1548)">
<path d="M1.40007 17.6248V4.93483C1.40007 2.90483 1.53007 2.00483 0.0700684 2.00483V1.70483H9.60007V2.00483C8.17007 2.00483 8.23007 2.53483 8.23007 4.93483V17.8548C8.23007 21.7848 10.3001 23.4548 13.4601 23.4548C17.0201 23.4548 18.8201 20.9848 18.8201 17.8548V9.19483C18.8201 6.46483 17.9501 2.00483 14.7901 2.00483V1.70483H23.5201L23.5501 2.00483C19.8201 2.00483 19.1201 6.46483 19.1201 9.19483V17.8548C19.1201 22.2548 16.1901 25.4448 10.3301 25.4448C5.80007 25.4448 1.40007 23.0448 1.40007 17.6148V17.6248Z" fill="#C4C0C0"/>
<path d="M38.5002 14.6248C37.3702 15.9248 35.4402 16.0548 34.1002 14.9548C33.4702 14.3548 33.0302 13.6548 33.0302 12.8848C33.0302 12.4548 31.9602 12.6848 30.6002 14.7548V21.3848C30.6002 23.2148 30.7702 24.5448 31.9702 24.8848V25.1548H23.6402V24.8848C24.9102 24.5148 24.9402 23.0848 24.9402 21.3848V13.2648C24.9402 12.0948 24.5402 11.6348 23.1702 11.1348V10.8648L30.6002 9.46484V14.1248C32.9602 10.5648 33.9602 10.1648 34.9602 9.69484C35.8902 9.26484 37.2902 9.46484 38.1602 10.2248C39.4602 11.3548 39.6302 13.3548 38.4902 14.6248H38.5002Z" fill="#C4C0C0"/>
<path d="M58.9501 17.1949C58.9501 23.7849 54.5501 25.4549 50.2901 25.4549C47.6601 25.4549 46.0901 24.8249 45.1901 23.9849C44.1201 24.6849 40.5601 25.5149 40.5601 24.9849V4.10493C40.5601 2.97493 40.2301 2.47493 38.8601 1.97493V1.70493L46.1901 0.304932V11.9949C47.1601 10.3249 48.8201 9.46493 51.9201 9.46493C56.5201 9.46493 58.9501 13.0649 58.9501 17.1949ZM52.2601 17.6649C52.2601 13.7649 51.3301 10.4749 48.9301 10.4749C46.7001 10.4749 46.2001 13.2049 46.2001 15.7749V19.3049C46.2001 23.1049 46.9701 25.1649 48.9601 25.1649C50.8301 25.1649 52.2601 23.0049 52.2601 17.6749V17.6649Z" fill="#C4C0C0"/>
<path d="M77.4002 23.0249C76.9302 24.4949 75.2002 25.4549 73.1002 25.4549C73.1002 25.4549 69.4002 25.4549 69.1002 22.4549C68.6702 24.1849 66.9702 25.4549 64.6002 25.4549C63.3302 25.4549 60.4402 24.8849 60.4402 22.0549C60.4402 18.7249 63.1402 18.0949 69.0702 16.6949V14.5649C69.0702 11.1049 67.1102 9.23495 64.8102 10.4349C64.8102 10.4349 64.0802 10.8649 65.2102 11.2649C65.7802 11.4649 66.1402 11.9349 66.4102 12.5349C66.9102 13.7649 66.3402 15.0949 65.1102 15.6349C63.9102 16.1049 62.5502 15.5349 62.0502 14.3349C61.7202 13.4649 61.8802 12.4649 62.4502 11.8749C62.8502 11.4449 63.4502 10.8449 64.6802 10.1749C66.1802 9.37495 67.8102 9.47495 67.8102 9.47495C72.1702 9.47495 74.6002 12.2049 74.6002 16.1349V21.0949C74.6002 21.0949 74.6002 23.4949 76.2002 23.4249C76.2002 23.4249 77.0302 23.4249 77.2002 22.8549L77.4002 23.0249ZM69.0702 17.0249C66.3402 17.6249 66.3702 19.6549 66.3702 21.2249C66.3702 21.2249 66.3402 23.4249 67.6702 23.4249C68.2402 23.4249 68.7002 22.9549 69.0702 22.1549V17.0249Z" fill="#C4C0C0"/>
<path d="M95.4901 24.8848V25.1548H87.1601V24.8848C88.4301 24.5148 88.4901 23.0548 88.4901 21.3548V14.6648C88.4901 12.7648 87.7901 11.8648 86.1901 11.8648C85.4601 11.8648 84.6901 12.4648 84.2301 13.1648V21.3948C84.2301 23.2248 84.4001 24.5548 85.6001 24.8948V25.1648H77.2701V24.8948C78.5401 24.5248 78.5701 23.1248 78.5701 21.3948V13.2648C78.5701 12.0948 78.2001 11.6348 76.8401 11.1348V10.8648L84.2301 9.46484V12.6948C85.1001 10.9348 86.8601 9.46484 88.6601 9.46484C91.3201 9.46484 94.1201 10.5348 94.1201 14.5248V21.3548C94.1201 23.1848 94.3201 24.5848 95.4901 24.8848Z" fill="#C4C0C0"/>
</g>
<defs>
<clipPath id="clip0_119_1548">
<rect width="95.42" height="25.15" fill="white" transform="translate(0.0700684 0.304932)"/>
</clipPath>
</defs>
</svg>
