<svg width="70" height="26" viewBox="0 0 70 26" fill="none" xmlns="http://www.w3.org/2000/svg">
<g clip-path="url(#clip0_119_1567)">
<path d="M12.9174 24.7491C12.7374 24.9591 12.5274 25.0991 12.2874 25.1591C12.0474 25.2191 11.8074 25.2491 11.5874 25.2491C11.3274 25.2491 11.0574 25.2091 10.7774 25.1391C10.7474 25.0291 10.7274 24.9191 10.6974 24.8291C10.6674 24.7391 10.6474 24.6391 10.6174 24.5391C10.4774 24.1091 10.3674 23.6891 10.2874 23.2591C10.2074 22.8291 10.1674 22.3991 10.1674 21.9391C10.1674 21.7291 10.1574 21.5091 10.1274 21.2791C10.0974 21.0491 10.0874 20.8291 10.0674 20.5991C10.0374 20.2391 10.0274 19.8791 10.0174 19.5191C10.0174 19.1591 9.99738 18.7991 9.98738 18.4391C9.95738 17.7891 9.93738 17.1391 9.91738 16.4991C9.89738 15.8491 9.88738 15.2091 9.88738 14.5591C9.88738 14.0191 9.88738 13.4891 9.90738 12.9591C9.91738 12.4291 9.92738 11.9091 9.94738 11.3791C9.94738 11.2991 9.94738 11.2291 9.94738 11.1491C9.94738 11.0691 9.94738 10.9791 9.94738 10.8791H3.10738C3.11738 11.1091 3.12738 11.3291 3.13738 11.5491C3.14738 11.7691 3.15738 11.9891 3.18738 12.2191C3.20738 12.6591 3.23738 13.0991 3.25738 13.5491C3.27738 13.9991 3.29738 14.4491 3.32738 14.8791C3.34738 15.3191 3.38738 15.7491 3.41738 16.1891C3.45738 16.6191 3.48738 17.0591 3.50738 17.4991C3.58738 18.3791 3.63738 19.2491 3.66738 20.1191C3.69738 20.9891 3.66738 21.8591 3.59738 22.7391C3.56738 23.1391 3.52738 23.5391 3.44738 23.9291C3.36738 24.3191 3.24738 24.7091 3.06738 25.0891C3.00738 25.2291 2.90738 25.3391 2.78738 25.4391C2.65738 25.5291 2.52738 25.5691 2.37738 25.5391C2.31738 25.5291 2.25738 25.4991 2.19738 25.4491C2.13738 25.3991 2.08738 25.3491 2.03738 25.2991C1.70738 24.9391 1.48738 24.5391 1.35738 24.1191C1.22738 23.6891 1.13738 23.2591 1.07738 22.7991C0.977383 21.8591 0.877383 20.9291 0.787383 20.0191C0.697383 19.1091 0.597383 18.1791 0.497383 17.2391C0.307383 15.4191 0.197383 13.5791 0.157383 11.7291C0.157383 11.3991 0.157383 11.0791 0.137383 10.7391C0.127383 10.4091 0.127383 10.0791 0.137383 9.74907C0.147383 8.73907 0.187383 7.70907 0.247383 6.66907C0.277383 6.10907 0.307383 5.54907 0.347383 5.00907C0.387383 4.46907 0.427383 3.91907 0.447383 3.36907C0.467383 3.03907 0.487383 2.71907 0.507383 2.39907C0.517383 2.07907 0.557383 1.75907 0.617383 1.42907C0.637383 1.24907 0.687383 1.09907 0.757383 0.949071C0.827383 0.809071 0.907383 0.669071 1.00738 0.529071C1.02738 0.489071 1.06738 0.459071 1.09738 0.449071C1.13738 0.429071 1.16738 0.419071 1.20738 0.399071C1.35738 0.399071 1.50738 0.399071 1.64738 0.409071C1.78738 0.409071 1.92738 0.469071 2.06738 0.569071C2.08738 0.599071 2.12738 0.609071 2.16738 0.619071C2.20738 0.619071 2.24738 0.639071 2.28738 0.669071C2.38738 0.719071 2.47738 0.799071 2.56738 0.899071C2.65738 1.00907 2.72738 1.12907 2.79738 1.25907C2.85738 1.38907 2.90738 1.52907 2.94738 1.66907C2.98738 1.80907 2.99738 1.93907 2.98738 2.05907C2.97738 2.25907 2.97738 2.45907 2.98738 2.65907C2.99738 2.85907 3.00738 3.06907 3.00738 3.27907V4.61907C3.00738 5.06907 3.00738 5.50907 3.02738 5.95907C3.02738 6.59907 3.02738 7.23907 3.02738 7.87907C3.02738 8.51907 3.04738 9.15907 3.05738 9.79907C3.05738 9.82907 3.05738 9.84907 3.05738 9.87907C3.05738 9.90907 3.05738 9.92907 3.05738 9.95907C3.63738 9.91907 4.20738 9.87907 4.77738 9.84907C5.34738 9.80907 5.91738 9.77907 6.47738 9.75907C7.05738 9.72907 7.62738 9.72907 8.19738 9.73907C8.76738 9.74907 9.35738 9.75907 9.95738 9.75907C9.96738 9.57907 9.97738 9.41907 9.99738 9.25907C10.0074 9.09907 10.0174 8.94907 10.0174 8.79907C10.0374 8.11907 10.0674 7.45907 10.0874 6.79907C10.1074 6.13907 10.1374 5.47907 10.1674 4.81907C10.1874 4.30907 10.2274 3.79907 10.2674 3.28907C10.3074 2.77907 10.3874 2.27907 10.4974 1.77907C10.5474 1.56907 10.6174 1.35907 10.6974 1.14907C10.7774 0.939071 10.8674 0.739071 10.9674 0.539071C11.0274 0.399071 11.1574 0.309071 11.3474 0.269071C11.5374 0.229071 11.6974 0.249071 11.8374 0.349071C12.0374 0.489071 12.2074 0.639071 12.3374 0.809071C12.4674 0.979071 12.5574 1.18907 12.6074 1.43907C12.7174 2.06907 12.7974 2.68907 12.8374 3.31907C12.8774 3.94907 12.9174 4.57907 12.9574 5.21907C12.9774 5.61907 13.0074 6.01907 13.0274 6.40907C13.0474 6.80907 13.0574 7.19907 13.0774 7.59907C13.0974 7.99907 13.1174 8.40907 13.1174 8.81907C13.1174 9.22907 13.1174 9.63907 13.1374 10.0391C13.1574 10.5291 13.1774 11.0091 13.1974 11.4991C13.2074 11.9791 13.2174 12.4691 13.2374 12.9591C13.2574 13.5391 13.2874 14.1091 13.3074 14.6891C13.3274 15.2691 13.3474 15.8391 13.3774 16.4191C13.3974 16.8591 13.4274 17.2991 13.4474 17.7491C13.4674 18.1891 13.4874 18.6391 13.5174 19.0691C13.5374 19.7691 13.5474 20.4691 13.5474 21.1691C13.5474 21.8691 13.5074 22.5591 13.4474 23.2691C13.4174 23.5591 13.3674 23.8291 13.2874 24.0891C13.2074 24.3491 13.0774 24.5791 12.8974 24.7891L12.9174 24.7491Z" fill="#C4C0C0"/>
<path d="M31.4778 24.689C31.4778 24.829 31.4078 24.949 31.2578 25.059C31.1178 25.169 30.9778 25.249 30.8578 25.309C30.7578 25.359 30.6578 25.409 30.5678 25.459C30.4778 25.509 30.3778 25.529 30.2778 25.519C29.9878 25.489 29.6978 25.489 29.4178 25.499C29.1278 25.509 28.8578 25.439 28.5878 25.289C28.3078 25.149 28.0778 24.969 27.8778 24.749C27.6778 24.529 27.5078 24.279 27.3678 23.989C27.1378 23.549 26.9578 23.109 26.8078 22.659C26.6578 22.209 26.5278 21.749 26.4278 21.269C26.3178 20.709 26.1778 20.159 26.0278 19.619C25.8678 19.079 25.7178 18.539 25.5678 17.989C25.4078 17.399 25.2678 16.809 25.1478 16.209C25.0278 15.609 24.9078 15.019 24.7778 14.419C24.7778 14.389 24.7778 14.369 24.7778 14.349C24.7778 14.329 24.7778 14.309 24.7778 14.279C24.7478 14.139 24.7278 14.039 24.6978 13.959C24.6678 13.879 24.6378 13.829 24.5978 13.789C24.5578 13.749 24.4978 13.729 24.4178 13.719C24.3378 13.719 24.2378 13.719 24.0978 13.719C22.9178 13.719 21.7378 13.659 20.5678 13.549C20.5078 13.539 20.4378 13.529 20.3578 13.549C20.2778 13.549 20.1878 13.549 20.0778 13.549C19.9178 13.559 19.7978 13.569 19.7178 13.549C19.6378 13.549 19.5878 13.549 19.5378 13.579C19.4978 13.609 19.4578 13.659 19.4178 13.749C19.3778 13.839 19.3278 13.979 19.2478 14.179C18.8378 15.189 18.4178 16.209 17.9978 17.209C17.5778 18.219 17.1578 19.229 16.7478 20.239C16.5978 20.599 16.4678 20.969 16.3478 21.339C16.2278 21.709 16.0978 22.079 15.9578 22.459C15.8978 22.659 15.8078 22.839 15.7078 22.999C15.5978 23.159 15.4578 23.309 15.2878 23.449C15.2178 23.509 15.1378 23.569 15.0578 23.609C14.9778 23.649 14.8878 23.639 14.7878 23.579C14.6878 23.519 14.6278 23.439 14.6078 23.349C14.5878 23.259 14.5878 23.159 14.6078 23.059C14.7478 22.519 14.8778 21.989 15.0078 21.449C15.1378 20.919 15.2978 20.389 15.4678 19.859C15.9078 18.489 16.3878 17.149 16.9278 15.829C17.4578 14.509 17.9678 13.159 18.4378 11.799C18.6978 11.019 18.9878 10.269 19.2978 9.53903C19.6078 8.80903 19.9178 8.06903 20.2278 7.30903C20.5378 6.56903 20.8478 5.83903 21.1478 5.10903C21.4478 4.37903 21.7478 3.65903 22.0478 2.92903L22.5378 1.60903C22.5878 1.50903 22.6278 1.41903 22.6478 1.32903C22.6678 1.23903 22.7378 1.16903 22.8378 1.09903C23.0178 0.999031 23.1678 0.889031 23.3178 0.779031C23.4678 0.669031 23.6078 0.549031 23.7578 0.439031C23.8878 0.349031 24.0378 0.279031 24.2078 0.209031C24.4378 0.159031 24.6478 0.139031 24.8678 0.159031C25.0778 0.179031 25.2078 0.299031 25.2478 0.529031C25.4378 1.07903 25.6478 1.74903 25.8878 2.51903C26.0978 3.17903 26.3478 3.99903 26.6178 4.97903C26.8978 5.95903 27.2078 7.09903 27.5778 8.41903C27.7578 9.30903 27.9378 10.189 28.1278 11.059C28.3178 11.929 28.5378 12.799 28.7878 13.659C28.9378 14.189 29.0678 14.719 29.1778 15.259C29.2878 15.799 29.4078 16.339 29.5378 16.879C29.8978 18.229 30.2378 19.459 30.5378 20.559C30.6678 21.039 30.7878 21.499 30.9078 21.959C31.0278 22.419 31.1378 22.829 31.2278 23.209C31.3178 23.589 31.3978 23.899 31.4478 24.169C31.4978 24.429 31.5178 24.599 31.5178 24.659L31.4778 24.689ZM23.3078 4.43903C23.0078 5.08903 22.7078 5.71903 22.4278 6.32903C22.1478 6.93903 21.8578 7.53903 21.5778 8.13903C20.9978 9.35903 20.4978 10.569 20.0778 11.789C20.0478 11.859 20.0278 11.939 19.9978 12.009C19.9678 12.079 19.9678 12.159 19.9978 12.259C20.2878 12.229 20.5678 12.209 20.8478 12.179C21.1278 12.149 21.3978 12.139 21.6778 12.139C22.0378 12.129 22.4078 12.119 22.7678 12.139C23.1278 12.139 23.4978 12.139 23.8578 12.139C24.0878 12.139 24.2178 12.119 24.2478 12.069C24.2878 12.029 24.2878 11.899 24.2678 11.679C24.1578 10.779 24.0378 9.87903 23.9278 8.97903C23.8178 8.07903 23.6978 7.18903 23.5878 6.27903C23.5478 5.98903 23.5178 5.68903 23.4778 5.38903C23.4378 5.07903 23.3878 4.75903 23.3078 4.41903V4.43903Z" fill="#C4C0C0"/>
<path d="M34.7177 7.77889C34.7377 7.71889 34.7677 7.65889 34.7977 7.61889C34.8177 7.57889 34.8477 7.52889 34.8777 7.47889C35.0877 6.91889 35.3277 6.37889 35.5977 5.86889C35.8677 5.35889 36.1477 4.84889 36.4377 4.33889C37.0877 3.15889 37.9277 2.12889 38.9577 1.23889C39.3977 0.848886 39.8777 0.558886 40.4077 0.358886C40.8077 0.198886 41.1977 0.188886 41.5777 0.358886C41.9577 0.518886 42.2477 0.778886 42.4577 1.13889C42.6577 1.49889 42.7977 1.86889 42.8777 2.24889C42.9577 2.62889 43.0177 3.00889 43.0577 3.41889C43.1077 3.87889 43.0977 4.32889 43.0277 4.75889C42.9577 5.18889 42.8477 5.62889 42.6977 6.06889C42.6677 6.12889 42.6377 6.19889 42.6077 6.25889C42.5677 6.31889 42.5277 6.38889 42.4977 6.44889C42.1677 7.02889 41.7977 7.54889 41.3577 8.01889C40.9277 8.48889 40.4477 8.92889 39.9377 9.32889C39.4777 9.68889 38.9877 10.0189 38.4877 10.3089C37.9877 10.5989 37.4577 10.8289 36.8877 11.0089C36.6077 11.0989 36.3377 11.1789 36.0577 11.2589C35.7777 11.3389 35.4977 11.4289 35.2077 11.5089C35.1977 11.5189 35.1477 11.5489 35.0777 11.5989C35.0877 11.7389 35.0977 11.8789 35.1177 12.0089C35.1277 12.1489 35.1477 12.2889 35.1577 12.4189C35.1777 12.7189 35.2077 13.0189 35.2377 13.3289C35.2577 13.6389 35.2977 13.9389 35.3477 14.2389C35.4077 14.7789 35.4877 15.3089 35.5877 15.8389C35.6777 16.3689 35.7577 16.8989 35.8177 17.4389C35.8977 17.9689 35.9577 18.4989 36.0077 19.0289C36.0577 19.5589 36.1177 20.0989 36.1777 20.6389C36.1977 20.9689 36.2277 21.2889 36.2477 21.6189C36.2677 21.9489 36.2777 22.2689 36.2777 22.5989C36.2777 22.8089 36.2777 23.0289 36.2577 23.2489C36.2477 23.4689 36.2177 23.6889 36.1677 23.8989C36.1177 24.0889 36.0477 24.2689 35.9677 24.4489C35.8877 24.6289 35.8077 24.8189 35.7377 24.9989C35.7077 25.0589 35.6877 25.1189 35.6577 25.1789C35.6277 25.2389 35.5977 25.2989 35.5777 25.3589C35.4977 25.5189 35.3877 25.5689 35.2377 25.5089C35.0977 25.4489 34.9677 25.3789 34.8477 25.2989C34.7277 25.2189 34.6277 25.1089 34.5377 24.9589C34.3277 24.5789 34.1677 24.1889 34.0577 23.7889C33.9477 23.3789 33.8777 22.9589 33.8377 22.5189C33.8077 22.2389 33.7677 21.9789 33.7077 21.7089C33.6477 21.4489 33.5977 21.1789 33.5577 20.8989C33.4977 20.4989 33.4377 20.0989 33.3977 19.6889C33.3577 19.2789 33.2977 18.8689 33.2377 18.4589L33.1277 17.6689C33.0777 17.2689 33.0277 16.8589 32.9777 16.4589C32.9277 16.0489 32.8877 15.6489 32.8477 15.2489C32.7977 14.8389 32.7577 14.4189 32.7277 14.0089C32.6977 13.5989 32.6677 13.1789 32.6477 12.7689C32.5877 12.0889 32.5377 11.4189 32.4977 10.7489C32.4577 10.0789 32.4177 9.40889 32.3677 8.72889C32.3277 8.12889 32.2877 7.51889 32.2577 6.91889C32.2177 6.30889 32.1877 5.70889 32.1677 5.10889C32.1377 4.87889 32.1377 4.65889 32.1377 4.41889C32.1377 4.18889 32.1577 3.95889 32.1677 3.72889C32.1777 3.62889 32.1977 3.51889 32.2377 3.40889C32.2677 3.29889 32.3077 3.18889 32.3377 3.08889C32.3877 2.93889 32.5177 2.85889 32.7177 2.85889C33.2677 2.86889 33.6577 3.13889 33.8877 3.64889C33.9777 3.88889 34.0477 4.13889 34.1177 4.41889C34.1777 4.72889 34.2477 5.03889 34.3077 5.34889C34.3677 5.65889 34.4277 5.96889 34.4977 6.27889C34.5377 6.48889 34.5677 6.70889 34.5977 6.91889C34.6277 7.12889 34.6677 7.34889 34.6977 7.55889C34.7077 7.60889 34.7377 7.68889 34.7777 7.79889L34.7177 7.77889ZM34.9577 10.1889C35.1977 10.0889 35.4177 9.98889 35.6277 9.89889C35.8377 9.80889 36.0377 9.69888 36.2377 9.58889C36.5977 9.38889 36.9577 9.18889 37.3077 8.97889C37.6577 8.76889 38.0077 8.55889 38.3577 8.34889C38.5377 8.24889 38.6977 8.13889 38.8377 8.00889C38.9777 7.88889 39.1277 7.74889 39.2777 7.61889C39.5077 7.41889 39.7077 7.20889 39.8777 6.97889C40.0577 6.74889 40.2277 6.51889 40.4077 6.26889C40.5477 6.05889 40.6677 5.83889 40.7777 5.62889C40.8877 5.41889 40.9777 5.18889 41.0477 4.94889C41.1777 4.58889 41.2577 4.20889 41.2877 3.82889C41.3277 3.44889 41.3477 3.05889 41.3677 2.66889C41.3677 2.56889 41.3677 2.46889 41.3477 2.37889C41.3377 2.28889 41.3177 2.18889 41.2877 2.08889C41.2477 1.87889 41.1177 1.73889 40.8977 1.67889C40.7677 1.65889 40.6577 1.65889 40.5577 1.67889C40.4577 1.70889 40.3577 1.74889 40.2577 1.79889C39.9277 2.00889 39.6277 2.23889 39.3577 2.47889C39.0177 2.76889 38.7077 3.07889 38.4177 3.42889C38.1277 3.76889 37.8577 4.12889 37.6077 4.48889C37.4977 4.64889 37.3777 4.81889 37.2677 4.97889C37.1577 5.13889 37.0377 5.30889 36.9277 5.48889C36.5377 6.08889 36.1877 6.70889 35.8877 7.34889C35.5777 7.98889 35.2877 8.62889 34.9977 9.28889C34.9377 9.42889 34.9077 9.56889 34.9077 9.70889C34.9077 9.84889 34.9277 10.0089 34.9677 10.1889H34.9577Z" fill="#C4C0C0"/>
<path d="M46.3774 7.77889C46.3974 7.71889 46.4274 7.65889 46.4574 7.61889C46.4774 7.57889 46.5074 7.52889 46.5374 7.47889C46.7474 6.91889 46.9874 6.37889 47.2574 5.86889C47.5274 5.35889 47.8074 4.84889 48.0974 4.33889C48.7474 3.15889 49.5874 2.12889 50.6174 1.23889C51.0574 0.848886 51.5374 0.558886 52.0674 0.358886C52.4674 0.198886 52.8574 0.188886 53.2374 0.358886C53.6174 0.518886 53.9074 0.778886 54.1174 1.13889C54.3174 1.49889 54.4574 1.86889 54.5374 2.24889C54.6174 2.62889 54.6774 3.00889 54.7174 3.41889C54.7674 3.87889 54.7574 4.32889 54.6874 4.75889C54.6174 5.18889 54.5074 5.62889 54.3574 6.06889C54.3274 6.12889 54.2974 6.19889 54.2674 6.25889C54.2274 6.31889 54.1874 6.38889 54.1574 6.44889C53.8274 7.02889 53.4574 7.54889 53.0174 8.01889C52.5874 8.48889 52.1074 8.92889 51.5974 9.32889C51.1374 9.68889 50.6474 10.0189 50.1474 10.3089C49.6474 10.5989 49.1174 10.8289 48.5474 11.0089C48.2674 11.0989 47.9974 11.1789 47.7174 11.2589C47.4374 11.3389 47.1574 11.4289 46.8674 11.5089C46.8574 11.5189 46.8074 11.5489 46.7374 11.5989C46.7474 11.7389 46.7574 11.8789 46.7774 12.0089C46.7874 12.1489 46.8074 12.2889 46.8174 12.4189C46.8374 12.7189 46.8674 13.0189 46.8974 13.3289C46.9174 13.6389 46.9574 13.9389 47.0074 14.2389C47.0674 14.7789 47.1474 15.3089 47.2474 15.8389C47.3374 16.3689 47.4174 16.8989 47.4774 17.4389C47.5574 17.9689 47.6174 18.4989 47.6674 19.0289C47.7174 19.5589 47.7774 20.0989 47.8374 20.6389C47.8574 20.9689 47.8874 21.2889 47.9074 21.6189C47.9274 21.9489 47.9374 22.2689 47.9374 22.5989C47.9374 22.8089 47.9374 23.0289 47.9174 23.2489C47.9074 23.4689 47.8774 23.6889 47.8274 23.8989C47.7774 24.0889 47.7074 24.2689 47.6274 24.4489C47.5474 24.6289 47.4674 24.8189 47.3974 24.9989C47.3674 25.0589 47.3474 25.1189 47.3174 25.1789C47.2874 25.2389 47.2574 25.2989 47.2374 25.3589C47.1574 25.5189 47.0474 25.5689 46.8974 25.5089C46.7574 25.4489 46.6274 25.3789 46.5074 25.2989C46.3874 25.2189 46.2874 25.1089 46.1974 24.9589C45.9874 24.5789 45.8274 24.1889 45.7174 23.7889C45.6074 23.3789 45.5374 22.9589 45.4974 22.5189C45.4674 22.2389 45.4274 21.9789 45.3674 21.7089C45.3074 21.4489 45.2574 21.1789 45.2174 20.8989C45.1574 20.4989 45.0974 20.0989 45.0574 19.6889C45.0174 19.2789 44.9574 18.8689 44.8974 18.4589L44.7874 17.6689C44.7374 17.2689 44.6874 16.8589 44.6374 16.4589C44.5874 16.0489 44.5474 15.6489 44.5074 15.2489C44.4574 14.8389 44.4174 14.4189 44.3874 14.0089C44.3574 13.5989 44.3274 13.1789 44.3074 12.7689C44.2474 12.0889 44.1974 11.4189 44.1574 10.7489C44.1174 10.0789 44.0774 9.40889 44.0274 8.72889C43.9874 8.12889 43.9474 7.51889 43.9174 6.91889C43.8774 6.30889 43.8474 5.70889 43.8274 5.10889C43.7974 4.87889 43.7974 4.65889 43.7974 4.41889C43.7974 4.18889 43.8174 3.95889 43.8274 3.72889C43.8374 3.62889 43.8574 3.51889 43.8974 3.40889C43.9274 3.29889 43.9674 3.18889 43.9974 3.08889C44.0474 2.93889 44.1774 2.85889 44.3774 2.85889C44.9274 2.86889 45.3174 3.13889 45.5474 3.64889C45.6374 3.88889 45.7074 4.13889 45.7774 4.41889C45.8374 4.72889 45.9074 5.03889 45.9674 5.34889C46.0274 5.65889 46.0874 5.96889 46.1574 6.27889C46.1974 6.48889 46.2274 6.70889 46.2574 6.91889C46.2874 7.12889 46.3274 7.34889 46.3574 7.55889C46.3674 7.60889 46.3974 7.68889 46.4374 7.79889L46.3774 7.77889ZM46.6174 10.1889C46.8574 10.0889 47.0774 9.98889 47.2874 9.89889C47.4974 9.80889 47.6974 9.69888 47.8974 9.58889C48.2574 9.38889 48.6174 9.18889 48.9674 8.97889C49.3174 8.76889 49.6674 8.55889 50.0174 8.34889C50.1974 8.24889 50.3574 8.13889 50.4974 8.00889C50.6374 7.88889 50.7874 7.74889 50.9374 7.61889C51.1674 7.41889 51.3674 7.20889 51.5374 6.97889C51.7174 6.74889 51.8874 6.51889 52.0674 6.26889C52.2074 6.05889 52.3274 5.83889 52.4374 5.62889C52.5474 5.41889 52.6374 5.18889 52.7074 4.94889C52.8374 4.58889 52.9174 4.20889 52.9474 3.82889C52.9874 3.44889 53.0074 3.05889 53.0174 2.66889C53.0174 2.56889 53.0174 2.46889 52.9974 2.37889C52.9874 2.28889 52.9674 2.18889 52.9374 2.08889C52.8974 1.87889 52.7674 1.73889 52.5474 1.67889C52.4174 1.65889 52.3074 1.65889 52.2074 1.67889C52.1074 1.70889 52.0074 1.74889 51.9074 1.79889C51.5774 2.00889 51.2774 2.23889 51.0074 2.47889C50.6674 2.76889 50.3574 3.07889 50.0674 3.42889C49.7774 3.76889 49.5074 4.12889 49.2574 4.48889C49.1474 4.64889 49.0274 4.81889 48.9174 4.97889C48.8074 5.13889 48.6874 5.30889 48.5774 5.48889C48.1874 6.08889 47.8374 6.70889 47.5374 7.34889C47.2274 7.98889 46.9374 8.62889 46.6474 9.28889C46.5874 9.42889 46.5574 9.56889 46.5574 9.70889C46.5574 9.84889 46.5774 10.0089 46.6174 10.1889Z" fill="#C4C0C0"/>
<path d="M65.6772 10.189L65.4472 10.699C65.2572 11.189 65.0672 11.669 64.8872 12.159C64.6972 12.639 64.5072 13.119 64.3272 13.599C64.0772 14.279 63.6972 14.899 63.1772 15.459C62.9672 15.699 62.7172 15.869 62.4472 15.989C62.1672 16.099 61.8872 16.179 61.5872 16.229C61.5272 16.259 61.4572 16.269 61.3772 16.269C61.2972 16.269 61.2372 16.269 61.1672 16.289C60.6872 16.349 60.2772 16.289 59.9172 16.099C59.5572 15.909 59.2272 15.649 58.9272 15.329C58.6672 15.039 58.4472 14.729 58.2872 14.399C58.1272 14.069 57.9872 13.709 57.8772 13.339C57.7772 13.039 57.7072 12.739 57.6672 12.429C57.6272 12.119 57.5872 11.809 57.5572 11.479C57.4772 10.849 57.4672 10.239 57.5072 9.63896C57.5472 9.03896 57.5872 8.42896 57.6272 7.81896C57.6672 7.36896 57.7172 6.91896 57.7772 6.46896C57.8372 6.01896 57.9172 5.56896 58.0072 5.13896C58.0572 4.88896 58.1272 4.64896 58.2172 4.40896C58.3072 4.16896 58.4072 3.92896 58.5172 3.69896C58.5672 3.61896 58.5972 3.56896 58.6072 3.52896C58.6272 3.42896 58.6672 3.33896 58.7172 3.26896C58.7672 3.18896 58.8472 3.15896 58.9572 3.15896C59.0972 3.14896 59.2172 3.15896 59.3372 3.17896C59.4472 3.20896 59.5572 3.26896 59.6572 3.36896C59.8072 3.52896 59.9272 3.69896 60.0172 3.86896C60.1072 4.03896 60.1372 4.23896 60.1072 4.45896C60.1072 4.55896 60.1072 4.63896 60.1272 4.68896C60.2272 5.22896 60.2872 5.76896 60.2972 6.30896C60.3072 6.84896 60.3172 7.38896 60.3372 7.92896C60.3472 8.76896 60.3772 9.59896 60.4272 10.419C60.4772 11.239 60.5872 12.059 60.7672 12.889C60.8272 13.149 60.9072 13.409 60.9972 13.659C61.0872 13.909 61.2072 14.139 61.3572 14.349C61.4172 14.429 61.4872 14.499 61.5572 14.569C61.6272 14.639 61.6972 14.719 61.7772 14.799C61.9372 14.659 62.0872 14.529 62.2272 14.399C62.3672 14.269 62.4772 14.119 62.5672 13.939C62.7272 13.609 62.8872 13.289 63.0372 12.959C63.1872 12.629 63.3272 12.299 63.4472 11.959C63.6572 11.409 63.8572 10.859 64.0372 10.319C64.2172 9.77896 64.4072 9.23896 64.6072 8.68896C65.1072 7.36896 65.6872 6.06896 66.3572 4.77896C66.4472 4.59896 66.5172 4.41896 66.5672 4.23896C66.6172 4.04896 66.6572 3.85896 66.6972 3.67896C66.8272 3.14896 66.9772 2.64896 67.1672 2.15896C67.3572 1.66896 67.5672 1.18896 67.8072 0.708964C67.8572 0.608964 67.9172 0.538964 67.9872 0.488964C68.0572 0.448964 68.1372 0.408964 68.2372 0.388964C68.3872 0.348964 68.5372 0.318964 68.6772 0.298964C68.8172 0.278964 68.9772 0.288964 69.1372 0.338964C69.3172 0.398964 69.4472 0.488964 69.5472 0.598964C69.6472 0.708964 69.7272 0.838964 69.7872 0.988964C69.9172 1.26896 69.9772 1.53896 69.9972 1.81896C70.0072 2.09896 69.9972 2.37896 69.9772 2.66896C69.9072 3.50896 69.8272 4.33896 69.7472 5.16896C69.6672 5.99896 69.6072 6.82896 69.5372 7.66896C69.4872 8.35896 69.4172 9.04896 69.3372 9.73896C69.2572 10.429 69.1672 11.109 69.0672 11.789C69.0272 12.069 68.9872 12.329 68.9472 12.599C68.9072 12.859 68.8572 13.129 68.8072 13.409C68.7772 13.609 68.7572 13.809 68.7372 14.009C68.7072 14.209 68.6872 14.409 68.6572 14.609C68.5672 15.149 68.4872 15.679 68.4072 16.219C68.3272 16.749 68.2372 17.289 68.1372 17.829C68.0772 18.169 68.0072 18.509 67.9272 18.839C67.8472 19.179 67.7772 19.519 67.6972 19.869C67.5172 20.619 67.2572 21.309 66.9072 21.939C66.5572 22.569 66.0972 23.139 65.5172 23.649C64.7372 24.329 63.8772 24.839 62.9272 25.189C62.6172 25.299 62.2972 25.399 61.9872 25.469C61.6772 25.549 61.3472 25.589 61.0072 25.599C60.5072 25.629 60.0272 25.589 59.5572 25.489C59.0972 25.389 58.6472 25.199 58.2272 24.909C58.1672 24.869 58.0972 24.839 58.0172 24.809C57.9372 24.779 57.8772 24.739 57.8072 24.709C57.5572 24.559 57.3272 24.389 57.1072 24.199C56.8972 24.009 56.7072 23.789 56.5472 23.539C56.2572 23.139 56.0172 22.719 55.8172 22.289C55.6172 21.859 55.4972 21.399 55.4572 20.909C55.4272 20.649 55.4172 20.389 55.4072 20.129C55.4072 19.869 55.4272 19.619 55.4872 19.369C55.5472 19.059 55.6572 18.759 55.8172 18.489C55.9772 18.209 56.2172 17.999 56.5372 17.849C56.6772 17.789 56.8072 17.799 56.9272 17.889C57.1772 18.079 57.3072 18.319 57.3172 18.619C57.3172 19.019 57.3872 19.399 57.5172 19.749C57.6472 20.099 57.7972 20.439 57.9772 20.759C58.1772 21.139 58.4372 21.439 58.7672 21.669C59.0972 21.899 59.4472 22.059 59.8172 22.149C60.1972 22.239 60.5772 22.249 60.9872 22.199C61.3872 22.139 61.7572 22.009 62.0972 21.799C62.8972 21.299 63.4772 20.619 63.8472 19.749C63.9472 19.549 64.0272 19.339 64.0772 19.119C64.1272 18.899 64.1772 18.679 64.2272 18.469C64.3372 17.989 64.4472 17.519 64.5372 17.039C64.6272 16.559 64.7272 16.089 64.8272 15.609C64.9372 14.979 65.0472 14.359 65.1472 13.749C65.2472 13.139 65.3572 12.509 65.4672 11.869L65.6972 10.569C65.7072 10.509 65.7172 10.449 65.7272 10.399C65.7272 10.349 65.7472 10.299 65.7572 10.249H65.6672L65.6772 10.189Z" fill="#C4C0C0"/>
</g>
<defs>
<clipPath id="clip0_119_1567">
<rect width="69.8713" height="25.4573" fill="white" transform="translate(0.129883 0.151367)"/>
</clipPath>
</defs>
</svg>
