<svg width="106" height="22" viewBox="0 0 106 22" fill="none" xmlns="http://www.w3.org/2000/svg">
<g clip-path="url(#clip0_119_1554)">
<path d="M5.29999 5.48995V7.79995C6.28999 6.14995 7.87999 5.31995 10.06 5.31995C11.86 5.31995 13.32 5.91995 14.44 7.11995C15.56 8.31995 16.12 9.94995 16.12 12.0199V21.1999H11.33V12.6699C11.33 11.6599 11.06 10.8699 10.53 10.3199C9.99999 9.76995 9.25999 9.48995 8.31999 9.48995C7.37999 9.48995 6.63999 9.76995 6.10999 10.3199C5.57999 10.8699 5.30999 11.6599 5.30999 12.6699V21.1999H0.48999V5.48995H5.29999Z" fill="#C4C0C0"/>
<path d="M20.8503 19.1499C19.4603 17.6499 18.7703 15.7199 18.7703 13.3799C18.7703 11.0399 19.4603 9.10995 20.8503 7.58995C22.2403 6.07995 23.9303 5.31995 25.9303 5.31995C27.9303 5.31995 29.4603 6.05995 30.5303 7.53995V5.47995H35.3403V21.1899H30.5303V18.9099C29.3703 20.5599 27.8103 21.3899 25.8603 21.3899C23.9103 21.3899 22.2403 20.6399 20.8503 19.1399V19.1499ZM29.4903 16.2199C30.1803 15.5399 30.5303 14.5899 30.5303 13.3499C30.5303 12.1099 30.1803 11.1599 29.4903 10.4899C28.8003 9.81995 28.0003 9.48995 27.1003 9.48995C26.2003 9.48995 25.4003 9.82995 24.7103 10.4999C24.0203 11.1799 23.6703 12.1299 23.6703 13.3699C23.6703 14.6099 24.0203 15.5599 24.7103 16.2299C25.4003 16.8999 26.2003 17.2299 27.1003 17.2299C28.0003 17.2299 28.8003 16.8899 29.4903 16.2199Z" fill="#C4C0C0"/>
<path d="M45.96 17.12H47.68V21.2H45.23C43.46 21.2 42.1 20.81 41.13 20.03C40.16 19.25 39.68 17.91 39.68 16.02V9.49004H38.22V5.49004H39.68V1.67004H44.49V5.50004H47.64V9.50004H44.49V16.03C44.49 16.76 44.98 17.13 45.95 17.13L45.96 17.12Z" fill="#C4C0C0"/>
<path d="M61.3598 5.49011H66.1698V21.2001H61.3598V18.8901C60.3598 20.5401 58.7798 21.3701 56.5998 21.3701C54.7998 21.3701 53.3398 20.7701 52.2198 19.5701C51.0998 18.3701 50.5398 16.7401 50.5398 14.6701V5.49011H55.3298V14.0201C55.3298 15.0301 55.5998 15.8201 56.1298 16.3701C56.6598 16.9201 57.3998 17.2001 58.3398 17.2001C59.2798 17.2001 60.0198 16.9201 60.5498 16.3701C61.0898 15.8201 61.3498 15.0301 61.3498 14.0201V5.49011H61.3598Z" fill="#C4C0C0"/>
<path d="M74.9301 5.48995V8.41995C76.0601 6.35995 77.5601 5.31995 79.4401 5.31995V10.2199H78.2601C77.1501 10.2199 76.3201 10.4799 75.7701 11.0099C75.2201 11.5399 74.9401 12.4599 74.9401 13.7699V21.1999H70.1301V5.48995H74.9401H74.9301Z" fill="#C4C0C0"/>
<path d="M82.6999 19.1499C81.3099 17.6499 80.6199 15.7199 80.6199 13.3799C80.6199 11.0399 81.3099 9.10995 82.6999 7.58995C84.0899 6.07995 85.7799 5.31995 87.7799 5.31995C89.7799 5.31995 91.3099 6.05995 92.3799 7.53995V5.47995H97.1899V21.1899H92.3799V18.9099C91.2199 20.5599 89.6599 21.3899 87.7099 21.3899C85.7599 21.3899 84.0899 20.6399 82.6999 19.1399V19.1499ZM91.3399 16.2199C92.0299 15.5399 92.3799 14.5899 92.3799 13.3499C92.3799 12.1099 92.0299 11.1599 91.3399 10.4899C90.6499 9.81995 89.8499 9.48995 88.9499 9.48995C88.0499 9.48995 87.2499 9.82995 86.5599 10.4999C85.8699 11.1799 85.5199 12.1299 85.5199 13.3699C85.5199 14.6099 85.8699 15.5599 86.5599 16.2299C87.2499 16.8999 88.0499 17.2299 88.9499 17.2299C89.8499 17.2299 90.6499 16.8899 91.3399 16.2199Z" fill="#C4C0C0"/>
<path d="M101.14 21.2V0.369995H105.95V21.2H101.14Z" fill="#C4C0C0"/>
</g>
<defs>
<clipPath id="clip0_119_1554">
<rect width="105.46" height="21.02" fill="white" transform="translate(0.48999 0.369995)"/>
</clipPath>
</defs>
</svg>
