<svg width="80" height="80" viewBox="0 0 80 80" fill="none" xmlns="http://www.w3.org/2000/svg">
<rect width="80" height="80" rx="16" fill="#96FB4A"/>
<path d="M31.5714 20H27.2857C26.1491 20 25.059 20.4515 24.2553 21.2553C23.4515 22.059 23 23.1491 23 24.2857V55.7143C23 56.8509 23.4515 57.941 24.2553 58.7447C25.059 59.5485 26.1491 60 27.2857 60H41.5714C42.7081 60 43.7982 59.5485 44.6019 58.7447C45.4056 57.941 45.8571 56.8509 45.8571 55.7143V24.2857C45.8571 23.1491 45.4056 22.059 44.6019 21.2553C43.7982 20.4515 42.7081 20 41.5714 20H37.2857M31.5714 20V22.8571H37.2857V20M31.5714 20H37.2857M31.5714 55.7143H37.2857" stroke="#021303" stroke-width="1.5" stroke-linecap="round" stroke-linejoin="round"/>
<path d="M34.4287 37.6891H57.3699H34.4287ZM34.4287 38.5715H57.3699H34.4287ZM37.9581 44.7479H45.0169H37.9581ZM37.9581 47.395H41.4875H37.9581ZM37.0758 50.9244H54.7228C55.4249 50.9244 56.0982 50.6455 56.5946 50.1491C57.091 49.6527 57.3699 48.9794 57.3699 48.2773V35.9244C57.3699 35.2224 57.091 34.5491 56.5946 34.0526C56.0982 33.5562 55.4249 33.2773 54.7228 33.2773H37.0758C36.3737 33.2773 35.7004 33.5562 35.204 34.0526C34.7076 34.5491 34.4287 35.2224 34.4287 35.9244V48.2773C34.4287 48.9794 34.7076 49.6527 35.204 50.1491C35.7004 50.6455 36.3737 50.9244 37.0758 50.9244Z" fill="#96FB4A"/>
<path d="M34.4287 37.6891H57.3699M34.4287 38.5715H57.3699M37.9581 44.7479H45.0169M37.9581 47.395H41.4875M37.0758 50.9244H54.7228C55.4249 50.9244 56.0982 50.6455 56.5946 50.1491C57.091 49.6527 57.3699 48.9794 57.3699 48.2773V35.9244C57.3699 35.2224 57.091 34.5491 56.5946 34.0526C56.0982 33.5562 55.4249 33.2773 54.7228 33.2773H37.0758C36.3737 33.2773 35.7004 33.5562 35.204 34.0526C34.7076 34.5491 34.4287 35.2224 34.4287 35.9244V48.2773C34.4287 48.9794 34.7076 49.6527 35.204 50.1491C35.7004 50.6455 36.3737 50.9244 37.0758 50.9244Z" stroke="#021303" stroke-width="1.5" stroke-linecap="round" stroke-linejoin="round"/>
</svg>
