<svg width="80" height="80" viewBox="0 0 80 80" fill="none" xmlns="http://www.w3.org/2000/svg">
<rect width="80" height="80" rx="16" fill="#96FB4A"/>
<g clip-path="url(#clip0_37_10553)">
<path d="M34.9999 51.25C34.9999 50.9185 35.1316 50.6005 35.366 50.3661C35.6004 50.1317 35.9184 50 36.2499 50H43.7499C44.0814 50 44.3994 50.1317 44.6338 50.3661C44.8682 50.6005 44.9999 50.9185 44.9999 51.25C44.9999 51.5815 44.8682 51.8995 44.6338 52.1339C44.3994 52.3683 44.0814 52.5 43.7499 52.5H36.2499C35.9184 52.5 35.6004 52.3683 35.366 52.1339C35.1316 51.8995 34.9999 51.5815 34.9999 51.25ZM27.4999 40.155C27.4999 36.9 30.5874 34.4125 33.8249 34.715C37.9327 35.0984 42.0672 35.0984 46.1749 34.715C49.4124 34.4125 52.4999 36.9 52.4999 40.155V43.0475C52.5101 43.6006 52.3234 44.1394 51.9731 44.5676C51.6227 44.9958 51.1316 45.2855 50.5874 45.385C48.4749 45.7525 44.7374 46.25 39.9999 46.25C35.2624 46.25 31.5249 45.75 29.4124 45.385C28.8682 45.2855 28.3771 44.9958 28.0268 44.5676C27.6764 44.1394 27.4897 43.6006 27.4999 43.0475V40.155ZM38.8549 38.0875C38.7575 38.0709 38.6575 38.0777 38.5632 38.1072C38.4689 38.1368 38.383 38.1883 38.3124 38.2575L36.0124 40.5075C34.448 40.4142 32.8877 40.2616 31.3349 40.05C31.174 40.034 31.0131 40.081 30.8862 40.1811C30.7592 40.2812 30.6759 40.4267 30.6539 40.5869C30.6319 40.7471 30.6729 40.9096 30.7681 41.0402C30.8634 41.1709 31.0056 41.2595 31.1649 41.2875C32.5399 41.4775 34.2449 41.66 36.2149 41.77C36.3017 41.7749 36.3885 41.7616 36.4699 41.7311C36.5512 41.7005 36.6253 41.6533 36.6874 41.5925L38.5724 39.7525L40.6899 44.0275C40.7345 44.1172 40.8 44.1948 40.8809 44.2539C40.9618 44.313 41.0557 44.3517 41.1547 44.3669C41.2537 44.3821 41.3549 44.3733 41.4498 44.3412C41.5447 44.3091 41.6305 44.2547 41.6999 44.1825L44.0299 41.7575C45.637 41.6621 47.2398 41.5053 48.8349 41.2875C48.9942 41.2595 49.1364 41.1709 49.2317 41.0402C49.327 40.9096 49.3679 40.7471 49.3459 40.5869C49.3239 40.4267 49.2406 40.2812 49.1137 40.1811C48.9867 40.081 48.8258 40.034 48.6649 40.05C47.3199 40.235 45.6474 40.4125 43.7149 40.5225C43.5576 40.5312 43.4093 40.5991 43.2999 40.7125L41.4149 42.675L39.3099 38.425C39.266 38.3369 39.2019 38.2604 39.1228 38.2017C39.0438 38.1431 38.952 38.1039 38.8549 38.0875Z" fill="#021303"/>
<path d="M41.25 24.6651C41.7266 24.3899 42.0991 23.9652 42.3097 23.4567C42.5203 22.9483 42.5573 22.3845 42.4148 21.853C42.2724 21.3214 41.9585 20.8516 41.5219 20.5166C41.0853 20.1816 40.5503 20 40 20C39.4497 20 38.9147 20.1816 38.4781 20.5166C38.0415 20.8516 37.7276 21.3214 37.5852 21.853C37.4427 22.3845 37.4797 22.9483 37.6903 23.4567C37.9009 23.9652 38.2734 24.3899 38.75 24.6651V27.5001H33.75C30.7663 27.5001 27.9048 28.6853 25.795 30.7951C23.6853 32.9049 22.5 35.7664 22.5 38.7501V40.0001C21.837 40.0001 21.2011 40.2635 20.7322 40.7323C20.2634 41.2011 20 41.837 20 42.5001V47.5001C20 48.1631 20.2634 48.799 20.7322 49.2678C21.2011 49.7367 21.837 50.0001 22.5 50.0001V52.5001C22.5 53.8261 23.0268 55.0979 23.9645 56.0356C24.9021 56.9733 26.1739 57.5001 27.5 57.5001H52.5C53.8261 57.5001 55.0979 56.9733 56.0355 56.0356C56.9732 55.0979 57.5 53.8261 57.5 52.5001V50.0001C58.163 50.0001 58.7989 49.7367 59.2678 49.2678C59.7366 48.799 60 48.1631 60 47.5001V42.5001C60 41.837 59.7366 41.2011 59.2678 40.7323C58.7989 40.2635 58.163 40.0001 57.5 40.0001V38.7501C57.5 35.7664 56.3147 32.9049 54.2049 30.7951C52.0952 28.6853 49.2337 27.5001 46.25 27.5001H41.25V24.6651ZM55 38.7501V52.5001C55 53.1631 54.7366 53.799 54.2678 54.2678C53.7989 54.7367 53.163 55.0001 52.5 55.0001H27.5C26.837 55.0001 26.2011 54.7367 25.7322 54.2678C25.2634 53.799 25 53.1631 25 52.5001V38.7501C25 36.4294 25.9219 34.2038 27.5628 32.5629C29.2038 30.9219 31.4294 30.0001 33.75 30.0001H46.25C48.5706 30.0001 50.7962 30.9219 52.4372 32.5629C54.0781 34.2038 55 36.4294 55 38.7501Z" fill="#021303"/>
</g>
<defs>
<clipPath id="clip0_37_10553">
<rect width="40" height="40" fill="white" transform="translate(20 20)"/>
</clipPath>
</defs>
</svg>
