<svg width="99" height="75" viewBox="0 0 99 75" fill="none" xmlns="http://www.w3.org/2000/svg">
<g opacity="0.1">
<path d="M31.3903 9.36637L26.0907 3.33879C25.7578 2.96008 25.1976 2.88487 24.7876 3.17836C6.04679 16.5924 -5.0147 51.3689 7.669 61.4897C19.3219 70.788 35.728 69.9899 41.1045 50.5113C45.2713 35.415 33.0815 28.849 25.8597 27.2725C25.4511 27.1834 25.1249 26.8627 25.0813 26.4467C24.4743 20.667 28.689 13.9768 31.399 10.7038C31.7217 10.314 31.7244 9.74639 31.3903 9.36637Z" stroke="#96FB4A" stroke-width="3"/>
<path d="M84.1549 14.8825L78.8554 8.8549C78.5224 8.47619 77.9623 8.40098 77.5522 8.69448C58.8114 22.1085 47.75 56.885 60.4337 67.0058C72.0865 76.3041 88.4927 75.506 93.8691 56.0274C98.036 40.9311 85.8461 34.3651 78.6244 32.7887C78.2158 32.6995 77.8896 32.3788 77.8459 31.9629C77.2389 26.1831 81.4536 19.493 84.1637 16.2199C84.4864 15.8301 84.4891 15.2625 84.1549 14.8825Z" stroke="#96FB4A" stroke-width="3"/>
</g>
</svg>
