<svg width="13" height="14" viewBox="0 0 13 14" fill="none" xmlns="http://www.w3.org/2000/svg">
<path d="M12.9681 5.47819C12.8825 5.21491 12.649 5.02852 12.3738 5.00362L8.62048 4.66287L7.13714 1.19008C7.02762 0.934935 6.77843 0.770264 6.50107 0.770264C6.22371 0.770264 5.97442 0.934935 5.8656 1.19008L4.38226 4.66287L0.62834 5.00362C0.353159 5.02901 0.120139 5.21541 0.0340334 5.47819C-0.0515761 5.74147 0.0274862 6.03024 0.235608 6.21277L3.07282 8.7006L2.23627 12.3851C2.17506 12.656 2.28022 12.9361 2.505 13.0986C2.62583 13.1864 2.76778 13.2303 2.91023 13.2303C3.03265 13.2303 3.15516 13.1977 3.26458 13.1323L6.50107 11.1971L9.73697 13.1323C9.97436 13.2741 10.2728 13.2611 10.4971 13.0986C10.7219 12.9361 10.8271 12.656 10.7659 12.3851L9.92932 8.7006L12.7665 6.21277C12.9746 6.03024 13.0537 5.74206 12.9681 5.47819Z" fill="#96FB4A"/>
</svg>
