<svg width="70" height="70" viewBox="0 0 70 70" fill="none" xmlns="http://www.w3.org/2000/svg">
<rect opacity="0.1" width="70" height="70" rx="35" fill="#96FB4A"/>
<rect x="5" y="5" width="60" height="60" rx="30" fill="#96FB4A"/>
<path fill-rule="evenodd" clip-rule="evenodd" d="M35 21.875C33.2595 21.875 31.5903 22.5664 30.3596 23.7971C29.1289 25.0278 28.4375 26.697 28.4375 28.4375V32.1875C27.4429 32.1875 26.4891 32.5826 25.7858 33.2858C25.0826 33.9891 24.6875 34.9429 24.6875 35.9375V44.375C24.6875 45.3696 25.0826 46.3234 25.7858 47.0267C26.4891 47.7299 27.4429 48.125 28.4375 48.125H41.5625C42.5571 48.125 43.5109 47.7299 44.2142 47.0267C44.9174 46.3234 45.3125 45.3696 45.3125 44.375V35.9375C45.3125 34.9429 44.9174 33.9891 44.2142 33.2858C43.5109 32.5826 42.5571 32.1875 41.5625 32.1875V28.4375C41.5625 24.8125 38.625 21.875 35 21.875ZM39.6875 32.1875V28.4375C39.6875 27.1943 39.1936 26.002 38.3146 25.1229C37.4355 24.2439 36.2432 23.75 35 23.75C33.7568 23.75 32.5645 24.2439 31.6854 25.1229C30.8064 26.002 30.3125 27.1943 30.3125 28.4375V32.1875H39.6875Z" fill="#021303"/>
</svg>
