<svg width="745" height="950" viewBox="0 0 745 950" fill="none" xmlns="http://www.w3.org/2000/svg">
<g opacity="0.05">
<path d="M317.839 523.364C362.66 497.703 386.824 409.375 368.823 364.218C348.935 314.351 224.576 321.926 210.306 334.085C196.037 346.244 312.695 385.154 296.777 431.037C279.097 481.966 190.321 482.036 192.739 503.783C195.114 525.18 266.029 553.021 317.839 523.364Z" stroke="#96FB4A" stroke-width="2" stroke-miterlimit="10"/>
<path d="M331.871 529.638C384.407 507.277 407.202 400.36 384.044 349.99C357.797 292.939 222.69 314.085 202.634 323.114C185.346 330.884 297.574 383.211 284.157 438.654C269.594 498.891 189.525 508.674 195.506 522.65C201.935 537.633 270.222 555.816 331.871 529.638Z" stroke="#96FB4A" stroke-width="2" stroke-miterlimit="10"/>
<path d="M345.903 535.899C406.07 516.906 427.537 391.359 399.263 335.776C366.601 271.486 221.879 306.426 194.961 312.128C175.394 316.321 282.353 381.198 271.55 446.299C260.02 515.732 186.925 536.095 198.273 541.42C206.743 550.854 274.191 558.555 345.903 535.899Z" stroke="#96FB4A" stroke-width="2" stroke-miterlimit="10"/>
<path d="M359.934 542.216C427.69 526.451 447.83 382.414 414.441 321.59C375.308 250.2 219.153 288.676 187.246 301.185C167.26 309.025 267.035 379.213 258.901 453.929C250.334 532.559 185.191 563.139 200.998 560.246C212.556 563.698 278.174 561.21 359.934 542.216Z" stroke="#96FB4A" stroke-width="2" stroke-miterlimit="10"/>
<path d="M373.967 548.45C449.285 535.871 468.096 373.413 429.704 307.32C384.086 228.775 220.063 280.235 179.616 290.172C156.919 295.762 251.76 377.131 246.324 461.505C240.733 549.33 182.034 586.605 203.808 579.016C217.757 574.166 282.131 563.796 373.967 548.45Z" stroke="#96FB4A" stroke-width="2" stroke-miterlimit="10"/>
<path d="M387.984 554.725C470.876 545.263 488.346 364.441 444.922 293.107C392.778 207.419 220.718 286.762 171.927 279.131C146.645 275.203 236.385 375.035 233.702 469.08C230.906 566.074 179.894 614.305 206.574 597.758C223.178 587.527 286.07 566.339 387.984 554.725Z" stroke="#96FB4A" stroke-width="2" stroke-miterlimit="10"/>
<path d="M402.015 560.986C492.468 554.641 508.583 355.538 460.155 278.879C401.456 186.078 220.116 281.003 164.268 268.215C136.944 261.954 221.025 373.036 221.108 476.752C221.192 582.971 178.202 641.95 209.355 616.625C228.893 600.734 290.011 568.855 402.015 560.986Z" stroke="#96FB4A" stroke-width="2" stroke-miterlimit="10"/>
<path d="M416.05 567.262C514.065 563.991 528.782 346.551 475.379 264.651C410.167 164.736 219.365 275.455 156.598 257.23C127.165 248.69 205.626 371.023 208.491 484.369C211.412 599.756 176.626 669.371 212.125 635.423C234.711 613.844 293.983 571.329 416.05 567.262Z" stroke="#96FB4A" stroke-width="2" stroke-miterlimit="10"/>
<path d="M430.081 573.537C535.657 573.327 549.046 337.607 490.598 250.424C418.845 143.395 218.483 269.99 148.924 246.231C117.31 235.427 190.21 368.969 195.884 491.973C201.628 616.556 175.074 696.666 214.891 654.221C240.58 626.87 297.909 573.789 430.081 573.537Z" stroke="#96FB4A" stroke-width="2" stroke-miterlimit="10"/>
<path d="M444.112 579.798C557.319 582.593 569.268 328.676 505.817 236.21C427.551 122.081 217.49 264.679 141.25 235.274C107.4 222.22 174.793 366.956 183.276 499.603C191.83 633.383 173.493 723.934 217.672 673.047C246.462 639.853 301.864 576.22 444.112 579.798Z" stroke="#96FB4A" stroke-width="2" stroke-miterlimit="10"/>
<path d="M458.145 586.074C578.87 591.957 589.52 319.745 521.037 221.982C436.174 100.754 216.358 259.382 133.578 224.288C97.4498 208.999 159.35 364.93 170.657 507.22C182.019 650.21 171.97 751.131 220.439 691.845C252.361 652.809 305.833 578.638 458.145 586.074Z" stroke="#96FB4A" stroke-width="2" stroke-miterlimit="10"/>
<path d="M472.177 592.349C600.478 601.266 609.688 310.815 536.257 207.755C444.826 79.4404 215.282 254.128 125.905 213.345C87.4851 195.791 143.921 362.89 158.05 514.88C172.208 667.065 170.419 778.343 223.207 710.685C258.245 665.752 309.803 581.056 472.177 592.349Z" stroke="#96FB4A" stroke-width="2" stroke-miterlimit="10"/>
<path d="M486.208 598.61C622.098 610.56 629.896 301.828 551.476 193.541C453.476 58.1268 214.094 248.886 118.218 202.332C77.4633 182.542 128.462 360.891 145.429 522.468C162.396 684.046 168.867 805.47 225.973 729.496C264.142 678.679 313.771 583.446 486.208 598.61Z" stroke="#96FB4A" stroke-width="2" stroke-miterlimit="10"/>
<path d="M500.239 604.886C643.718 619.854 650.105 292.967 566.709 179.314C462.126 36.7575 212.849 243.604 110.558 191.347C67.4415 169.307 113.017 358.878 132.822 530.086C152.57 700.692 167.301 832.598 228.753 748.266C270.039 691.593 317.739 585.85 500.239 604.886Z" stroke="#96FB4A" stroke-width="2" stroke-miterlimit="10"/>
<path d="M514.274 611.16C665.342 629.148 670.094 284.204 581.891 165.086C470.459 15.709 211.524 238.46 102.846 180.375C57.3681 156.071 97.5214 356.865 120.177 537.702C142.706 717.519 165.697 859.739 231.482 767.078C275.94 704.507 321.74 588.226 514.274 611.16Z" stroke="#96FB4A" stroke-width="2" stroke-miterlimit="10"/>
<path d="M528.304 617.422C686.961 638.428 690.315 275.273 597.15 150.886C479.178 -5.64608 210.278 233.345 95.213 169.418C47.3449 142.864 82.1035 354.881 107.61 545.375C132.907 734.416 164.171 886.909 234.289 785.946C281.836 717.421 325.721 590.616 528.304 617.422Z" stroke="#96FB4A" stroke-width="2" stroke-miterlimit="10"/>
<path d="M542.336 623.698C708.651 647.708 710.552 266.329 612.37 136.645C487.857 -26.8756 208.964 228.062 87.5399 158.419C37.2259 129.587 66.3102 352.883 95.0031 552.951C122.746 751.243 162.605 913.981 237.056 804.688C287.733 730.321 329.718 592.992 542.336 623.698Z" stroke="#96FB4A" stroke-width="2" stroke-miterlimit="10"/>
<path d="M556.367 629.972C730.271 656.68 730.788 257.383 627.589 122.416C496.535 -48.2876 207.621 222.863 79.8519 147.434C27.204 116.351 50.9214 350.87 82.3816 560.567C112.975 768.07 161.039 941.08 239.836 823.499C293.63 743.22 333.77 594.976 556.367 629.972Z" stroke="#96FB4A" stroke-width="2" stroke-miterlimit="10"/>
<path d="M570.402 636.234C751.895 666.031 751.001 248.453 642.812 108.189C505.231 -69.6144 206.269 217.678 72.1822 136.449C17.1303 103.102 35.5229 348.886 69.7783 568.184C103.209 784.898 159.463 968.194 242.607 842.298C299.573 756.051 337.756 597.436 570.402 636.234Z" stroke="#96FB4A" stroke-width="2" stroke-miterlimit="10"/>
<path d="M584.434 642.509C773.516 675.381 771.252 239.508 658.032 93.9754C513.91 -90.9004 204.885 212.479 64.5093 125.477C7.03962 89.8524 20.0514 346.831 57.1719 575.759C93.5097 801.683 158.121 995.405 245.374 861.067C305.597 769.118 341.739 599.91 584.434 642.509Z" stroke="#96FB4A" stroke-width="2" stroke-miterlimit="10"/>
<path d="M598.463 648.785C795.134 684.773 791.528 230.55 673.249 79.7479C522.586 -112.27 203.498 207.28 56.8331 114.548C-3.06847 76.6453 4.71624 344.874 44.5481 583.474C83.6672 818.566 156.427 1022.46 248.138 879.921C311.408 781.949 345.691 602.314 598.463 648.785Z" stroke="#96FB4A" stroke-width="2" stroke-miterlimit="10"/>
<path d="M250.921 898.719C317.224 794.793 349.718 604.844 612.497 655.046C816.771 694.081 811.726 221.633 688.485 65.5201C531.268 -133.611 202.117 202.081 49.1625 103.521C-74.5259 23.8015 57.0311 1202.66 250.921 898.719Z" stroke="#96FB4A" stroke-width="2" stroke-miterlimit="10"/>
</g>
</svg>
