<svg width="30" height="30" viewBox="0 0 30 30" fill="none" xmlns="http://www.w3.org/2000/svg">
<path fill-rule="evenodd" clip-rule="evenodd" d="M15 30C23.2843 30 30 23.2843 30 15C30 6.71573 23.2843 0 15 0C6.71573 0 0 6.71573 0 15C0 23.2843 6.71573 30 15 30ZM10.6314 7.09587C9.65509 6.11956 8.07218 6.11956 7.09587 7.09587C6.11956 8.07218 6.11956 9.65509 7.09587 10.6314L11.4645 15L7.09587 19.3686C6.11956 20.3449 6.11956 21.9278 7.09587 22.9041C8.07218 23.8804 9.65509 23.8804 10.6314 22.9041L15 18.5355L19.3686 22.9041C20.3449 23.8804 21.9278 23.8804 22.9041 22.9041C23.8804 21.9278 23.8804 20.3449 22.9041 19.3686L18.5355 15L22.9041 10.6314C23.8804 9.65509 23.8804 8.07218 22.9041 7.09587C21.9278 6.11956 20.3449 6.11956 19.3686 7.09587L15 11.4645L10.6314 7.09587Z" fill="#EB5353"/>
</svg>
