<svg width="378" height="806" viewBox="0 0 378 806" fill="none" xmlns="http://www.w3.org/2000/svg">
<path d="M329.536 92.5042L328.093 94.3611C328.204 94.1532 328.306 93.9471 328.416 93.7387C328.901 93.0504 329.39 92.3611 329.887 91.6697C329.767 91.9479 329.655 92.2256 329.536 92.5042ZM321.915 104.238C321.523 104.718 321.121 105.201 320.733 105.679L320.846 105.483L322.19 103.676L321.915 104.238ZM327.401 97.5572C326.526 98.6121 325.687 99.6541 324.815 100.707C325.09 100.163 325.385 99.613 325.662 99.0667C326.449 98.0363 327.272 96.9933 328.078 95.956C327.855 96.4891 327.622 97.0248 327.401 97.5572ZM313.657 116.185C313.319 116.586 313.007 116.977 312.671 117.375L312.677 117.365C313.034 116.907 313.407 116.442 313.768 115.982L313.657 116.185ZM319.326 109.579C318.514 110.522 317.689 111.47 316.887 112.41C317.126 111.981 317.355 111.554 317.596 111.125C318.446 110.058 319.253 109.006 320.117 107.933C319.857 108.481 319.583 109.031 319.326 109.579ZM325.411 102.554C324.242 103.881 323.118 105.192 321.97 106.512C322.298 105.831 322.63 105.15 322.964 104.467C324.038 103.149 325.135 101.823 326.22 100.502C325.947 101.186 325.681 101.87 325.411 102.554ZM421.043 632.734L420.741 632.272C420.706 631.921 420.668 631.57 420.631 631.219L420.867 631.647C420.927 632.009 420.983 632.372 421.043 632.734ZM304.615 128.681L304.257 129.096C304.409 128.907 304.55 128.722 304.702 128.534L304.615 128.681ZM310.729 121.667C309.947 122.542 309.191 123.408 308.428 124.276C308.633 123.936 308.83 123.597 309.036 123.256C309.796 122.333 310.576 121.403 311.337 120.48C311.128 120.878 310.935 121.27 310.729 121.667ZM316.984 114.706C315.845 115.973 314.698 117.243 313.569 118.507C313.941 117.811 314.331 117.11 314.707 116.412C315.758 115.168 316.839 113.912 317.921 112.655C317.607 113.339 317.293 114.023 316.984 114.706ZM323.489 107.567C322.083 109.083 320.699 110.591 319.334 112.091C319.687 111.327 320.02 110.568 320.378 109.803C321.721 108.251 323.039 106.708 324.385 105.154C324.077 105.96 323.79 106.763 323.489 107.567ZM421.688 636.746C421.484 636.478 421.271 636.212 421.065 635.944L420.931 634.395C421.099 634.655 421.273 634.915 421.44 635.176C421.523 635.699 421.608 636.223 421.688 636.746ZM423.467 639.113L423.074 638.587L422.921 637.532L423.211 637.992C423.296 638.366 423.385 638.739 423.467 639.113ZM425.09 641.304L425.037 641.23L424.967 640.898L425.09 641.304ZM301.465 134.173C300.733 134.993 299.986 135.818 299.246 136.64L300.031 135.42C300.709 134.622 301.427 133.808 302.123 133.002C301.901 133.394 301.686 133.783 301.465 134.173ZM307.952 127.082C306.831 128.28 305.703 129.48 304.624 130.661C304.958 130.082 305.323 129.495 305.662 128.916C306.771 127.639 307.862 126.369 308.972 125.092C308.636 125.754 308.284 126.421 307.952 127.082ZM314.728 119.815L310.548 124.297C310.961 123.497 311.361 122.699 311.779 121.897C313.058 120.453 314.387 118.99 315.703 117.532C315.367 118.296 315.058 119.053 314.728 119.815ZM321.667 112.531C320.042 114.207 318.411 115.886 316.853 117.536C317.232 116.673 317.644 115.803 318.034 114.938C319.584 113.227 321.092 111.533 322.665 109.813C322.334 110.718 321.988 111.627 321.667 112.531ZM422.252 640.648C421.955 640.312 421.663 639.975 421.363 639.639C421.317 639.009 421.273 638.379 421.223 637.75C421.478 638.086 421.725 638.426 421.98 638.763C422.07 639.391 422.164 640.019 422.252 640.648ZM424.27 642.945C424.043 642.682 423.811 642.42 423.581 642.157C423.512 641.645 423.441 641.134 423.369 640.622L423.95 641.416C424.057 641.926 424.166 642.435 424.27 642.945ZM426.192 645.208L425.749 644.686C425.68 644.332 425.611 643.977 425.539 643.624C425.652 643.782 425.766 643.939 425.879 644.097C425.981 644.468 426.089 644.837 426.192 645.208ZM427.962 647.333L427.867 647.218L427.757 646.798L427.778 646.828L427.962 647.333ZM291.669 146.886C290.987 147.62 290.29 148.359 289.621 149.088C289.781 148.85 289.951 148.609 290.114 148.372C290.853 147.522 291.571 146.681 292.314 145.83L291.669 146.886ZM298.356 139.702C297.266 140.866 296.2 142.021 295.114 143.185C295.468 142.612 295.799 142.048 296.156 141.474C297.201 140.297 298.287 139.103 299.356 137.917C299.029 138.51 298.679 139.11 298.356 139.702ZM305.369 132.356C303.993 133.778 302.605 135.205 301.276 136.607C301.683 135.874 302.099 135.14 302.515 134.405C303.851 132.931 305.146 131.474 306.508 129.989C306.12 130.781 305.75 131.567 305.369 132.356ZM312.559 124.892C310.919 126.584 309.319 128.257 307.695 129.942C308.125 129.068 308.56 128.193 309.002 127.316C310.53 125.661 312.095 123.991 313.655 122.324C313.295 123.18 312.911 124.039 312.559 124.892ZM320.015 117.368C318.194 119.188 316.354 121.016 314.603 122.807C314.989 121.888 315.384 120.967 315.781 120.046C317.487 118.234 319.209 116.416 320.959 114.586C320.638 115.514 320.327 116.441 320.015 117.368ZM422.754 644.473C422.38 644.107 422.002 643.743 421.626 643.377C421.579 642.651 421.526 641.926 421.474 641.201C421.812 641.583 422.151 641.966 422.485 642.35C422.577 643.057 422.664 643.765 422.754 644.473ZM425.011 646.724C424.685 646.397 424.361 646.07 424.035 645.743C423.957 645.118 423.876 644.494 423.796 643.869C424.088 644.208 424.374 644.548 424.662 644.887C424.781 645.499 424.895 646.112 425.011 646.724ZM427.179 648.93C426.918 648.661 426.664 648.389 426.4 648.12C426.307 647.613 426.207 647.107 426.112 646.601C426.34 646.875 426.561 647.152 426.788 647.428L427.179 648.93ZM429.235 651.072C429.07 650.897 428.899 650.723 428.733 650.548C428.642 650.185 428.544 649.824 428.451 649.461L428.863 649.969C428.987 650.337 429.114 650.703 429.235 651.072ZM431.152 653.135L431.001 652.971C430.951 652.816 430.904 652.66 430.854 652.506L430.921 652.591C430.996 652.773 431.077 652.953 431.152 653.135ZM281.451 159.681C280.76 160.41 280.133 161.113 279.453 161.837C279.561 161.684 279.659 161.535 279.768 161.382C280.457 160.607 281.171 159.822 281.865 159.045C281.73 159.256 281.585 159.47 281.451 159.681ZM288.297 152.538C287.265 153.613 286.219 154.695 285.204 155.764C285.555 155.227 285.897 154.692 286.252 154.154C287.272 153.029 288.265 151.917 289.308 150.782C288.959 151.371 288.642 151.95 288.297 152.538ZM295.558 144.978C294.126 146.448 292.77 147.885 291.36 149.345C291.8 148.607 292.271 147.859 292.718 147.118C294.025 145.704 295.359 144.279 296.681 142.859C296.302 143.567 295.929 144.272 295.558 144.978ZM302.858 137.618C301.256 139.227 299.645 140.84 298.084 142.432C298.534 141.594 298.954 140.765 299.413 139.925C300.951 138.292 302.513 136.648 304.099 134.996C303.686 135.869 303.26 136.746 302.858 137.618ZM310.581 129.852C308.714 131.708 306.917 133.534 305.082 135.375C305.519 134.447 305.975 133.513 306.425 132.582C308.156 130.778 309.902 128.968 311.653 127.155C311.29 128.056 310.935 128.954 310.581 129.852ZM318.437 122.176C316.429 124.13 314.409 126.089 312.458 128.018C312.846 127.052 313.215 126.089 313.613 125.121C315.478 123.209 317.412 121.267 319.349 119.325C319.036 120.277 318.74 121.226 318.437 122.176ZM423.211 648.284C422.75 647.889 422.297 647.491 421.832 647.098C421.791 646.309 421.753 645.521 421.707 644.732C422.122 645.139 422.531 645.547 422.942 645.955C423.037 646.731 423.124 647.507 423.211 648.284ZM425.686 650.426C425.276 650.064 424.859 649.705 424.444 649.345C424.368 648.642 424.298 647.939 424.218 647.237C424.582 647.605 424.955 647.971 425.317 648.34C425.446 649.035 425.566 649.73 425.686 650.426ZM428.086 652.562C427.73 652.242 427.369 651.924 427.011 651.605C426.908 650.997 426.807 650.388 426.7 649.78C427.02 650.113 427.343 650.445 427.661 650.778C427.808 651.371 427.942 651.967 428.086 652.562ZM430.398 654.678C430.109 654.411 429.822 654.144 429.531 653.878L429.176 652.386C429.429 652.659 429.681 652.933 429.934 653.206C430.091 653.696 430.245 654.187 430.398 654.678ZM432.597 656.732C432.399 656.544 432.207 656.354 432.007 656.166C431.897 655.808 431.781 655.452 431.669 655.094C431.837 655.28 432 655.468 432.165 655.653C432.309 656.013 432.456 656.372 432.597 656.732ZM434.626 658.679L434.425 658.485C434.362 658.32 434.302 658.153 434.238 657.987L434.358 658.123L434.626 658.679ZM270.605 172.965C270.059 173.54 269.504 174.119 268.955 174.696C269.115 174.477 269.269 174.261 269.431 174.042C269.962 173.456 270.514 172.86 271.06 172.268C270.902 172.503 270.76 172.731 270.605 172.965ZM277.855 165.43C276.833 166.467 275.826 167.499 274.836 168.523C275.134 168.089 275.439 167.651 275.738 167.216C276.746 166.126 277.767 165.03 278.772 163.942C278.461 164.439 278.162 164.933 277.855 165.43ZM285.126 158.055C283.765 159.436 282.392 160.821 281.042 162.196C281.518 161.442 282.007 160.682 282.493 159.924C283.754 158.584 285.078 157.217 286.39 155.855C285.971 156.588 285.538 157.325 285.126 158.055ZM292.741 150.402C291.124 152.004 289.545 153.589 287.966 155.174C288.426 154.374 288.875 153.579 289.343 152.776L293.992 147.932C293.565 148.759 293.159 149.579 292.741 150.402ZM300.567 142.716C298.724 144.519 296.882 146.324 295.072 148.113C295.569 147.151 296.102 146.177 296.61 145.211C298.285 143.492 300.048 141.734 301.793 139.985C301.38 140.896 300.968 141.808 300.567 142.716ZM308.652 134.848C306.619 136.804 304.628 138.741 302.643 140.676C303.07 139.733 303.476 138.794 303.915 137.847C305.856 135.89 307.775 133.943 309.737 131.976C309.366 132.936 309.011 133.891 308.652 134.848ZM316.943 126.946C314.75 129.027 312.563 131.107 310.416 133.167C310.807 132.143 311.233 131.11 311.638 130.083C313.651 128.082 315.771 126.034 317.867 123.997C317.559 124.98 317.238 125.965 316.943 126.946ZM418.048 647.985C390.519 628.26 356.777 610.51 322.386 592.426C196.206 526.078 61.4209 455.152 194.842 264.884M423.619 652.06C423.09 651.661 422.548 651.267 422.013 650.871C421.977 650.022 421.94 649.173 421.898 648.325C422.384 648.741 422.868 649.158 423.351 649.575C423.443 650.402 423.537 651.229 423.619 652.06ZM426.313 654.116C425.819 653.736 425.322 653.356 424.823 652.978C424.749 652.2 424.669 651.424 424.585 650.647C425.037 651.043 425.479 651.443 425.926 651.841C426.058 652.599 426.192 653.356 426.313 654.116ZM428.929 656.156C428.48 655.801 428.037 655.444 427.583 655.09C427.475 654.399 427.365 653.708 427.25 653.019C427.656 653.385 428.055 653.754 428.458 654.121C428.617 654.799 428.776 655.477 428.929 656.156ZM431.462 658.175C431.074 657.86 430.683 657.547 430.292 657.235C430.163 656.644 430.044 656.05 429.908 655.46C430.254 655.781 430.605 656.099 430.946 656.42C431.123 657.003 431.29 657.59 431.462 658.175ZM433.91 660.184C433.595 659.923 433.274 659.663 432.957 659.402L432.531 657.941C432.811 658.21 433.094 658.478 433.372 658.747L433.91 660.184ZM436.25 662.164L435.588 661.599C435.46 661.243 435.323 660.89 435.191 660.535L435.754 661.097C435.918 661.453 436.089 661.808 436.25 662.164ZM438.374 663.994L438.125 663.773L437.912 663.285L438.095 663.476C438.19 663.648 438.28 663.822 438.374 663.994ZM259.57 186.131C259.089 186.624 258.595 187.123 258.121 187.613L258.218 187.486C258.781 186.876 259.329 186.272 259.894 185.662L259.57 186.131ZM266.882 178.653C265.844 179.716 264.808 180.779 263.761 181.845C264.118 181.343 264.504 180.829 264.864 180.326C265.824 179.306 266.826 178.267 267.809 177.237C267.499 177.709 267.188 178.182 266.882 178.653ZM274.275 171.237C273 172.494 271.71 173.758 270.478 174.996C270.874 174.398 271.245 173.809 271.646 173.209C272.99 171.805 274.292 170.42 275.648 169.01C275.2 169.749 274.717 170.5 274.275 171.237ZM282.134 163.461L277.337 168.208C277.853 167.364 278.379 166.516 278.903 165.668C280.374 164.158 281.901 162.623 283.414 161.093C282.975 161.887 282.566 162.67 282.134 163.461ZM290.103 155.71C288.272 157.467 286.441 159.224 284.667 160.955C285.155 160.074 285.668 159.185 286.168 158.301C287.96 156.49 289.689 154.708 291.508 152.886C291.039 153.828 290.562 154.772 290.103 155.71ZM298.362 147.788C296.345 149.719 294.339 151.642 292.341 153.564C292.824 152.589 293.299 151.616 293.795 150.637C295.67 148.774 297.612 146.88 299.544 144.992C299.136 145.928 298.758 146.856 298.362 147.788ZM306.837 139.783C304.628 141.846 302.435 143.903 300.29 145.938C300.718 144.947 301.179 143.947 301.619 142.952C303.73 140.888 305.801 138.841 307.949 136.76C307.578 137.768 307.194 138.777 306.837 139.783ZM315.596 131.619C313.24 133.807 310.904 135.985 308.579 138.159C308.951 137.134 309.326 136.108 309.712 135.08C311.905 132.964 314.18 130.812 316.444 128.665C316.152 129.651 315.876 130.635 315.596 131.619ZM423.96 655.834C423.355 655.436 422.754 655.037 422.144 654.641C422.118 653.747 422.084 652.854 422.05 651.962C422.611 652.382 423.172 652.804 423.727 653.226C423.806 654.095 423.884 654.965 423.96 655.834ZM426.857 657.765C426.289 657.381 425.722 656.997 425.148 656.615C425.079 655.79 425.003 654.967 424.928 654.143C425.451 654.544 425.98 654.942 426.497 655.345C426.618 656.152 426.741 656.958 426.857 657.765ZM429.695 659.696C429.171 659.333 428.637 658.975 428.107 658.614C428.001 657.859 427.885 657.106 427.77 656.352C428.253 656.734 428.74 657.115 429.218 657.499C429.379 658.231 429.543 658.962 429.695 659.696ZM432.458 661.641C431.981 661.302 431.499 660.965 431.017 660.627C430.881 659.95 430.734 659.275 430.588 658.6C431.028 658.957 431.463 659.317 431.899 659.675C432.089 660.33 432.278 660.985 432.458 661.641ZM435.13 663.571C434.707 663.262 434.289 662.952 433.862 662.643C433.705 662.063 433.556 661.481 433.393 660.902C433.781 661.227 434.158 661.555 434.543 661.882C434.745 662.443 434.932 663.008 435.13 663.571ZM437.708 665.477C437.36 665.216 437.016 664.955 436.667 664.696C436.504 664.221 436.336 663.747 436.173 663.272C436.479 663.537 436.787 663.8 437.091 664.065C437.296 664.536 437.505 665.005 437.708 665.477ZM440.158 667.341C439.917 667.156 439.673 666.972 439.43 666.787C439.286 666.442 439.139 666.098 438.99 665.754C439.2 665.941 439.412 666.126 439.618 666.312C439.8 666.655 439.98 666.998 440.158 667.341ZM442.409 669.11L442.113 668.877L441.86 668.373L442.083 668.582L442.409 669.11ZM248.257 199.303L248.159 199.403L248.271 199.284L248.257 199.303ZM255.42 192.148C254.496 193.071 253.557 194.001 252.644 194.92C252.928 194.534 253.191 194.157 253.477 193.77C254.499 192.698 255.464 191.653 256.506 190.573C256.151 191.095 255.772 191.627 255.42 192.148ZM263.22 184.357C261.895 185.667 260.635 186.948 259.317 188.256C259.75 187.626 260.18 186.999 260.619 186.368C261.833 185.118 263.079 183.854 264.306 182.598C263.929 183.19 263.591 183.768 263.22 184.357ZM271.093 176.716C269.5 178.251 267.896 179.792 266.346 181.307C266.857 180.512 267.401 179.702 267.92 178.903C269.454 177.351 270.962 175.809 272.529 174.242C272.042 175.069 271.571 175.892 271.093 176.716ZM279.222 168.851C277.401 170.604 275.621 172.339 273.803 174.091C274.319 173.217 274.796 172.357 275.323 171.478C277.076 169.732 278.866 167.968 280.651 166.207C280.179 167.086 279.682 167.975 279.222 168.851ZM287.63 160.911C285.625 162.786 283.602 164.67 281.662 166.515C282.163 165.579 282.672 164.642 283.182 163.702C285.094 161.828 286.996 159.956 288.95 158.062C288.494 159.017 288.076 159.96 287.63 160.911ZM296.265 152.805C294.061 154.867 291.89 156.915 289.694 158.973C290.174 157.967 290.665 156.957 291.158 155.946C293.24 153.934 295.365 151.904 297.491 149.872C297.084 150.849 296.661 151.831 296.265 152.805ZM305.172 144.614C302.816 146.759 300.442 148.91 298.167 151.018C298.581 150.021 298.995 149.023 299.42 148.021C301.658 145.89 303.902 143.756 306.193 141.601C305.84 142.608 305.511 143.61 305.172 144.614ZM314.314 136.268C311.798 138.557 309.326 140.824 306.824 143.106C307.18 142.076 307.527 141.048 307.895 140.015C310.27 137.787 312.691 135.538 315.119 133.286C314.843 134.281 314.579 135.275 314.314 136.268ZM424.258 659.602C423.585 659.212 422.904 658.826 422.225 658.439C422.208 657.511 422.199 656.582 422.177 655.655C422.805 656.065 423.433 656.475 424.053 656.887C424.128 657.791 424.192 658.696 424.258 659.602ZM427.357 661.412C426.718 661.033 426.068 660.659 425.424 660.282C425.362 659.415 425.309 658.546 425.242 657.68C425.841 658.082 426.433 658.488 427.028 658.893C427.144 659.731 427.249 660.572 427.357 661.412ZM430.396 663.243C429.79 662.875 429.185 662.507 428.573 662.14C428.471 661.337 428.37 660.534 428.262 659.732C428.828 660.122 429.383 660.516 429.944 660.908C430.098 661.685 430.248 662.464 430.396 663.243ZM433.375 665.081C432.808 664.727 432.247 664.37 431.674 664.016C431.537 663.286 431.392 662.557 431.25 661.828C431.769 662.197 432.289 662.564 432.802 662.934C432.995 663.649 433.191 664.364 433.375 665.081ZM436.265 666.907C435.757 666.58 435.241 666.255 434.728 665.93C434.562 665.273 434.389 664.619 434.214 663.965C434.684 664.309 435.16 664.651 435.626 664.997C435.843 665.633 436.056 666.27 436.265 666.907ZM439.065 668.733C438.619 668.437 438.162 668.144 437.712 667.85C437.53 667.287 437.357 666.722 437.171 666.161C437.582 666.47 437.99 666.782 438.397 667.093C438.624 667.638 438.844 668.186 439.065 668.733ZM441.785 670.564C441.41 670.308 441.036 670.052 440.657 669.797C440.469 669.328 440.274 668.86 440.084 668.391C440.423 668.657 440.755 668.925 441.092 669.192C441.323 669.649 441.559 670.105 441.785 670.564ZM444.334 672.32C444.062 672.131 443.799 671.937 443.526 671.749C443.367 671.415 443.216 671.079 443.053 670.747C443.294 670.941 443.524 671.138 443.762 671.332C443.957 671.66 444.141 671.991 444.334 672.32ZM446.696 673.995L446.362 673.759C446.264 673.585 446.161 673.412 446.062 673.238C446.145 673.309 446.23 673.377 446.314 673.448L446.696 673.995ZM236.183 213.151L234.884 214.464L234.964 214.362C235.413 213.891 235.893 213.405 236.35 212.929L236.183 213.151ZM243.786 205.549C242.957 206.357 242.114 207.172 241.313 207.967L241.88 207.216C242.753 206.315 243.633 205.409 244.496 204.512C244.251 204.861 244.029 205.2 243.786 205.549ZM251.629 197.88C250.354 199.13 249.063 200.386 247.791 201.634C248.283 200.944 248.798 200.245 249.295 199.552C250.453 198.379 251.668 197.177 252.868 195.983C252.447 196.619 252.046 197.247 251.629 197.88ZM259.722 190.019C258.105 191.568 256.547 193.09 254.96 194.625C255.455 193.884 255.956 193.142 256.458 192.398C258.016 190.842 259.582 189.28 261.14 187.724C260.667 188.489 260.187 189.257 259.722 190.019ZM267.908 182.261C266.133 183.939 264.349 185.622 262.605 187.286C263.159 186.392 263.695 185.505 264.261 184.607C265.946 182.948 267.686 181.266 269.429 179.581C268.921 180.474 268.407 181.37 267.908 182.261ZM276.552 174.087C274.486 176.019 272.512 177.91 270.472 179.831C271.014 178.879 271.587 177.916 272.141 176.959C274.064 175.095 275.994 173.228 277.932 171.357C277.46 172.271 277.011 173.177 276.552 174.087ZM285.226 166.101C283.049 168.097 280.865 170.097 278.746 172.066C279.255 171.076 279.744 170.094 280.267 169.099C282.345 167.113 284.479 165.102 286.623 163.086C286.162 164.09 285.673 165.102 285.226 166.101ZM294.341 157.708C291.941 159.9 289.637 162.046 287.26 164.228C287.726 163.205 288.207 162.177 288.687 161.148C290.938 159.03 293.195 156.909 295.474 154.778C295.083 155.758 294.719 156.731 294.341 157.708ZM303.569 149.43C301.061 151.667 298.539 153.912 296.11 156.114C296.512 155.09 296.905 154.07 297.322 153.043C299.701 150.833 302.133 148.598 304.582 146.356C304.24 147.381 303.897 148.407 303.569 149.43ZM313.112 140.879C310.438 143.264 307.832 145.618 305.166 147.998C305.508 146.951 305.88 145.898 306.234 144.848C308.775 142.521 311.324 140.191 313.902 137.849C313.638 138.859 313.364 139.871 313.112 140.879ZM424.516 663.382C423.771 663.005 423.023 662.631 422.272 662.257C422.267 661.291 422.256 660.326 422.24 659.362C422.939 659.763 423.631 660.169 424.326 660.573C424.393 661.509 424.46 662.445 424.516 663.382ZM427.811 665.078C427.095 664.705 426.384 664.332 425.662 663.962C425.611 663.058 425.552 662.156 425.491 661.254C426.159 661.647 426.828 662.04 427.488 662.435C427.6 663.315 427.709 664.196 427.811 665.078ZM431.043 666.781C430.363 666.418 429.684 666.055 428.997 665.694C428.904 664.853 428.808 664.011 428.705 663.171C429.339 663.554 429.979 663.935 430.606 664.321C430.757 665.139 430.899 665.96 431.043 666.781ZM434.214 668.491C433.577 668.141 432.927 667.796 432.284 667.448C432.152 666.672 432.025 665.894 431.885 665.119C432.483 665.49 433.077 665.863 433.669 666.236C433.854 666.987 434.034 667.739 434.214 668.491ZM437.333 670.235C436.735 669.897 436.129 669.56 435.525 669.224C435.357 668.508 435.18 667.795 435.007 667.081C435.567 667.441 436.115 667.804 436.669 668.166C436.893 668.855 437.12 669.543 437.333 670.235ZM440.34 671.964C439.796 671.647 439.256 671.328 438.705 671.012C438.513 670.376 438.315 669.741 438.114 669.108C438.624 669.445 439.129 669.784 439.633 670.123C439.875 670.735 440.106 671.351 440.34 671.964ZM443.269 673.692C442.787 673.403 442.307 673.113 441.82 672.825C441.615 672.279 441.41 671.733 441.201 671.188C441.636 671.485 442.077 671.778 442.507 672.077C442.761 672.615 443.02 673.152 443.269 673.692ZM446.089 675.402C445.699 675.161 445.299 674.925 444.907 674.685C444.701 674.231 444.485 673.779 444.272 673.327C444.634 673.584 445 673.84 445.36 674.098C445.606 674.532 445.848 674.967 446.089 675.402ZM448.765 677.093L447.899 676.544C447.723 676.216 447.546 675.888 447.367 675.561L448.131 676.127L448.765 677.093ZM451.259 678.706L450.86 678.441L450.547 677.949L450.871 678.201L451.259 678.706ZM231.874 219.062C231.032 219.88 230.199 220.693 229.377 221.5L230.032 220.663C230.853 219.825 231.708 218.971 232.544 218.127C232.316 218.441 232.101 218.75 231.874 219.062ZM239.776 211.404C238.478 212.664 237.166 213.931 235.868 215.191C236.298 214.607 236.769 214.005 237.204 213.418C238.507 212.11 239.762 210.824 241.071 209.512C240.637 210.143 240.204 210.775 239.776 211.404ZM247.856 203.663C246.352 205.084 244.846 206.506 243.384 207.906C243.876 207.195 244.34 206.497 244.839 205.783C246.31 204.328 247.839 202.848 249.351 201.374C248.861 202.134 248.337 202.907 247.856 203.663ZM256.359 195.626C254.567 197.317 252.786 199.003 251.002 200.69C251.554 199.836 252.115 198.98 252.677 198.123C254.409 196.437 256.098 194.771 257.835 193.082C257.322 193.938 256.861 194.774 256.359 195.626ZM265.006 187.59C262.984 189.45 260.948 191.317 258.988 193.148C259.558 192.195 260.18 191.222 260.764 190.265C262.637 188.469 264.585 186.638 266.519 184.813C266.008 185.741 265.505 186.667 265.006 187.59ZM273.891 179.386C271.686 181.405 269.561 183.387 267.386 185.393C267.916 184.426 268.42 183.469 268.962 182.497C271.106 180.471 273.215 178.46 275.368 176.429C274.878 177.414 274.369 178.406 273.891 179.386ZM283.064 171.101C280.697 173.23 278.325 175.362 276.017 177.464C276.531 176.423 277.075 175.372 277.603 174.326C279.792 172.284 282.079 170.197 284.345 168.12C283.907 169.117 283.491 170.108 283.064 171.101ZM292.444 162.677C289.916 164.928 287.443 167.156 284.964 169.386C285.407 168.369 285.825 167.36 286.282 166.338C288.731 164.086 291.149 161.848 293.614 159.589C293.224 160.618 292.82 161.651 292.444 162.677ZM302.113 154.129C299.44 156.482 296.778 158.831 294.16 161.159C294.56 160.091 294.988 159.015 295.403 157.942C297.891 155.682 300.484 153.373 303.06 151.072C302.74 152.092 302.42 153.111 302.113 154.129ZM312.021 145.46C309.213 147.9 306.422 150.333 303.681 152.742C303.998 151.715 304.308 150.689 304.637 149.659C307.344 147.237 310.014 144.831 312.74 142.4C312.489 143.422 312.258 144.44 312.021 145.46ZM424.705 667.166C423.894 666.806 423.085 666.445 422.266 666.087C422.274 665.099 422.272 664.112 422.271 663.126C423.036 663.509 423.804 663.89 424.559 664.276C424.611 665.239 424.661 666.201 424.705 667.166ZM428.203 668.736C427.423 668.38 426.635 668.027 425.847 667.674C425.807 666.739 425.757 665.805 425.707 664.871C426.444 665.251 427.18 665.633 427.911 666.015C428.012 666.922 428.113 667.828 428.203 668.736ZM431.638 670.319C430.892 669.97 430.135 669.626 429.382 669.28C429.297 668.397 429.197 667.517 429.098 666.637C429.81 667.014 430.509 667.395 431.214 667.774C431.358 668.621 431.503 669.469 431.638 670.319ZM435 671.925C434.286 671.58 433.57 671.236 432.848 670.895C432.722 670.076 432.59 669.258 432.454 668.442C433.133 668.812 433.802 669.184 434.472 669.556C434.655 670.344 434.826 671.135 435 671.925ZM438.307 673.545C437.626 673.207 436.951 672.865 436.263 672.529C436.1 671.781 435.943 671.032 435.776 670.286C436.405 670.64 437.039 670.992 437.662 671.349C437.88 672.08 438.096 672.812 438.307 673.545ZM441.536 675.17C440.908 674.848 440.275 674.529 439.643 674.21C439.447 673.521 439.241 672.835 439.037 672.148C439.625 672.49 440.217 672.828 440.798 673.172C441.048 673.836 441.297 674.502 441.536 675.17ZM444.664 676.793C444.096 676.492 443.515 676.197 442.94 675.899C442.725 675.286 442.511 674.673 442.287 674.062C442.826 674.385 443.359 674.709 443.891 675.034C444.154 675.618 444.407 676.206 444.664 676.793ZM447.739 678.451C447.226 678.171 446.712 677.891 446.194 677.614C445.963 677.077 445.724 676.542 445.489 676.008C445.965 676.304 446.43 676.605 446.902 676.903C447.183 677.418 447.467 677.932 447.739 678.451ZM450.648 680.064C450.222 679.823 449.805 679.581 449.375 679.342C449.155 678.912 448.942 678.481 448.717 678.053C449.105 678.303 449.488 678.555 449.874 678.807C450.137 679.224 450.39 679.645 450.648 680.064ZM453.444 681.655C453.137 681.475 452.821 681.299 452.51 681.119C452.318 680.801 452.117 680.484 451.923 680.166C452.195 680.349 452.475 680.528 452.745 680.712C452.977 681.027 453.217 681.339 453.444 681.655ZM455.995 683.171L455.564 682.915L455.232 682.437L455.594 682.688C455.728 682.848 455.86 683.01 455.995 683.171ZM219.563 232.803C218.736 233.598 217.89 234.402 217.083 235.188C217.346 234.859 217.627 234.521 217.89 234.191C218.692 233.384 219.532 232.557 220.354 231.739L219.563 232.803ZM227.529 225.138L223.875 228.652C224.282 228.114 224.659 227.589 225.07 227.048C226.334 225.792 227.585 224.542 228.856 223.282C228.42 223.898 227.959 224.524 227.529 225.138ZM235.794 217.301C234.32 218.683 232.829 220.071 231.394 221.435C231.916 220.705 232.433 219.977 232.962 219.243C234.368 217.869 235.819 216.472 237.257 215.083C236.759 215.826 236.282 216.561 235.794 217.301ZM244.438 209.18C242.611 210.885 240.841 212.562 239.031 214.259C239.624 213.377 240.254 212.48 240.857 211.593C242.577 209.936 244.259 208.296 246.009 206.624C245.473 207.481 244.964 208.327 244.438 209.18ZM253.134 201.177C251.149 202.995 249.156 204.817 247.214 206.615C247.791 205.696 248.343 204.786 248.93 203.862C250.861 202.027 252.827 200.176 254.79 198.326C254.24 199.276 253.672 200.231 253.134 201.177ZM262.177 192.907C259.982 194.898 257.842 196.862 255.683 198.836C256.261 197.837 256.834 196.839 257.427 195.835C259.49 193.901 261.582 191.954 263.696 189.996C263.179 190.971 262.681 191.938 262.177 192.907ZM271.454 184.568C269.075 186.699 266.704 188.828 264.366 190.94C264.913 189.902 265.512 188.845 266.075 187.802C268.337 185.708 270.606 183.612 272.893 181.508C272.404 182.531 271.928 183.549 271.454 184.568ZM280.933 176.131C278.422 178.349 275.933 180.556 273.479 182.748C273.976 181.698 274.446 180.657 274.958 179.603C277.329 177.437 279.79 175.23 282.234 173.031C281.798 174.065 281.356 175.101 280.933 176.131ZM290.731 167.501C288.047 169.855 285.402 172.191 282.752 174.529C283.195 173.463 283.675 172.387 284.134 171.317C286.703 169.001 289.23 166.706 291.842 164.371C291.464 165.416 291.095 166.459 290.731 167.501ZM300.738 158.821C297.936 161.234 295.126 163.652 292.402 166.029C292.776 164.983 293.131 163.942 293.516 162.892C296.172 160.527 298.893 158.131 301.616 155.734C301.309 156.766 301.031 157.791 300.738 158.821ZM311 149.969C308.038 152.507 305.163 155.004 302.238 157.524C302.544 156.468 302.864 155.408 303.183 154.348C305.993 151.877 308.818 149.4 311.683 146.902C311.449 147.925 311.221 148.948 311 149.969ZM424.844 670.957C423.971 670.619 423.09 670.284 422.208 669.949C422.227 668.937 422.253 667.923 422.265 666.912C423.098 667.278 423.922 667.647 424.747 668.015C424.787 668.995 424.814 669.976 424.844 670.957ZM428.531 672.407C427.684 672.07 426.831 671.736 425.976 671.402C425.947 670.442 425.925 669.481 425.888 668.523C426.697 668.887 427.492 669.255 428.292 669.622C428.378 670.549 428.453 671.478 428.531 672.407ZM432.164 673.88C431.342 673.542 430.522 673.204 429.692 672.87C429.618 671.966 429.539 671.063 429.458 670.159C430.233 670.519 431.007 670.878 431.774 671.241C431.907 672.119 432.041 672.999 432.164 673.88ZM435.728 675.364C434.943 675.031 434.157 674.698 433.362 674.369C433.246 673.518 433.115 672.669 432.985 671.82C433.727 672.175 434.473 672.526 435.207 672.883C435.385 673.708 435.562 674.535 435.728 675.364ZM439.217 676.856C438.471 676.53 437.713 676.209 436.959 675.887C436.802 675.094 436.643 674.301 436.474 673.51C437.19 673.862 437.901 674.216 438.607 674.571C438.819 675.33 439.015 676.094 439.217 676.856ZM442.651 678.377C441.943 678.058 441.223 677.743 440.507 677.427C440.315 676.693 440.122 675.96 439.923 675.229C440.595 675.571 441.251 675.918 441.916 676.263C442.163 676.967 442.416 677.669 442.651 678.377ZM445.987 679.906C445.327 679.6 444.67 679.294 444.005 678.99C443.784 678.321 443.551 677.656 443.32 676.99C443.948 677.32 444.567 677.653 445.187 677.985C445.461 678.623 445.723 679.265 445.987 679.906ZM449.255 681.45C448.644 681.156 448.039 680.861 447.42 680.569C447.183 679.982 446.949 679.393 446.704 678.807C447.262 679.11 447.826 679.412 448.379 679.718C448.671 680.295 448.97 680.87 449.255 681.45ZM452.4 682.977C451.876 682.717 451.34 682.46 450.811 682.202C450.561 681.685 450.3 681.172 450.04 680.659C450.54 680.941 451.042 681.222 451.537 681.507C451.831 681.995 452.114 682.487 452.4 682.977ZM455.448 684.522C455.003 684.292 454.549 684.066 454.1 683.838C453.859 683.418 453.618 682.997 453.374 682.578C453.786 682.821 454.195 683.065 454.604 683.308C454.885 683.713 455.171 684.116 455.448 684.522ZM458.328 686.032C458.001 685.858 457.676 685.683 457.347 685.51C457.141 685.202 456.937 684.894 456.729 684.587C457.037 684.776 457.338 684.969 457.644 685.159C457.878 685.448 458.099 685.742 458.328 686.032ZM460.984 687.459C460.82 687.369 460.663 687.277 460.497 687.187C460.375 687.028 460.248 686.871 460.126 686.712C460.266 686.802 460.401 686.895 460.542 686.985C460.689 687.143 460.839 687.301 460.984 687.459ZM206.873 246.748C206.093 247.497 205.294 248.254 204.524 248.997C204.751 248.717 204.958 248.446 205.186 248.165C205.993 247.359 206.84 246.535 207.665 245.721C207.405 246.062 207.132 246.408 206.873 246.748ZM215 238.967C213.841 240.069 212.728 241.148 211.576 242.245C211.99 241.712 212.39 241.183 212.807 240.648C213.966 239.509 215.096 238.384 216.262 237.241C215.845 237.814 215.414 238.395 215 238.967ZM223.479 231.01C221.986 232.405 220.481 233.806 219.012 235.189C219.556 234.448 220.122 233.698 220.675 232.954C222.074 231.598 223.513 230.224 224.934 228.857C224.436 229.581 223.97 230.29 223.479 231.01ZM232.162 222.922C230.338 224.604 228.567 226.261 226.774 227.928C227.373 227.065 228.004 226.187 228.615 225.318C230.34 223.67 232.056 222.026 233.817 220.362C233.26 221.217 232.706 222.071 232.162 222.922ZM240.915 214.911C238.975 216.684 237.031 218.459 235.113 220.221C235.709 219.305 236.276 218.401 236.885 217.48C238.805 215.671 240.745 213.852 242.684 212.034C242.104 212.99 241.481 213.961 240.915 214.911ZM250.136 206.559C247.953 208.518 245.786 210.47 243.655 212.404C244.264 211.398 244.895 210.384 245.519 209.372C247.54 207.493 249.62 205.588 251.698 203.683C251.156 204.649 250.664 205.597 250.136 206.559ZM259.51 198.159C257.136 200.278 254.793 202.383 252.443 204.492C253.018 203.46 253.613 202.42 254.206 201.381C256.501 199.276 258.751 197.191 261.078 195.071C260.55 196.102 260.023 197.133 259.51 198.159ZM269.095 189.704C266.601 191.888 264.095 194.079 261.667 196.231C262.195 195.191 262.711 194.155 263.253 193.109C265.628 190.958 268.066 188.778 270.498 186.599C270.023 187.637 269.556 188.672 269.095 189.704ZM278.992 181.028C276.284 183.385 273.654 185.704 270.989 188.041C271.477 186.962 272.017 185.865 272.522 184.78C275.074 182.497 277.627 180.214 280.229 177.907C279.81 178.949 279.397 179.99 278.992 181.028ZM289.088 172.322C286.286 174.73 283.494 177.132 280.752 179.511C281.171 178.454 281.574 177.402 282.009 176.34C284.693 173.966 287.4 171.583 290.133 169.187C289.772 170.235 289.433 171.278 289.088 172.322ZM299.429 163.475C296.479 165.983 293.567 168.473 290.676 170.952C291.039 169.877 291.427 168.795 291.804 167.716C294.597 165.274 297.448 162.805 300.314 160.33C300.021 161.378 299.708 162.43 299.429 163.475ZM310.057 154.474C306.979 157.069 303.949 159.641 300.921 162.211C301.209 161.154 301.512 160.094 301.815 159.034C304.78 156.472 307.703 153.932 310.71 151.351C310.489 152.393 310.266 153.435 310.057 154.474ZM424.941 674.773C424.002 674.456 423.06 674.142 422.112 673.829C422.145 672.794 422.17 671.761 422.192 670.728C423.087 671.072 423.981 671.416 424.869 671.763C424.899 672.765 424.924 673.768 424.941 674.773ZM428.812 676.1C427.896 675.782 426.987 675.461 426.062 675.147C426.047 674.166 426.026 673.186 425.999 672.208C426.868 672.549 427.742 672.889 428.602 673.235C428.677 674.188 428.747 675.144 428.812 676.1ZM432.625 677.442C431.74 677.125 430.853 676.81 429.957 676.496C429.896 675.566 429.834 674.637 429.763 673.709C430.608 674.052 431.453 674.394 432.288 674.74C432.409 675.638 432.514 676.541 432.625 677.442ZM436.386 678.803C435.533 678.488 434.665 678.178 433.802 677.867C433.697 676.987 433.588 676.108 433.475 675.23C434.29 675.571 435.094 675.915 435.899 676.259C436.067 677.106 436.232 677.953 436.386 678.803ZM440.069 680.188C439.252 679.877 438.428 679.568 437.603 679.26C437.455 678.431 437.291 677.606 437.13 676.781C437.916 677.12 438.692 677.463 439.469 677.805C439.676 678.598 439.873 679.392 440.069 680.188ZM443.684 681.591C442.896 681.281 442.114 680.97 441.317 680.663C441.135 679.899 440.953 679.136 440.758 678.376C441.502 678.707 442.245 679.037 442.979 679.371C443.219 680.11 443.453 680.85 443.684 681.591ZM447.228 683.01C446.486 682.708 445.744 682.406 444.994 682.107C444.776 681.4 444.55 680.696 444.322 679.992C445.021 680.313 445.724 680.633 446.414 680.958C446.69 681.641 446.965 682.324 447.228 683.01ZM450.677 684.431C449.992 684.142 449.293 683.859 448.599 683.573C448.356 682.931 448.112 682.288 447.859 681.648C448.515 681.961 449.166 682.276 449.816 682.593C450.108 683.204 450.391 683.818 450.677 684.431ZM454.058 685.888C453.428 685.612 452.79 685.34 452.153 685.068C451.89 684.489 451.614 683.913 451.342 683.336C451.944 683.635 452.532 683.939 453.126 684.24C453.441 684.788 453.754 685.336 454.058 685.888ZM457.315 687.34C456.75 687.085 456.192 686.828 455.622 686.575C455.357 686.084 455.099 685.589 454.827 685.1C455.35 685.371 455.868 685.644 456.387 685.916C456.7 686.39 457.008 686.864 457.315 687.34ZM460.458 688.786C459.989 688.566 459.524 688.345 459.052 688.127C458.796 687.72 458.525 687.318 458.261 686.914C458.693 687.145 459.134 687.373 459.561 687.606C459.863 687.999 460.163 688.391 460.458 688.786ZM463.419 690.196C463.079 690.03 462.727 689.868 462.385 689.703C462.17 689.411 461.959 689.118 461.742 688.828C462.054 689.003 462.37 689.176 462.679 689.352C462.927 689.633 463.175 689.914 463.419 690.196ZM466.196 691.58L465.685 691.324C465.563 691.179 465.447 691.032 465.324 690.888L465.784 691.16C465.925 691.298 466.056 691.44 466.196 691.58ZM193.85 260.853C193.208 261.469 192.551 262.092 191.908 262.708C192.122 262.447 192.329 262.191 192.546 261.93C193.212 261.271 193.904 260.599 194.578 259.937C194.341 260.239 194.085 260.551 193.85 260.853ZM202.355 252.776C201.213 253.845 200.099 254.9 198.98 255.958C199.388 255.444 199.802 254.927 200.214 254.411C201.338 253.313 202.409 252.243 203.551 251.138C203.139 251.689 202.761 252.226 202.355 252.776ZM210.868 244.834C209.344 246.259 207.805 247.689 206.283 249.111C206.838 248.374 207.446 247.612 208.01 246.871C209.453 245.484 210.924 244.084 212.376 242.693C211.868 243.409 211.37 244.121 210.868 244.834ZM219.539 236.837C217.819 238.406 216.094 239.976 214.419 241.523C214.996 240.716 215.529 239.927 216.115 239.116C217.81 237.51 219.544 235.886 221.284 234.258C220.708 235.115 220.105 235.984 219.539 236.837ZM228.544 228.617C226.577 230.404 224.649 232.173 222.699 233.953C223.319 233.031 223.939 232.11 224.573 231.183C226.469 229.41 228.342 227.649 230.258 225.868C229.676 226.788 229.113 227.702 228.544 228.617ZM237.791 220.321C235.609 222.267 233.417 224.217 231.287 226.138C231.92 225.135 232.604 224.11 233.25 223.102C235.284 221.225 237.378 219.321 239.461 217.421C238.89 218.393 238.347 219.354 237.791 220.321ZM247.234 211.903C244.874 213.991 242.574 216.05 240.253 218.119C240.844 217.109 241.391 216.117 241.997 215.102C244.289 213.014 246.571 210.931 248.907 208.823C248.353 209.849 247.774 210.883 247.234 211.903ZM256.958 203.374C254.453 205.564 251.955 207.751 249.494 209.921C250.058 208.87 250.632 207.815 251.213 206.758C253.594 204.615 256.003 202.459 258.423 200.298C257.916 201.33 257.45 202.348 256.958 203.374ZM266.913 194.721C264.234 197.033 261.576 199.336 258.958 201.62C259.483 200.539 260.042 199.447 260.585 198.362C263.112 196.115 265.694 193.843 268.286 191.566C267.822 192.619 267.361 193.673 266.913 194.721ZM277.121 185.929C274.313 188.337 271.547 190.726 268.774 193.118C269.238 192.049 269.69 190.985 270.17 189.911C272.88 187.53 275.553 185.167 278.302 182.768C277.895 183.825 277.512 184.876 277.121 185.929ZM287.549 177.077C284.612 179.555 281.659 182.042 278.8 184.483C279.205 183.406 279.645 182.319 280.067 181.237C282.854 178.816 285.718 176.358 288.577 173.902C288.233 174.96 287.878 176.022 287.549 177.077ZM298.274 168.024C295.185 170.615 292.171 173.172 289.127 175.741C289.468 174.673 289.812 173.604 290.167 172.532C293.116 170 296.058 167.47 299.06 164.912C298.788 165.951 298.533 166.987 298.274 168.024ZM309.208 158.923C306.013 161.573 302.833 164.214 299.709 166.829C299.977 165.782 300.226 164.738 300.505 163.688C303.565 161.086 306.655 158.47 309.776 155.839C309.574 156.869 309.399 157.895 309.208 158.923ZM424.98 678.604C423.974 678.311 422.973 678.018 421.96 677.728C422.007 676.677 422.047 675.628 422.083 674.579C423.043 674.897 424.002 675.214 424.949 675.535C424.964 676.557 424.977 677.58 424.98 678.604ZM429.044 679.805C428.068 679.512 427.084 679.221 426.099 678.931C426.097 677.925 426.084 676.923 426.069 675.92C427.005 676.24 427.934 676.563 428.862 676.887C428.928 677.859 428.994 678.83 429.044 679.805ZM433.035 681.019C432.092 680.726 431.131 680.44 430.178 680.15C430.13 679.193 430.07 678.239 430.008 677.284C430.923 677.606 431.822 677.934 432.727 678.261C432.836 679.178 432.938 680.098 433.035 681.019ZM436.973 682.268C436.05 681.972 435.125 681.678 434.194 681.386C434.103 680.485 434.01 679.583 433.904 678.685C434.787 679.006 435.665 679.329 436.54 679.654C436.69 680.524 436.832 681.395 436.973 682.268ZM440.86 683.539C439.962 683.241 439.071 682.94 438.163 682.646C438.027 681.798 437.885 680.952 437.744 680.107C438.588 680.425 439.44 680.74 440.276 681.062C440.476 681.886 440.676 682.71 440.86 683.539ZM444.649 684.815C443.798 684.522 442.94 684.232 442.079 683.943C441.904 683.144 441.718 682.348 441.53 681.553C442.35 681.872 443.166 682.192 443.977 682.514C444.209 683.278 444.427 684.047 444.649 684.815ZM448.387 686.114C447.574 685.824 446.741 685.542 445.919 685.256C445.707 684.515 445.5 683.772 445.28 683.033C446.059 683.347 446.823 683.665 447.591 683.982C447.859 684.692 448.131 685.4 448.387 686.114ZM452.029 687.441C451.264 687.159 450.493 686.878 449.717 686.599C449.474 685.911 449.217 685.228 448.961 684.545C449.703 684.855 450.437 685.17 451.171 685.484C451.466 686.134 451.746 686.788 452.029 687.441ZM455.614 688.792C454.885 688.512 454.162 688.229 453.423 687.953C453.161 687.339 452.9 686.723 452.629 686.112C453.304 686.405 453.983 686.698 454.652 686.995C454.975 687.593 455.302 688.19 455.614 688.792ZM459.066 690.136C458.411 689.875 457.755 689.616 457.093 689.358C456.812 688.806 456.522 688.257 456.229 687.708C456.856 687.991 457.488 688.271 458.108 688.557C458.436 689.08 458.745 689.609 459.066 690.136ZM462.447 691.499C461.863 691.258 461.264 691.023 460.675 690.784C460.391 690.307 460.099 689.833 459.809 689.357C460.358 689.616 460.905 689.876 461.447 690.137C461.781 690.591 462.123 691.042 462.447 691.499ZM465.663 692.863C465.176 692.654 464.686 692.446 464.194 692.238C463.924 691.85 463.664 691.461 463.389 691.075C463.851 691.302 464.303 691.534 464.76 691.762C465.065 692.128 465.363 692.496 465.663 692.863ZM468.759 694.219C468.389 694.053 468.025 693.886 467.652 693.721C467.42 693.431 467.178 693.146 466.942 692.857C467.293 693.038 467.631 693.223 467.976 693.404C468.237 693.676 468.502 693.946 468.759 694.219ZM471.525 695.463C471.353 695.383 471.174 695.307 471 695.227L470.609 694.799C470.761 694.881 470.919 694.962 471.07 695.044L471.525 695.463ZM180.942 274.703L178.98 276.571L179.545 275.901C180.186 275.272 180.843 274.635 181.485 274.006C181.298 274.241 181.128 274.469 180.942 274.703ZM189.374 266.779C188.235 267.836 187.082 268.903 185.968 269.95C186.399 269.416 186.861 268.867 187.295 268.331C188.378 267.284 189.482 266.227 190.591 265.168C190.178 265.707 189.781 266.241 189.374 266.779ZM197.974 258.77C196.467 260.162 195.019 261.525 193.528 262.909C194.032 262.254 194.491 261.62 195.002 260.962C196.51 259.524 198.004 258.092 199.523 256.649C199.009 257.355 198.481 258.067 197.974 258.77ZM206.649 250.85C204.986 252.365 203.309 253.885 201.671 255.387C202.277 254.561 202.866 253.741 203.481 252.911C205.102 251.388 206.772 249.841 208.427 248.3C207.842 249.147 207.224 250.008 206.649 250.85ZM215.869 242.487C213.887 244.269 211.945 246.031 210.001 247.794C210.642 246.868 211.316 245.928 211.972 244.997C213.837 243.265 215.68 241.545 217.579 239.797C216.991 240.702 216.449 241.587 215.869 242.487ZM225.172 234.176C222.991 236.12 220.813 238.063 218.659 239.995C219.303 239.008 219.967 238.013 220.626 237.019C222.713 235.106 224.831 233.179 226.946 231.253C226.349 232.229 225.756 233.205 225.172 234.176ZM234.631 225.819C232.332 227.834 230.033 229.848 227.792 231.836C228.41 230.821 229.002 229.819 229.635 228.799C231.857 226.788 234.132 224.751 236.413 222.712C235.829 223.744 235.201 224.793 234.631 225.819ZM244.543 217.13C242.005 219.343 239.531 221.523 237.027 223.719C237.626 222.657 238.258 221.582 238.874 220.513C241.282 218.361 243.653 216.226 246.094 214.059C245.557 215.09 245.065 216.104 244.543 217.13ZM254.533 208.52C251.883 210.795 249.225 213.073 246.638 215.317C247.189 214.249 247.738 213.183 248.306 212.109C250.838 209.871 253.44 207.599 256.036 205.331C255.534 206.394 255.018 207.463 254.533 208.52ZM264.843 199.685C262.03 202.081 259.268 204.451 256.506 206.821C257.01 205.742 257.514 204.663 258.035 203.578C260.71 201.24 263.393 198.899 266.123 196.535C265.68 197.591 265.271 198.635 264.843 199.685ZM275.356 190.79C272.411 193.272 269.487 195.746 266.595 198.202C267.044 197.117 267.518 196.024 267.984 194.933C270.805 192.495 273.649 190.047 276.519 187.585C276.129 188.654 275.73 189.725 275.356 190.79ZM286.147 181.748C283.079 184.305 280.02 186.857 277.022 189.38C277.407 188.301 277.796 187.223 278.198 186.139C281.106 183.654 284.084 181.133 287.064 178.611C286.743 179.661 286.456 180.702 286.147 181.748ZM297.161 172.58C293.954 175.236 290.818 177.858 287.657 180.49C287.977 179.425 288.292 178.361 288.627 177.291C291.72 174.673 294.773 172.074 297.918 169.433C297.66 170.483 297.406 171.533 297.161 172.58ZM308.41 163.352C305.097 166.058 301.774 168.77 298.55 171.432C298.803 170.371 299.089 169.303 299.354 168.238C302.504 165.599 305.733 162.921 308.965 160.241C308.778 161.278 308.587 162.317 308.41 163.352ZM424.952 682.447C423.891 682.181 422.821 681.92 421.75 681.658C421.812 680.59 421.878 679.521 421.932 678.454C422.957 678.748 423.97 679.047 424.987 679.345C424.983 680.377 424.964 681.413 424.952 682.447ZM429.2 683.525C428.163 683.257 427.113 682.994 426.066 682.73C426.078 681.71 426.095 680.689 426.099 679.67C427.098 679.965 428.087 680.265 429.076 680.564C429.121 681.55 429.164 682.536 429.2 683.525ZM433.391 684.632C432.376 684.359 431.357 684.088 430.331 683.82C430.298 682.848 430.254 681.878 430.209 680.908C431.181 681.205 432.151 681.502 433.113 681.802C433.211 682.744 433.308 683.686 433.391 684.632ZM437.502 685.752C436.515 685.479 435.533 685.205 434.537 684.935C434.457 684.011 434.366 683.09 434.274 682.169C435.22 682.468 436.17 682.765 437.105 683.067C437.246 683.96 437.373 684.856 437.502 685.752ZM441.564 686.895C440.606 686.62 439.642 686.348 438.673 686.078C438.55 685.204 438.431 684.329 438.297 683.458C439.214 683.758 440.126 684.061 441.034 684.365C441.215 685.207 441.394 686.049 441.564 686.895ZM445.547 688.054C444.63 687.782 443.698 687.515 442.769 687.246C442.605 686.418 442.429 685.593 442.251 684.769C443.143 685.07 444.017 685.378 444.897 685.683C445.12 686.471 445.338 687.262 445.547 688.054ZM449.461 689.249C448.573 688.974 447.681 688.7 446.783 688.429C446.583 687.659 446.382 686.89 446.169 686.124C447.019 686.423 447.865 686.723 448.707 687.026C448.964 687.765 449.214 688.506 449.461 689.249ZM453.305 690.463C452.454 690.189 451.611 689.913 450.749 689.643C450.515 688.929 450.269 688.217 450.025 687.506C450.83 687.799 451.644 688.09 452.439 688.387C452.734 689.077 453.023 689.769 453.305 690.463ZM457.058 691.688C456.258 691.421 455.451 691.156 454.644 690.893C454.381 690.236 454.118 689.578 453.844 688.925C454.607 689.214 455.367 689.503 456.12 689.795C456.436 690.426 456.75 691.056 457.058 691.688ZM460.721 692.932C459.985 692.676 459.232 692.426 458.487 692.173C458.198 691.569 457.895 690.97 457.594 690.371C458.313 690.654 459.019 690.944 459.731 691.231C460.067 691.796 460.395 692.363 460.721 692.932ZM464.3 694.209C463.613 693.961 462.924 693.713 462.229 693.468C461.931 692.938 461.643 692.405 461.335 691.878C461.985 692.145 462.619 692.418 463.26 692.688C463.608 693.195 463.959 693.7 464.3 694.209ZM467.75 695.486C467.144 695.257 466.546 695.024 465.931 694.797C465.633 694.339 465.32 693.886 465.009 693.431C465.59 693.681 466.172 693.931 466.748 694.184C467.091 694.616 467.416 695.053 467.75 695.486ZM471.089 696.765C470.576 696.564 470.057 696.364 469.539 696.164C469.259 695.794 468.975 695.426 468.692 695.057C469.163 695.269 469.641 695.478 470.107 695.692C470.433 696.051 470.769 696.405 471.089 696.765ZM474.208 698.019C473.838 697.867 473.462 697.719 473.089 697.569C472.862 697.306 472.645 697.039 472.413 696.778C472.758 696.942 473.104 697.104 473.445 697.268C473.704 697.517 473.953 697.769 474.208 698.019ZM477.172 699.262L476.581 699.01C476.447 698.874 476.306 698.741 476.169 698.606L476.709 698.877C476.86 699.006 477.02 699.132 477.172 699.262ZM167.802 288.629C167.066 289.318 166.374 289.986 165.648 290.67L166.024 290.232L168.269 288.044L167.802 288.629ZM176.122 280.888C174.986 281.946 173.833 283.014 172.699 284.071C173.099 283.585 173.48 283.106 173.884 282.618C175.012 281.535 176.181 280.432 177.329 279.34C176.927 279.855 176.518 280.374 176.122 280.888ZM184.693 272.972C183.322 274.221 181.959 275.467 180.621 276.7C181.126 276.057 181.608 275.426 182.119 274.78C183.541 273.435 184.926 272.107 186.372 270.749C185.825 271.484 185.232 272.24 184.693 272.972ZM193.712 264.754C192.016 266.297 190.326 267.837 188.638 269.377C189.256 268.553 189.887 267.723 190.516 266.895C192.105 265.411 193.72 263.915 195.316 262.427C194.76 263.213 194.261 263.973 193.712 264.754ZM202.9 256.5C200.926 258.259 198.937 260.024 197.015 261.757C197.682 260.82 198.415 259.854 199.094 258.911C200.925 257.224 202.81 255.511 204.693 253.798C204.084 254.704 203.497 255.599 202.9 256.5ZM212.283 248.128C210.113 250.05 208.013 251.937 205.873 253.844C206.514 252.893 207.104 251.963 207.757 251.006C209.896 249.058 211.996 247.13 214.164 245.169C213.541 246.153 212.893 247.149 212.283 248.128ZM221.885 239.711C219.576 241.73 217.265 243.75 215 245.746C215.648 244.721 216.299 243.694 216.962 242.662C219.155 240.69 221.402 238.692 223.643 236.696C223.045 237.706 222.467 238.708 221.885 239.711ZM231.814 231.07C229.277 233.262 226.773 235.438 224.29 237.603C224.921 236.533 225.614 235.436 226.26 234.359C228.645 232.24 231.043 230.114 233.478 227.97C232.908 229.009 232.367 230.037 231.814 231.07ZM241.882 222.402C239.244 224.667 236.626 226.922 234.022 229.17C234.597 228.111 235.129 227.07 235.72 226.005C238.299 223.739 240.893 221.466 243.508 219.182C242.97 220.253 242.402 221.337 241.882 222.402ZM252.282 213.559C249.49 215.918 246.686 218.284 243.965 220.608C244.505 219.52 245.064 218.425 245.621 217.331C248.246 215.05 250.952 212.729 253.648 210.412C253.17 211.469 252.744 212.507 252.282 213.559ZM262.879 204.601C259.921 207.086 257.04 209.533 254.13 211.995C254.615 210.908 255.108 209.817 255.611 208.723C258.456 206.277 261.274 203.844 264.168 201.374C263.738 202.45 263.293 203.53 262.879 204.601ZM273.733 195.562C270.671 198.103 267.609 200.645 264.616 203.154C265.045 202.068 265.476 200.982 265.921 199.892C268.829 197.417 271.799 194.911 274.773 192.404C274.406 193.463 274.084 194.508 273.733 195.562ZM284.789 186.413C281.601 189.038 278.442 191.648 275.318 194.241C275.683 193.163 276.052 192.082 276.434 190.999C279.494 188.421 282.592 185.825 285.718 183.214C285.411 184.279 285.082 185.351 284.789 186.413ZM296.147 177.1C292.829 179.81 289.545 182.503 286.285 185.186C286.587 184.113 286.913 183.033 287.23 181.957C290.417 179.298 293.614 176.634 296.854 173.949C296.614 175 296.374 176.051 296.147 177.1ZM307.714 167.718C304.295 170.477 300.866 173.244 297.532 175.962C297.767 174.906 297.998 173.851 298.245 172.792C301.501 170.1 304.861 167.357 308.208 164.619C308.038 165.653 307.873 166.686 307.714 167.718ZM297.232 177.306C300.605 174.552 304.063 171.758 307.515 168.965C293.218 264.55 328.028 351.952 362.796 439.254C383.908 492.267 405.001 545.244 415.066 599.991C402.541 552.932 381.031 507.497 359.393 461.8C317.183 372.655 274.511 282.498 297.232 177.306ZM285.876 186.614C289.16 183.91 292.495 181.18 295.844 178.443C273.678 283.217 316.24 373.093 358.322 461.968C381.138 510.153 403.804 558.045 415.936 607.853C401.584 564.59 378.461 523.086 355.108 481.186C305.282 391.792 254.441 300.591 285.876 186.614ZM194.842 264.884C196.886 263.035 198.949 261.175 201.041 259.302C83.6853 439.059 208.041 513.483 324.892 583.362C358.584 603.51 391.638 623.284 418.068 645.106M424.878 686.315C423.758 686.077 422.63 685.842 421.499 685.609C421.576 684.525 421.643 683.442 421.709 682.36C422.792 682.626 423.872 682.894 424.944 683.164C424.929 684.213 424.907 685.263 424.878 686.315ZM429.3 687.275C428.197 687.032 427.1 686.789 425.988 686.55C426.017 685.515 426.041 684.48 426.058 683.447C427.118 683.715 428.181 683.982 429.229 684.256C429.261 685.26 429.279 686.268 429.3 687.275ZM433.668 688.255C432.589 688.009 431.512 687.762 430.422 687.52C430.404 686.532 430.391 685.542 430.362 684.556C431.394 684.827 432.427 685.098 433.447 685.374C433.526 686.333 433.601 687.292 433.668 688.255ZM437.97 689.253C436.925 689.005 435.868 688.761 434.81 688.517C434.745 687.57 434.67 686.625 434.594 685.681C435.606 685.957 436.605 686.238 437.608 686.518C437.735 687.428 437.859 688.339 437.97 689.253ZM442.201 690.274C441.185 690.023 440.156 689.778 439.127 689.532C439.019 688.634 438.902 687.737 438.779 686.842C439.769 687.122 440.75 687.406 441.73 687.689C441.896 688.548 442.046 689.412 442.201 690.274ZM446.385 691.33C445.387 691.075 444.392 690.82 443.384 690.568C443.235 689.724 443.088 688.879 442.928 688.037C443.874 688.314 444.822 688.591 445.757 688.873C445.971 689.69 446.186 690.508 446.385 691.33ZM450.462 692.398C449.507 692.143 448.557 691.887 447.591 691.637C447.401 690.839 447.198 690.045 446.994 689.251C447.914 689.531 448.838 689.809 449.747 690.093C449.994 690.858 450.227 691.628 450.462 692.398ZM454.503 693.494C453.58 693.238 452.649 692.986 451.716 692.733C451.49 691.989 451.27 691.243 451.034 690.501C451.913 690.78 452.785 691.061 453.653 691.343C453.941 692.059 454.232 692.774 454.503 693.494ZM458.421 694.604C457.555 694.353 456.672 694.108 455.797 693.861C455.538 693.162 455.266 692.467 454.991 691.774C455.844 692.055 456.68 692.345 457.523 692.631C457.833 693.284 458.123 693.946 458.421 694.604ZM462.297 695.757C461.462 695.505 460.629 695.254 459.785 695.006C459.502 694.37 459.215 693.736 458.923 693.104C459.714 693.377 460.5 693.651 461.282 693.927C461.624 694.536 461.967 695.144 462.297 695.757ZM466.045 696.918C465.269 696.672 464.501 696.424 463.716 696.183C463.413 695.609 463.106 695.037 462.791 694.467C463.526 694.731 464.269 694.991 464.995 695.259C465.351 695.809 465.698 696.364 466.045 696.918ZM469.711 698.095C469.008 697.863 468.296 697.635 467.585 697.406C467.27 696.892 466.939 696.383 466.613 695.872C467.287 696.125 467.964 696.379 468.631 696.635C468.997 697.12 469.356 697.607 469.711 698.095ZM473.255 699.288C472.631 699.073 471.993 698.863 471.362 698.651C471.05 698.213 470.748 697.772 470.428 697.337C471.022 697.57 471.605 697.808 472.192 698.044C472.547 698.459 472.906 698.872 473.255 699.288ZM476.657 700.494C476.138 700.307 475.619 700.119 475.093 699.934C474.794 699.568 474.485 699.206 474.176 698.843C474.696 699.058 475.198 699.279 475.711 699.496C476.035 699.826 476.339 700.163 476.657 700.494ZM479.91 701.689C479.504 701.536 479.108 701.378 478.698 701.227C478.457 700.969 478.211 700.714 477.969 700.458C478.337 700.618 478.702 700.78 479.068 700.942C479.346 701.192 479.635 701.438 479.91 701.689ZM482.833 702.804C482.646 702.73 482.452 702.66 482.265 702.587C482.132 702.463 482.004 702.337 481.871 702.212C482.041 702.291 482.217 702.367 482.386 702.446L482.833 702.804ZM319.817 155.131C319.717 156.151 319.608 157.171 319.518 158.19C315.954 161.047 312.501 163.85 309.008 166.673C309.171 165.635 309.328 164.598 309.505 163.558C312.931 160.754 316.325 157.967 319.817 155.131ZM320.253 150.903C320.14 151.918 320.035 152.932 319.932 153.947C316.48 156.748 313.112 159.508 309.717 162.281C309.899 161.234 310.104 160.183 310.297 159.133C313.596 156.399 316.895 153.666 320.253 150.903ZM320.76 146.638C320.632 147.653 320.516 148.667 320.4 149.681C317.082 152.407 313.797 155.118 310.54 157.815C310.737 156.772 310.933 155.729 311.142 154.683C314.306 152.022 317.533 149.329 320.76 146.638ZM321.338 142.331C321.195 143.354 321.042 144.377 320.908 145.398C317.738 148.041 314.536 150.699 311.429 153.312C311.642 152.268 311.858 151.224 312.084 150.178C315.11 147.59 318.246 144.95 321.338 142.331ZM321.967 137.995C321.81 139.013 321.664 140.031 321.518 141.048C318.454 143.641 315.369 146.243 312.373 148.805C312.602 147.763 312.861 146.716 313.102 145.673C316.026 143.127 318.974 140.572 321.967 137.995ZM322.666 133.663C322.498 134.661 322.342 135.659 322.183 136.656C319.223 139.202 316.337 141.713 313.441 144.23C313.688 143.188 313.927 142.147 314.186 141.103C316.948 138.654 319.837 136.145 322.666 133.663ZM323.452 129.252C323.264 130.268 323.068 131.286 322.891 132.301C320.139 134.713 317.282 137.172 314.589 139.555C314.85 138.534 315.117 137.514 315.389 136.492C318.031 134.099 320.745 131.675 323.452 129.252ZM324.293 124.821C324.092 125.828 323.9 126.835 323.71 127.842C321.071 130.2 318.377 132.582 315.801 134.911C316.078 133.891 316.379 132.866 316.669 131.842C319.182 129.514 321.716 127.177 324.293 124.821ZM325.214 120.349C324.998 121.349 324.798 122.35 324.595 123.35C322.094 125.634 319.587 127.92 317.145 130.176C317.435 129.174 317.71 128.175 318.011 127.171C320.403 124.901 322.763 122.644 325.214 120.349ZM326.232 115.825C326 116.826 325.764 117.827 325.544 118.828C323.185 121.032 320.866 123.22 318.566 125.4C318.872 124.399 319.188 123.398 319.506 122.395C321.754 120.202 323.929 118.041 326.232 115.825ZM327.297 111.34C327.058 112.309 326.821 113.278 326.592 114.247C324.376 116.375 322.239 118.469 320.076 120.574C320.399 119.579 320.748 118.58 321.081 117.584C323.153 115.503 325.18 113.44 327.297 111.34ZM328.43 106.843C328.186 107.767 327.965 108.69 327.731 109.613C325.684 111.64 323.749 113.62 321.747 115.627C322.077 114.668 322.389 113.713 322.729 112.752C324.614 110.788 326.502 108.824 328.43 106.843ZM329.68 102.279C329.426 103.186 329.174 104.094 328.931 105.001C327.087 106.888 325.324 108.742 323.514 110.616C323.854 109.673 324.2 108.73 324.553 107.786C326.234 105.961 327.959 104.12 329.68 102.279ZM330.992 97.717C330.732 98.5931 330.464 99.4701 330.213 100.346C328.579 102.084 326.987 103.806 325.384 105.532C325.734 104.613 326.114 103.689 326.474 102.769C327.943 101.098 329.485 99.4011 330.992 97.717ZM332.358 93.1765C332.105 93.9878 331.87 94.7972 331.624 95.6074C330.225 97.1631 328.835 98.7155 327.463 100.261C327.795 99.4321 328.121 98.6042 328.462 97.7742C329.733 96.2513 331.058 94.7092 332.358 93.1765ZM333.848 88.5837C333.601 89.331 333.362 90.0787 333.121 90.8259C331.982 92.1591 330.824 93.4992 329.705 94.8251C330.003 94.1198 330.297 93.4152 330.6 92.7087C331.677 91.3353 332.747 89.9648 333.848 88.5837ZM335.353 84.1459C335.138 84.7648 334.916 85.3839 334.705 86.0026C333.861 87.0527 332.982 88.1143 332.152 89.1597C332.386 88.629 332.63 88.0969 332.869 87.5657C333.699 86.4249 334.507 85.2912 335.353 84.1459ZM336.771 80.0959C336.65 80.4247 336.54 80.7534 336.422 81.0819C335.917 81.7588 335.388 82.4431 334.888 83.1171C335.005 82.8683 335.13 82.6185 335.247 82.3693L336.771 80.0959ZM416.222 681.039C416.107 682.181 415.987 683.323 415.859 684.467C379.025 677.162 337.087 671.788 294.341 666.317C211.169 655.671 124.961 644.635 67.7423 618.169C-16.1398 579.369 -37.7861 507.292 103.353 354.495C-25.0703 501.064 2.65094 570.82 87.747 609.882C142.545 635.036 221.093 647.435 297.054 659.424C339.068 666.055 380.282 672.564 416.222 681.039ZM416.626 676.962C416.522 678.09 416.403 679.22 416.29 680.35C380.374 671.914 339.258 665.419 297.346 658.805C221.497 646.834 143.063 634.454 88.4396 609.38C0.879639 569.186 -25.5413 496.264 117.637 339.918C-12.98 490.487 20.1913 561.188 109.415 601.81C161.134 625.357 231.654 638.77 300.024 651.775C341.21 659.608 381.612 667.295 416.626 676.962ZM416.958 672.908C416.872 674.022 416.783 675.135 416.685 676.25C381.711 666.635 341.429 658.973 300.373 651.164C232.092 638.176 161.667 624.781 110.102 601.304C18.2847 559.502 -13.8131 485.631 132.15 324.946C-1.47821 480.459 38.3224 552.215 132.393 594.663C180.432 616.34 242.586 630.354 303.018 643.978C343.352 653.072 382.904 661.995 416.958 672.908ZM417.254 668.871C417.18 669.972 417.103 671.073 417.018 672.176C383.014 661.329 343.603 652.438 303.422 643.38C243.061 629.771 180.98 615.774 133.076 594.158C36.7718 550.702 -2.39569 476.368 144.546 312.158L145.301 311.423C9.5423 471.828 57.7467 544.318 157.233 588.778C200.745 608.223 254.045 622.294 306.038 636.019C345.492 646.434 384.185 656.653 417.254 668.871ZM417.51 664.862C417.447 665.945 417.372 667.03 417.301 668.115C384.296 655.978 345.775 645.804 306.5 635.436C254.566 621.726 201.327 607.672 157.912 588.27C57.2847 543.3 9.39471 469.487 152.597 304.322C153.349 303.596 154.06 302.89 154.82 302.159C20.5222 465.895 79.7222 538.197 184.939 584.725C222.69 601.419 266.342 614.787 309.088 627.877C347.644 639.684 385.458 651.267 417.51 664.862ZM417.699 660.871C417.653 661.935 417.607 662.998 417.55 664.064C385.573 650.573 347.954 639.052 309.606 627.308C266.899 614.23 223.289 600.875 185.613 584.214C79.5699 537.321 20.4412 464.135 160.421 296.826C161.545 295.755 162.687 294.675 163.81 293.604C-5.29657 507.486 159.33 565.605 312.164 619.525C349.795 632.801 386.697 645.828 417.699 660.871ZM417.858 656.895C417.822 657.94 417.782 658.987 417.739 660.034C386.821 645.117 350.141 632.17 312.743 618.976C159.11 564.775 -6.4342 506.304 169.009 288.671C170.247 287.506 171.538 286.316 172.81 285.136C17.0476 490.37 171.541 552.815 315.281 610.935C351.962 625.767 387.939 640.317 417.858 656.895ZM417.973 652.952C417.947 653.97 417.916 654.99 417.884 656.01C388.06 639.587 352.336 625.136 315.916 610.41C171.54 552.033 16.3861 489.239 177.295 280.967C178.949 279.431 180.56 277.918 182.236 276.372C39.3341 473.18 183.686 539.865 318.437 602.076C354.151 618.563 389.174 634.74 417.973 652.952ZM418.035 649.015C418.025 650.008 418.017 651 417.997 651.993C389.301 633.971 354.55 617.925 319.13 601.573C183.91 539.146 38.9579 472.224 185.834 273.086C187.719 271.359 189.649 269.61 191.567 267.865C61.6057 456.099 195.875 526.774 321.636 592.901C356.349 611.154 390.399 629.064 418.035 649.015ZM418.053 641.212C418.058 642.129 418.063 643.046 418.065 643.964C391.747 622.42 359.028 602.852 325.693 582.917C208.48 512.821 83.731 438.132 204.011 256.652C206.22 254.676 208.435 252.697 210.666 250.709C105.617 422.052 220.187 499.96 328.206 573.398C360.847 595.589 392.881 617.373 418.053 641.212ZM417.997 637.334C418.016 638.21 418.038 639.086 418.048 639.963C392.984 616.454 361.318 594.916 329.054 572.983C220.708 499.323 105.777 421.149 213.377 248.298C215.739 246.21 218.181 244.081 220.61 241.96C127.447 404.999 232.299 486.149 331.589 562.93C363.152 587.337 394.139 611.307 417.997 637.334ZM417.917 633.482C417.94 634.29 417.95 635.1 417.968 635.909C394.215 610.284 363.625 586.628 332.482 562.545C232.916 485.551 127.717 404.17 222.983 239.883C225.543 237.644 228.089 235.413 230.698 233.151C149.035 387.953 244.381 471.989 335.051 551.86C365.511 578.692 395.435 605.055 417.917 633.482ZM417.778 629.635C417.804 630.378 417.835 631.121 417.859 631.864C395.471 603.923 365.989 577.941 335.982 551.508C245.064 471.418 149.447 387.131 232.903 231.252C235.557 228.958 238.253 226.642 240.957 224.323C170.451 370.895 256.45 457.417 338.607 540.064C367.928 569.561 396.75 598.566 417.778 629.635ZM417.614 625.809C417.647 626.46 417.683 627.111 417.711 627.763C396.758 597.28 368.402 568.75 339.568 539.744C257.187 456.871 170.926 370.1 242.962 222.597C245.773 220.19 248.639 217.756 251.52 215.315C191.679 353.717 268.477 442.308 342.265 527.377C370.422 559.839 398.128 591.791 417.614 625.809ZM417.42 622.004C417.45 622.525 417.472 623.047 417.501 623.569C398.06 590.28 370.876 558.93 343.259 527.09C269.269 441.79 192.25 352.947 253.367 213.753C256.308 211.261 259.235 208.776 262.22 206.262C212.6 336.462 280.475 426.544 346.043 513.585C373.008 549.379 399.581 584.659 417.42 622.004ZM417.176 618.181L417.248 619.261C399.412 582.835 373.426 548.327 347.061 513.328C281.309 426.045 213.264 335.689 263.956 204.803C266.989 202.259 270.12 199.667 273.232 197.083C233.334 319.004 292.441 409.941 349.965 498.391C375.703 537.965 401.117 577.043 417.176 618.181ZM416.915 614.415L416.939 614.709C400.811 574.758 376.064 536.695 351.006 498.164C293.321 409.466 234.043 318.263 274.819 195.762C277.997 193.121 281.187 190.474 284.426 187.804C253.698 301.295 304.366 392.241 354.051 481.383C378.546 525.334 402.799 568.849 416.915 614.415ZM367.472 411.824C387.097 471.026 406.863 530.66 414.631 591.951C404.053 539.996 383.975 489.57 363.878 439.11C329.003 351.534 294.099 263.853 308.808 167.92C312.332 165.07 315.822 162.235 319.422 159.346C312.161 244.967 339.669 327.962 367.472 411.824ZM418.724 625.688L418.672 624.672L418.844 625.037C418.887 625.401 418.934 625.764 418.974 626.128L418.724 625.688ZM418.89 629.5C418.869 628.985 418.856 628.469 418.834 627.955C418.972 628.2 419.115 628.445 419.252 628.69L419.416 630.277L418.89 629.5ZM419.026 633.321C419.007 632.672 418.98 632.024 418.957 631.375C419.189 631.721 419.411 632.069 419.638 632.417C419.7 633.049 419.749 633.684 419.806 634.318C419.546 633.985 419.289 633.653 419.026 633.321ZM419.108 637.155L419.065 634.953L419.962 636.11C420.026 636.84 420.095 637.569 420.152 638.301C419.804 637.919 419.459 637.537 419.108 637.155ZM419.167 641.016C419.161 640.205 419.151 639.395 419.138 638.586C419.511 638.998 419.89 639.408 420.258 639.822C420.314 640.619 420.373 641.416 420.426 642.214C420.01 641.813 419.588 641.415 419.167 641.016ZM419.183 644.891C419.183 644.017 419.177 643.145 419.173 642.272C419.627 642.707 420.072 643.145 420.522 643.582C420.574 644.428 420.617 645.277 420.663 646.124C420.17 645.713 419.679 645.301 419.183 644.891ZM419.154 648.776C419.164 647.864 419.183 646.95 419.189 646.038C419.7 646.465 420.221 646.891 420.727 647.32C420.777 648.22 420.826 649.121 420.864 650.023C420.298 649.606 419.727 649.191 419.154 648.776ZM419.098 652.694C419.118 651.732 419.13 650.772 419.14 649.811C419.734 650.244 420.316 650.679 420.903 651.114C420.938 652.044 420.972 652.974 421.001 653.905C420.369 653.5 419.734 653.097 419.098 652.694ZM418.982 656.611C419.013 655.623 419.043 654.636 419.069 653.648C419.727 654.067 420.386 654.484 421.036 654.906C421.062 655.87 421.077 656.836 421.096 657.801C420.394 657.403 419.692 657.005 418.982 656.611ZM418.83 660.564C418.875 659.544 418.918 658.525 418.956 657.506C419.68 657.91 420.395 658.318 421.112 658.724C421.13 659.715 421.149 660.705 421.155 661.697C420.386 661.317 419.606 660.941 418.83 660.564ZM418.643 664.53C418.701 663.485 418.745 662.443 418.79 661.4C419.581 661.787 420.37 662.176 421.154 662.566C421.155 663.579 421.157 664.593 421.15 665.607C420.316 665.247 419.483 664.887 418.643 664.53ZM418.392 668.514C418.462 667.452 418.533 666.389 418.596 665.328C419.449 665.693 420.302 666.057 421.15 666.425C421.138 667.458 421.118 668.494 421.099 669.529C420.201 669.189 419.3 668.85 418.392 668.514ZM418.107 672.526C418.191 671.44 418.27 670.355 418.343 669.271C419.265 669.614 420.174 669.961 421.083 670.308C421.064 671.358 421.042 672.408 421.009 673.461C420.048 673.147 419.074 672.837 418.107 672.526ZM417.776 676.554C417.873 675.454 417.96 674.356 418.046 673.257C419.028 673.574 420.008 673.891 420.981 674.212C420.943 675.28 420.903 676.348 420.855 677.418C419.832 677.128 418.808 676.839 417.776 676.554ZM417.382 680.604C417.495 679.493 417.613 678.379 417.717 677.269C418.758 677.558 419.795 677.848 420.827 678.14C420.775 679.223 420.709 680.306 420.647 681.39C419.564 681.126 418.477 680.864 417.382 680.604ZM416.951 684.685C417.078 683.554 417.198 682.423 417.313 681.293C418.42 681.556 419.512 681.824 420.607 682.092C420.543 683.187 420.476 684.282 420.398 685.379C419.255 685.145 418.104 684.915 416.951 684.685ZM379.605 806C400.909 764.715 412.359 724.601 416.87 685.362C418.033 685.594 419.192 685.83 420.345 686.067C417.521 724.569 407.099 764.3 385.675 805.816L386.741 806C408.159 764.496 418.597 724.781 421.444 686.296C422.585 686.533 423.727 686.768 424.856 687.008C423.733 724.745 414.356 764.071 392.815 805.816L393.882 806C415.413 764.274 424.809 724.967 425.965 687.251C427.087 687.493 428.202 687.736 429.312 687.982C429.92 724.936 421.612 763.843 399.951 805.816L401.018 806C422.666 764.048 431.003 725.161 430.436 688.227C431.54 688.474 432.63 688.728 433.724 688.979C436.098 725.133 428.867 763.613 407.087 805.816L408.155 806C429.917 763.826 437.184 725.37 434.866 689.241C435.934 689.49 436.995 689.74 438.054 689.994C442.233 725.333 436.127 763.373 414.226 805.816L415.291 806C437.174 763.596 443.32 725.585 439.212 690.272C440.257 690.524 441.303 690.775 442.337 691.032C448.356 725.541 443.392 763.131 421.365 805.816L422.431 806C444.432 763.366 449.452 725.809 443.523 691.333C444.539 691.588 445.555 691.843 446.558 692.103C454.45 725.762 450.654 762.888 428.502 805.816L429.568 806C451.69 763.131 455.553 726.042 447.766 692.415C448.756 692.675 449.73 692.939 450.709 693.203C460.514 725.993 457.917 762.642 435.637 805.816L436.704 806C458.946 762.9 461.63 726.293 451.96 693.538C452.917 693.799 453.859 694.065 454.802 694.33C466.558 726.233 465.186 762.392 442.778 805.816L443.844 806C466.204 762.669 467.682 726.56 456.095 694.695C457.007 694.955 457.919 695.215 458.82 695.48C472.568 726.479 472.455 762.136 449.914 805.816L450.981 806C473.458 762.441 473.72 726.842 460.187 695.888C461.047 696.145 461.913 696.398 462.763 696.659C478.55 726.733 479.727 761.874 457.051 805.816L458.117 806C480.717 762.206 479.712 727.135 464.195 697.107C465.022 697.365 465.845 697.627 466.662 697.889C484.512 727.014 486.995 761.621 464.189 805.816L465.253 806C487.97 761.98 485.7 727.449 468.176 698.372C468.944 698.623 469.693 698.882 470.452 699.137C490.425 727.296 494.273 761.353 471.327 805.816L472.393 806C495.22 761.765 491.654 727.798 472.102 699.692C472.805 699.933 473.501 700.178 474.195 700.423C496.324 727.592 501.547 761.086 478.463 805.816L479.53 806C502.462 761.56 497.584 728.178 475.991 701.064C476.601 701.285 477.223 701.502 477.828 701.726C502.178 727.887 508.827 760.805 485.6 805.816L486.667 806C509.69 761.384 503.518 728.605 479.887 702.51C480.392 702.701 480.9 702.891 481.398 703.085C507.999 728.213 516.109 760.53 492.74 805.816L493.806 806C516.905 761.237 509.433 729.091 483.786 704.034C484.17 704.189 484.553 704.345 484.935 704.501C513.805 728.569 523.381 760.269 499.877 805.816L500.943 806C524.09 761.143 515.343 729.663 487.736 705.669C487.93 705.752 488.122 705.837 488.314 705.921C519.551 728.91 530.669 759.977 507.013 805.816L508.08 806C531.051 761.483 521.445 730.832 492.525 707.977C525.487 729.819 537.741 760.101 514.151 805.816L515.216 806C537.704 762.422 527.861 732.791 498.615 711.125C531.919 731.77 544.397 761.037 521.29 805.816L522.356 806C544.341 763.393 534.34 734.758 504.925 714.217C538.408 733.731 551.034 762.008 528.426 805.816L529.493 806C554.435 757.667 536.859 728.121 495.752 708.398C493.781 707.267 491.73 706.17 489.634 705.09C487.721 703.914 485.762 702.756 483.727 701.63C481.895 700.421 479.991 699.239 478.045 698.075C476.235 696.789 474.377 695.521 472.456 694.279C470.746 692.969 468.983 691.68 467.171 690.409C465.486 689.005 463.744 687.623 461.954 686.259C460.376 684.834 458.759 683.423 457.088 682.031C455.55 680.51 453.951 679.01 452.318 677.521C450.85 675.93 449.341 674.351 447.783 672.79C446.439 671.184 445.057 669.591 443.633 668.012C442.344 666.299 441.002 664.602 439.634 662.916C438.415 661.107 437.158 659.313 435.863 657.529C434.746 655.662 433.6 653.803 432.413 651.956C431.406 650.043 430.375 648.137 429.305 646.241C428.394 644.242 427.459 642.251 426.487 640.269C425.68 638.191 424.847 636.118 423.985 634.054C423.284 631.888 422.561 629.727 421.806 627.573C421.235 625.394 420.635 623.221 420.018 621.052C419.542 618.706 419.037 616.365 418.512 614.028C418.161 611.641 417.786 609.258 417.39 606.878C411.181 540.276 389.792 475.737 368.565 411.703C340.67 327.564 313.067 244.298 320.618 158.392C380.178 110.652 449.4 58.1632 529.394 0.400085L528.529 0C448.971 57.4481 380.081 109.678 320.733 157.223C320.825 156.2 320.929 155.176 321.033 154.151C378.364 107.645 445.055 56.5752 522.259 0.400085L521.39 0C444.628 55.853 378.268 106.66 321.148 152.966C321.257 151.941 321.378 150.915 321.494 149.888C376.584 104.621 440.731 54.9747 515.122 0.398804L514.249 0.00158691C440.318 54.2386 376.509 103.61 321.639 148.665C321.761 147.645 321.871 146.625 322.003 145.604C374.835 101.58 436.43 53.362 507.986 0.397156L507.112 0.00244141C436.037 52.6119 374.785 100.545 322.178 144.343C322.315 143.313 322.463 142.284 322.61 141.253C373.158 98.4922 432.183 51.7167 500.85 0.395874L499.972 0.00354004C431.794 50.9587 373.109 97.4435 322.79 139.97C322.943 138.935 323.109 137.9 323.272 136.865C371.515 95.3804 427.978 50.0469 493.717 0.394531L492.834 0.00494385C427.612 49.2672 371.49 94.2947 323.489 135.526C323.651 134.524 323.804 133.523 323.977 132.52C369.929 92.2811 423.728 48.4172 486.58 0.393311L485.692 0.00610352C423.368 47.6268 369.945 91.1602 324.231 131.134C324.413 130.11 324.602 129.085 324.795 128.06C368.409 89.1091 419.577 46.7194 479.446 0.392517L478.554 0.00720215C419.215 45.9239 368.428 87.9725 325.053 126.649C325.251 125.623 325.467 124.595 325.676 123.568C366.937 85.9123 415.456 45.0054 472.312 0.389587L471.415 0.00964355C415.112 44.1917 366.993 84.7346 325.979 122.098C326.192 121.081 326.399 120.065 326.622 119.047C365.51 82.692 411.365 43.2767 465.175 0.387939L464.274 0.0109253C411.04 42.4404 365.608 81.4645 326.974 117.505C327.202 116.49 327.431 115.476 327.67 114.461C364.162 79.4226 407.32 41.5195 458.04 0.385742L457.134 0.013855C406.999 40.6729 364.275 78.1685 328.039 112.876C328.284 111.86 328.552 110.841 328.807 109.824C362.883 76.1136 403.315 39.7385 450.904 0.382812L449.995 0.0162964C403.017 38.8666 363.039 74.8029 329.228 108.155C329.482 107.176 329.739 106.196 330.003 105.216C361.661 72.8145 399.305 37.9764 443.773 0.381165L442.854 0.0184937C399.076 37.0317 361.874 71.3876 330.511 103.369C330.769 102.432 331.018 101.495 331.286 100.557C360.503 69.476 395.339 36.1876 436.637 0.376709L435.711 0.0220947C395.143 35.1976 360.779 67.9545 331.87 98.5679C332.139 97.6507 332.417 96.7325 332.696 95.8145C359.442 66.0753 391.433 34.361 429.504 0.374268L428.572 0.0249634C391.258 33.3361 359.76 64.4749 333.327 93.7058C333.603 92.8163 333.902 91.9255 334.188 91.0357C358.442 62.6455 387.57 32.5126 422.373 0.369446L421.428 0.0302734C387.45 31.412 358.867 60.882 334.95 88.6858C335.222 87.8596 335.492 87.0334 335.773 86.2063C357.509 59.1763 383.751 30.6394 415.238 0.364258L414.285 0.0346069C383.709 29.4336 358.08 57.1941 336.705 83.5314C336.968 82.7828 337.222 82.0342 337.49 81.2846C356.677 55.6372 380.002 28.7236 408.108 0.359009L407.141 0.0397949C380.054 27.3774 357.426 53.3612 338.633 78.1715C338.87 77.5319 339.109 76.8917 339.351 76.251C355.959 52.0137 376.317 26.7605 400.977 0.352234L399.998 0.0475464C376.521 25.1894 356.974 49.2755 340.809 72.4452C340.956 72.0709 341.11 71.6956 341.259 71.3215C355.284 48.4507 372.625 24.8317 393.847 0.342712L392.854 0.0565796C373.383 22.5267 357.182 44.2629 343.797 65.3633C355.121 44.1797 369.263 22.5303 386.718 0.331726L385.704 0.067688C370.74 19.0992 358.211 37.7272 347.791 56.0044C356.183 37.6258 366.673 19.075 379.589 0.318054L378.559 0.081665C363.201 22.3801 351.256 44.3875 342.204 66.1575C340.316 69.7119 338.494 73.2559 336.761 76.7849C334.532 80.5518 332.423 84.2906 330.366 88.0182C327.886 91.8801 325.484 95.7208 323.192 99.5309C320.405 103.578 317.701 107.599 315.132 111.579C312.174 115.664 309.355 119.702 306.607 123.716C303.521 127.8 300.532 131.851 297.649 135.863C294.27 140.16 290.991 144.419 287.845 148.627C284.223 153.088 280.761 157.487 277.394 161.848C273.868 166.084 270.452 170.275 267.151 174.419C263.542 178.649 260.03 182.838 256.643 186.976C252.235 192.008 248.041 196.949 243.963 201.839C240.079 206.217 236.31 210.543 232.67 214.814C228.763 219.142 224.972 223.417 221.295 227.641C216.682 232.663 212.206 237.624 207.899 242.506C203.55 247.182 199.335 251.794 195.266 256.339C190.818 261.063 186.496 265.727 182.335 270.316C177.743 275.136 173.276 279.896 168.983 284.575C164.475 289.268 160.078 293.907 155.843 298.467C151.368 303.079 147.012 307.634 142.802 312.117C138.266 316.743 133.881 321.296 129.613 325.791C-41.4914 498.647 -22.2386 577.368 67.0511 618.67C124.474 645.23 210.807 656.282 294.1 666.943C336.925 672.425 378.935 677.808 415.778 685.143C411.286 724.397 399.848 764.523 378.539 805.816L379.605 806Z" fill="url(#paint0_linear_75_821)" fill-opacity="0.3"/>
<defs>
<linearGradient id="paint0_linear_75_821" x1="521.131" y1="806" x2="184.792" y2="-61.52" gradientUnits="userSpaceOnUse">
<stop stop-color="#4AFB62"/>
<stop offset="0.333333" stop-color="#96FB4A" stop-opacity="0.25"/>
<stop offset="0.666667" stop-color="#96FB4A" stop-opacity="0.9"/>
<stop offset="1" stop-color="#96FB4A" stop-opacity="0.21"/>
</linearGradient>
</defs>
</svg>
