<svg width="373" height="806" viewBox="0 0 373 806" fill="none" xmlns="http://www.w3.org/2000/svg">
<path d="M43.4642 92.5042L44.907 94.3611C44.7957 94.1532 44.6943 93.9471 44.5844 93.7387C44.0988 93.0504 43.6104 92.3611 43.113 91.6697C43.2328 91.9479 43.3454 92.2256 43.4642 92.5042ZM51.0845 104.238C51.4772 104.718 51.879 105.201 52.2674 105.679L52.1538 105.483L50.8102 103.676L51.0845 104.238ZM45.5986 97.5572C46.4736 98.6121 47.3128 99.6541 48.1851 100.707C47.9102 100.163 47.6151 99.613 47.3378 99.0667C46.5514 98.0363 45.7283 96.9933 44.9216 95.956C45.1446 96.4891 45.3784 97.0248 45.5986 97.5572ZM59.3427 116.185C59.6807 116.586 59.9933 116.977 60.3295 117.375L60.3229 117.365C59.966 116.907 59.593 116.442 59.2319 115.982L59.3427 116.185ZM53.6738 109.579C54.4862 110.522 55.3107 111.47 56.1132 112.41C55.8741 111.981 55.6445 111.554 55.4036 111.125C54.5536 110.058 53.7469 109.006 52.8827 107.933C53.1434 108.481 53.4174 109.031 53.6738 109.579ZM47.5886 102.554C48.7579 103.881 49.8818 105.192 51.0298 106.512C50.7017 105.831 50.3698 105.15 50.036 104.467C48.9615 103.149 47.8654 101.823 46.7796 100.502C47.0526 101.186 47.3194 101.87 47.5886 102.554ZM-48.0433 632.734L-47.7406 632.272C-47.7061 631.921 -47.668 631.57 -47.6312 631.219L-47.8669 631.647C-47.9273 632.009 -47.9834 632.372 -48.0433 632.734ZM68.3854 128.681L68.7433 129.096C68.5914 128.907 68.4495 128.722 68.2977 128.534L68.3854 128.681ZM62.271 121.667C63.0527 122.542 63.8094 123.408 64.5717 124.276C64.3666 123.936 64.17 123.597 63.9635 123.256C63.2035 122.333 62.4237 121.403 61.6628 120.48C61.8716 120.878 62.0649 121.27 62.271 121.667ZM56.0161 114.706C57.1547 115.973 58.3022 117.243 59.4314 118.507C59.0594 117.811 58.6695 117.11 58.2928 116.412C57.2423 115.168 56.1613 113.912 55.0792 112.655C55.3928 113.339 55.7068 114.023 56.0161 114.706ZM49.5113 107.567C50.9167 109.083 52.3014 110.591 53.6658 112.091C53.3132 111.327 52.9798 110.568 52.6219 109.803C51.2787 108.251 49.9605 106.708 48.6145 105.154C48.9233 105.96 49.21 106.763 49.5113 107.567ZM-48.6878 636.746C-48.4836 636.478 -48.2715 636.212 -48.0654 635.944L-47.9311 634.395C-48.0994 634.655 -48.2733 634.915 -48.4398 635.176C-48.5227 635.699 -48.6076 636.223 -48.6878 636.746ZM-50.4666 639.113L-50.0743 638.587L-49.9211 637.532L-50.2106 637.992C-50.2959 638.366 -50.3851 638.739 -50.4666 639.113ZM-52.0899 641.304L-52.037 641.23L-51.9668 640.898L-52.0899 641.304ZM71.5353 134.173C72.2675 134.993 73.0142 135.818 73.7544 136.64L72.9695 135.42C72.291 134.622 71.5734 133.808 70.8766 133.002C71.0991 133.394 71.3137 133.783 71.5353 134.173ZM65.0484 127.082C66.1686 128.28 67.2968 129.48 68.3755 130.661C68.0422 130.082 67.6773 129.495 67.3383 128.916C66.2294 127.639 65.1385 126.369 64.0282 125.092C64.3643 125.754 64.7155 126.421 65.0484 127.082ZM58.272 119.815L62.4515 124.297C62.0395 123.497 61.6392 122.699 61.221 121.897C59.9424 120.453 58.6133 118.99 57.297 117.532C57.6332 118.296 57.9424 119.053 58.272 119.815ZM51.3335 112.531C52.9577 114.207 54.5889 115.886 56.1471 117.536C55.7676 116.673 55.356 115.803 54.9661 114.938C53.4159 113.227 51.9077 111.533 50.3354 109.813C50.6663 110.718 51.0124 111.627 51.3335 112.531ZM-49.2516 640.648C-48.9551 640.312 -48.6632 639.975 -48.3634 639.639C-48.3167 639.009 -48.2734 638.379 -48.2229 637.75C-48.4784 638.086 -48.7255 638.426 -48.9801 638.763C-49.0696 639.391 -49.1644 640.019 -49.2516 640.648ZM-51.27 642.945C-51.0432 642.682 -50.8108 642.42 -50.5811 642.157C-50.5123 641.645 -50.4412 641.134 -50.3686 640.622L-50.9498 641.416C-51.0568 641.926 -51.1658 642.435 -51.27 642.945ZM-53.1921 645.208L-52.749 644.686C-52.6796 644.332 -52.6113 643.977 -52.5387 643.624C-52.6518 643.782 -52.7664 643.939 -52.8791 644.097C-52.9814 644.468 -53.0893 644.837 -53.1921 645.208ZM-54.9615 647.333L-54.8667 647.218L-54.7574 646.798L-54.7781 646.828L-54.9615 647.333ZM81.3309 146.886C82.0131 147.62 82.7104 148.359 83.3789 149.088C83.2186 148.85 83.0493 148.609 82.8862 148.372C82.1474 147.522 81.4289 146.681 80.6864 145.83L81.3309 146.886ZM74.6441 139.702C75.7341 140.866 76.8001 142.021 77.8859 143.185C77.5323 142.612 77.2013 142.048 76.8444 141.474C75.7987 140.297 74.713 139.103 73.6441 137.917C73.9713 138.51 74.3212 139.11 74.6441 139.702ZM67.6306 132.356C69.0073 133.778 70.3948 135.205 71.7239 136.607C71.317 135.874 70.9011 135.14 70.4853 134.405C69.1487 132.931 67.8536 131.474 66.4915 129.989C66.88 130.781 67.2501 131.567 67.6306 132.356ZM60.4408 124.892C62.0815 126.584 63.6807 128.257 65.3053 129.942C64.8749 129.068 64.4397 128.193 63.9984 127.316C62.4699 125.661 60.9046 123.991 59.345 122.324C59.7048 123.18 60.0891 124.039 60.4408 124.892ZM52.985 117.368C54.8063 119.188 56.6464 121.016 58.3974 122.807C58.0108 121.888 57.6162 120.967 57.2193 120.046C55.513 118.234 53.7912 116.416 52.0407 114.586C52.3617 115.514 52.6729 116.441 52.985 117.368ZM-49.7537 644.473C-49.3803 644.107 -49.0018 643.743 -48.6255 643.377C-48.5789 642.651 -48.5256 641.926 -48.4737 641.201C-48.8118 641.583 -49.1507 641.966 -49.485 642.35C-49.577 643.057 -49.6641 643.765 -49.7537 644.473ZM-52.0111 646.724C-51.6853 646.397 -51.361 646.07 -51.0347 645.743C-50.9574 645.118 -50.8758 644.494 -50.7962 643.869C-51.0875 644.208 -51.3737 644.548 -51.6617 644.887C-51.781 645.499 -51.8946 646.112 -52.0111 646.724ZM-54.1789 648.93C-53.9182 648.661 -53.6636 648.389 -53.4 648.12C-53.3072 647.613 -53.2068 647.107 -53.1115 646.601C-53.3397 646.875 -53.5613 647.152 -53.7881 647.428L-54.1789 648.93ZM-56.2354 651.072C-56.07 650.897 -55.8988 650.723 -55.7333 650.548C-55.6423 650.185 -55.5438 649.824 -55.4509 649.461L-55.8625 649.969C-55.9865 650.337 -56.1138 650.703 -56.2354 651.072ZM-58.1524 653.135L-58.0006 652.971C-57.9511 652.816 -57.9044 652.66 -57.854 652.506L-57.9209 652.591C-57.9963 652.773 -58.077 652.953 -58.1524 653.135ZM91.5489 159.681C92.2396 160.41 92.8672 161.113 93.5465 161.837C93.4386 161.684 93.3405 161.535 93.2321 161.382C92.5433 160.607 91.8295 159.822 91.135 159.045C91.2703 159.256 91.4155 159.47 91.5489 159.681ZM84.7028 152.538C85.7348 153.613 86.7805 154.695 87.7961 155.764C87.4453 155.227 87.103 154.692 86.7475 154.154C85.7278 153.029 84.7353 151.917 83.6925 150.782C84.0414 151.371 84.3577 151.95 84.7028 152.538ZM77.4418 144.978C78.8741 146.448 80.2295 147.885 81.6402 149.345C81.1998 148.607 80.7293 147.859 80.2823 147.118C78.9754 145.704 77.6412 144.279 76.3188 142.859C76.6983 143.567 77.0712 144.272 77.4418 144.978ZM70.1421 137.618C71.7441 139.227 73.3551 140.84 74.9156 142.432C74.4663 141.594 74.0463 140.765 73.5871 139.925C72.0491 138.292 70.4867 136.648 68.9007 134.996C69.3137 135.869 69.7399 136.746 70.1421 137.618ZM62.419 129.852C64.2865 131.708 66.0833 133.534 67.9182 135.375C67.4807 134.447 67.0252 133.513 66.575 132.582C64.8443 130.778 63.0984 128.968 61.3469 127.155C61.7104 128.056 62.0649 128.954 62.419 129.852ZM54.563 122.176C56.5714 124.13 58.5907 126.089 60.5421 128.018C60.1536 127.052 59.7854 126.089 59.3865 125.121C57.5219 123.209 55.5875 121.267 53.6512 119.325C53.9643 120.277 54.2599 121.226 54.563 122.176ZM-50.211 648.284C-49.7504 647.889 -49.2969 647.491 -48.8316 647.098C-48.791 646.309 -48.7528 645.521 -48.7071 644.732C-49.1215 645.139 -49.5312 645.547 -49.9419 645.955C-50.0366 646.731 -50.1243 647.507 -50.211 648.284ZM-52.6862 650.426C-52.276 650.064 -51.8588 649.705 -51.4444 649.345C-51.368 648.642 -51.2982 647.939 -51.2176 647.237C-51.5821 647.605 -51.9555 647.971 -52.3166 648.34C-52.4458 649.035 -52.5665 649.73 -52.6862 650.426ZM-55.0856 652.562C-54.7301 652.242 -54.3689 651.924 -54.0111 651.605C-53.9078 650.997 -53.8069 650.388 -53.7003 649.78C-54.0205 650.113 -54.3435 650.445 -54.6608 650.778C-54.8079 651.371 -54.9418 651.967 -55.0856 652.562ZM-57.3976 654.678C-57.1091 654.411 -56.8219 654.144 -56.5306 653.878L-56.1755 652.386C-56.4292 652.659 -56.6814 652.933 -56.9341 653.206C-57.0911 653.696 -57.2448 654.187 -57.3976 654.678ZM-59.5975 656.732C-59.399 656.544 -59.2066 656.354 -59.0067 656.166C-58.8973 655.808 -58.7814 655.452 -58.6687 655.094C-58.837 655.28 -58.9996 655.468 -59.1651 655.653C-59.3089 656.013 -59.4565 656.372 -59.5975 656.732ZM-61.6262 658.679L-61.4253 658.485C-61.3621 658.32 -61.3023 658.153 -61.2381 657.987L-61.3584 658.123L-61.6262 658.679ZM102.395 172.965C102.941 173.54 103.496 174.119 104.045 174.696C103.885 174.477 103.731 174.261 103.569 174.042C103.038 173.456 102.486 172.86 101.94 172.268C102.098 172.503 102.24 172.731 102.395 172.965ZM95.1453 165.43C96.1669 166.467 97.174 167.499 98.164 168.523C97.8661 168.089 97.5611 167.651 97.2621 167.216C96.2542 166.126 95.2334 165.03 94.2282 163.942C94.5394 164.439 94.8379 164.933 95.1453 165.43ZM87.8744 158.055C89.2355 159.436 90.6084 160.821 91.9582 162.196C91.4815 161.442 90.9931 160.682 90.5075 159.924C89.2458 158.584 87.9224 157.217 86.6099 155.855C87.0295 156.588 87.4618 157.325 87.8744 158.055ZM80.2587 150.402C81.8759 152.004 83.4553 153.589 85.0342 155.174C84.5736 154.374 84.1252 153.579 83.6566 152.776L79.008 147.932C79.4346 148.759 79.841 149.579 80.2587 150.402ZM72.4329 142.716C74.2763 144.519 76.1179 146.324 77.9278 148.113C77.4314 147.151 76.8982 146.177 76.3899 145.211C74.7148 143.492 72.9515 141.734 71.2071 139.985C71.6201 140.896 72.0317 141.808 72.4329 142.716ZM64.3478 134.848C66.3808 136.804 68.3722 138.741 70.3566 140.676C69.9304 139.733 69.524 138.794 69.0851 137.847C67.144 135.89 65.2247 133.943 63.2629 131.976C63.634 132.936 63.9885 133.891 64.3478 134.848ZM56.0571 126.946C58.2503 129.027 60.4374 131.107 62.584 133.167C62.1932 132.143 61.767 131.11 61.3615 130.083C59.3493 128.082 57.2287 126.034 55.1325 123.997C55.4409 124.98 55.7624 125.965 56.0571 126.946ZM-45.0481 647.985C-17.5192 628.26 16.2226 610.51 50.614 592.426C176.794 526.078 311.579 455.152 178.158 264.884M-50.6194 652.06C-50.0899 651.661 -49.5482 651.267 -49.0126 650.871C-48.9772 650.022 -48.94 649.173 -48.8976 648.325C-49.3837 648.741 -49.8683 649.158 -50.3506 649.575C-50.4425 650.402 -50.5369 651.229 -50.6194 652.06ZM-53.3133 654.116C-52.8187 653.736 -52.3223 653.356 -51.823 652.978C-51.7495 652.2 -51.6688 651.424 -51.5849 650.647C-52.0366 651.043 -52.4793 651.443 -52.9262 651.841C-53.0578 652.599 -53.1921 653.356 -53.3133 654.116ZM-55.9294 656.156C-55.4797 655.801 -55.037 655.444 -54.583 655.09C-54.4745 654.399 -54.3651 653.708 -54.2501 653.019C-54.6565 653.385 -55.0554 653.754 -55.4575 654.121C-55.6173 654.799 -55.7757 655.477 -55.9294 656.156ZM-58.4622 658.175C-58.0742 657.86 -57.6833 657.547 -57.2924 657.235C-57.1628 656.644 -57.0435 656.05 -56.9078 655.46C-57.2538 655.781 -57.6055 656.099 -57.9459 656.42C-58.1232 657.003 -58.2901 657.59 -58.4622 658.175ZM-60.9095 660.184C-60.595 659.923 -60.2735 659.663 -59.9567 659.402L-59.5314 657.941C-59.811 658.21 -60.0944 658.478 -60.3716 658.747L-60.9095 660.184ZM-63.2504 662.164L-62.5884 661.599C-62.4602 661.243 -62.323 660.89 -62.1905 660.535L-62.7539 661.097C-62.918 661.453 -63.0891 661.808 -63.2504 662.164ZM-65.3738 663.994L-65.1254 663.773L-64.9118 663.285L-65.0947 663.476C-65.1905 663.648 -65.2795 663.822 -65.3738 663.994ZM113.43 186.131C113.911 186.624 114.405 187.123 114.879 187.613L114.782 187.486C114.219 186.876 113.671 186.272 113.106 185.662L113.43 186.131ZM106.118 178.653C107.156 179.716 108.192 180.779 109.239 181.845C108.882 181.343 108.496 180.829 108.136 180.326C107.176 179.306 106.174 178.267 105.191 177.237C105.501 177.709 105.812 178.182 106.118 178.653ZM98.7246 171.237C99.9999 172.494 101.29 173.758 102.522 174.996C102.126 174.398 101.755 173.809 101.354 173.209C100.01 171.805 98.7081 170.42 97.3517 169.01C97.8001 169.749 98.2828 170.5 98.7246 171.237ZM90.8658 163.461L95.663 168.208C95.1472 167.364 94.6215 166.516 94.0972 165.668C92.6258 164.158 91.0992 162.623 89.5858 161.093C90.0252 161.887 90.4339 162.67 90.8658 163.461ZM82.8966 155.71C84.7283 157.467 86.5594 159.224 88.3326 160.955C87.8446 160.074 87.3317 159.185 86.8324 158.301C85.0403 156.49 83.3111 154.708 81.4921 152.886C81.9612 153.828 82.4384 154.772 82.8966 155.71ZM74.6384 147.788C76.6549 149.719 78.6609 151.642 80.6595 153.564C80.1758 152.589 79.701 151.616 79.2046 150.637C77.33 148.774 75.3876 146.88 73.456 144.992C73.8638 145.928 74.2424 146.856 74.6384 147.788ZM66.1634 139.783C68.3717 141.846 70.5655 143.903 72.7097 145.938C72.2816 144.947 71.8214 143.947 71.3811 142.952C69.2699 140.888 67.1987 138.841 65.0507 136.76C65.4222 137.768 65.8055 138.777 66.1634 139.783ZM57.4036 131.619C59.7604 133.807 62.096 135.985 64.4208 138.159C64.0493 137.134 63.6736 136.108 63.2879 135.08C61.0947 132.964 58.8198 130.812 56.5558 128.665C56.8482 129.651 57.1235 130.635 57.4036 131.619ZM-50.9597 655.834C-50.3548 655.436 -49.7537 655.037 -49.1441 654.641C-49.1182 653.747 -49.0843 652.854 -49.0499 651.962C-49.6114 652.382 -50.1719 652.804 -50.7273 653.226C-50.8061 654.095 -50.8843 654.965 -50.9597 655.834ZM-53.8573 657.765C-53.2892 657.381 -52.7216 656.997 -52.1478 656.615C-52.079 655.79 -52.0031 654.967 -51.9277 654.143C-52.451 654.544 -52.9805 654.942 -53.4972 655.345C-53.6184 656.152 -53.7414 656.958 -53.8573 657.765ZM-56.6946 659.696C-56.1709 659.333 -55.6367 658.975 -55.1072 658.614C-55.0006 657.859 -54.8847 657.106 -54.7697 656.352C-55.2529 656.734 -55.7404 657.115 -56.2185 657.499C-56.3788 658.231 -56.5433 658.962 -56.6946 659.696ZM-59.4579 661.641C-58.9812 661.302 -58.4994 660.965 -58.0166 660.627C-57.8808 659.95 -57.7342 659.275 -57.5876 658.6C-58.0279 658.957 -58.4627 659.317 -58.8992 659.675C-59.0888 660.33 -59.2778 660.985 -59.4579 661.641ZM-62.1297 663.571C-61.7068 663.262 -61.2891 662.952 -60.8619 662.643C-60.7049 662.063 -60.5559 661.481 -60.3933 660.902C-60.7813 661.227 -61.1584 661.555 -61.5432 661.882C-61.7449 662.443 -61.9321 663.008 -62.1297 663.571ZM-64.7076 665.477C-64.3602 665.216 -64.016 664.955 -63.6671 664.696C-63.5045 664.221 -63.3362 663.747 -63.1726 663.272C-63.4786 663.537 -63.7874 663.8 -64.091 664.065C-64.2961 664.536 -64.5054 665.005 -64.7076 665.477ZM-67.1583 667.341C-66.9174 667.156 -66.6727 666.972 -66.4304 666.787C-66.2857 666.442 -66.1395 666.098 -65.99 665.754C-66.1998 665.941 -66.4115 666.126 -66.6176 666.312C-66.7996 666.655 -66.9796 666.998 -67.1583 667.341ZM-69.4086 669.11L-69.113 668.877L-68.8603 668.373L-69.0829 668.582L-69.4086 669.11ZM124.743 199.303L124.841 199.403L124.729 199.284L124.743 199.303ZM117.58 192.148C118.504 193.071 119.443 194.001 120.356 194.92C120.072 194.534 119.809 194.157 119.523 193.77C118.501 192.698 117.536 191.653 116.494 190.573C116.849 191.095 117.228 191.627 117.58 192.148ZM109.78 184.357C111.105 185.667 112.365 186.948 113.683 188.256C113.25 187.626 112.82 186.999 112.381 186.368C111.167 185.118 109.921 183.854 108.694 182.598C109.071 183.19 109.409 183.768 109.78 184.357ZM101.907 176.716C103.5 178.251 105.104 179.792 106.654 181.307C106.143 180.512 105.599 179.702 105.08 178.903C103.546 177.351 102.038 175.809 100.471 174.242C100.958 175.069 101.429 175.892 101.907 176.716ZM93.778 168.851C95.5988 170.604 97.3791 172.339 99.1966 174.091C98.6808 173.217 98.2041 172.357 97.677 171.478C95.9241 169.732 94.134 167.968 92.3495 166.207C92.8214 167.086 93.3179 167.975 93.778 168.851ZM85.3699 160.911C87.3751 162.786 89.3976 164.67 91.3377 166.515C90.837 165.579 90.3283 164.642 89.8177 163.702C87.9059 161.828 86.004 159.956 84.0498 158.062C84.5057 159.017 84.9244 159.96 85.3699 160.911ZM76.7346 152.805C78.9391 154.867 81.1097 156.915 83.3058 158.973C82.8264 157.967 82.3351 156.957 81.8419 155.946C79.7599 153.934 77.6351 151.904 75.5092 149.872C75.9156 150.849 76.3395 151.831 76.7346 152.805ZM67.8277 144.614C70.1841 146.759 72.5579 148.91 74.8327 151.018C74.4192 150.021 74.0053 149.023 73.5805 148.021C71.342 145.89 69.0978 143.756 66.8074 141.601C67.16 142.608 67.4887 143.61 67.8277 144.614ZM58.686 136.268C61.2017 138.557 63.674 140.824 66.1756 143.106C65.8202 142.076 65.4727 141.048 65.1054 140.015C62.7302 137.787 60.3092 135.538 57.8807 133.286C58.1574 134.281 58.421 135.275 58.686 136.268ZM-51.2577 659.602C-50.5849 659.212 -49.9041 658.826 -49.2248 658.439C-49.2083 657.511 -49.1988 656.582 -49.1767 655.655C-49.8046 656.065 -50.4326 656.475 -51.0531 656.887C-51.1276 657.791 -51.1922 658.696 -51.2577 659.602ZM-54.3567 661.412C-53.7183 661.033 -53.0676 660.659 -52.4236 660.282C-52.3619 659.415 -52.3086 658.546 -52.2416 657.68C-52.8413 658.082 -53.4326 658.488 -54.0276 658.893C-54.1436 659.731 -54.2492 660.572 -54.3567 661.412ZM-57.3957 663.243C-56.7903 662.875 -56.1845 662.507 -55.5726 662.14C-55.4712 661.337 -55.3698 660.534 -55.2618 659.732C-55.8281 660.122 -56.3835 660.516 -56.944 660.908C-57.0982 661.685 -57.2481 662.464 -57.3957 663.243ZM-60.3749 665.081C-59.8077 664.727 -59.2467 664.37 -58.6743 664.016C-58.5371 663.286 -58.3924 662.557 -58.2505 661.828C-58.7686 662.197 -59.2891 662.564 -59.802 662.934C-59.9953 663.649 -60.191 664.364 -60.3749 665.081ZM-63.2655 666.907C-62.7572 666.58 -62.2414 666.255 -61.7275 665.93C-61.562 665.273 -61.3885 664.619 -61.2136 663.965C-61.6841 664.309 -62.1598 664.651 -62.6261 664.997C-62.843 665.633 -63.0561 666.27 -63.2655 666.907ZM-66.0655 668.733C-65.6185 668.437 -65.1617 668.144 -64.7124 667.85C-64.5304 667.287 -64.3569 666.722 -64.1706 666.161C-64.5817 666.47 -64.9896 666.782 -65.3969 667.093C-65.6237 667.638 -65.8439 668.186 -66.0655 668.733ZM-68.7849 670.564C-68.41 670.308 -68.0362 670.052 -67.6567 669.797C-67.4695 669.328 -67.2738 668.86 -67.0838 668.391C-67.4228 668.657 -67.7552 668.925 -68.0918 669.192C-68.3228 669.649 -68.559 670.105 -68.7849 670.564ZM-71.3336 672.32C-71.062 672.131 -70.7985 671.937 -70.5265 671.749C-70.3671 671.415 -70.2162 671.079 -70.0531 670.747C-70.2936 670.941 -70.5241 671.138 -70.7622 671.332C-70.9574 671.66 -71.1408 671.991 -71.3336 672.32ZM-73.6956 673.995L-73.3618 673.759C-73.2638 673.585 -73.161 673.412 -73.0615 673.238C-73.1445 673.309 -73.2303 673.377 -73.3142 673.448L-73.6956 673.995ZM136.817 213.151L138.116 214.464L138.036 214.362C137.587 213.891 137.107 213.405 136.65 212.929L136.817 213.151ZM129.214 205.549C130.043 206.357 130.886 207.172 131.687 207.967L131.12 207.216C130.247 206.315 129.367 205.409 128.504 204.512C128.749 204.861 128.971 205.2 129.214 205.549ZM121.371 197.88C122.646 199.13 123.937 200.386 125.209 201.634C124.717 200.944 124.202 200.245 123.705 199.552C122.547 198.379 121.332 197.177 120.132 195.983C120.553 196.619 120.954 197.247 121.371 197.88ZM113.278 190.019C114.895 191.568 116.453 193.09 118.04 194.625C117.545 193.884 117.044 193.142 116.542 192.398C114.984 190.842 113.418 189.28 111.86 187.724C112.333 188.489 112.813 189.257 113.278 190.019ZM105.092 182.261C106.867 183.939 108.651 185.622 110.395 187.286C109.841 186.392 109.305 185.505 108.739 184.607C107.054 182.948 105.314 181.266 103.571 179.581C104.079 180.474 104.593 181.37 105.092 182.261ZM96.4479 174.087C98.5139 176.019 100.488 177.91 102.528 179.831C101.986 178.879 101.413 177.916 100.859 176.959C98.9359 175.095 97.0061 173.228 95.0684 171.357C95.5403 172.271 95.9887 173.177 96.4479 174.087ZM87.7744 166.101C89.9511 168.097 92.135 170.097 94.2538 172.066C93.745 171.076 93.2556 170.094 92.7328 169.099C90.655 167.113 88.5207 165.102 86.377 163.086C86.8376 164.09 87.3274 165.102 87.7744 166.101ZM78.6591 157.708C81.0589 159.9 83.3629 162.046 85.74 164.228C85.2737 163.205 84.7928 162.177 84.3129 161.148C82.0621 159.03 79.8052 156.909 77.5261 154.778C77.917 155.758 78.2805 156.731 78.6591 157.708ZM69.4311 149.43C71.9388 151.667 74.4607 153.912 76.8901 156.114C76.4884 155.09 76.0953 154.07 75.678 153.043C73.2995 150.833 70.8667 148.598 68.4179 146.356C68.7597 147.381 69.103 148.407 69.4311 149.43ZM59.8882 140.879C62.5619 143.264 65.1682 145.618 67.8343 147.998C67.492 146.951 67.1205 145.898 66.7664 144.848C64.2247 142.521 61.6765 140.191 59.0976 137.849C59.3616 138.859 59.6365 139.871 59.8882 140.879ZM-51.5161 663.382C-50.7712 663.005 -50.0229 662.631 -49.2724 662.257C-49.2672 661.291 -49.2559 660.326 -49.2398 659.362C-49.9395 659.763 -50.6312 660.169 -51.3261 660.573C-51.3931 661.509 -51.4595 662.445 -51.5161 663.382ZM-54.8107 665.078C-54.0945 664.705 -53.3845 664.332 -52.6617 663.962C-52.6113 663.058 -52.5524 662.156 -52.4911 661.254C-53.1591 661.647 -53.8281 662.04 -54.4882 662.435C-54.5999 663.315 -54.7093 664.196 -54.8107 665.078ZM-58.043 666.781C-57.3632 666.418 -56.6838 666.055 -55.9969 665.694C-55.9035 664.853 -55.8083 664.011 -55.705 663.171C-56.3392 663.554 -56.9789 663.935 -57.6055 664.321C-57.7573 665.139 -57.8992 665.96 -58.043 666.781ZM-61.2136 668.491C-60.5767 668.141 -59.9265 667.796 -59.2844 667.448C-59.1519 666.672 -59.0246 665.894 -58.8851 665.119C-59.4829 665.49 -60.0774 665.863 -60.6686 666.236C-60.8539 666.987 -61.034 667.739 -61.2136 668.491ZM-64.3333 670.235C-63.7346 669.897 -63.1287 669.56 -62.5248 669.224C-62.3574 668.508 -62.1801 667.795 -62.0066 667.081C-62.5672 667.441 -63.115 667.804 -63.6695 668.166C-63.8934 668.855 -64.1202 669.543 -64.3333 670.235ZM-67.3403 671.964C-66.7958 671.647 -66.2559 671.328 -65.7048 671.012C-65.5134 670.376 -65.3154 669.741 -65.1141 669.108C-65.6237 669.445 -66.1286 669.784 -66.6331 670.123C-66.875 670.735 -67.106 671.351 -67.3403 671.964ZM-70.2691 673.692C-69.7868 673.403 -69.3068 673.113 -68.8202 672.825C-68.6152 672.279 -68.4101 671.733 -68.2012 671.188C-68.6359 671.485 -69.0772 671.778 -69.5067 672.077C-69.7613 672.615 -70.0197 673.152 -70.2691 673.692ZM-73.0889 675.402C-72.699 675.161 -72.2987 674.925 -71.9074 674.685C-71.7014 674.231 -71.4854 673.779 -71.2718 673.327C-71.6339 673.584 -72.0003 673.84 -72.3605 674.098C-72.6061 674.532 -72.8479 674.967 -73.0889 675.402ZM-75.7649 677.093L-74.8988 676.544C-74.723 676.216 -74.5462 675.888 -74.367 675.561L-75.1313 676.127L-75.7649 677.093ZM-78.2594 678.706L-77.8601 678.441L-77.5471 677.949L-77.8714 678.201L-78.2594 678.706ZM141.126 219.062C141.968 219.88 142.801 220.693 143.623 221.5L142.968 220.663C142.147 219.825 141.292 218.971 140.456 218.127C140.684 218.441 140.899 218.75 141.126 219.062ZM133.224 211.404C134.522 212.664 135.834 213.931 137.132 215.191C136.702 214.607 136.231 214.005 135.796 213.418C134.493 212.11 133.238 210.824 131.929 209.512C132.363 210.143 132.796 210.775 133.224 211.404ZM125.144 203.663C126.648 205.084 128.154 206.506 129.616 207.906C129.124 207.195 128.66 206.497 128.161 205.783C126.69 204.328 125.161 202.848 123.649 201.374C124.139 202.134 124.663 202.907 125.144 203.663ZM116.641 195.626C118.433 197.317 120.214 199.003 121.998 200.69C121.446 199.836 120.885 198.98 120.323 198.123C118.591 196.437 116.902 194.771 115.165 193.082C115.678 193.938 116.139 194.774 116.641 195.626ZM107.994 187.59C110.016 189.45 112.052 191.317 114.012 193.148C113.442 192.195 112.82 191.222 112.236 190.265C110.363 188.469 108.415 186.638 106.481 184.813C106.992 185.741 107.495 186.667 107.994 187.59ZM99.1089 179.386C101.314 181.405 103.439 183.387 105.614 185.393C105.084 184.426 104.58 183.469 104.038 182.497C101.894 180.471 99.7854 178.46 97.6322 176.429C98.1221 177.414 98.6313 178.406 99.1089 179.386ZM89.9365 171.101C92.3028 173.23 94.6747 175.362 96.983 177.464C96.4691 176.423 95.9246 175.372 95.397 174.326C93.2085 172.284 90.9214 170.197 88.6546 168.12C89.0926 169.117 89.5093 170.108 89.9365 171.101ZM80.5558 162.677C83.0838 164.928 85.5571 167.156 88.0356 169.386C87.5928 168.369 87.1747 167.36 86.7178 166.338C84.2691 164.086 81.8509 161.848 79.3861 159.589C79.776 160.618 80.18 161.651 80.5558 162.677ZM70.887 154.129C73.5597 156.482 76.2216 158.831 78.8401 161.159C78.4399 160.091 78.0117 159.015 77.5973 157.942C75.1094 155.682 72.5159 153.373 69.9398 151.072C70.2604 152.092 70.5796 153.111 70.887 154.129ZM60.9792 145.46C63.7872 147.9 66.5778 150.333 69.3189 152.742C69.0016 151.715 68.6923 150.689 68.3633 149.659C65.6561 147.237 62.9857 144.831 60.2597 142.4C60.5105 143.422 60.7415 144.44 60.9792 145.46ZM-51.7051 667.166C-50.8937 666.806 -50.0847 666.445 -49.2657 666.087C-49.2738 665.099 -49.2724 664.112 -49.271 663.126C-50.0362 663.509 -50.8037 663.89 -51.5595 664.276C-51.6113 665.239 -51.6608 666.201 -51.7051 667.166ZM-55.2034 668.736C-54.4227 668.38 -53.6348 668.027 -52.847 667.674C-52.8074 666.739 -52.757 665.805 -52.7075 664.871C-53.4444 665.251 -54.1798 665.633 -54.9106 666.015C-55.012 666.922 -55.1129 667.828 -55.2034 668.736ZM-58.6375 670.319C-57.8922 669.97 -57.135 669.626 -56.3816 669.28C-56.2967 668.397 -56.1973 667.517 -56.0982 666.637C-56.8097 667.014 -57.5093 667.395 -58.2137 667.774C-58.3584 668.621 -58.5032 669.469 -58.6375 670.319ZM-61.9995 671.925C-61.2862 671.58 -60.5696 671.236 -59.8478 670.895C-59.7219 670.076 -59.5904 669.258 -59.4541 668.442C-60.1326 668.812 -60.802 669.184 -61.472 669.556C-61.6549 670.344 -61.8256 671.135 -61.9995 671.925ZM-65.3069 673.545C-64.6256 673.207 -63.9514 672.865 -63.2626 672.529C-63.0995 671.781 -62.9434 671.032 -62.7756 670.286C-63.4055 670.64 -64.0391 670.992 -64.6619 671.349C-64.8802 672.08 -65.0961 672.812 -65.3069 673.545ZM-68.5359 675.17C-67.9084 674.848 -67.2752 674.529 -66.6425 674.21C-66.4469 673.521 -66.2408 672.835 -66.0367 672.148C-66.6251 672.49 -67.2172 672.828 -67.7976 673.172C-68.048 673.836 -68.2969 674.502 -68.5359 675.17ZM-71.6641 676.793C-71.0955 676.492 -70.5147 676.197 -69.9404 675.899C-69.7245 675.286 -69.5114 674.673 -69.287 674.062C-69.8259 674.385 -70.3591 674.709 -70.8909 675.034C-71.154 675.618 -71.4072 676.206 -71.6641 676.793ZM-74.739 678.451C-74.226 678.171 -73.7122 677.891 -73.194 677.614C-72.963 677.077 -72.7235 676.542 -72.4887 676.008C-72.9654 676.304 -73.4302 676.605 -73.9021 676.903C-74.1827 677.418 -74.467 677.932 -74.739 678.451ZM-77.6484 680.064C-77.2222 679.823 -76.8055 679.581 -76.3755 679.342C-76.1553 678.912 -75.9422 678.481 -75.7168 678.053C-76.1053 678.303 -76.4877 678.555 -76.8738 678.807C-77.1374 679.224 -77.3896 679.645 -77.6484 680.064ZM-80.4442 681.655C-80.1368 681.475 -79.8209 681.299 -79.5102 681.119C-79.3179 680.801 -79.1166 680.484 -78.9228 680.166C-79.1948 680.349 -79.4749 680.528 -79.7455 680.712C-79.9765 681.027 -80.217 681.339 -80.4442 681.655ZM-82.9953 683.171L-82.5644 682.915L-82.2325 682.437L-82.5941 682.688C-82.7284 682.848 -82.8605 683.01 -82.9953 683.171ZM153.437 232.803C154.264 233.598 155.11 234.402 155.917 235.188C155.654 234.859 155.373 234.521 155.11 234.191C154.308 233.384 153.468 232.557 152.646 231.739L153.437 232.803ZM145.471 225.138L149.125 228.652C148.718 228.114 148.341 227.589 147.93 227.048C146.666 225.792 145.415 224.542 144.144 223.282C144.58 223.898 145.041 224.524 145.471 225.138ZM137.206 217.301C138.68 218.683 140.171 220.071 141.606 221.435C141.084 220.705 140.567 219.977 140.038 219.243C138.632 217.869 137.181 216.472 135.743 215.083C136.241 215.826 136.718 216.561 137.206 217.301ZM128.562 209.18C130.389 210.885 132.159 212.562 133.969 214.259C133.376 213.377 132.746 212.48 132.143 211.593C130.423 209.936 128.741 208.296 126.991 206.624C127.527 207.481 128.036 208.327 128.562 209.18ZM119.866 201.177C121.851 202.995 123.844 204.817 125.786 206.615C125.209 205.696 124.657 204.786 124.07 203.862C122.139 202.027 120.173 200.176 118.21 198.326C118.76 199.276 119.328 200.231 119.866 201.177ZM110.823 192.907C113.018 194.898 115.158 196.862 117.317 198.836C116.739 197.837 116.166 196.839 115.573 195.835C113.51 193.901 111.418 191.954 109.304 189.996C109.821 190.971 110.319 191.938 110.823 192.907ZM101.546 184.568C103.925 186.699 106.296 188.828 108.634 190.94C108.087 189.902 107.488 188.845 106.925 187.802C104.663 185.708 102.394 183.612 100.107 181.508C100.596 182.531 101.072 183.549 101.546 184.568ZM92.0666 176.131C94.5776 178.349 97.0674 180.556 99.5214 182.748C99.0235 181.698 98.5544 180.657 98.0419 179.603C95.6714 177.437 93.2104 175.23 90.7658 173.031C91.2024 174.065 91.6437 175.101 92.0666 176.131ZM82.2691 167.501C84.9527 169.855 87.598 172.191 90.2481 174.529C89.805 173.463 89.3255 172.387 88.8658 171.317C86.2973 169.001 83.7697 166.706 81.1578 164.371C81.5364 165.416 81.9051 166.459 82.2691 167.501ZM72.2623 158.821C75.0637 161.234 77.8736 163.652 80.5977 166.029C80.2243 164.983 79.8694 163.942 79.4837 162.892C76.8284 160.527 74.1066 158.131 71.3839 155.734C71.6908 156.766 71.9685 157.791 72.2623 158.821ZM62.0004 149.969C64.9616 152.507 67.8366 155.004 70.7616 157.524C70.4556 156.468 70.1364 155.408 69.8168 154.348C67.0073 151.877 64.1823 149.4 61.3167 146.902C61.551 147.925 61.7788 148.948 62.0004 149.969ZM-51.8437 670.957C-50.971 670.619 -50.0899 670.284 -49.2078 669.949C-49.2266 668.937 -49.253 667.923 -49.2653 666.912C-50.0979 667.278 -50.922 667.647 -51.7471 668.015C-51.7867 668.995 -51.814 669.976 -51.8437 670.957ZM-55.5311 672.407C-54.6843 672.07 -53.8309 671.736 -52.9757 671.402C-52.9469 670.442 -52.9253 669.481 -52.8881 668.523C-53.6966 668.887 -54.4924 669.255 -55.2921 669.622C-55.3783 670.549 -55.4528 671.478 -55.5311 672.407ZM-59.1642 673.88C-58.3424 673.542 -57.5221 673.204 -56.6918 672.87C-56.6183 671.966 -56.5386 671.063 -56.4585 670.159C-57.2331 670.519 -58.0068 670.878 -58.7738 671.241C-58.9072 672.119 -59.0411 672.999 -59.1642 673.88ZM-62.728 675.364C-61.9425 675.031 -61.157 674.698 -60.3617 674.369C-60.2457 673.518 -60.1147 672.669 -59.9845 671.82C-60.7271 672.175 -61.4734 672.526 -62.2075 672.883C-62.3852 673.708 -62.5616 674.535 -62.728 675.364ZM-66.2168 676.856C-65.471 676.53 -64.7133 676.209 -63.959 675.887C-63.802 675.094 -63.6426 674.301 -63.4743 673.51C-64.1895 673.862 -64.9009 674.216 -65.6072 674.571C-65.8193 675.33 -66.015 676.094 -66.2168 676.856ZM-69.6514 678.377C-68.9433 678.058 -68.2229 677.743 -67.5067 677.427C-67.3153 676.693 -67.1225 675.96 -66.9226 675.229C-67.5954 675.571 -68.2512 675.918 -68.916 676.263C-69.1635 676.967 -69.4157 677.669 -69.6514 678.377ZM-72.9866 679.906C-72.327 679.6 -71.6703 679.294 -71.0055 678.99C-70.7844 678.321 -70.5515 677.656 -70.32 676.99C-70.9475 677.32 -71.567 677.653 -72.1874 677.985C-72.4614 678.623 -72.7226 679.265 -72.9866 679.906ZM-76.2553 681.45C-75.6442 681.156 -75.0388 680.861 -74.4203 680.569C-74.1831 679.982 -73.9488 679.393 -73.7042 678.807C-74.2624 679.11 -74.8262 679.412 -75.3788 679.718C-75.6711 680.295 -75.9695 680.87 -76.2553 681.45ZM-79.3999 682.977C-78.8761 682.717 -78.34 682.46 -77.8111 682.202C-77.5612 681.685 -77.3 681.172 -77.0402 680.659C-77.5404 680.941 -78.0421 681.222 -78.5367 681.507C-78.8309 681.995 -79.1142 682.487 -79.3999 682.977ZM-82.4484 684.522C-82.0029 684.292 -81.5489 684.066 -81.0996 683.838C-80.8587 683.418 -80.6182 682.997 -80.3744 682.578C-80.786 682.821 -81.1952 683.065 -81.6045 683.308C-81.885 683.713 -82.1712 684.116 -82.4484 684.522ZM-85.3281 686.032C-85.0014 685.858 -84.6756 685.683 -84.3465 685.51C-84.141 685.202 -83.9373 684.894 -83.7293 684.587C-84.0367 684.776 -84.338 684.969 -84.6445 685.159C-84.8783 685.448 -85.0985 685.742 -85.3281 686.032ZM-87.9843 687.459C-87.8203 687.369 -87.6628 687.277 -87.4973 687.187C-87.3752 687.028 -87.2484 686.871 -87.1258 686.712C-87.2663 686.802 -87.4011 686.895 -87.5421 686.985C-87.6887 687.143 -87.8391 687.301 -87.9843 687.459ZM166.127 246.748C166.907 247.497 167.706 248.254 168.476 248.997C168.249 248.717 168.042 248.446 167.814 248.165C167.007 247.359 166.16 246.535 165.335 245.721C165.595 246.062 165.868 246.408 166.127 246.748ZM158 238.967C159.159 240.069 160.272 241.148 161.424 242.245C161.01 241.712 160.61 241.183 160.193 240.648C159.034 239.509 157.904 238.384 156.738 237.241C157.155 237.814 157.586 238.395 158 238.967ZM149.521 231.01C151.014 232.405 152.519 233.806 153.988 235.189C153.444 234.448 152.878 233.698 152.325 232.954C150.926 231.598 149.487 230.224 148.066 228.857C148.564 229.581 149.03 230.29 149.521 231.01ZM140.838 222.922C142.662 224.604 144.433 226.261 146.226 227.928C145.627 227.065 144.996 226.187 144.385 225.318C142.66 223.67 140.944 222.026 139.183 220.362C139.74 221.217 140.294 222.071 140.838 222.922ZM132.085 214.911C134.025 216.684 135.969 218.459 137.887 220.221C137.291 219.305 136.724 218.401 136.115 217.48C134.195 215.671 132.255 213.852 130.316 212.034C130.896 212.99 131.519 213.961 132.085 214.911ZM122.864 206.559C125.047 208.518 127.214 210.47 129.345 212.404C128.736 211.398 128.105 210.384 127.481 209.372C125.46 207.493 123.38 205.588 121.302 203.683C121.844 204.649 122.336 205.597 122.864 206.559ZM113.49 198.159C115.864 200.278 118.207 202.383 120.557 204.492C119.982 203.46 119.387 202.42 118.794 201.381C116.499 199.276 114.249 197.191 111.922 195.071C112.45 196.102 112.977 197.133 113.49 198.159ZM103.905 189.704C106.399 191.888 108.905 194.079 111.333 196.231C110.805 195.191 110.289 194.155 109.747 193.109C107.372 190.958 104.934 188.778 102.502 186.599C102.977 187.637 103.444 188.672 103.905 189.704ZM94.0076 181.028C96.7162 183.385 99.3465 185.704 102.011 188.041C101.523 186.962 100.983 185.865 100.478 184.78C97.9255 182.497 95.3735 180.214 92.7705 177.907C93.1901 178.949 93.6026 179.99 94.0076 181.028ZM83.9121 172.322C86.7136 174.73 89.5056 177.132 92.2477 179.511C91.8295 178.454 91.4259 177.402 90.9912 176.34C88.3067 173.966 85.5995 171.583 82.8674 169.187C83.2276 170.235 83.5666 171.278 83.9121 172.322ZM73.571 163.475C76.5215 165.983 79.4332 168.473 82.3238 170.952C81.9612 169.877 81.5732 168.795 81.1956 167.716C78.4026 165.274 75.5516 162.805 72.6861 160.33C72.9789 161.378 73.2919 162.43 73.571 163.475ZM62.9433 154.474C66.0215 157.069 69.0511 159.641 72.0793 162.211C71.7908 161.154 71.4876 160.094 71.185 159.034C68.2199 156.472 65.2969 153.932 62.2899 151.351C62.5114 152.393 62.7344 153.435 62.9433 154.474ZM-51.9409 674.773C-51.0017 674.456 -50.0597 674.142 -49.1121 673.829C-49.1451 672.794 -49.1696 671.761 -49.1923 670.728C-50.0871 671.072 -50.9815 671.416 -51.8688 671.763C-51.8989 672.765 -51.9244 673.768 -51.9409 674.773ZM-55.8116 676.1C-54.8955 675.782 -53.9865 675.461 -53.062 675.147C-53.0469 674.166 -53.0257 673.186 -52.9988 672.208C-53.8682 672.549 -54.7423 672.889 -55.6018 673.235C-55.6772 674.188 -55.7475 675.144 -55.8116 676.1ZM-59.6248 677.442C-58.7398 677.125 -57.8526 676.81 -56.9573 676.496C-56.896 675.566 -56.8342 674.637 -56.763 673.709C-57.6084 674.052 -58.4532 674.394 -59.2882 674.74C-59.4089 675.638 -59.5135 676.541 -59.6248 677.442ZM-63.3861 678.803C-62.5333 678.488 -61.6648 678.178 -60.8016 677.867C-60.6969 676.987 -60.5884 676.108 -60.4753 675.23C-61.29 675.571 -62.0939 675.915 -62.8991 676.259C-63.0665 677.106 -63.2315 677.953 -63.3861 678.803ZM-67.0688 680.188C-66.2517 679.877 -65.4285 679.568 -64.603 679.26C-64.4554 678.431 -64.2909 677.606 -64.1297 676.781C-64.9156 677.12 -65.6921 677.463 -66.4686 677.805C-66.6755 678.598 -66.8731 679.392 -67.0688 680.188ZM-70.6839 681.591C-69.8957 681.281 -69.1144 680.97 -68.3172 680.663C-68.1347 679.899 -67.9527 679.136 -67.7585 678.376C-68.502 678.707 -69.2446 679.037 -69.9787 679.371C-70.2186 680.11 -70.4529 680.85 -70.6839 681.591ZM-74.2284 683.01C-73.4858 682.708 -72.7442 682.406 -71.9937 682.107C-71.7763 681.4 -71.5496 680.696 -71.3223 679.992C-72.021 680.313 -72.7235 680.633 -73.4142 680.958C-73.6905 681.641 -73.9648 682.324 -74.2284 683.01ZM-77.6772 684.431C-76.9917 684.142 -76.2925 683.859 -75.5994 683.573C-75.3557 682.931 -75.1124 682.288 -74.8592 681.648C-75.5155 681.961 -76.1661 682.276 -76.8158 682.593C-77.1081 683.204 -77.3915 683.818 -77.6772 684.431ZM-81.0581 685.888C-80.4277 685.612 -79.7903 685.34 -79.1533 685.068C-78.8898 684.489 -78.6135 683.913 -78.3424 683.336C-78.944 683.635 -79.5319 683.939 -80.1264 684.24C-80.4414 684.788 -80.7535 685.336 -81.0581 685.888ZM-84.3149 687.34C-83.7501 687.085 -83.1924 686.828 -82.6224 686.575C-82.3569 686.084 -82.0991 685.589 -81.827 685.1C-82.3503 685.371 -82.8675 685.644 -83.3866 685.916C-83.6997 686.39 -84.0075 686.864 -84.3149 687.34ZM-87.4582 688.786C-86.9891 688.566 -86.5237 688.345 -86.0522 688.127C-85.7958 687.72 -85.5247 687.318 -85.2611 686.914C-85.6935 687.145 -86.1339 687.373 -86.561 687.606C-86.8627 687.999 -87.1626 688.391 -87.4582 688.786ZM-90.419 690.196C-90.0791 690.03 -89.7274 689.868 -89.3846 689.703C-89.1696 689.411 -88.9589 689.118 -88.7415 688.828C-89.0536 689.003 -89.3705 689.176 -89.6793 689.352C-89.9273 689.633 -90.1748 689.914 -90.419 690.196ZM-93.1964 691.58L-92.6849 691.324C-92.5632 691.179 -92.4467 691.032 -92.3237 690.888L-92.7843 691.16C-92.9253 691.298 -93.0559 691.44 -93.1964 691.58ZM179.15 260.853C179.792 261.469 180.449 262.092 181.092 262.708C180.878 262.447 180.671 262.191 180.454 261.93C179.788 261.271 179.096 260.599 178.422 259.937C178.659 260.239 178.915 260.551 179.15 260.853ZM170.645 252.776C171.787 253.845 172.901 254.9 174.02 255.958C173.612 255.444 173.198 254.927 172.786 254.411C171.662 253.313 170.591 252.243 169.449 251.138C169.861 251.689 170.239 252.226 170.645 252.776ZM162.132 244.834C163.656 246.259 165.195 247.689 166.717 249.111C166.162 248.374 165.554 247.612 164.99 246.871C163.547 245.484 162.076 244.084 160.624 242.693C161.132 243.409 161.63 244.121 162.132 244.834ZM153.461 236.837C155.181 238.406 156.906 239.976 158.581 241.523C158.004 240.716 157.471 239.927 156.885 239.116C155.19 237.51 153.456 235.886 151.716 234.258C152.292 235.115 152.895 235.984 153.461 236.837ZM144.456 228.617C146.423 230.404 148.351 232.173 150.301 233.953C149.681 233.031 149.061 232.11 148.427 231.183C146.531 229.41 144.658 227.649 142.742 225.868C143.324 226.788 143.887 227.702 144.456 228.617ZM135.209 220.321C137.391 222.267 139.583 224.217 141.713 226.138C141.08 225.135 140.396 224.11 139.75 223.102C137.716 221.225 135.622 219.321 133.539 217.421C134.11 218.393 134.653 219.354 135.209 220.321ZM125.766 211.903C128.126 213.991 130.426 216.05 132.747 218.119C132.156 217.109 131.609 216.117 131.003 215.102C128.711 213.014 126.429 210.931 124.093 208.823C124.647 209.849 125.226 210.883 125.766 211.903ZM116.042 203.374C118.547 205.564 121.045 207.751 123.506 209.921C122.942 208.87 122.368 207.815 121.787 206.758C119.406 204.615 116.997 202.459 114.577 200.298C115.084 201.33 115.55 202.348 116.042 203.374ZM106.087 194.721C108.766 197.033 111.424 199.336 114.042 201.62C113.517 200.539 112.958 199.447 112.415 198.362C109.888 196.115 107.306 193.843 104.714 191.566C105.178 192.619 105.639 193.673 106.087 194.721ZM95.8794 185.929C98.6869 188.337 101.453 190.726 104.226 193.118C103.762 192.049 103.31 190.985 102.83 189.911C100.12 187.53 97.447 185.167 94.6983 182.768C95.1047 183.825 95.4885 184.876 95.8794 185.929ZM85.4506 177.077C88.3882 179.555 91.3415 182.042 94.2 184.483C93.7945 183.406 93.3551 182.319 92.9327 181.237C90.1459 178.816 87.2822 176.358 84.4227 173.902C84.7669 174.96 85.1219 176.022 85.4506 177.077ZM74.7261 168.024C77.8147 170.615 80.8292 173.172 83.8725 175.741C83.5322 174.673 83.188 173.604 82.8335 172.532C79.8844 170 76.9425 167.47 73.9397 164.912C74.2118 165.951 74.4668 166.987 74.7261 168.024ZM63.7919 158.923C66.9875 161.573 70.1671 164.214 73.291 166.829C73.0227 165.782 72.7743 164.738 72.4952 163.688C69.4354 161.086 66.3454 158.47 63.2238 155.839C63.4261 156.869 63.6014 157.895 63.7919 158.923ZM-51.9795 678.604C-50.9744 678.311 -49.9725 678.018 -48.9598 677.728C-49.0074 676.677 -49.047 675.628 -49.0828 674.579C-50.0427 674.897 -51.0022 675.214 -51.9493 675.535C-51.9639 676.557 -51.9772 677.58 -51.9795 678.604ZM-56.044 679.805C-55.0676 679.512 -54.0837 679.221 -53.0993 678.931C-53.0974 677.925 -53.0841 676.923 -53.0691 675.92C-54.0054 676.24 -54.9337 676.563 -55.862 676.887C-55.9276 677.859 -55.9936 678.83 -56.044 679.805ZM-60.035 681.019C-59.0916 680.726 -58.1307 680.44 -57.1779 680.15C-57.1303 679.193 -57.07 678.239 -57.0082 677.284C-57.9233 677.606 -58.8224 677.934 -59.7271 678.261C-59.8365 679.178 -59.9378 680.098 -60.035 681.019ZM-63.9727 682.268C-63.0505 681.972 -62.125 681.678 -61.1943 681.386C-61.1028 680.485 -61.0099 679.583 -60.9043 678.685C-61.7874 679.006 -62.6653 679.329 -63.5403 679.654C-63.6903 680.524 -63.8317 681.395 -63.9727 682.268ZM-67.8603 683.539C-66.9617 683.241 -66.0706 682.94 -65.1626 682.646C-65.0273 681.798 -64.8854 680.952 -64.7435 680.107C-65.5884 680.425 -66.4403 680.74 -67.2762 681.062C-67.4761 681.886 -67.6765 682.71 -67.8603 683.539ZM-71.6495 684.815C-70.7976 684.522 -69.9404 684.232 -69.0791 683.943C-68.9041 683.144 -68.718 682.348 -68.5298 681.553C-69.3502 681.872 -70.1658 682.192 -70.9767 682.514C-71.2087 683.278 -71.4274 684.047 -71.6495 684.815ZM-75.3868 686.114C-74.5735 685.824 -73.7414 685.542 -72.9191 685.256C-72.707 684.515 -72.5005 683.772 -72.2803 683.033C-73.0587 683.347 -73.823 683.665 -74.591 683.982C-74.8592 684.692 -75.1313 685.4 -75.3868 686.114ZM-79.0293 687.441C-78.2641 687.159 -77.4928 686.878 -76.7173 686.599C-76.474 685.911 -76.2166 685.228 -75.9611 684.545C-76.7027 684.855 -77.4367 685.17 -78.1708 685.484C-78.466 686.134 -78.746 686.788 -79.0293 687.441ZM-82.6139 688.792C-81.8845 688.512 -81.1622 688.229 -80.4234 687.953C-80.1608 687.339 -79.9001 686.723 -79.6291 686.112C-80.3042 686.405 -80.9826 686.698 -81.6516 686.995C-81.9746 687.593 -82.3022 688.19 -82.6139 688.792ZM-86.0664 690.136C-85.4111 689.875 -84.7548 689.616 -84.0929 689.358C-83.8119 688.806 -83.5224 688.257 -83.2292 687.708C-83.8557 687.991 -84.4884 688.271 -85.1079 688.557C-85.4356 689.08 -85.7449 689.609 -86.0664 690.136ZM-89.4468 691.499C-88.8632 691.258 -88.2644 691.023 -87.675 690.784C-87.3907 690.307 -87.0994 689.833 -86.8095 689.357C-87.3578 689.616 -87.9047 689.876 -88.4473 690.137C-88.7811 690.591 -89.1229 691.042 -89.4468 691.499ZM-92.6627 692.863C-92.1757 692.654 -91.6862 692.446 -91.194 692.238C-90.9244 691.85 -90.6636 691.461 -90.3888 691.075C-90.8508 691.302 -91.3025 691.534 -91.7598 691.762C-92.0653 692.128 -92.3633 692.496 -92.6627 692.863ZM-95.7593 694.219C-95.3887 694.053 -95.0252 693.886 -94.6518 693.721C-94.4199 693.431 -94.178 693.146 -93.9423 692.857C-94.2926 693.038 -94.6306 693.223 -94.9762 693.404C-95.2374 693.676 -95.5023 693.946 -95.7593 694.219ZM-98.5249 695.463C-98.3528 695.383 -98.1736 695.307 -97.9997 695.227L-97.6093 694.799C-97.7606 694.881 -97.9191 694.962 -98.0699 695.044L-98.5249 695.463ZM192.058 274.703L194.02 276.571L193.455 275.901C192.814 275.272 192.157 274.635 191.515 274.006C191.702 274.241 191.872 274.469 192.058 274.703ZM183.626 266.779C184.765 267.836 185.918 268.903 187.032 269.95C186.601 269.416 186.139 268.867 185.705 268.331C184.622 267.284 183.518 266.227 182.409 265.168C182.822 265.707 183.219 266.241 183.626 266.779ZM175.026 258.77C176.533 260.162 177.981 261.525 179.472 262.909C178.968 262.254 178.509 261.62 177.998 260.962C176.49 259.524 174.996 258.092 173.477 256.649C173.991 257.355 174.519 258.067 175.026 258.77ZM166.351 250.85C168.014 252.365 169.691 253.885 171.329 255.387C170.723 254.561 170.134 253.741 169.519 252.911C167.898 251.388 166.228 249.841 164.573 248.3C165.158 249.147 165.776 250.008 166.351 250.85ZM157.131 242.487C159.113 244.269 161.055 246.031 162.999 247.794C162.358 246.868 161.684 245.928 161.028 244.997C159.163 243.265 157.32 241.545 155.421 239.797C156.009 240.702 156.551 241.587 157.131 242.487ZM147.828 234.176C150.009 236.12 152.187 238.063 154.341 239.995C153.697 239.008 153.033 238.013 152.374 237.019C150.287 235.106 148.169 233.179 146.054 231.253C146.651 232.229 147.244 233.205 147.828 234.176ZM138.369 225.819C140.668 227.834 142.967 229.848 145.208 231.836C144.59 230.821 143.998 229.819 143.365 228.799C141.143 226.788 138.868 224.751 136.587 222.712C137.171 223.744 137.799 224.793 138.369 225.819ZM128.457 217.13C130.995 219.343 133.469 221.523 135.973 223.719C135.374 222.657 134.742 221.582 134.126 220.513C131.718 218.361 129.347 216.226 126.906 214.059C127.443 215.09 127.935 216.104 128.457 217.13ZM118.467 208.52C121.117 210.795 123.775 213.073 126.362 215.317C125.811 214.249 125.262 213.183 124.694 212.109C122.162 209.871 119.56 207.599 116.964 205.331C117.466 206.394 117.982 207.463 118.467 208.52ZM108.157 199.685C110.97 202.081 113.732 204.451 116.494 206.821C115.99 205.742 115.486 204.663 114.965 203.578C112.29 201.24 109.607 198.899 106.877 196.535C107.32 197.591 107.729 198.635 108.157 199.685ZM97.6445 190.79C100.589 193.272 103.513 195.746 106.405 198.202C105.956 197.117 105.482 196.024 105.016 194.933C102.195 192.495 99.3507 190.047 96.481 187.585C96.8708 188.654 97.2701 189.725 97.6445 190.79ZM86.8531 181.748C89.921 184.305 92.9798 186.857 95.9779 189.38C95.5927 188.301 95.2037 187.223 94.802 186.139C91.894 183.654 88.9163 181.133 85.9357 178.611C86.2572 179.661 86.5439 180.702 86.8531 181.748ZM75.8392 172.58C79.0457 175.236 82.1824 177.858 85.3426 180.49C85.0229 179.425 84.7085 178.361 84.3728 177.291C81.2795 174.673 78.2268 172.074 75.0816 169.433C75.34 170.483 75.5941 171.533 75.8392 172.58ZM64.5896 163.352C67.9026 166.058 71.226 168.77 74.4503 171.432C74.1972 170.371 73.9114 169.303 73.646 168.238C70.4961 165.599 67.2666 162.921 64.0347 160.241C64.2224 161.278 64.4128 162.317 64.5896 163.352ZM-51.9521 682.447C-50.8913 682.181 -49.8207 681.92 -48.75 681.658C-48.8117 680.59 -48.8783 679.521 -48.932 678.454C-49.9574 678.748 -50.9701 679.047 -51.9866 679.345C-51.9833 680.377 -51.9639 681.413 -51.9521 682.447ZM-56.1996 683.525C-55.1633 683.257 -54.1134 682.994 -53.0662 682.73C-53.0785 681.71 -53.095 680.689 -53.0993 679.67C-54.0983 679.965 -55.0874 680.265 -56.0756 680.564C-56.1209 681.55 -56.1642 682.536 -56.1996 683.525ZM-60.3914 684.632C-59.3758 684.359 -58.357 684.088 -57.3307 683.82C-57.2977 682.848 -57.2543 681.878 -57.2085 680.908C-58.1807 681.205 -59.1515 681.502 -60.1128 681.802C-60.2113 682.744 -60.3079 683.686 -60.3914 684.632ZM-64.5016 685.752C-63.5153 685.479 -62.5328 685.205 -61.5371 684.935C-61.4574 684.011 -61.3664 683.09 -61.2735 682.169C-62.2198 682.468 -63.1697 682.765 -64.1046 683.067C-64.2456 683.96 -64.3734 684.856 -64.5016 685.752ZM-68.5637 686.895C-67.6062 686.62 -66.6416 686.348 -65.6727 686.078C-65.5497 685.204 -65.4314 684.329 -65.297 683.458C-66.2145 683.758 -67.1263 684.061 -68.0343 684.365C-68.2149 685.207 -68.394 686.049 -68.5637 686.895ZM-72.5472 688.054C-71.6297 687.782 -70.6981 687.515 -69.7693 687.246C-69.6052 686.418 -69.4289 685.593 -69.2511 684.769C-70.1427 685.07 -71.0173 685.378 -71.8975 685.683C-72.1205 686.471 -72.3383 687.262 -72.5472 688.054ZM-76.4608 689.249C-75.573 688.974 -74.6815 688.7 -73.7833 688.429C-73.5825 687.659 -73.3817 686.89 -73.1686 686.124C-74.0186 686.423 -74.8654 686.723 -75.7074 687.026C-75.9644 687.765 -76.2137 688.506 -76.4608 689.249ZM-80.3047 690.463C-79.4537 690.189 -78.6107 689.913 -77.7493 689.643C-77.5154 688.929 -77.2694 688.217 -77.0247 687.506C-77.8299 687.799 -78.6437 688.09 -79.439 688.387C-79.7337 689.077 -80.0232 689.769 -80.3047 690.463ZM-84.058 691.688C-83.2579 691.421 -82.4512 691.156 -81.6436 690.893C-81.381 690.236 -81.1184 689.578 -80.8435 688.925C-81.6068 689.214 -82.3668 689.503 -83.1198 689.795C-83.4356 690.426 -83.7501 691.056 -84.058 691.688ZM-87.7208 692.932C-86.9848 692.676 -86.2319 692.426 -85.4865 692.173C-85.198 691.569 -84.8949 690.97 -84.5941 690.371C-85.313 690.654 -86.0193 690.944 -86.7307 691.231C-87.0674 691.796 -87.395 692.363 -87.7208 692.932ZM-91.2997 694.209C-90.6132 693.961 -89.9244 693.713 -89.2295 693.468C-88.9315 692.938 -88.643 692.405 -88.3351 691.878C-88.9852 692.145 -89.6194 692.418 -90.2601 692.688C-90.608 693.195 -90.9593 693.7 -91.2997 694.209ZM-94.7503 695.486C-94.1436 695.257 -93.5457 695.024 -92.9314 694.797C-92.6325 694.339 -92.3199 693.886 -92.0087 693.431C-92.5901 693.681 -93.1723 693.931 -93.748 694.184C-94.0912 694.616 -94.4156 695.053 -94.7503 695.486ZM-98.0892 696.765C-97.5763 696.564 -97.0572 696.364 -96.5386 696.164C-96.2585 695.794 -95.9752 695.426 -95.6923 695.057C-96.1628 695.269 -96.6413 695.478 -97.1071 695.692C-97.4329 696.051 -97.7691 696.405 -98.0892 696.765ZM-101.208 698.019C-100.838 697.867 -100.462 697.719 -100.089 697.569C-99.862 697.306 -99.6451 697.039 -99.4131 696.778C-99.7582 696.942 -100.104 697.104 -100.445 697.268C-100.704 697.517 -100.953 697.769 -101.208 698.019ZM-104.172 699.262L-103.581 699.01C-103.447 698.874 -103.306 698.741 -103.169 698.606L-103.709 698.877C-103.86 699.006 -104.02 699.132 -104.172 699.262ZM205.198 288.629C205.934 289.318 206.626 289.986 207.352 290.67L206.976 290.232L204.731 288.044L205.198 288.629ZM196.878 280.888C198.014 281.946 199.167 283.014 200.301 284.071C199.901 283.585 199.52 283.106 199.116 282.618C197.988 281.535 196.819 280.432 195.671 279.34C196.073 279.855 196.482 280.374 196.878 280.888ZM188.307 272.972C189.678 274.221 191.041 275.467 192.379 276.7C191.874 276.057 191.392 275.426 190.881 274.78C189.459 273.435 188.074 272.107 186.628 270.749C187.175 271.484 187.768 272.24 188.307 272.972ZM179.288 264.754C180.984 266.297 182.674 267.837 184.362 269.377C183.744 268.553 183.113 267.723 182.484 266.895C180.895 265.411 179.28 263.915 177.684 262.427C178.24 263.213 178.739 263.973 179.288 264.754ZM170.1 256.5C172.074 258.259 174.063 260.024 175.985 261.757C175.318 260.82 174.585 259.854 173.906 258.911C172.075 257.224 170.19 255.511 168.307 253.798C168.916 254.704 169.503 255.599 170.1 256.5ZM160.717 248.128C162.887 250.05 164.987 251.937 167.127 253.844C166.486 252.893 165.896 251.963 165.243 251.006C163.104 249.058 161.004 247.13 158.836 245.169C159.459 246.153 160.107 247.149 160.717 248.128ZM151.115 239.711C153.424 241.73 155.735 243.75 158 245.746C157.352 244.721 156.701 243.694 156.038 242.662C153.845 240.69 151.598 238.692 149.357 236.696C149.955 237.706 150.533 238.708 151.115 239.711ZM141.186 231.07C143.723 233.262 146.227 235.438 148.71 237.603C148.079 236.533 147.386 235.436 146.74 234.359C144.355 232.24 141.957 230.114 139.522 227.97C140.092 229.009 140.633 230.037 141.186 231.07ZM131.118 222.402C133.756 224.667 136.374 226.922 138.978 229.17C138.403 228.111 137.871 227.07 137.28 226.005C134.701 223.739 132.107 221.466 129.492 219.182C130.03 220.253 130.598 221.337 131.118 222.402ZM120.718 213.559C123.51 215.918 126.314 218.284 129.035 220.608C128.495 219.52 127.936 218.425 127.379 217.331C124.754 215.05 122.048 212.729 119.352 210.412C119.83 211.469 120.256 212.507 120.718 213.559ZM110.121 204.601C113.079 207.086 115.96 209.533 118.87 211.995C118.385 210.908 117.892 209.817 117.389 208.723C114.544 206.277 111.726 203.844 108.832 201.374C109.262 202.45 109.707 203.53 110.121 204.601ZM99.2672 195.562C102.329 198.103 105.391 200.645 108.384 203.154C107.955 202.068 107.524 200.982 107.079 199.892C104.171 197.417 101.201 194.911 98.2268 192.404C98.5936 193.463 98.916 194.508 99.2672 195.562ZM88.211 186.413C91.3995 189.038 94.5578 191.648 97.6818 194.241C97.3168 193.163 96.9477 192.082 96.5662 190.999C93.5064 188.421 90.4084 185.825 87.2817 183.214C87.5891 184.279 87.9182 185.351 88.211 186.413ZM76.8533 177.1C80.1706 179.81 83.4553 182.503 86.7145 185.186C86.4132 184.113 86.0875 183.033 85.7702 181.957C82.5831 179.298 79.3856 176.634 76.1461 173.949C76.3857 175 76.6261 176.051 76.8533 177.1ZM65.2855 167.718C68.7051 170.477 72.134 173.244 75.4677 175.962C75.2334 174.906 75.0024 173.851 74.7554 172.792C71.4989 170.1 68.1393 167.357 64.7924 164.619C64.9616 165.653 65.1271 166.686 65.2855 167.718ZM75.7676 177.306C72.3947 174.552 68.9375 171.758 65.4854 168.965C79.7816 264.55 44.972 351.952 10.2043 439.254C-10.9084 492.267 -32.0012 545.244 -42.066 599.991C-29.5411 552.932 -8.03148 507.497 13.6073 461.8C55.8166 372.655 98.4893 282.498 75.7676 177.306ZM87.1238 186.614C83.8395 183.91 80.5049 181.18 77.1556 178.443C99.322 283.217 56.7596 373.093 14.678 461.968C-8.13756 510.153 -30.8037 558.045 -42.9364 607.853C-28.584 564.59 -5.46059 523.086 17.892 481.186C67.7183 391.792 118.559 300.591 87.1238 186.614ZM178.158 264.884C176.114 263.035 174.051 261.175 171.959 259.302C289.315 439.059 164.959 513.483 48.1082 583.362C14.4164 603.51 -18.638 623.284 -45.0679 645.106M-51.8781 686.315C-50.7584 686.077 -49.6297 685.842 -48.4987 685.609C-48.5765 684.525 -48.6435 683.442 -48.709 682.36C-49.7924 682.626 -50.872 682.894 -51.9441 683.164C-51.9286 684.213 -51.9069 685.263 -51.8781 686.315ZM-56.2996 687.275C-55.1973 687.032 -54.0997 686.789 -52.9875 686.55C-53.0172 685.515 -53.0413 684.48 -53.0578 683.447C-54.1176 683.715 -55.1807 683.982 -56.2293 684.256C-56.2613 685.26 -56.2793 686.268 -56.2996 687.275ZM-60.6681 688.255C-59.589 688.009 -58.5117 687.762 -57.4216 687.52C-57.4042 686.532 -57.3905 685.542 -57.3618 684.556C-58.3943 684.827 -59.4268 685.098 -60.4475 685.374C-60.5258 686.333 -60.6012 687.292 -60.6681 688.255ZM-64.9703 689.253C-63.9246 689.005 -62.868 688.761 -61.8096 688.517C-61.745 687.57 -61.6695 686.625 -61.5936 685.681C-62.6063 685.957 -63.6054 686.238 -64.6082 686.518C-64.7355 687.428 -64.8585 688.339 -64.9703 689.253ZM-69.2007 690.274C-68.1852 690.023 -67.1555 689.778 -66.1268 689.532C-66.0188 688.634 -65.9023 687.737 -65.7793 686.842C-66.7693 687.122 -67.75 687.406 -68.7302 687.689C-68.8957 688.548 -69.0456 689.412 -69.2007 690.274ZM-73.3845 691.33C-72.3874 691.075 -71.3921 690.82 -70.3841 690.568C-70.2346 689.724 -70.088 688.879 -69.9277 688.037C-70.8739 688.314 -71.8216 688.591 -72.7565 688.873C-72.9715 689.69 -73.186 690.508 -73.3845 691.33ZM-77.4622 692.398C-76.5065 692.143 -75.5565 691.887 -74.5914 691.637C-74.4014 690.839 -74.1978 690.045 -73.9936 689.251C-74.9139 689.531 -75.838 689.809 -76.7474 690.093C-76.9945 690.858 -77.2274 691.628 -77.4622 692.398ZM-81.5027 693.494C-80.5805 693.238 -79.6489 692.986 -78.7158 692.733C-78.4905 691.989 -78.2703 691.243 -78.0336 690.501C-78.9129 690.78 -79.7846 691.061 -80.6531 691.343C-80.9407 692.059 -81.232 692.774 -81.5027 693.494ZM-85.421 694.604C-84.5554 694.353 -83.6719 694.108 -82.7968 693.861C-82.538 693.162 -82.2659 692.467 -81.9906 691.774C-82.8444 692.055 -83.6799 692.345 -84.5233 692.631C-84.8331 693.284 -85.1225 693.946 -85.421 694.604ZM-89.2969 695.757C-88.4624 695.505 -87.6289 695.254 -86.7854 695.006C-86.5021 694.37 -86.2154 693.736 -85.9231 693.104C-86.7142 693.377 -87.4996 693.651 -88.2818 693.927C-88.6236 694.536 -88.9669 695.144 -89.2969 695.757ZM-93.0455 696.918C-92.2695 696.672 -91.501 696.424 -90.716 696.183C-90.4129 695.609 -90.1059 695.037 -89.7914 694.467C-90.5255 694.731 -91.2685 694.991 -91.9946 695.259C-92.3515 695.809 -92.6985 696.364 -93.0455 696.918ZM-96.7111 698.095C-96.0082 697.863 -95.2963 697.635 -94.5853 697.406C-94.2699 696.892 -93.939 696.383 -93.6132 695.872C-94.2874 696.125 -94.9639 696.379 -95.631 696.635C-95.9973 697.12 -96.3557 697.607 -96.7111 698.095ZM-100.255 699.288C-99.6309 699.073 -98.9926 698.863 -98.3622 698.651C-98.0501 698.213 -97.7484 697.772 -97.4282 697.337C-98.0218 697.57 -98.605 697.808 -99.1915 698.044C-99.5465 698.459 -99.9063 698.872 -100.255 699.288ZM-103.657 700.494C-103.138 700.307 -102.619 700.119 -102.093 699.934C-101.794 699.568 -101.485 699.206 -101.176 698.843C-101.696 699.058 -102.198 699.279 -102.711 699.496C-103.035 699.826 -103.339 700.163 -103.657 700.494ZM-106.91 701.689C-106.504 701.536 -106.108 701.378 -105.698 701.227C-105.457 700.969 -105.211 700.714 -104.969 700.458C-105.337 700.618 -105.702 700.78 -106.068 700.942C-106.346 701.192 -106.635 701.438 -106.91 701.689ZM-109.833 702.804C-109.646 702.73 -109.452 702.66 -109.265 702.587C-109.132 702.463 -109.004 702.337 -108.871 702.212C-109.041 702.291 -109.217 702.367 -109.386 702.446L-109.833 702.804ZM53.1835 155.131C53.2834 156.151 53.3924 157.171 53.4824 158.19C57.0457 161.047 60.4992 163.85 63.9918 166.673C63.8292 165.635 63.6722 164.598 63.4954 163.558C60.0688 160.754 56.6747 157.967 53.1835 155.131ZM52.7474 150.903C52.8601 151.918 52.9647 152.932 53.0675 153.947C56.5196 156.748 59.8882 159.508 63.2827 162.281C63.1008 161.234 62.8957 160.183 62.7033 159.133C59.404 156.399 56.1052 153.666 52.7474 150.903ZM52.2401 146.638C52.3683 147.653 52.4843 148.667 52.6003 149.681C55.9175 152.407 59.2027 155.118 62.4596 157.815C62.263 156.772 62.0669 155.729 61.8575 154.683C58.6945 152.022 55.4668 149.329 52.2401 146.638ZM51.6616 142.331C51.8054 143.354 51.9581 144.377 52.0916 145.398C55.2617 148.041 58.4639 150.699 61.5713 153.312C61.3582 152.268 61.1423 151.224 60.916 150.178C57.8896 147.59 54.7544 144.95 51.6616 142.331ZM51.0327 137.995C51.1897 139.013 51.3363 140.031 51.4824 141.048C54.5465 143.641 57.6308 146.243 60.6275 148.805C60.3979 147.763 60.1395 146.716 59.8976 145.673C56.9736 143.127 54.0255 140.572 51.0327 137.995ZM50.334 133.663C50.5023 134.661 50.6583 135.659 50.8167 136.656C53.7771 139.202 56.6634 141.713 59.5586 144.23C59.3116 143.188 59.073 142.147 58.8137 141.103C56.0519 138.654 53.1628 136.145 50.334 133.663ZM49.548 129.252C49.7357 130.268 49.9323 131.286 50.1091 132.301C52.861 134.713 55.7181 137.172 58.4106 139.555C58.1504 138.534 57.8835 137.514 57.6115 136.492C54.9694 134.099 52.2552 131.675 49.548 129.252ZM48.7069 124.821C48.9082 125.828 49.0996 126.835 49.2896 127.842C51.9289 130.2 54.6229 132.582 57.1994 134.911C56.9222 133.891 56.6214 132.866 56.3315 131.842C53.8176 129.514 51.284 127.177 48.7069 124.821ZM47.7857 120.349C48.0016 121.349 48.2015 122.35 48.4052 123.35C50.9058 125.634 53.4131 127.92 55.8553 130.176C55.5648 129.174 55.29 128.175 54.9892 127.171C52.597 124.901 50.2373 122.644 47.7857 120.349ZM46.7683 115.825C46.9998 116.826 47.2365 117.827 47.4562 118.828C49.8149 121.032 52.134 123.22 54.4343 125.4C54.1283 124.399 53.8125 123.398 53.4942 122.395C51.2458 120.202 49.0709 118.041 46.7683 115.825ZM45.7032 111.34C45.9423 112.309 46.1794 113.278 46.4076 114.247C48.6235 116.375 50.7611 118.469 52.9242 120.574C52.6008 119.579 52.2523 118.58 51.919 117.584C49.8474 115.503 47.8201 113.44 45.7032 111.34ZM44.5698 106.843C44.8136 107.767 45.0352 108.69 45.2686 109.613C47.3161 111.64 49.251 113.62 51.2529 115.627C50.9233 114.668 50.6107 113.713 50.2712 112.752C48.3859 110.788 46.4976 108.824 44.5698 106.843ZM43.3204 102.279C43.5736 103.186 43.8263 104.094 44.0691 105.001C45.9135 106.888 47.6758 108.742 49.4862 110.616C49.1458 109.673 48.7998 108.73 48.4471 107.786C46.7659 105.961 45.0413 104.12 43.3204 102.279ZM42.0079 97.717C42.2681 98.5931 42.5359 99.4701 42.7872 100.346C44.4208 102.084 46.0125 103.806 47.6164 105.532C47.2661 104.613 46.8861 103.689 46.5264 102.769C45.0569 101.098 43.5147 99.4011 42.0079 97.717ZM40.6416 93.1765C40.8948 93.9878 41.1296 94.7972 41.3761 95.6074C42.7745 97.1631 44.1653 98.7155 45.5373 100.261C45.2054 99.4321 44.8786 98.6042 44.5382 97.7742C43.2672 96.2513 41.9424 94.7092 40.6416 93.1765ZM39.1522 88.5837C39.3993 89.331 39.6383 90.0787 39.8792 90.8259C41.0178 92.1591 42.1757 93.4992 43.2945 94.8251C42.9966 94.1198 42.7033 93.4152 42.4002 92.7087C41.3229 91.3353 40.2526 89.9648 39.1522 88.5837ZM37.6469 84.1459C37.8618 84.7648 38.0844 85.3839 38.2946 86.0026C39.1386 87.0527 40.0178 88.1143 40.8476 89.1597C40.6138 88.629 40.3696 88.0969 40.131 87.5657C39.3012 86.4249 38.4927 85.2912 37.6469 84.1459ZM36.2292 80.0959C36.3499 80.4247 36.4601 80.7534 36.5775 81.0819C37.0834 81.7588 37.6124 82.4431 38.1117 83.1171C37.9952 82.8683 37.8698 82.6185 37.7534 82.3693L36.2292 80.0959ZM-43.2216 681.039C-43.1066 682.181 -42.9873 683.323 -42.859 684.467C-6.02538 677.162 35.9128 671.788 78.6591 666.317C161.831 655.671 248.039 644.635 305.258 618.169C389.14 579.369 410.786 507.292 269.647 354.495C398.07 501.064 370.349 570.82 285.253 609.882C230.455 635.036 151.907 647.435 75.9458 659.424C33.9322 666.055 -7.28185 672.564 -43.2216 681.039ZM-43.6261 676.962C-43.5219 678.09 -43.4031 679.22 -43.2895 680.35C-7.37381 671.914 33.7417 665.419 75.6544 658.805C151.503 646.834 229.937 634.454 284.56 609.38C372.12 569.186 398.541 496.264 255.363 339.918C385.98 490.487 352.809 561.188 263.585 601.81C211.866 625.357 141.346 638.77 72.976 651.775C31.7898 659.608 -8.61186 667.295 -43.6261 676.962ZM-43.958 672.908C-43.8722 674.022 -43.7831 675.135 -43.6851 676.25C-8.71088 666.635 31.5711 658.973 72.6272 651.164C140.908 638.176 211.333 624.781 262.898 601.304C354.715 559.502 386.813 485.631 240.85 324.946C374.478 480.459 334.678 552.215 240.607 594.663C192.568 616.34 130.414 630.354 69.9818 643.978C29.6484 653.072 -9.90414 661.995 -43.958 672.908ZM-44.2536 668.871C-44.1796 669.972 -44.1028 671.073 -44.0179 672.176C-10.0144 661.329 29.3972 652.438 69.5778 643.38C129.939 629.771 192.02 615.774 239.924 594.158C336.228 550.702 375.396 476.368 228.454 312.158L227.699 311.423C363.458 471.828 315.253 544.318 215.767 588.778C172.255 608.223 118.955 622.294 66.962 636.019C27.5075 646.434 -11.1851 656.653 -44.2536 668.871ZM-44.5101 664.862C-44.447 665.945 -44.372 667.03 -44.3013 668.115C-11.2959 655.978 27.2247 645.804 66.4995 635.436C118.434 621.726 171.673 607.672 215.088 588.27C315.715 543.3 363.605 469.487 220.403 304.322C219.651 303.596 218.94 302.89 218.18 302.159C352.478 465.895 293.278 538.197 188.061 584.725C150.31 601.419 106.658 614.787 63.9121 627.877C25.3557 639.684 -12.4581 651.267 -44.5101 664.862ZM-44.6992 660.871C-44.6525 661.935 -44.6072 662.998 -44.5502 664.064C-12.5726 650.573 25.0455 639.052 63.394 627.308C106.101 614.23 149.711 600.875 187.387 584.214C293.43 537.321 352.559 464.135 212.579 296.826C211.455 295.755 210.313 294.675 209.19 293.604C378.297 507.486 213.67 565.605 60.8358 619.525C23.2049 632.801 -13.6971 645.828 -44.6992 660.871ZM-44.8576 656.895C-44.8222 657.94 -44.7822 658.987 -44.7388 660.034C-13.8211 645.117 22.8594 632.17 60.2569 618.976C213.89 564.775 379.434 506.304 203.991 288.671C202.753 287.506 201.462 286.316 200.19 285.136C355.952 490.37 201.459 552.815 57.7185 610.935C21.0376 625.767 -14.9389 640.317 -44.8576 656.895ZM-44.9726 652.952C-44.9467 653.97 -44.9156 654.99 -44.8835 656.01C-15.0596 639.587 20.6638 625.136 57.084 610.41C201.46 552.033 356.614 489.239 195.705 280.967C194.051 279.431 192.44 277.918 190.764 276.372C333.666 473.18 189.314 539.865 54.5625 602.076C18.8491 618.563 -16.1741 634.74 -44.9726 652.952ZM-45.0353 649.015C-45.0254 650.008 -45.0169 651 -44.9971 651.993C-16.3014 633.971 18.4498 617.925 53.8704 601.573C189.09 539.146 334.042 472.224 187.166 273.086C185.281 271.359 183.351 269.61 181.433 267.865C311.394 456.099 177.125 526.774 51.3636 592.901C16.6506 611.154 -17.399 629.064 -45.0353 649.015ZM-45.0532 641.212C-45.0584 642.129 -45.0627 643.046 -45.0646 643.964C-18.7474 622.42 13.9723 602.852 47.3067 582.917C164.52 512.821 289.269 438.132 168.989 256.652C166.78 254.676 164.565 252.697 162.334 250.709C267.383 422.052 152.813 499.96 44.7937 573.398C12.1528 595.589 -19.8808 617.373 -45.0532 641.212ZM-44.9971 637.334C-45.0165 638.21 -45.0382 639.086 -45.0476 639.963C-19.9841 616.454 11.6823 594.916 43.9456 572.983C152.292 499.323 267.223 421.149 159.623 248.298C157.261 246.21 154.819 244.081 152.39 241.96C245.553 404.999 140.701 486.149 41.411 562.93C9.84789 587.337 -21.1387 611.307 -44.9971 637.334ZM-44.9165 633.482C-44.9396 634.29 -44.9504 635.1 -44.9684 635.909C-21.2146 610.284 9.37453 586.628 40.5176 562.545C140.084 485.551 245.283 404.17 150.017 239.883C147.457 237.644 144.911 235.413 142.302 233.151C223.965 387.953 128.619 471.989 37.9486 551.86C7.48915 578.692 -22.4347 605.055 -44.9165 633.482ZM-44.7784 629.635C-44.8043 630.378 -44.835 631.121 -44.8595 631.864C-22.471 603.923 7.0106 577.941 37.0179 551.508C127.936 471.418 223.553 387.131 140.097 231.252C137.443 228.958 134.747 226.642 132.043 224.323C202.549 370.895 116.55 457.417 34.3928 540.064C5.07195 569.561 -23.7501 598.566 -44.7784 629.635ZM-44.6138 625.809C-44.6468 626.46 -44.6827 627.111 -44.711 627.763C-23.7581 597.28 4.59761 568.75 33.4319 539.744C115.813 456.871 202.074 370.1 130.038 222.597C127.227 220.19 124.361 217.756 121.48 215.315C181.321 353.717 104.523 442.308 30.7347 527.377C2.57835 559.839 -25.1277 591.791 -44.6138 625.809ZM-44.4201 622.004C-44.4502 622.525 -44.4719 623.047 -44.5007 623.569C-25.0603 590.28 2.12431 558.93 29.7413 527.09C103.731 441.79 180.75 352.947 119.633 213.753C116.692 211.261 113.765 208.776 110.78 206.262C160.4 336.462 92.5254 426.544 26.9569 513.585C-0.0080719 549.379 -26.5808 584.659 -44.4201 622.004ZM-44.1763 618.181L-44.248 619.261C-26.4125 582.835 -0.42627 548.327 25.9385 513.328C91.6909 426.045 159.736 335.689 109.044 204.803C106.011 202.259 102.88 199.667 99.7679 197.083C139.666 319.004 80.5591 409.941 23.0347 498.391C-2.703 537.965 -28.1168 577.043 -44.1763 618.181ZM-43.9146 614.415L-43.9392 614.709C-27.8113 574.758 -3.06415 536.695 21.9937 498.164C79.6793 409.466 138.957 318.263 98.1815 195.762C95.0033 193.121 91.8134 190.474 88.5745 187.804C119.302 301.295 68.6339 392.241 18.9485 481.383C-5.5464 525.334 -29.7995 568.849 -43.9146 614.415ZM5.52832 411.824C-14.0973 471.026 -33.8635 530.66 -41.6313 591.951C-31.0531 539.996 -10.9753 489.57 9.1218 439.11C43.9975 351.534 78.9014 263.853 64.1917 167.92C60.6685 165.07 57.1782 162.235 53.5777 159.346C60.8387 244.967 33.3306 327.962 5.52832 411.824ZM-45.7241 625.688L-45.6723 624.672L-45.8444 625.037C-45.8868 625.401 -45.9339 625.764 -45.9745 626.128L-45.7241 625.688ZM-45.8896 629.5C-45.8689 628.985 -45.8557 628.469 -45.8335 627.955C-45.9717 628.2 -46.1154 628.445 -46.2517 628.69L-46.4158 630.277L-45.8896 629.5ZM-46.0263 633.321C-46.0075 632.672 -45.9797 632.024 -45.957 631.375C-46.1885 631.721 -46.411 632.069 -46.6378 632.417C-46.6996 633.049 -46.7486 633.684 -46.8062 634.318C-46.5464 633.985 -46.2894 633.653 -46.0263 633.321ZM-46.1084 637.155L-46.0655 634.953L-46.9622 636.11C-47.0263 636.84 -47.0947 637.569 -47.1518 638.301C-46.8043 637.919 -46.4587 637.537 -46.1084 637.155ZM-46.1673 641.016C-46.1607 640.205 -46.1508 639.395 -46.1376 638.586C-46.511 638.998 -46.8896 639.408 -47.2578 639.822C-47.3144 640.619 -47.3733 641.416 -47.4261 642.214C-47.0098 641.813 -46.5879 641.415 -46.1673 641.016ZM-46.1829 644.891C-46.1833 644.017 -46.1767 643.145 -46.173 642.272C-46.627 642.707 -47.0725 643.145 -47.5223 643.582C-47.5741 644.428 -47.6166 645.277 -47.6628 646.124C-47.1697 645.713 -46.6789 645.301 -46.1829 644.891ZM-46.1536 648.776C-46.1635 647.864 -46.1833 646.95 -46.1885 646.038C-46.6996 646.465 -47.2206 646.891 -47.7274 647.32C-47.7769 648.22 -47.8264 649.121 -47.8641 650.023C-47.2979 649.606 -46.7269 649.191 -46.1536 648.776ZM-46.0975 652.694C-46.1183 651.732 -46.1296 650.772 -46.14 649.811C-46.7336 650.244 -47.3158 650.679 -47.9027 651.114C-47.9381 652.044 -47.9721 652.974 -48.0008 653.905C-47.369 653.5 -46.7335 653.097 -46.0975 652.694ZM-45.9816 656.611C-46.0127 655.623 -46.0429 654.636 -46.0688 653.648C-46.727 654.067 -47.3861 654.484 -48.0362 654.906C-48.0621 655.87 -48.0767 656.836 -48.0961 657.801C-47.3941 657.403 -46.6921 657.005 -45.9816 656.611ZM-45.8297 660.564C-45.875 659.544 -45.9184 658.525 -45.9556 657.506C-46.6798 657.91 -47.395 658.318 -48.1116 658.724C-48.1305 659.715 -48.1489 660.705 -48.155 661.697C-47.386 661.317 -46.6062 660.941 -45.8297 660.564ZM-45.6435 664.53C-45.701 663.485 -45.7449 662.443 -45.7901 661.4C-46.5813 661.787 -47.3705 662.176 -48.1541 662.566C-48.1555 663.579 -48.1569 664.593 -48.1498 665.607C-47.3158 665.247 -46.4832 664.887 -45.6435 664.53ZM-45.3922 668.514C-45.4625 667.452 -45.5327 666.389 -45.5959 665.328C-46.4492 665.693 -47.3021 666.057 -48.1498 666.425C-48.1385 667.458 -48.1177 668.494 -48.0993 669.529C-47.2007 669.189 -46.3003 668.85 -45.3922 668.514ZM-45.1065 672.526C-45.1909 671.44 -45.2701 670.355 -45.3427 669.271C-46.2649 669.614 -47.1739 669.961 -48.0829 670.308C-48.0636 671.358 -48.0423 672.408 -48.0093 673.461C-47.048 673.147 -46.0745 672.837 -45.1065 672.526ZM-44.776 676.554C-44.8731 675.454 -44.9604 674.356 -45.0462 673.257C-46.0282 673.574 -47.0084 673.891 -47.9806 674.212C-47.9433 675.28 -47.9028 676.348 -47.8547 677.418C-46.8316 677.128 -45.8081 676.839 -44.776 676.554ZM-44.3819 680.604C-44.4946 679.493 -44.6129 678.379 -44.7171 677.269C-45.7576 677.558 -46.7948 677.848 -47.8273 678.14C-47.7755 679.223 -47.7095 680.306 -47.6468 681.39C-46.5638 681.126 -45.4771 680.864 -44.3819 680.604ZM-43.951 684.685C-44.0782 683.554 -44.1975 682.423 -44.3126 681.293C-45.42 681.556 -46.5119 681.824 -47.6072 682.092C-47.543 683.187 -47.4761 684.282 -47.3983 685.379C-46.255 685.145 -45.1037 684.915 -43.951 684.685ZM-6.60527 806C-27.9089 764.715 -39.3589 724.601 -43.8703 685.362C-45.033 685.594 -46.1918 685.83 -47.3446 686.067C-44.5209 724.569 -34.0992 764.3 -12.6754 805.816L-13.7414 806C-35.1586 764.496 -45.5969 724.781 -48.4436 686.296C-49.5854 686.533 -50.7268 686.768 -51.856 687.008C-50.7334 724.745 -41.356 764.071 -19.8148 805.816L-20.8817 806C-42.4135 764.274 -51.8089 724.967 -52.9649 687.251C-54.0865 687.493 -55.202 687.736 -56.3118 687.982C-56.92 724.936 -48.6118 763.843 -26.9514 805.816L-28.0178 806C-49.666 764.048 -58.003 725.161 -57.4358 688.227C-58.5404 688.474 -59.63 688.728 -60.7238 688.979C-63.0981 725.133 -55.8672 763.613 -34.0874 805.816L-35.1548 806C-56.9172 763.826 -64.1843 725.37 -61.8657 689.241C-62.9345 689.49 -63.9953 689.74 -65.0537 689.994C-69.2332 725.333 -63.1273 763.373 -41.2259 805.816L-42.2914 806C-64.1744 763.596 -70.32 725.585 -66.2117 690.272C-67.2569 690.524 -68.3035 690.775 -69.3374 691.032C-75.3557 725.541 -70.3921 763.131 -48.3653 805.816L-49.4313 806C-71.4322 763.366 -76.4523 725.809 -70.5227 691.333C-71.5387 691.588 -72.5547 691.843 -73.5584 692.103C-81.4498 725.762 -77.6541 762.888 -55.5018 805.816L-56.5683 806C-78.6903 763.131 -82.5526 726.042 -74.7663 692.415C-75.7564 692.675 -76.73 692.939 -77.7088 693.203C-87.5138 725.993 -84.9175 762.642 -62.6375 805.816L-63.7039 806C-85.9457 762.9 -88.6297 726.293 -78.9605 693.538C-79.9166 693.799 -80.8586 694.065 -81.802 694.33C-93.5585 726.233 -92.186 762.392 -69.7778 805.816L-70.8438 806C-93.2044 762.669 -94.6819 726.56 -83.0952 694.695C-84.007 694.955 -84.9194 695.215 -85.8199 695.48C-99.5682 726.479 -99.4551 762.136 -76.9139 805.816L-77.9808 806C-100.458 762.441 -100.72 726.842 -87.1871 695.888C-88.0466 696.145 -88.9131 696.398 -89.7632 696.659C-105.55 726.733 -106.727 761.874 -84.0509 805.816L-85.1174 806C-107.717 762.206 -106.712 727.135 -91.1946 697.107C-92.022 697.365 -92.8447 697.627 -93.6622 697.889C-111.512 727.014 -113.995 761.621 -91.1894 805.816L-92.2535 806C-114.97 761.98 -112.7 727.449 -95.1756 698.372C-95.9441 698.623 -96.6932 698.882 -97.4523 699.137C-117.425 727.296 -121.273 761.353 -98.3273 805.816L-99.3933 806C-122.22 761.765 -118.654 727.798 -99.102 699.692C-99.8049 699.933 -100.501 700.178 -101.195 700.423C-123.324 727.592 -128.547 761.086 -105.463 805.816L-106.53 806C-129.462 761.56 -124.584 728.178 -102.991 701.064C-103.601 701.285 -104.223 701.502 -104.828 701.726C-129.178 727.887 -135.827 760.805 -112.6 805.816L-113.667 806C-136.69 761.384 -130.518 728.605 -106.887 702.51C-107.392 702.701 -107.9 702.891 -108.398 703.085C-134.999 728.213 -143.109 760.53 -119.74 805.816L-120.806 806C-143.905 761.237 -136.433 729.091 -110.786 704.034C-111.17 704.189 -111.553 704.345 -111.935 704.501C-140.805 728.569 -150.381 760.269 -126.877 805.816L-127.943 806C-151.09 761.143 -142.343 729.663 -114.736 705.669C-114.93 705.752 -115.122 705.837 -115.314 705.921C-146.551 728.91 -157.669 759.977 -134.013 805.816L-135.08 806C-158.051 761.483 -148.445 730.832 -119.525 707.977C-152.487 729.819 -164.741 760.101 -141.151 805.816L-142.216 806C-164.704 762.422 -154.861 732.791 -125.615 711.125C-158.919 731.77 -171.397 761.037 -148.29 805.816L-149.356 806C-171.341 763.393 -161.34 734.758 -131.925 714.217C-165.408 733.731 -178.034 762.008 -155.426 805.816L-156.493 806C-181.435 757.667 -163.859 728.121 -122.752 708.398C-120.781 707.267 -118.73 706.17 -116.634 705.09C-114.721 703.914 -112.762 702.756 -110.727 701.63C-108.895 700.421 -106.991 699.239 -105.045 698.075C-103.235 696.789 -101.377 695.521 -99.4556 694.279C-97.7465 692.969 -95.9832 691.68 -94.1714 690.409C-92.4859 689.005 -90.7438 687.623 -88.9537 686.259C-87.3757 684.834 -85.7585 683.423 -84.0877 682.031C-82.5497 680.51 -80.9505 679.01 -79.3183 677.521C-77.8497 675.93 -76.3406 674.351 -74.7833 672.79C-73.4392 671.184 -72.0573 669.591 -70.6335 668.012C-69.344 666.299 -68.0018 664.602 -66.6336 662.916C-65.4153 661.107 -64.1579 659.313 -62.8628 657.529C-61.7459 655.662 -60.6003 653.803 -59.4127 651.956C-58.4061 650.043 -57.375 648.137 -56.3047 646.241C-55.3943 644.242 -54.4589 642.251 -53.4868 640.269C-52.6801 638.191 -51.8471 636.118 -50.9852 634.054C-50.2841 631.888 -49.5614 629.727 -48.8056 627.573C-48.2351 625.394 -47.635 623.221 -47.0178 621.052C-46.5417 618.706 -46.0367 616.365 -45.5125 614.028C-45.1612 611.641 -44.7864 609.258 -44.3904 606.878C-38.1812 540.276 -16.7917 475.737 4.43501 411.703C32.3302 327.564 59.933 244.298 52.382 158.392C-7.17764 110.652 -76.3999 58.1632 -156.394 0.400085L-155.529 0C-75.9709 57.4481 -7.08099 109.678 52.267 157.223C52.1746 156.2 52.0713 155.176 51.9671 154.151C-5.36392 107.645 -72.0554 56.5752 -149.259 0.400085L-148.39 0C-71.6278 55.853 -5.2682 106.66 51.8516 152.966C51.7432 151.941 51.6225 150.915 51.5056 149.888C-3.58414 104.621 -67.7311 54.9747 -142.122 0.398804L-141.249 0.00158691C-67.3182 54.2386 -3.50871 103.61 51.3608 148.665C51.2387 147.645 51.1293 146.625 50.9969 145.604C-1.83499 101.58 -63.43 53.362 -134.986 0.397156L-134.112 0.00244141C-63.0368 52.6119 -1.78459 100.545 50.8219 144.343C50.6852 143.313 50.5371 142.284 50.3896 141.253C-0.158035 98.4922 -59.1835 51.7167 -127.85 0.395874L-126.972 0.00354004C-58.7941 50.9587 -0.109482 97.4435 50.2104 139.97C50.0567 138.935 49.8908 137.9 49.7277 136.865C1.48505 95.3804 -54.9785 50.0469 -120.717 0.394531L-119.834 0.00494385C-54.6122 49.2672 1.50957 94.2947 49.5113 135.526C49.3486 134.524 49.1958 133.523 49.0233 132.52C3.07057 92.2811 -50.7283 48.4172 -113.58 0.393311L-112.692 0.00610352C-50.3676 47.6268 3.05547 91.1602 48.7687 131.134C48.5867 130.11 48.3981 129.085 48.2053 128.06C4.59105 89.1091 -46.5775 46.7194 -106.446 0.392517L-105.554 0.00720215C-46.2149 45.9239 4.5722 87.9725 47.9474 126.649C47.7489 125.623 47.533 124.595 47.3237 123.568C6.06345 85.9123 -42.4564 45.0054 -99.3117 0.389587L-98.415 0.00964355C-42.1122 44.1917 6.00734 84.7346 47.0215 122.098C46.8079 121.081 46.6009 120.065 46.3784 119.047C7.4901 82.692 -38.3646 43.2767 -92.1747 0.387939L-91.2738 0.0109253C-38.0397 42.4404 7.392 81.4645 46.0262 117.505C45.7984 116.49 45.5693 115.476 45.3303 114.461C8.83752 79.4226 -34.3198 41.5195 -85.0405 0.385742L-84.1343 0.013855C-33.9993 40.6729 8.72534 78.1685 44.9612 112.876C44.716 111.86 44.4482 110.841 44.1927 109.824C10.1171 76.1136 -30.3152 39.7385 -77.9039 0.382812L-76.9945 0.0162964C-30.0168 38.8666 9.96101 74.8029 43.7716 108.155C43.5184 107.176 43.261 106.196 42.9975 105.216C11.3391 72.8145 -26.305 37.9764 -70.773 0.381165L-69.8542 0.0184937C-26.0758 37.0317 11.126 71.3876 42.4893 103.369C42.2309 102.432 41.9819 101.495 41.7137 100.557C12.497 69.476 -22.3395 36.1876 -63.6374 0.376709L-62.7105 0.0220947C-22.1429 35.1976 12.2212 67.9545 41.13 98.5679C40.8608 97.6507 40.5831 96.7325 40.3045 95.8145C13.5583 66.0753 -18.4329 34.361 -56.5037 0.374268L-55.5721 0.0249634C-18.2576 33.3361 13.2396 64.4749 39.6732 93.7058C39.3969 92.8163 39.0975 91.9255 38.8118 91.0357C14.5578 62.6455 -14.5697 32.5126 -49.3728 0.369446L-48.4284 0.0302734C-14.45 31.412 14.1325 60.882 38.0504 88.6858C37.7784 87.8596 37.5078 87.0334 37.2272 86.2063C15.4913 59.1763 -10.7514 30.6394 -42.2382 0.364258L-41.2848 0.0346069C-10.7094 29.4336 14.9203 57.1941 36.2947 83.5314C36.0321 82.7828 35.778 82.0342 35.5097 81.2846C16.3225 55.6372 -7.0018 28.7236 -35.1082 0.359009L-34.1412 0.0397949C-7.05365 27.3774 15.5738 53.3612 34.3669 78.1715C34.1302 77.5319 33.8912 76.8917 33.6493 76.251C17.041 52.0137 -3.31685 26.7605 -27.9768 0.352234L-26.9976 0.0475464C-3.52051 25.1894 16.026 49.2755 32.1906 72.4452C32.044 72.0709 31.8898 71.6956 31.7408 71.3215C17.7157 48.4507 0.374741 24.8317 -20.8468 0.342712L-19.8544 0.0565796C-0.382904 22.5267 15.818 44.2629 29.2029 65.3633C17.8788 44.1797 3.73676 22.5303 -13.7183 0.331726L-12.7037 0.067688C2.25964 19.0992 14.7893 37.7272 25.2087 56.0044C16.8171 37.6258 6.32744 19.075 -6.58928 0.318054L-5.5591 0.081665C9.79886 22.3801 21.7439 44.3875 30.7955 66.1575C32.6842 69.7119 34.5059 73.2559 36.2386 76.7849C38.4681 80.5518 40.5765 84.2906 42.6345 88.0182C45.1144 91.8801 47.5165 95.7208 49.8078 99.5309C52.5946 103.578 55.2985 107.599 57.8675 111.579C60.826 115.664 63.6448 119.702 66.3935 123.716C69.4792 127.8 72.4678 131.851 75.3508 135.863C78.7298 140.16 82.0093 144.419 85.1554 148.627C88.7767 153.088 92.2386 157.487 95.6063 161.848C99.1319 166.084 102.548 170.275 105.849 174.419C109.458 178.649 112.97 182.838 116.357 186.976C120.765 192.008 124.959 196.949 129.037 201.839C132.921 206.217 136.69 210.543 140.33 214.814C144.237 219.142 148.028 223.417 151.705 227.641C156.318 232.663 160.794 237.624 165.101 242.506C169.45 247.182 173.665 251.794 177.734 256.339C182.182 261.063 186.504 265.727 190.665 270.316C195.257 275.136 199.724 279.896 204.017 284.575C208.525 289.268 212.922 293.907 217.157 298.467C221.632 303.079 225.988 307.634 230.198 312.117C234.734 316.743 239.119 321.296 243.387 325.791C414.491 498.647 395.239 577.368 305.949 618.67C248.526 645.23 162.193 656.282 78.9 666.943C36.0745 672.425 -5.93536 677.808 -42.7785 685.143C-38.2863 724.397 -26.8476 764.523 -5.53885 805.816L-6.60527 806Z" fill="url(#paint0_linear_78_2766)" fill-opacity="0.3"/>
<defs>
<linearGradient id="paint0_linear_78_2766" x1="-148.131" y1="806" x2="188.208" y2="-61.52" gradientUnits="userSpaceOnUse">
<stop stop-color="#4AFB62"/>
<stop offset="0.333333" stop-color="#96FB4A" stop-opacity="0.25"/>
<stop offset="0.666667" stop-color="#96FB4A" stop-opacity="0.9"/>
<stop offset="1" stop-color="#96FB4A" stop-opacity="0.21"/>
</linearGradient>
</defs>
</svg>
